<?xml version="1.0" encoding="iso-8859-1"?>
<!-- Generator: Adobe Illustrator 18.0.0, SVG Export Plug-In . SVG Version: 6.00 Build 0)  -->
<!DOCTYPE svg PUBLIC "-//W3C//DTD SVG 1.1//EN" "http://www.w3.org/Graphics/SVG/1.1/DTD/svg11.dtd">
<svg version="1.1" id="Capa_1" xmlns="http://www.w3.org/2000/svg" xmlns:xlink="http://www.w3.org/1999/xlink" x="0px" y="0px"
	 viewBox="0 0 448 448" style="enable-background:new 0 0 448 448;" xml:space="preserve">
<g>
	<circle cx="214.827" cy="271.988" r="5.906"/>
	<path d="M348.265,319.612c2.235-1.173,4.198-2.688,6.034-4.523c4.775-4.774,7.35-11.12,7.35-17.867
		c0-6.748-2.656-13.091-7.43-17.859c0,0-82.925-83.356-84.019-84.324c11.714-11.945,18.432-28.08,18.656-45.088
		c8.639-1.879,15.141-9.601,15.141-18.78c0-9.182-6.511-16.906-15.153-18.781c-0.134-8.042-1.622-15.713-4.433-22.883
		c6.01-1.828,12-3.932,17.957-6.331l-3.205-7.421c-6.326,2.548-12.29,4.758-19.29,6.635V42.584C279.873,19.1,261.199,0,237.714,0
		h-27.942c-23.485,0-42.899,19.1-42.899,42.584v37.481c-6-2.286-12.495-4.942-18.634-7.992l-3.482,7.164
		c6.117,3.04,12.399,5.706,18.74,8.02c-3.571,8.082-5.486,16.732-5.627,25.314c-8.318,2.148-14.386,9.697-14.386,18.599
		c0,8.903,6.085,16.453,14.404,18.6c0.186,17.021,7.107,33.318,19.184,45.467c-2.198,2.93-83.336,84.124-83.336,84.124
		c-9.844,9.845-9.845,25.871,0,35.727c4.923,4.922,11.389,7.384,17.859,7.383c6.468-0.001,12.94-2.461,17.868-7.383l24.412-24.411
		V345h20v71h-0.297c-15.666,0-28.703,12.335-28.703,28v4h158v-4c0-15.665-13.038-28-28.703-28h-0.297v-71h20v-54.513l24.602,24.601
		c1.383,1.383,2.652,2.579,4.271,3.59c-5.21,3.728-8.872,9.814-8.872,16.695V344h8v-8.626c0-6.912,6.088-12.536,13-12.536
		c6.912,0,13,5.624,13,12.536V448h8V335.374C355.873,329.046,352.779,323.382,348.265,319.612z M288.873,120.738
		c4.159,1.644,7.12,5.703,7.12,10.432c0,4.729-2.96,8.787-7.12,10.432V120.738z M157.873,141.286
		c-3.786-1.811-6.38-5.675-6.38-10.117c0-4.442,2.594-8.305,6.38-10.117V141.286z M173.873,440H153.56
		c1.864-9.346,10.131-16,20.017-16h0.297V440z M280.849,112.67c-9.074-1.989-16.352-8.842-18.95-17.666
		c4.932-0.914,9.863-2.018,14.786-3.313C279.353,98.222,280.743,105.262,280.849,112.67z M174.873,42.584
		C174.873,23.511,190.699,8,209.772,8h27.942c19.073,0,34.159,15.511,34.159,34.584V69.58c-32,8.16-66,7.529-97-1.83V42.584z
		 M174.873,76.087c17,4.78,33.717,7.183,51.185,7.183c15.214,0,30.815-1.834,45.815-5.472v6.754c-32,8.228-66,7.608-97-1.825V76.087
		z M171.143,89.838c5.166,1.63,10.392,3.023,15.669,4.182c-2.471,9.851-10.719,17.451-20.921,18.962
		C165.976,105.035,167.735,97.266,171.143,89.838z M165.873,149.07v-28.023c14.09-1.57,25.572-11.945,28.794-25.465
		c10.446,1.818,21.062,2.731,31.766,2.731c9.13,0,18.325-0.671,27.531-1.997c3.314,12.618,13.853,22.357,26.908,24.498v28.256
		c0,16.656-7.085,32.429-19.438,43.274c-10.496,9.206-23.91,14.277-37.772,14.277c-14.023,0-27.527-5.07-38.021-14.276
		C173.079,181.314,165.873,165.542,165.873,149.07z M206.508,224.772l8.701,19.143l-20.499-6.504L206.508,224.772z M187.559,222.918
		l0.14-18.997c3.836,2.508,7.917,4.595,12.169,6.243l6.241,13.73L187.559,222.918z M210.027,213.181
		c4.451,0.941,9.016,1.439,13.634,1.439c4.718,0,9.388-0.526,13.939-1.527l-13.244,31.61L210.027,213.181z M241.337,224.878
		l11.698,12.533l-19.548,6.202L241.337,224.878z M241.751,223.888l5.798-13.839c4.37-1.727,8.561-3.923,12.494-6.57l0.143,19.438
		L241.751,223.888z M123.806,309.43c-6.736,6.728-17.689,6.729-24.413,0.003c-6.727-6.735-6.728-17.688-0.002-24.415l9.108-9.108
		l24.893,23.934L123.806,309.43z M153.873,247.73v31.633l-14.824,14.824l-24.893-23.934l42.52-42.52
		C154.828,234.124,153.873,240.835,153.873,247.73z M161.873,337v-89.27c0-13.687,4.193-26.547,12.125-37.186
		c1.84-2.464,3.732-4.692,5.701-6.723l-0.196,26.684l10.21,0.538l-9.488,10.166l39.443,12.514l8.487,18.67L199.219,337H161.873z
		 M219.873,440h-38v-24.41V345h38V440z M207.985,337l16.294-36.38l15.53,36.38H207.985z M265.873,415.59V440h-38v-95h38V415.59z
		 M274.17,424c9.886,0,18.153,6.654,20.017,16h-20.313v-16H274.17z M285.873,337h-37.492l0.106-0.045l-19.755-46.279l8.2-18.308
		l-8.601-18.699l39.191-12.46l-9.488-10.166l10.21-0.538l-0.195-26.473c1.401,1.424,2.758,2.953,4.141,4.679
		c8.952,11.104,13.684,24.597,13.684,39.019V337z M293.873,279.173V247.73c0-6.952-1.035-13.828-3.015-20.396l43.885,43.891
		l-24.889,23.929L293.873,279.173z M336.333,314.485c-4.61,0-8.943-1.794-12.202-5.054l-8.619-8.619l24.888-23.929l8.136,8.137
		c3.263,3.259,5.059,7.592,5.059,12.201c0,4.61-1.797,8.947-5.061,12.21C345.276,312.69,340.943,314.485,336.333,314.485z"/>
	<g>
		<circle cx="197.709" cy="138.783" r="9.449"/>
		<circle cx="250.466" cy="138.783" r="9.449"/>
	</g>
	<rect x="216.754" y="158.426" width="14.667" height="8.574"/>
</g>
<g>
</g>
<g>
</g>
<g>
</g>
<g>
</g>
<g>
</g>
<g>
</g>
<g>
</g>
<g>
</g>
<g>
</g>
<g>
</g>
<g>
</g>
<g>
</g>
<g>
</g>
<g>
</g>
<g>
</g>
</svg>
