<?xml version="1.0" encoding="iso-8859-1"?>
<!-- Generator: Adobe Illustrator 18.0.0, SVG Export Plug-In . SVG Version: 6.00 Build 0)  -->
<!DOCTYPE svg PUBLIC "-//W3C//DTD SVG 1.1//EN" "http://www.w3.org/Graphics/SVG/1.1/DTD/svg11.dtd">
<svg version="1.1" id="Capa_1" xmlns="http://www.w3.org/2000/svg" xmlns:xlink="http://www.w3.org/1999/xlink" x="0px" y="0px"
	 viewBox="0 0 456.089 456.089" style="enable-background:new 0 0 456.089 456.089;" xml:space="preserve">
<g>
	<rect x="264.06" y="270.089" width="22" height="8"/>
	<g>
		<path d="M359.276,287.591l-84.406-84.367c11.724-12.037,18.424-28.171,18.573-45.069c8.456-2.043,14.635-9.61,14.635-18.655
			c0-9.051-6.18-16.622-14.637-18.666c-0.143-12.187-3.679-24.02-10.124-34.208c17.707-6.623,26.681-17.585,26.681-32.647
			c0-14.761-8.786-28.508-24.74-38.71C269.859,5.423,249.467,0,227.838,0c-21.633,0-42.028,5.423-57.428,15.27
			c-15.955,10.201-24.742,23.949-24.742,38.71c0,15.116,9.043,26.102,26.885,32.719c-6.407,10.159-9.926,21.947-10.077,34.089
			c-8.493,1.986-14.888,9.683-14.888,18.712c0,9.024,6.393,16.716,14.885,18.701c0.16,16.964,6.855,32.903,18.719,45.067
			L96.83,287.591c-4.77,4.77-7.397,11.112-7.397,17.858c0,6.747,2.627,13.089,7.398,17.86c4.922,4.916,11.386,7.374,17.851,7.374
			c6.465,0,12.731-2.458,17.654-7.374l24.724-24.906v54.685h21v103h99v-103h21v-54.875l25.312,25.097
			c4.922,4.916,11.486,7.374,17.951,7.374c6.465,0,12.98-2.458,17.902-7.374c4.776-4.77,7.431-11.113,7.43-17.861
			C366.655,298.702,364.051,292.359,359.276,287.591z M293.06,129.262c4,1.748,6.62,5.669,6.62,10.238
			c0,4.564-2.62,8.482-6.62,10.229V129.262z M162.06,149.813c-4-1.712-6.87-5.714-6.87-10.313c0-4.603,2.87-8.608,6.87-10.322
			V149.813z M153.668,53.98c0-25.354,33.272-45.98,74.17-45.98c40.892,0,73.961,20.626,73.961,45.98
			c0,12.044-7.739,20.525-23.739,25.881V58.789l-0.042-2.951c0,0-2.677-0.969-3.365-1.152c-30.686-8.166-63.411-8.433-94.027,0.067
			l-3.565,0.949V79.93c0,0.003,0.194,0.006,0.192,0.008C161.268,74.586,153.668,66.081,153.668,53.98z M185.06,84.089v-3h85v3
			H185.06z M264.093,92.089c-10.805,6-23.327,10.38-36.26,10.38c-12.932,0-25.455-4.38-36.26-10.38H264.093z M185.06,73.089V61.804
			c28-7.265,57-7.262,85,0.012v11.273H185.06z M170.06,157.58V121.6c0-10.419,3.028-20.568,8.29-29.399
			c13.786,11.618,31.276,17.998,49.384,17.998c18.18,0,35.486-6.433,49.297-18.139c5.316,8.864,8.029,19.065,8.029,29.539v35.98
			c0,16.466-6.889,32.165-19.25,43.073c-10.498,9.278-23.912,14.387-37.951,14.387c-14.048,0-27.526-5.123-38.04-14.426
			c0,0-2.098-1.761-2.747-2.403C176.214,187.354,170.06,172.923,170.06,157.58z M211.974,257.225l11.467,28.699L206.9,272.438
			L211.974,257.225z M197.257,252.497l-1.367-35.528l13.746,34.403L197.257,252.497z M207.542,224.572l14.759,14.758l-6.332,6.332
			L207.542,224.572z M216.271,221.987c3.826,0.696,7.734,1.053,11.687,1.053c3.945,0,7.853-0.358,11.683-1.05l-11.684,11.684
			L216.271,221.987z M248.414,224.531l-8.446,21.153l-6.354-6.354L248.414,224.531z M244.053,257.028l5.14,15.41l-16.744,13.651
			L244.053,257.028z M246.317,251.359l13.903-34.819l-1.383,35.957L246.317,251.359z M126.882,317.65
			c-6.726,6.718-17.67,6.719-24.395,0.001c-3.259-3.259-5.053-7.592-5.053-12.202c0-4.609,1.795-8.943,5.053-12.201l9.103-9.098
			l24.886,23.913L126.882,317.65z M157.06,255.98v31.113l-15.125,15.314l-24.787-23.913l4.166-4.114l7.922,7.892l5.668-5.658
			l-7.888-7.889l4.581-4.576l7.899,7.893l5.656-5.658l-7.894-7.89l23.151-23.339C158.335,241.829,157.06,248.823,157.06,255.98z
			 M165.06,345.089V255.98c0-13.35,4.323-26.117,12.28-36.808c4.606-6.189,10.026-10.246,10.138-10.158l2.059,52.212l13.039-1.182
			l-5.474,15.104l25.958,21.519v48.421h-44.342H165.06z M186.849,448.089c1.764-9,9.321-14.74,18.349-14.74
			c9.029,0,16.585,5.74,18.349,14.74H186.849z M224.06,433.1c-5-4.765-11.837-7.67-19.17-7.67c-7.165,0-13.83,2.777-18.83,7.348
			v-79.69h38V433.1z M219.199,253.746l8.759-8.759l8.782,8.783l-8.763,21.947L219.199,253.746z M232.06,448.089v-0.597
			c2-8.447,9.367-14.103,18.159-14.103c9.029,0,16.564,5.699,18.328,14.699H232.06z M269.06,433.28c-5-4.871-11.485-7.85-18.91-7.85
			c-7.016,0-14.09,2.662-18.09,7.064v-79.405h37V433.28z M290.06,345.089h-12.862H231.06v-48.277l27.021-21.664l-4.813-15.104
			l13.126,1.182l2.067-52.262c0.051-0.04,0.132-0.078,0.182-0.119c3.928,3.2,9.071,9.794,9.071,9.794
			c8.202,10.837,12.346,23.738,12.346,37.341V345.089z M298.06,286.904V255.98c0-7.316-0.92-14.404-3.083-21.148l24.629,24.518
			l-6.988,7.033l5.68,5.658l7.053-7.036l4.584,4.575l-7.034,7.033l5.657,5.658l7.041-7.035l3.35,3.348l-25.086,23.913
			L298.06,286.904z M353.622,317.65c-6.727,6.718-17.671,6.718-24.396,0.001l-9.503-9.497l24.886-23.913l9.013,9.009
			c3.262,3.258,5.059,7.591,5.059,12.2C358.681,310.058,356.884,314.391,353.622,317.65z"/>
		<circle cx="246.416" cy="303.595" r="7.617"/>
		<circle cx="246.416" cy="327.217" r="7.617"/>
		<circle cx="201.455" cy="147.191" r="9.449"/>
		<circle cx="254.212" cy="147.191" r="9.449"/>
		<path d="M228.557,42.089c5.213,0,9.647-3,11.3-8h8.203v-8h-8.203c-1.653-5-6.087-8-11.3-8c-5.213,0-9.647,3-11.3,8H207.06v8
			h10.197C218.909,39.089,223.344,42.089,228.557,42.089z M228.557,26.17c2.206,0,4,1.794,4,4c0,2.205-1.794,4-4,4
			c-2.206,0-4-1.794-4-4C224.557,27.964,226.351,26.17,228.557,26.17z"/>
	</g>
</g>
<g>
</g>
<g>
</g>
<g>
</g>
<g>
</g>
<g>
</g>
<g>
</g>
<g>
</g>
<g>
</g>
<g>
</g>
<g>
</g>
<g>
</g>
<g>
</g>
<g>
</g>
<g>
</g>
<g>
</g>
</svg>
