<?xml version="1.0" encoding="iso-8859-1"?>
<!-- Generator: Adobe Illustrator 18.0.0, SVG Export Plug-In . SVG Version: 6.00 Build 0)  -->
<!DOCTYPE svg PUBLIC "-//W3C//DTD SVG 1.1//EN" "http://www.w3.org/Graphics/SVG/1.1/DTD/svg11.dtd">
<svg version="1.1" id="Capa_1" xmlns="http://www.w3.org/2000/svg" xmlns:xlink="http://www.w3.org/1999/xlink" x="0px" y="0px"
	 viewBox="0 0 457.536 457.536" style="enable-background:new 0 0 457.536 457.536;" xml:space="preserve">
<g>
	<path d="M359.007,268.387c0,0-76.774-76.942-77.221-77.459c15.845-12.08,27.48-29.407,32.294-49.367
		c10.711-2.494,18.478-12.04,18.478-23.316c0-10.265-6.577-19.282-16.03-22.6v-7.668C316.529,39.466,277.063,0,228.553,0
		c-48.51,0-87.977,39.466-87.977,87.977v7.668c-9.458,3.317-16.038,12.334-16.038,22.6c0,11.277,7.77,20.822,18.486,23.316
		c4.812,19.954,16.443,37.277,32.281,49.357c-1.015,1.176-76.765,77.47-76.765,77.47c-4.769,4.77-7.396,11.111-7.396,17.857
		c0,6.747,2.627,13.089,7.396,17.858c4.775,4.775,11.12,7.405,17.867,7.405c6.748,0,13.092-2.631,17.86-7.405l24.032-24.032v53.904
		h7.14l0,123.562h126.23l0.001-123.562h7.14v-54.343l24.471,24.471c4.775,4.775,11.12,7.404,17.867,7.404
		c6.749,0,13.092-2.63,17.86-7.404C368.854,294.256,368.854,278.233,359.007,268.387z M313.702,234.395l11.247,11.247
		c-0.919,0.318-1.891,0.493-2.89,0.493c-4.88,0-8.85-3.966-8.85-8.84C313.209,236.291,313.384,235.317,313.702,234.395z
		 M324.559,118.244c0,6.214-3.538,11.639-8.793,14.273c0.501-3.791,0.763-7.657,0.763-11.583v-16.54
		C321.371,107.18,324.559,112.409,324.559,118.244z M132.539,118.244c0-5.837,3.191-11.066,8.038-13.85v16.541
		c0,3.926,0.262,7.792,0.763,11.584C136.079,129.885,132.539,124.459,132.539,118.244z M148.576,120.935V87.977
		c0-44.1,35.877-79.977,79.977-79.977s79.976,35.877,79.976,79.977v32.958c0,44.1-35.877,79.977-79.976,79.977
		S148.576,165.034,148.576,120.935z M228.553,208.911c17.113,0,33.098-4.917,46.624-13.404c0.445,0.502,1.888,2.229,1.888,2.229
		c8.991,11.151,13.744,24.64,13.744,39.009v89.23h-124.51v-89.23c0-13.514,4.259-26.37,12.321-37.185
		c1.032-1.389,2.143-2.742,3.308-4.053C195.455,203.994,211.439,208.911,228.553,208.911z M144.899,237.295
		c0,4.874-3.965,8.84-8.84,8.84c-1.141,0-2.259-0.232-3.301-0.652l11.489-11.489C144.666,235.035,144.899,236.154,144.899,237.295z
		 M128.609,298.448c-3.259,3.263-7.592,5.06-12.201,5.06c-4.61,0-8.946-1.798-12.21-5.062c-3.259-3.259-5.054-7.592-5.054-12.202
		c0-4.609,1.795-8.942,5.054-12.201l9.109-9.109l24.888,23.929L128.609,298.448z M143.853,283.204l-24.888-23.929l7.899-7.899
		c2.718,1.769,5.908,2.759,9.194,2.759c9.286,0,16.84-7.555,16.84-16.84c0-3.287-0.99-6.478-2.758-9.195l10.903-10.903
		c-1.814,6.284-2.744,12.844-2.744,19.547v32.013L143.853,283.204z M224.549,333.975v38.88h-51.11v-38.88H224.549z M173.439,397.854
		h51.11v13.841c-6.16-7.341-15.327-11.968-25.554-11.968c-10.229,0-19.396,4.628-25.557,11.972V397.854z M224.219,429.515h-50.446
		c1.97-12.756,12.528-21.787,25.223-21.787S222.248,416.759,224.219,429.515z M232.887,429.515
		c1.97-12.756,12.528-21.787,25.223-21.787c12.695,0,23.253,9.031,25.223,21.787H232.887z M258.11,399.728
		c-10.231,0-19.401,4.63-25.561,11.977v-13.85h51.12v13.847C277.508,404.356,268.339,399.728,258.11,399.728z M283.669,389.854
		h-51.12v-9h51.12V389.854z M224.549,389.854h-51.11v-9h51.11V389.854z M173.438,438.302h51.111v11.234h-51.111V438.302z
		 M283.668,449.536h-51.119v-11.234h51.119V449.536z M283.669,372.854h-51.12v-38.88h51.12V372.854z M295.816,216.509l11.924,11.925
		c-1.638,2.64-2.532,5.677-2.532,8.862c0,9.285,7.559,16.84,16.85,16.84c3.18,0,6.213-0.894,8.851-2.532l8.644,8.644l-24.887,23.929
		l-15.858-15.858v-31.574C298.809,229.857,297.78,223.036,295.816,216.509z M353.349,298.447c-3.259,3.264-7.592,5.06-12.202,5.06
		s-8.946-1.797-12.21-5.061l-8.612-8.612l24.888-23.929l8.138,8.138C360.078,280.772,360.078,291.718,353.349,298.447z"/>
	<path d="M294.105,127.876V113.84c0-36.146-29.406-65.552-65.552-65.552s-65.552,29.406-65.552,65.552v14.036
		c0,2.236,0.469,7.863,0.538,8.403c4.137,32.191,31.715,57.149,65.014,57.149c33.04,0,60.435-24.575,64.901-56.403
		C293.534,136.451,294.105,130.234,294.105,127.876z M285.95,109.84c-2.851-5.412-6.365-10.259-10.505-14.419
		c-8.758-8.806-19.063-14.744-30.347-17.581V58.723C267.565,65.48,284.278,85.62,285.95,109.84z M237.099,56.926v19.461
		c-2.546-0.301-5.128-0.472-7.749-0.472c-3.484,0-6.905,0.281-10.251,0.796V57.078c3.078-0.511,6.233-0.79,9.454-0.79
		C231.457,56.288,234.309,56.509,237.099,56.926z M211.099,59.001v19.436c-17.113,4.841-31.48,16.34-39.963,31.67
		C172.681,86.095,189.009,66.049,211.099,59.001z M176.772,152.955c-5.639-11.603-5.533-25.278,0.229-36.821
		c9.61-19.253,29.559-32.22,52.349-32.22c15.288,0,29.266,5.93,40.425,17.149c4.547,4.568,8.191,9.971,10.914,16.16
		c5.042,11.459,5.086,24.587-0.409,35.835c-9.353,19.147-29.02,32.368-51.727,32.368
		C205.805,185.428,186.105,172.159,176.772,152.955z"/>
	<circle cx="202.174" cy="127.807" r="9.449"/>
	<circle cx="254.931" cy="127.807" r="9.449"/>
	<path d="M228.628,314.2c17.523,0,31.827-13.851,32.322-31.407c6.759-1.55,11.821-7.602,11.821-14.824v-18.966
		c0-8.393-6.828-15.22-15.22-15.22c-8.393,0-15.22,6.827-15.22,15.22v18.966c0,6.792,4.474,12.556,10.628,14.509
		c-0.32,13.681-11.107,23.722-24.331,23.722c-12.994,0-23.642-9.693-24.312-23.011h24.755V220.86h-44.613v62.329h11.858
		C197.013,300.558,211.236,314.2,228.628,314.2z M250.33,267.969v-18.966c0-3.982,3.239-7.22,7.22-7.22
		c3.982,0,7.22,3.238,7.22,7.22v18.966c0,3.981-3.239,7.221-7.22,7.221C253.569,275.19,250.33,271.95,250.33,267.969z
		 M192.458,228.86h28.613v46.329h-28.613V228.86z"/>
	<circle cx="182.883" cy="308.125" r="7.677"/>
	<circle cx="274.223" cy="308.125" r="7.677"/>
</g>
<g>
</g>
<g>
</g>
<g>
</g>
<g>
</g>
<g>
</g>
<g>
</g>
<g>
</g>
<g>
</g>
<g>
</g>
<g>
</g>
<g>
</g>
<g>
</g>
<g>
</g>
<g>
</g>
<g>
</g>
</svg>
