<?xml version="1.0" encoding="iso-8859-1"?>
<!-- Generator: Adobe Illustrator 18.0.0, SVG Export Plug-In . SVG Version: 6.00 Build 0)  -->
<!DOCTYPE svg PUBLIC "-//W3C//DTD SVG 1.1//EN" "http://www.w3.org/Graphics/SVG/1.1/DTD/svg11.dtd">
<svg version="1.1" id="Capa_1" xmlns="http://www.w3.org/2000/svg" xmlns:xlink="http://www.w3.org/1999/xlink" x="0px" y="0px"
	 viewBox="0 0 400.464 400.464" style="enable-background:new 0 0 400.464 400.464;" xml:space="preserve">
<circle cx="226.389" cy="90.756" r="9.449"/>
<path d="M103.092,320.81c-21.961,0-39.828,17.866-39.828,39.827s17.867,39.827,39.828,39.827c21.961,0,39.828-17.866,39.828-39.827
	S125.053,320.81,103.092,320.81z M103.092,392.464c-17.55,0-31.828-14.277-31.828-31.827s14.278-31.827,31.828-31.827
	s31.828,14.277,31.828,31.827S120.642,392.464,103.092,392.464z"/>
<g>
	<path d="M330.465,231.332c0,0-82.815-83.28-83.877-84.22c11.545-11.671,18.74-27.643,18.953-45.269
		c8.502-2.013,14.715-9.599,14.715-18.703c0-9.102-6.217-16.686-14.723-18.695C264.938,28.81,235.784,0,200.01,0
		c-35.775,0-64.929,28.811-65.524,64.446c-8.509,2.014-14.73,9.599-14.73,18.694c0,9.098,6.216,16.684,14.722,18.702
		c0.213,17.627,7.409,33.601,18.956,45.273c-3.104,2.749-83.438,84.219-83.438,84.219c-9.843,9.854-9.843,25.881,0.003,35.728
		c4.927,4.922,11.396,7.382,17.865,7.382c6.469,0,12.938-2.462,17.86-7.384l24.031-24.032v53.893h20.29v103.54h99.92V296.92h20.3
		v-54.333l24.471,24.472c4.925,4.925,11.395,7.388,17.863,7.388c6.469,0,12.938-2.463,17.864-7.388
		C340.31,257.214,340.31,241.188,330.465,231.332z M265.562,72.862c3.963,1.729,6.695,5.668,6.695,10.277
		c0,4.614-2.732,8.556-6.695,10.287V72.862z M134.458,93.424c-3.967-1.733-6.702-5.675-6.702-10.285
		c0-4.605,2.735-8.543,6.702-10.275V93.424z M142.458,101.041V67.04h15.628v-8h-15.25c0.309-2.728,0.8-5.401,1.478-8h19.772v-8
		h-17.039c2.867-6.719,6.978-12.781,12.039-17.906v8.906h8V18.389c3.123-2.186,6.468-4.073,10-5.613V40.04h8V9.974
		c3.544-0.953,7.223-1.569,11-1.825V45.04h8V8.16c3.778,0.266,7.456,0.894,11,1.857V40.04h8V12.845
		c3.534,1.553,6.879,3.452,10,5.653V34.04h8v-8.745c4.99,5.09,9.049,11.095,11.886,17.745h-17.886v8h20.619
		c0.678,2.599,1.169,5.272,1.478,8h-16.096v8h16.475v34.001c0,31.734-25.817,57.552-57.552,57.552
		C168.276,158.593,142.458,132.775,142.458,101.041z M229.785,159.411c-5.504,10.99-16.899,18.424-29.778,18.424
		c-12.879,0-24.27-7.434-29.771-18.424c8.942,4.58,19.057,7.182,29.774,7.182C210.728,166.593,220.844,163.991,229.785,159.411z
		 M129.757,231.713l-29.688,29.689c-6.727,6.726-17.679,6.725-24.413,0c-6.727-6.728-6.727-17.68-0.001-24.414l29.566-29.563
		l24.535,23.589V231.713z M129.757,219.916l-18.876-18.149l5.368-5.367l13.508,12.993V219.916z M129.783,198.319l-7.876-7.576
		l10.605-10.604C130.821,185.994,129.902,192.089,129.783,198.319z M158.421,392.46c1.731-8.466,9.415-15.399,18.61-15.399
		c9.195,0,16.879,6.934,18.61,15.399H158.421z M196.007,377.21c-4.878-4.943-11.583-8.15-18.976-8.15
		c-7.396,0-14.105,3.21-18.984,8.157V340.04h37.96V377.21z M196.007,332.04h-37.96v-7h37.96V332.04z M196.007,317.04h-37.96v-20.12
		h37.96V317.04z M204.38,392.46c1.731-8.466,9.415-15.399,18.61-15.399s16.879,6.934,18.61,15.399H204.38z M241.967,377.211
		c-4.878-4.943-11.584-8.151-18.977-8.151c-7.396,0-14.104,3.21-18.983,8.156V340.04h37.96V377.211z M241.967,332.04h-37.96v-7
		h37.96V332.04z M241.967,317.04h-37.96v-20.12h37.96V317.04z M262.267,288.92h-124.51V199.7c0-13.338,4.144-26.031,11.991-36.742
		c0,0,4.756-6.501,9.717-10.466c0.018,0.014,0.036,0.028,0.054,0.042c3.75,19.158,20.706,33.3,40.488,33.3
		c19.783,0,36.744-14.144,40.497-33.302c0.018-0.014,0.036-0.029,0.054-0.043c3.362,2.883,7.963,8.198,7.963,8.198
		c8.993,11.165,13.746,24.654,13.746,39.012V288.92z M267.269,179.456l13.185,13.184l-10.187,9.789V199.7
		C270.267,192.812,269.237,185.989,267.269,179.456z M270.267,213.525l15.846-15.226l4.597,4.596l-20.443,19.655V213.525z
		 M324.808,261.402c-6.73,6.729-17.682,6.729-24.413,0l-28.917-28.918l24.891-23.931l28.438,28.434
		C331.535,243.723,331.535,254.675,324.808,261.402z"/>
	<circle cx="173.632" cy="90.756" r="9.449"/>
	<polygon points="185.782,201.735 177.782,201.735 177.782,210.985 168.932,210.985 168.932,218.985 177.782,218.985 
		177.782,242.235 170.782,242.235 170.782,250.235 193.032,250.235 193.032,242.235 185.782,242.235 	"/>
	<polygon points="224.282,201.735 216.282,201.735 216.282,210.985 207.432,210.985 207.432,218.985 216.282,218.985 
		216.282,242.235 209.282,242.235 209.282,250.235 231.532,250.235 231.532,242.235 224.282,242.235 	"/>
</g>
<g>
</g>
<g>
</g>
<g>
</g>
<g>
</g>
<g>
</g>
<g>
</g>
<g>
</g>
<g>
</g>
<g>
</g>
<g>
</g>
<g>
</g>
<g>
</g>
<g>
</g>
<g>
</g>
<g>
</g>
</svg>
