<?xml version="1.0" encoding="iso-8859-1"?>
<!-- Generator: Adobe Illustrator 18.0.0, SVG Export Plug-In . SVG Version: 6.00 Build 0)  -->
<!DOCTYPE svg PUBLIC "-//W3C//DTD SVG 1.1//EN" "http://www.w3.org/Graphics/SVG/1.1/DTD/svg11.dtd">
<svg version="1.1" id="Capa_1" xmlns="http://www.w3.org/2000/svg" xmlns:xlink="http://www.w3.org/1999/xlink" x="0px" y="0px"
	 viewBox="0 0 421 421" style="enable-background:new 0 0 421 421;" xml:space="preserve">
<g>
	<circle cx="178.416" cy="111.805" r="9.449"/>
	<circle cx="231.173" cy="111.805" r="9.449"/>
	<circle cx="165.424" cy="201.702" r="5.906"/>
	<circle cx="165.424" cy="231.624" r="5.906"/>
	<circle cx="165.424" cy="261.546" r="5.906"/>
	<circle cx="165.424" cy="291.468" r="5.906"/>
	<circle cx="244.166" cy="201.702" r="5.906"/>
	<circle cx="244.166" cy="231.624" r="5.906"/>
	<circle cx="244.166" cy="261.546" r="5.906"/>
	<circle cx="244.166" cy="291.468" r="5.906"/>
	<path d="M358.5,329.517c0-8.107-5-15.238-12-18.403v-22.767c0-4.191-1.904-8.101-4.981-10.638
		c2.743-8.839,0.436-18.622-6.263-25.32c0,0-82.714-83.233-83.792-84.18c11.96-12.079,18.813-28.331,19.012-45.362
		c8.418-2.074,14.57-9.642,14.57-18.649c0-9.013-6.028-16.584-14.446-18.659c-0.211-13.404-4.1-26.165-12.1-37.046V0h-107v48.862
		c-8,10.667-11.68,23.261-11.9,36.594c-8.541,1.953-15.013,9.661-15.013,18.741c0,9.075,6.411,16.779,14.952,18.731
		c0.216,17.029,6.961,33.204,18.741,45.182c-3.594,3.173-83.489,84.279-83.489,84.279c-4.77,4.77-7.398,11.112-7.398,17.858
		c0,6.747,2.628,13.088,7.397,17.858c3.034,3.034,6.71,5.196,10.71,6.372V303h-23v92h53v-92h-22v-7.519
		c6-0.211,12.44-2.807,17.009-7.376l23.991-23.991V317h20v104h100V317h21v-52.926l22.197,22.196
		c-0.124,0.721-0.197,1.429-0.197,2.076v22.822c-7,3.204-12,10.3-12,18.348v30.98v28.54c0,8.934,6,16.523,14,19.231V419h8v-10h30v10
		h8v-10.998c8-2.91,13-10.303,13-18.966V329.517z M107.5,387h-37v-76h37V387z M305.5,292.542c4,1.934,7.672,2.96,11.888,2.96
		c6.747,0,13.09-2.627,17.86-7.397c0.872-0.873,1.664-1.811,2.394-2.791c0.538,0.894,0.858,1.944,0.858,3.033v21.147l-32.54,0.003
		l-0.46-0.003V292.542z M332.888,277.82c-0.831,1.712-1.941,3.27-3.3,4.629c-3.259,3.259-7.592,5.053-12.201,5.053
		c-4.609,0-8.943-1.794-12.209-5.061l-8.61-8.61l24.902-23.942l8.153,8.157C334.834,263.256,336.128,271.199,332.888,277.82z
		 M277.05,104.197c0,4.532-2.55,8.438-6.55,10.206V93.981C274.5,95.75,277.05,99.66,277.05,104.197z M159.5,39h91v8h-91V39z
		 M250.5,8v23h-91V8H250.5z M132.55,104.197c0-4.645,2.95-8.669,6.95-10.363v20.717C135.5,112.858,132.55,108.837,132.55,104.197z
		 M147.5,86.597c0-11.364,3.17-22.597,9.187-31.597h96.483c6.106,9,9.33,20.335,9.33,31.597v35.49
		c0,16.542-7.165,32.319-19.653,43.283c-10.496,9.207-23.987,14.277-37.987,14.277c-13.941,0-27.392-5.07-37.877-14.276
		C154.6,154.5,147.5,138.724,147.5,122.086V86.597z M104.848,282.448c-3.259,3.259-7.592,5.054-12.202,5.054
		c-4.609,0-8.942-1.794-12.202-5.054c-3.259-3.259-5.053-7.592-5.053-12.201s1.795-8.942,5.054-12.202l9.109-9.109l24.882,23.923
		L104.848,282.448z M120.096,267.202l-24.883-23.923l42.02-42.018c-1.808,6.268-2.733,12.807-2.733,19.487v32.053L120.096,267.202z
		 M142.5,220.747c0-13.501,4.267-26.356,12.346-37.179c2.743-3.681,5.908-7.05,9.419-10.06c4.388,3.475,9.236,6.347,14.236,8.577
		V309h-36V220.747z M200.5,317v81.014c-5-4.649-11.435-7.497-18.682-7.497c-7.568,0-14.318,3.105-19.318,8.126V317H200.5z
		 M200.326,413h-37.021c1.896-8,9.469-14.979,18.511-14.979C190.857,398.021,198.43,405,200.326,413z M209.263,413
		c1.896-8,9.469-14.979,18.511-14.979c9.042,0,16.615,6.979,18.511,14.979H209.263z M246.5,398.053
		c-5-4.673-11.456-7.536-18.723-7.536c-7.547,0-14.277,3.087-19.277,8.083V317h38V398.053z M267.5,309h-81V185.001
		c6,1.733,12.094,2.645,18.361,2.645c14.772,0,29.042-4.967,40.571-14.04c5.399,5.057,8.734,9.14,10.193,11.155
		c7.733,10.678,11.875,23.125,11.875,35.985V309z M272.549,200.943l43.265,43.286l-24.902,23.944L275.5,252.76v-32.013
		C275.5,214.042,274.482,207.369,272.549,200.943z M303.658,317.563c0.407-0.079,36.419-0.079,36.864,0.008
		c5.781,1.069,9.978,6.092,9.978,11.945v12.147c-3-2.563-7.614-4.664-12.188-4.664h-32.353c-4.699,0-9.459,2.181-12.459,4.871
		v-12.354C293.5,323.678,297.753,318.656,303.658,317.563z M338.536,401h-32.578c-6.852,0-12.459-5.606-12.459-12.459v-30.677
		c0-7.076,5.789-12.865,12.865-12.865h31.947c3.742,0,7.021,1.883,9.262,4.69c1.98,2.481,2.926,5.632,2.926,8.806v30.541
		C350.5,395.644,345.144,401,338.536,401z"/>
	<circle cx="322.032" cy="361.548" r="5.906"/>
</g>
<g>
</g>
<g>
</g>
<g>
</g>
<g>
</g>
<g>
</g>
<g>
</g>
<g>
</g>
<g>
</g>
<g>
</g>
<g>
</g>
<g>
</g>
<g>
</g>
<g>
</g>
<g>
</g>
<g>
</g>
</svg>
