<?xml version="1.0" encoding="iso-8859-1"?>
<!-- Generator: Adobe Illustrator 18.0.0, SVG Export Plug-In . SVG Version: 6.00 Build 0)  -->
<!DOCTYPE svg PUBLIC "-//W3C//DTD SVG 1.1//EN" "http://www.w3.org/Graphics/SVG/1.1/DTD/svg11.dtd">
<svg version="1.1" id="Capa_1" xmlns="http://www.w3.org/2000/svg" xmlns:xlink="http://www.w3.org/1999/xlink" x="0px" y="0px"
	 viewBox="0 0 403.604 403.604" style="enable-background:new 0 0 403.604 403.604;" xml:space="preserve">
<g>
	<path d="M332.037,231.342l-65.553-65.562c3.415-4.666,5.438-10.412,5.438-16.624c0-8.811-4.062-16.688-10.409-21.866
		c3.428-7.866,5.205-16.392,5.312-25.401c8.559-1.935,15.003-9.643,15.003-18.739c0-9.103-6.447-16.815-15.008-18.75
		c-0.289-17.167-7.007-33.181-19.024-45.198C235.414,6.819,218.947,0,201.428,0c-35.808,0-64.987,28.839-65.553,64.498
		c-8.398,2.089-14.537,9.66-14.537,18.652c0,8.986,6.136,16.55,14.532,18.641c0.101,8.867,1.981,17.473,5.607,25.642
		c-6.246,5.179-10.232,12.994-10.232,21.723c0,6.328,2.094,12.175,5.626,16.886L71.582,231.34c-4.776,4.77-7.406,11.113-7.406,17.86
		c0,6.748,2.63,13.09,7.404,17.858c4.772,4.773,11.115,7.402,17.858,7.402c6.744,0,13.086-2.628,17.858-7.401l24.917-24.909
		c1.682,45.811,6.749,91.472,15.078,135.439l4.631,26.015h98.794l4.187-22.819c8.89-45.134,14.337-91.674,16.212-138.282
		l25.197,24.908c9.814,9.802,25.84,9.708,35.725-0.177c4.766-4.767,7.391-11.146,7.391-17.941
		C339.428,242.492,336.803,236.108,332.037,231.342z M263.922,149.156c0,11.145-9.067,20.212-20.212,20.212
		c-11.145,0-20.212-9.067-20.212-20.212c0-11.145,9.067-20.212,20.212-20.212C254.855,128.944,263.922,138.011,263.922,149.156z
		 M159.805,95.268c2,6.965,8.292,12.089,15.88,12.089c9.153,0,16.559-7.446,16.559-16.599c0-9.153-7.386-16.599-16.539-16.599
		c-7.588,0-13.9,5.124-15.9,12.09v-4.341c0-23.125,18.875-41.938,42-41.938c23.125,0,42,18.813,42,41.938V86.2
		c-2-6.941-8.519-12.041-16.089-12.041c-9.153,0-16.669,7.446-16.669,16.599c0,9.152,7.552,16.599,16.705,16.599
		c7.57,0,14.053-5.1,16.053-12.04v25.632c-6,0.038-11.122,1.766-15.542,4.708c-0.317-0.667-1.473-2.493-1.473-2.493
		c-5.319-8.743-14.941-14.154-25.227-14.154c-10.354,0-20.061,5.535-25.365,14.455c-0.066,0.1-0.791,1.535-1.103,2.172
		c-4.414-2.93-10.289-4.651-15.289-4.688V95.268z M167.006,90.759c0-4.742,3.857-8.599,8.599-8.599c4.741,0,8.599,3.857,8.599,8.599
		c0,4.741-3.857,8.599-8.599,8.599C170.864,99.357,167.006,95.5,167.006,90.759z M236.173,90.759c0,4.741-3.857,8.599-8.599,8.599
		c-4.741,0-8.599-3.857-8.599-8.599c0-4.742,3.857-8.599,8.599-8.599C232.316,82.16,236.173,86.017,236.173,90.759z
		 M181.286,131.307c0.188-0.919,1.731-3.661,1.731-3.661c3.856-6.561,10.961-10.638,18.542-10.638
		c7.013,0,13.469,3.535,17.591,9.095c1.324,1.786,2.249,4.062,2.653,5.305c-3.938,4.851-6.304,11.028-6.304,17.749
		c0,2.586,0.357,5.089,1.012,7.47c-4.84,1.298-9.84,1.965-14.922,1.965c-5.087,0-10.09-0.667-14.931-1.965
		c0.655-2.381,1.011-4.884,1.011-7.47C187.669,142.389,185.272,136.173,181.286,131.307z M273.785,83.15
		c0,4.658-2.98,8.686-6.98,10.368V72.773C270.805,74.457,273.785,78.488,273.785,83.15z M258.805,65.55v35.49
		c0,7.843-1.281,15.249-4.104,22.085c-0.992-0.416-1.896-0.771-2.896-1.073V81.909c0-26.098-20-47.571-46-49.743V8.183
		c14,1.034,26.469,6.853,36.292,16.675C252.871,35.633,258.805,50.084,258.805,65.55z M129.295,83.15c0-4.517,2.51-8.42,6.51-10.199
		V93.34C131.805,91.562,129.295,87.663,129.295,83.15z M143.805,101.04V65.55c0-30.531,24-55.573,54-57.428v24.003
		c-26,1.918-46,23.505-46,49.784v40.144c-1,0.324-2.317,0.71-3.376,1.164C145.435,116.132,143.805,108.692,143.805,101.04z
		 M159.457,128.944c11.145,0,20.212,9.067,20.212,20.212c0,11.145-9.067,20.212-20.212,20.212c-11.145,0-20.212-9.067-20.212-20.212
		C139.244,138.011,148.312,128.944,159.457,128.944z M101.64,261.402c-3.262,3.262-7.595,5.058-12.202,5.058
		c-4.606,0-8.939-1.796-12.203-5.06c-3.263-3.259-5.06-7.591-5.06-12.2s1.797-8.941,5.062-12.202l9.106-9.108l24.885,23.926
		L101.64,261.402z M224.563,377.624c10.114,0,18.381,7.979,18.927,17.979h-37.854C206.182,385.604,214.449,377.624,224.563,377.624z
		 M159.677,395.604c0.546-10,8.813-17.979,18.927-17.979s18.382,7.979,18.927,17.979H159.677z M263.718,223.815l-0.278,9.195
		c-1.486,49.239-6.999,98.37-16.395,146.072l-0.317,1.709c-4.876-7.011-13.013-11.57-22.187-11.57
		c-7.263,0-13.736,2.861-18.736,7.529v-74.146h14v-8h-36v8h14v74.666c-5-4.976-11.693-8.049-19.223-8.049
		c-9.38,0-17.642,4.765-22.479,12.044l-0.951-5.329c-8.817-46.544-13.942-94.741-15.239-143.252l-0.247-9.298l-22.781,22.774
		l-24.886-23.927l50.521-50.529c4.72,3.554,10.585,5.664,16.935,5.664c10.101,0,18.974-5.339,23.959-13.34
		c5.878,1.695,11.974,2.563,18.173,2.563c6.193,0,12.286-0.868,18.163-2.563c4.984,8.001,13.858,13.34,23.959,13.34
		c6.465,0,12.424-2.191,17.187-5.862l51.686,51.694l-25.112,24.144L263.718,223.815z M326.38,261.552
		c-6.768,6.768-17.72,6.835-24.427,0.137l-8.796-8.713l25.084-24.117l8.139,8.141c3.255,3.255,5.048,7.617,5.048,12.281
		C331.428,253.938,329.635,258.296,326.38,261.552z"/>
	<path d="M221.993,192.856l-3.462-2.073l-11.719,19.969c-1.609-0.519-3.322-0.805-5.102-0.805c-1.711,0-3.361,0.261-4.916,0.741
		l-11.719-19.983l-3.455,2.04c-11.999,7.086-19.453,20.138-19.453,34.063c0,0.255,0.178,4.625,0.178,4.625l23.36-0.161
		c0.86,2.958,2.52,5.57,4.729,7.603l-11.74,20.339l3.499,1.99c5.92,3.367,12.669,5.146,19.516,5.146c6.928,0,13.74-1.816,19.7-5.252
		l3.468-1.999l-11.751-20.351c2.137-2.014,3.744-4.577,4.587-7.47l23.364,0.165c0,0,0.175-4.376,0.175-4.635
		C241.253,212.978,233.873,199.969,221.993,192.856z M210.387,226.624c0,4.784-3.893,8.677-8.677,8.677
		c-4.784,0-8.677-3.893-8.677-8.677c0-4.785,3.893-8.677,8.677-8.677C206.494,217.947,210.387,221.839,210.387,226.624z
		 M170.357,223.377c0.937-8.46,5.299-16.251,12.008-21.48l6.844,11.67c-2.741,2.602-4.626,6.012-5.366,9.718L170.357,223.377z
		 M189.779,256.014l6.772-11.734c3.402,1.001,7.117,0.98,10.499-0.056l6.766,11.718
		C206.257,259.082,197.374,259.112,189.779,256.014z M219.59,223.29c-0.713-3.669-2.534-7.009-5.228-9.598l6.851-11.674
		c6.618,5.233,10.922,12.979,11.851,21.366L219.59,223.29z"/>
</g>
<g>
</g>
<g>
</g>
<g>
</g>
<g>
</g>
<g>
</g>
<g>
</g>
<g>
</g>
<g>
</g>
<g>
</g>
<g>
</g>
<g>
</g>
<g>
</g>
<g>
</g>
<g>
</g>
<g>
</g>
</svg>
