<?xml version="1.0" encoding="iso-8859-1"?>
<!-- Generator: Adobe Illustrator 18.0.0, SVG Export Plug-In . SVG Version: 6.00 Build 0)  -->
<!DOCTYPE svg PUBLIC "-//W3C//DTD SVG 1.1//EN" "http://www.w3.org/Graphics/SVG/1.1/DTD/svg11.dtd">
<svg version="1.1" id="Capa_1" xmlns="http://www.w3.org/2000/svg" xmlns:xlink="http://www.w3.org/1999/xlink" x="0px" y="0px"
	 viewBox="0 0 397.409 397.409" style="enable-background:new 0 0 397.409 397.409;" xml:space="preserve">
<g>
	<circle cx="170.99" cy="90.642" r="9.449"/>
	<circle cx="223.747" cy="90.642" r="9.449"/>
	<circle cx="167.419" cy="206.424" r="6.037"/>
	<circle cx="226.326" cy="206.424" r="6.037"/>
	<rect x="156.683" y="244.409" width="81" height="8"/>
	<path d="M318.302,212.115l-56.414-56.424c-4.844-4.843-11.003-7.725-17.572-8.808c0.847-0.869,1.663-1.475,2.461-2.475h1.126
		c12.192,0,22.781-10.341,22.781-22.533v-9.787c9-1.863,16-10.063,16-19.873V80.143c0-9.809-7-18.01-16-19.873V38.834
		c0-12.426-10.779-22.425-23.204-22.425h-6.697C228.795,6.409,213.492,0,197.49,0c-15.966,0-31.247,6.409-43.233,16.409h-7.144
		c-12.626,0-22.43,10.162-22.43,22.788V60.27c-9,1.863-16,10.063-16,19.873v12.074c0,9.809,7,18.01,16,19.873v9.787
		c0,12.192,9.45,22.533,21.642,22.533h1.786c1.006,1,2.043,2.092,3.106,3.175c-5.385,1.471-10.371,4.239-14.368,8.236
		l-56.096,56.111c-16.171,1.734-28.808,15.436-28.808,32.061c0,17.794,14.477,32.26,32.271,32.26
		c17.11,0,31.342-13.392,32.397-30.24l23.069-23.561v48.659v69.299h8v57h100v-57h7V271.11v-49.076l26.652,26.009
		c2.01,15.877,15.493,28.198,31.907,28.198c17.794,0,32.222-14.477,32.222-32.271C345.464,227.931,333.652,214.593,318.302,212.115z
		 M270.683,68.553c5,1.664,8,6.225,8,11.59v12.074c0,5.365-3,9.926-8,11.59V68.553z M124.683,103.808c-5-1.664-8-6.225-8-11.59
		V80.143c0-5.365,3-9.926,8-11.59V103.808z M197.49,8c10.647,0,20.943,3.409,29.888,8.409h-59.721C176.594,11.409,186.87,8,197.49,8
		z M142.683,71.415v63.995c-6-1.729-10-7.142-10-13.534V39.197c0-8.215,6.215-14.788,14.43-14.788h100.366
		c8.015,0,15.204,6.41,15.204,14.425v83.043c0,6.392-5,11.805-10,13.534V71.415c0-8.248-7.49-15.006-15.738-15.006h-79.663
		C149.035,56.409,142.683,63.167,142.683,71.415z M150.683,71.415c0-3.836,2.763-7.006,6.599-7.006h79.663
		c3.836,0,7.738,3.17,7.738,7.006v63.351c-4,4.926-8.264,9.228-13.195,12.788c-9.838,7.148-21.697,10.926-33.924,10.926
		c-12.528,0-24.35-3.953-34.346-11.435c-4.752-3.55-8.536-7.921-12.536-13.302V71.415z M84.217,268.241
		c-13.383,0-24.271-10.888-24.271-24.271s10.888-24.271,24.271-24.271s24.271,10.888,24.271,24.271S97.6,268.241,84.217,268.241z
		 M115.379,235.592c-3.089-11.479-12.364-20.441-24.017-23.087l0.007-0.005l10.446-10.447l23.857,22.938L115.379,235.592z
		 M155.878,389.409c1.896-9,9.469-14.98,18.511-14.98c9.042,0,16.614,5.98,18.511,14.98H155.878z M193.683,373.836
		c-5-4.774-11.545-7.705-18.9-7.705c-7.455,0-15.1,3.009-19.1,7.897v-10.619h38V373.836z M193.683,355.409h-38v-15h38V355.409z
		 M201.837,389.409c1.896-9,9.469-14.98,18.511-14.98c9.042,0,16.614,5.98,18.511,14.98H201.837z M239.683,373.875
		c-5-4.797-11.566-7.744-18.941-7.744c-7.433,0-15.059,2.991-19.059,7.855v-10.577h38V373.875z M239.683,355.409h-38v-15h38V355.409
		z M246.683,332.409h-45v-25h12v-8h-12.394h-8h-12.606v8h13v25h-46v-64h99V332.409z M246.683,260.409h-99v-25h99V260.409z
		 M246.683,203.146v24.263h-99v-24.68l-16.241,16.532l-23.875-22.852h-0.049l35.015-34.975c4.5-4.5,10.396-7.025,16.715-7.025
		c0.009,0,0.019,0,0.028,0c11.152,8,24.287,12.146,38.092,12.146c13.604,0,26.593-4.156,37.631-11.933
		c7.775-1.297,15.66,1.176,21.23,6.746l33.42,33.416l-25.884,25.071L246.683,203.146z M269.326,225.413l25.982-24.981l11.833,11.835
		c-12.751,2.41-22.874,12.338-25.562,24.99L269.326,225.413z M313.143,268.241c-13.383,0-24.272-10.888-24.272-24.271
		s10.888-24.271,24.272-24.271c13.383,0,24.271,10.888,24.271,24.271S326.527,268.241,313.143,268.241z"/>
</g>
<g>
</g>
<g>
</g>
<g>
</g>
<g>
</g>
<g>
</g>
<g>
</g>
<g>
</g>
<g>
</g>
<g>
</g>
<g>
</g>
<g>
</g>
<g>
</g>
<g>
</g>
<g>
</g>
<g>
</g>
</svg>
