<?xml version="1.0" encoding="iso-8859-1"?>
<!-- Generator: Adobe Illustrator 18.0.0, SVG Export Plug-In . SVG Version: 6.00 Build 0)  -->
<!DOCTYPE svg PUBLIC "-//W3C//DTD SVG 1.1//EN" "http://www.w3.org/Graphics/SVG/1.1/DTD/svg11.dtd">
<svg version="1.1" id="Capa_1" xmlns="http://www.w3.org/2000/svg" xmlns:xlink="http://www.w3.org/1999/xlink" x="0px" y="0px"
	 viewBox="0 0 400.461 400.461" style="enable-background:new 0 0 400.461 400.461;" xml:space="preserve">
<g>
	<circle cx="170.366" cy="267.633" r="7.617"/>
	<circle cx="160.839" cy="90.756" r="9.449"/>
	<circle cx="213.596" cy="90.756" r="9.449"/>
	<path d="M333.879,273.112v-16.531h-9.927c2.627-8.646,0.535-18.43-6.284-25.248c0,0-82.807-83.281-83.871-84.223
		c11.545-11.671,18.739-27.643,18.952-45.268c8.505-2.018,14.721-9.604,14.721-18.701c0-9.095-6.22-16.679-14.728-18.693
		C252.147,28.812,222.993,0,187.217,0c-35.775,0-64.929,28.811-65.524,64.446c-8.507,2.008-14.724,9.592-14.724,18.695
		c0,9.105,6.214,16.691,14.717,18.703c0.214,17.626,7.409,33.598,18.955,45.269c-3.618,3.196-83.43,84.219-83.43,84.219
		c-9.844,9.844-9.845,25.87,0,35.727c4.924,4.925,11.39,7.386,17.858,7.386c6.467,0,12.936-2.463,17.858-7.386l24.032-24.032v53.894
		h20.3v103.539h99.92V296.922h20.29v-54.343l24.481,24.481c2.835,2.836,6.184,4.85,9.749,6.053h-25.652v79.655h84.586v-79.655
		H333.879z M252.769,72.867c3.966,1.732,6.7,5.67,6.7,10.275c0,4.609-2.734,8.55-6.7,10.283V72.867z M121.666,93.429
		c-3.964-1.73-6.696-5.673-6.696-10.287c0-4.611,2.732-8.55,6.696-10.278V93.429z M288.083,344.768h-14.035v-63.655h14.035V344.768z
		 M317.669,267.059c0.786-0.787,1.503-1.618,2.164-2.477h6.046v8.53H307.92C311.484,271.909,314.833,269.894,317.669,267.059z
		 M187.217,8c28.856,0,52.814,21.349,56.923,49.08c-10.651-3.074-20.06-9.859-26.331-19.155l-2.162-3.204l-3.276,2.051
		c-7.528,4.712-16.231,7.202-25.17,7.202c-9.582,0-18.813-2.835-26.696-8.198l-3.405-2.315l-2.216,3.47
		c-5.75,9.003-14.475,15.837-24.46,19.34C134.877,28.935,158.643,8,187.217,8z M129.666,101.041V65.552
		c0-0.222,0.014-0.441,0.017-0.663c11.798-3.298,22.337-10.533,29.685-20.383c8.433,4.898,17.976,7.468,27.835,7.468
		c9.183,0,18.157-2.252,26.175-6.543c7.84,10.074,18.998,17.203,31.391,20.073c0,0.016,0.001,0.032,0.001,0.049v35.489
		c0,31.734-25.817,57.552-57.552,57.552C155.483,158.593,129.666,132.775,129.666,101.041z M212.758,224.575l-21.509,17.547v-19.865
		l25.748-62.849c3.033-1.554,5.93-3.333,8.668-5.323l-1.837,47.793l-19.217-1.746L212.758,224.575z M200.003,179.786l-8.1-13.247
		l0.085-0.139c5.05-0.365,9.949-1.287,14.62-2.736L200.003,179.786z M182.525,166.54l-7.932,12.972l-6.461-15.761
		c4.578,1.396,9.369,2.291,14.308,2.649L182.525,166.54z M87.271,261.403c-6.729,6.727-17.676,6.728-24.402,0.001
		c-6.727-6.735-6.729-17.687-0.001-24.415l0.443-0.443l24.888,23.93L87.271,261.403z M116.959,199.701v32.013l-23.102,23.102
		l-24.888-23.929l50.728-50.728C117.899,186.419,116.959,192.983,116.959,199.701z M145.722,392.461
		c1.889-8.282,9.467-14.999,18.516-14.999c9.049,0,16.627,6.717,18.516,14.999H145.722z M183.219,377.244
		c-4.878-4.82-11.586-7.782-18.981-7.782c-7.394,0-14.101,2.961-18.979,7.78v-80.32h37.96V377.244z M183.249,288.922h-58.29v-89.221
		c0-15.825,5.868-30.683,16.367-42.076l2.038,52.984l15.429-1.402l-6.026,18.077l30.482,24.867V288.922z M183.249,241.827
		l-21.146-17.251l8.148-24.442l-19.217,1.746l-1.826-47.482c2.711,1.937,5.574,3.673,8.569,5.185l25.472,62.137V241.827z
		 M178.356,188.693l8.858-14.486l9.027,14.762l-8.883,21.683L178.356,188.693z M191.681,392.461
		c1.889-8.282,9.467-14.999,18.516-14.999c9.049,0,16.627,6.717,18.516,14.999H191.681z M229.179,377.245
		c-4.879-4.82-11.587-7.783-18.983-7.783c-7.393,0-14.1,2.961-18.977,7.778v-80.318h37.96V377.245z M249.469,288.922h-58.22v-36.475
		l30.845-25.163l-6.026-18.077l15.43,1.402l2.02-52.523c10.309,11.451,15.952,26.101,15.952,41.615V288.922z M281.692,255.488
		l-24.223-24.223v-31.564c0-6.938-1.005-13.721-2.936-20.189l51.088,51.087L281.692,255.488z M287.607,261.403l-0.258-0.258
		l23.929-24.888l0.732,0.732c6.727,6.728,6.726,17.68-0.001,24.414C305.283,268.13,294.335,268.13,287.607,261.403z
		 M342.634,344.768h-46.538v-63.655h46.538V344.768z"/>
	<path d="M156.584,126.715h8c0-3.873,3.151-7.023,7.024-7.023h11.811v-8h-11.811C163.324,111.691,156.584,118.431,156.584,126.715z"
		/>
	<path d="M209.735,126.715h8c0-8.284-6.74-15.023-15.024-15.023H190.9v8h11.812C206.584,119.691,209.735,122.842,209.735,126.715z"
		/>
</g>
<g>
</g>
<g>
</g>
<g>
</g>
<g>
</g>
<g>
</g>
<g>
</g>
<g>
</g>
<g>
</g>
<g>
</g>
<g>
</g>
<g>
</g>
<g>
</g>
<g>
</g>
<g>
</g>
<g>
</g>
</svg>
