<?xml version="1.0" encoding="iso-8859-1"?>
<!-- Generator: Adobe Illustrator 18.0.0, SVG Export Plug-In . SVG Version: 6.00 Build 0)  -->
<!DOCTYPE svg PUBLIC "-//W3C//DTD SVG 1.1//EN" "http://www.w3.org/Graphics/SVG/1.1/DTD/svg11.dtd">
<svg version="1.1" id="Capa_1" xmlns="http://www.w3.org/2000/svg" xmlns:xlink="http://www.w3.org/1999/xlink" x="0px" y="0px"
	 viewBox="0 0 446.189 446.189" style="enable-background:new 0 0 446.189 446.189;" xml:space="preserve">
<g>
	<path d="M80.677,216.263c-3.276,0-6.358,1.276-8.675,3.593c-2.317,2.317-3.593,5.398-3.593,8.675c0,3.276,1.276,6.357,3.593,8.674
		c2.317,2.317,5.398,3.593,8.675,3.593c3.277,0,6.357-1.276,8.674-3.593c2.317-2.317,3.594-5.397,3.594-8.674
		c0-3.277-1.276-6.358-3.593-8.675C87.034,217.539,83.954,216.263,80.677,216.263z M83.694,231.548
		c-0.806,0.806-1.877,1.25-3.017,1.25c-1.14,0-2.212-0.444-3.018-1.251c-0.806-0.806-1.25-1.877-1.25-3.017
		c0-1.14,0.444-2.212,1.249-3.018c0.806-0.806,1.878-1.25,3.018-1.25c1.14,0,2.211,0.444,3.017,1.25
		c0.806,0.806,1.25,1.878,1.25,3.018C84.944,229.671,84.501,230.742,83.694,231.548z"/>
	<circle cx="248.263" cy="136.902" r="9.449"/>
	<circle cx="301.02" cy="136.902" r="9.449"/>
	<path d="M405.79,277.482c0,0-81.982-82.231-84.026-84.063c11.748-12.139,18.428-28.446,18.455-45.448
		c8.478-2.032,14.673-9.608,14.673-18.681c0-9.082-6.207-16.665-14.699-18.688c-0.258-13.385-4.58-26.29-12.351-37.049l-20.04-63.01
		l-14.918,6.641L274.226,0l-18.411,17.399l-14.903-6.559l-19.596,63.11c-7.583,10.677-11.804,23.429-12.066,36.617
		c-8.584,1.956-14.859,9.551-14.859,18.724c0,9.163,6.263,16.751,14.834,18.716c0.035,17.079,6.57,33.14,18.417,45.384
		c-2.168,1.946-73.151,73.233-73.151,73.233l-72.144-72.144l-49.349,49.433l1.766,2.717c18.412,28.337,42.118,52.037,70.458,70.441
		l2.717,1.764l28.875-28.875c-0.378,1.749-0.578,3.549-0.578,5.381c0,6.747,2.627,13.088,7.395,17.856
		c4.77,4.776,11.113,7.406,17.861,7.406c2.205,0,4.365-0.286,6.443-0.831l7.207,7.206c2.651,2.652,6.177,4.112,9.929,4.112
		s7.278-1.46,9.929-4.112c5.472-5.472,5.472-14.375,0-19.847l-4.847-4.786l13.947-14.008v113.851h20v44h100v-44h21V288.347
		l24.911,24.643c4.769,4.776,11.143,7.199,17.89,7.199h0.016c6.747,0,13.098-2.423,17.865-7.195
		c4.775-4.77,7.409-11.009,7.409-17.756C413.19,288.49,410.564,282.25,405.79,277.482z M340.099,119.025
		c4,1.738,6.67,5.671,6.67,10.265c0,4.594-2.67,8.527-6.67,10.265V119.025z M209.099,139.62c-4-1.695-6.83-5.659-6.83-10.33
		s2.83-8.634,6.83-10.33V139.62z M302.849,21.477l14.899,46.314l-10.314,2.528c-9.582,2.359-19.335,3.659-29.335,3.924V32.468
		L302.849,21.477z M274.296,10.941l10.626,9.787l-10.711,4.768l-10.451-4.6L274.296,10.941z M245.833,21.773l24.266,10.707v41.75
		c-8-0.263-17.147-1.312-25.561-3.177l-13.105-2.905L245.833,21.773z M217.099,147.87v-36c0-13.083,4.516-25.739,12.644-35.903
		l13.094,2.896c10.365,2.297,21.019,3.462,31.635,3.462c11.761,0,23.522-1.426,34.943-4.238l9.889-2.449
		c8.302,10.212,12.795,22.984,12.795,36.232v36c0,16.301-6.894,31.896-19.024,42.785c-10.555,9.489-24.167,14.715-38.385,14.715
		c-14.234,0-27.875-5.236-38.437-14.742c-0.764-0.688-1.541-1.375-2.263-2.096C223.133,177.673,217.099,163.232,217.099,147.87z
		 M307.099,204.615v21.574h-65v-21.602c10,5.712,20.919,8.784,32.527,8.784C286.213,213.37,297.099,210.308,307.099,204.615z
		 M212.099,245.84c0-18.143,7.933-35.094,21.54-47.011c0.13,0.105,0.252,32.541,0.252,32.541c-0.376,11-9.792,20.984-21.792,21.738
		V245.84z M141.029,274.431l-34.15,34.15c-25.305-16.927-46.685-38.302-63.66-63.661l39.127-39.128l63.658,63.658L141.029,274.431z
		 M173.703,307.542c-3.264,3.264-7.6,5.061-12.21,5.061c-4.609,0-8.942-1.796-12.203-5.061c-3.259-3.259-5.053-7.592-5.053-12.201
		c0-4.61,1.794-8.943,5.054-12.202l9.598-9.598l24.887,23.928L173.703,307.542z M189.343,321.322
		c-1.14,1.141-2.657,1.769-4.271,1.769c-1.614,0-3.131-0.628-4.272-1.769l-5.094-5.094c1.296-0.885,2.521-1.894,3.655-3.028
		l5.197-5.197l4.786,4.786C191.695,315.141,191.695,318.969,189.343,321.322z M204.099,245.84v31.183l-14.727,14.788l-24.857-23.928
		l42.729-42.775C205.213,231.734,204.099,238.704,204.099,245.84z M232.677,438.189c1.933-8,9.479-14.74,18.485-14.74
		c9.006,0,16.552,6.74,18.485,14.74H232.677z M270.099,423.533c-5-4.88-11.626-7.902-19.059-7.902
		c-7.375,0-13.941,2.977-18.941,7.79v-21.231h38V423.533z M278.636,438.189c1.933-8,9.479-14.74,18.485-14.74
		s16.552,6.74,18.485,14.74H278.636z M316.099,423.575c-5-4.905-11.646-7.944-19.1-7.944c-7.355,0-13.9,2.961-18.9,7.75v-21.192h38
		V423.575z M337.099,394.189h-125V261.125c15-0.711,27.522-11.937,29.601-26.937h65.99c2.078,15,14.41,26.347,29.41,26.947V394.189z
		 M337.099,253.126c-11-0.632-20.939-10.32-21.939-21.9c0,0,0.344-32.261,0.478-32.37c13.631,11.919,21.461,28.862,21.461,46.984
		V253.126z M345.099,277.033V245.84c0-7.134-1.01-14.104-3.048-20.73l43.916,43.891l-24.929,23.925L345.099,277.033z
		 M400.131,307.543c-3.259,3.263-7.592,5.059-12.2,5.059c-4.609,0-8.941-1.797-12.201-5.061l-8.957-8.957l24.883-23.925l8.48,8.481
		c3.262,3.259,5.059,7.592,5.059,12.2C405.193,299.949,403.397,304.282,400.131,307.543z"/>
	<path d="M244.099,320.189h60v-62h-60V320.189z M252.099,266.189h44v10h-44V266.189z M252.099,284.189h44v28h-44V284.189z"/>
</g>
<g>
</g>
<g>
</g>
<g>
</g>
<g>
</g>
<g>
</g>
<g>
</g>
<g>
</g>
<g>
</g>
<g>
</g>
<g>
</g>
<g>
</g>
<g>
</g>
<g>
</g>
<g>
</g>
<g>
</g>
</svg>
