<?xml version="1.0" encoding="iso-8859-1"?>
<!-- Generator: Adobe Illustrator 18.0.0, SVG Export Plug-In . SVG Version: 6.00 Build 0)  -->
<!DOCTYPE svg PUBLIC "-//W3C//DTD SVG 1.1//EN" "http://www.w3.org/Graphics/SVG/1.1/DTD/svg11.dtd">
<svg version="1.1" id="Capa_1" xmlns="http://www.w3.org/2000/svg" xmlns:xlink="http://www.w3.org/1999/xlink" x="0px" y="0px"
	 viewBox="0 0 478.483 478.483" style="enable-background:new 0 0 478.483 478.483;" xml:space="preserve">
<g>
	<path d="M398.303,260.444c0-5.48-2.139-10.637-6.024-14.521c-8.007-7.996-21.036-7.994-29.047,0.004l-6.12,6.13l5.661,5.652
		l6.115-6.126c4.89-4.882,12.848-4.882,17.736-0.001c2.372,2.371,3.678,5.519,3.678,8.861c0,3.349-1.306,6.499-3.679,8.871
		l-39.321,39.322c0,0-82.096-82.57-83.162-83.514c11.539-11.672,18.748-27.636,18.961-45.259c8.505-2.018,14.72-9.604,14.72-18.701
		c0-9.091-6.214-16.672-14.717-18.69c-0.151-8.948-2.143-17.822-5.81-25.926c6.127-4.889,10.901-11.606,13.415-19.662l2.319-7.43
		l-7.391,2.439c-6.011,1.986-12.452,2.164-18.614,0.516c-3.098-0.835-6.003-2.091-8.672-3.734V69.747
		c18.041-1.342,32.314-16.441,32.314-34.82C290.667,15.668,274.998,0,255.739,0c-6.872,0-13.41,1.953-19.083,5.677
		C230.982,1.953,224.444,0,217.572,0s-13.41,1.953-19.084,5.677C192.815,1.953,186.277,0,179.405,0
		c-19.259,0-34.927,15.668-34.927,34.927c0,18.379,14.273,33.478,32.315,34.82V92.28c-15.178,12.104-24.417,30.562-24.752,50.19
		c-8.504,2.011-14.718,9.593-14.718,18.694c0,9.107,6.216,16.693,14.72,18.704c0.214,17.623,7.424,33.587,18.963,45.258
		c-3.527,3.124-83.442,84.229-83.442,84.229c-9.844,9.844-9.845,25.87,0,35.727c4.924,4.924,11.391,7.386,17.858,7.386
		c6.467,0,12.935-2.462,17.858-7.386l24.042-24.042v53.904h20.29v103.539h99.92V374.944h20.29v-54.343l23.759,23.758l-7.92,7.916
		c-13.91,13.911-13.91,37.415,0,51.324c6.749,6.75,15.843,10.467,25.606,10.467c9.693,0,19.067-3.814,25.719-10.467l2.828-2.828
		l-45.666-45.667l5.788-5.788c3.791,2.096,8.007,3.151,12.227,3.151c6.467,0,12.935-2.463,17.858-7.386
		c4.775-4.774,7.404-11.119,7.404-17.867c0-4.351-1.099-8.53-3.155-12.231l40.011-40.011
		C396.164,271.09,398.303,265.93,398.303,260.444z M283.122,150.889c3.966,1.731,6.7,5.67,6.7,10.275c0,4.609-2.734,8.55-6.7,10.283
		V150.889z M152.023,171.453c-3.966-1.73-6.7-5.673-6.7-10.289c0-4.612,2.734-8.552,6.7-10.28V171.453z M264.951,100.138
		c4.985,1.332,10.113,1.705,15.15,1.127c-7.247,12.446-22.077,18.893-36.595,14.998c-1.217-0.329-3.809-1.28-3.809-1.28
		c-2.6-0.935-6.807-3.755-6.807-3.755c-5.76-4.146-10.018-10.133-12.105-16.863h31.653
		C256.224,96.972,260.421,98.916,264.951,100.138z M212.491,94.364c2.12,8.661,7.096,16.502,14.066,22.095l1.889,1.392
		c-11.261,2.001-23.036-2.047-30.672-11.141c-3.051-3.63-5.251-7.835-6.486-12.346H212.491z M184.793,86.364V69.436
		c4.891-0.752,9.528-2.522,13.696-5.258c5.673,3.724,12.211,5.677,19.084,5.677c6.872,0,13.41-1.953,19.084-5.677
		c4.168,2.736,8.806,4.506,13.697,5.258v16.928H184.793z M152.478,34.927C152.478,20.079,164.557,8,179.405,8
		c6.084,0,11.828,1.986,16.612,5.745l2.471,1.941l2.471-1.941C205.744,9.986,211.488,8,217.572,8c6.084,0,11.828,1.986,16.613,5.745
		l2.471,1.941l2.471-1.941C243.911,9.986,249.655,8,255.739,8c14.848,0,26.927,12.079,26.927,26.927
		c0,14.848-12.08,26.928-26.927,26.928c-6.084,0-11.828-1.986-16.613-5.745l-2.471-1.941l-2.471,1.941
		c-4.785,3.759-10.529,5.745-16.613,5.745c-6.084,0-11.828-1.986-16.613-5.745l-2.471-1.941l-2.471,1.941
		c-4.784,3.759-10.529,5.745-16.612,5.745C164.557,61.854,152.478,49.774,152.478,34.927z M160.023,179.064v-35.489
		c0-18.429,8.965-35.786,23.719-46.539c1.564,5.408,4.235,10.453,7.908,14.821c7.914,9.426,19.4,14.501,31.118,14.501
		c5.342,0,10.731-1.068,15.852-3.247c0.922,0.32,1.855,0.62,2.806,0.877c3.553,0.953,7.119,1.409,10.628,1.409
		c6.505,0,12.805-1.569,18.424-4.444c3.036,7.105,4.644,14.839,4.644,22.622v35.489c0,31.733-25.817,57.551-57.55,57.551
		C185.84,236.614,160.023,210.797,160.023,179.064z M248.478,236.855l-2.953,21.791l-17.66-14.847
		C235.21,242.634,242.154,240.252,248.478,236.855z M207.412,243.822l-17.631,14.824l-2.94-21.702
		C193.157,240.312,200.084,242.676,207.412,243.822z M117.624,339.426c-6.728,6.727-17.675,6.728-24.402,0.001
		c-6.728-6.735-6.729-17.688-0.002-24.415l6.744-6.744l24.888,23.929L117.624,339.426z M147.323,277.724v32.004l-16.812,16.812
		l-24.888-23.929l44.446-44.446C148.254,264.451,147.323,271.015,147.323,277.724z M155.323,366.944v-89.221
		c0-13.529,4.266-26.395,12.336-37.207c2.739-3.67,5.896-7.01,9.377-10.002c0.319,0.252,0.639,0.504,0.964,0.75l5.805,42.857
		l33.848-28.458l11.355,9.547v111.734H155.323z M176.077,470.483c1.889-8.282,9.467-14.999,18.516-14.999
		c9.049,0,16.627,6.717,18.516,14.999H176.077z M213.573,455.265c-4.878-4.819-11.586-7.781-18.98-7.781s-14.102,2.961-18.98,7.781
		v-80.321h37.96V455.265z M222.036,470.483c1.889-8.282,9.467-14.999,18.516-14.999s16.627,6.717,18.516,14.999H222.036z
		 M259.533,455.266c-4.878-4.82-11.586-7.782-18.981-7.782c-7.394,0-14.101,2.961-18.979,7.78v-80.32h37.96V455.266z
		 M279.823,366.944h-42.815V261.936l14.493,12.186l5.827-42.998c0.265-0.203,0.528-0.408,0.79-0.615
		c2.395,1.872,6.613,6.513,7.96,8.194c8.992,11.164,13.745,24.657,13.745,39.021V366.944z M287.823,309.288v-31.564
		c0-6.895-1.031-13.725-3.001-20.262l44.067,44.073l-23.93,24.889L287.823,309.288z M346.285,400.556
		c-4.809,3.536-10.821,5.511-17.018,5.511c-7.626,0-14.71-2.885-19.949-8.123c-9.887-9.887-10.759-25.989-2.62-36.974
		L346.285,400.556z M342.365,339.426c-6.728,6.727-17.675,6.727-24.403,0l-7.344-7.344l23.93-24.889l7.82,7.821
		c3.263,3.259,5.059,7.592,5.059,12.201C347.425,331.825,345.628,336.162,342.365,339.426z"/>
	<circle cx="215.681" cy="276.944" r="7.617"/>
	<circle cx="215.681" cy="311.694" r="7.617"/>
	<circle cx="215.681" cy="346.443" r="7.617"/>
	<circle cx="191.194" cy="168.779" r="9.449"/>
	<circle cx="243.951" cy="168.779" r="9.449"/>
	<rect x="165.763" y="284.464" width="28" height="8"/>
</g>
<g>
</g>
<g>
</g>
<g>
</g>
<g>
</g>
<g>
</g>
<g>
</g>
<g>
</g>
<g>
</g>
<g>
</g>
<g>
</g>
<g>
</g>
<g>
</g>
<g>
</g>
<g>
</g>
<g>
</g>
</svg>
