<?xml version="1.0" encoding="iso-8859-1"?>
<!-- Generator: Adobe Illustrator 18.0.0, SVG Export Plug-In . SVG Version: 6.00 Build 0)  -->
<!DOCTYPE svg PUBLIC "-//W3C//DTD SVG 1.1//EN" "http://www.w3.org/Graphics/SVG/1.1/DTD/svg11.dtd">
<svg version="1.1" id="Capa_1" xmlns="http://www.w3.org/2000/svg" xmlns:xlink="http://www.w3.org/1999/xlink" x="0px" y="0px"
	 viewBox="0 0 426.229 426.229" style="enable-background:new 0 0 426.229 426.229;" xml:space="preserve">
<g>
	<path d="M354.848,257.342c0,0-82.842-83.29-83.883-84.216c11.553-11.673,18.752-27.652,18.964-45.284
		c8.505-2.017,14.72-9.599,14.72-18.691c0-5.096-2.036-9.887-5.474-13.417c7.14-5.092,11.504-13.332,11.504-22.443
		c0-10.204-5.739-19.588-14.587-24.345c0.277-1.58,0.417-3.18,0.417-4.785c0-14.933-11.914-27.128-26.735-27.598
		C265.428,6.548,255.623,0,244.48,0c-7.736,0-14.924,3.156-20.083,8.643C219.234,3.156,212.048,0,204.32,0
		c-11.143,0-20.948,6.548-25.295,16.563c-14.821,0.47-26.735,12.664-26.735,27.598c0,1.617,0.138,3.217,0.413,4.787
		c-8.852,4.759-14.593,14.142-14.593,24.343c0,9.102,4.367,17.343,11.512,22.442c-3.438,3.532-5.472,8.323-5.472,13.418
		c0,9.1,6.214,16.682,14.717,18.693c0.213,17.63,7.411,33.606,18.962,45.279c-3.305,2.954-72.928,73.711-72.928,73.711
		l-11.438-11.438l5.157-5.157l-5.657-5.657l-28.953,28.953l5.657,5.657l5.614-5.614l13.173,13.174
		c-3.142,8.893-1.164,19.206,5.938,26.307c4.77,4.77,11.112,7.397,17.859,7.397c2.454,0,4.854-0.352,7.145-1.024
		c-0.482,2.107-0.745,4.297-0.745,6.549c0,16.205,13.077,29.39,29.282,29.39c2.141,0,4.192-0.231,6.192-0.681v30.54h20v61h100v-61
		h20v-96.961l24.899,24.791c4.77,4.77,11.166,7.397,17.912,7.397c6.747,0,13.116-2.627,17.886-7.397
		C364.668,283.211,364.695,267.189,354.848,257.342z M224.624,34.002c31.734,0,57.5,25.817,57.5,57.552v16.501
		c-4-7.63-11.323-12.827-20.233-12.827h-74.986c-8.91,0-16.78,5.197-19.78,12.827V91.554
		C167.124,59.82,192.89,34.002,224.624,34.002z M275.911,117.185c0,13.036-10.642,23.692-23.72,23.698
		c-13.097-0.005-23.752-10.654-23.753-23.654h-8c0,13-10.664,23.728-23.77,23.728c-13.114,0-23.784-10.633-23.784-23.732
		c0-7.73,6.29-13.996,14.02-13.996h74.986C269.621,103.229,275.911,109.455,275.911,117.185z M196.668,148.878
		c11.936,0,22.355-6.896,27.784-16.666c5.432,9.701,15.824,16.016,27.726,16.016h0.022c13.601,0,25.226-8.441,29.722-20.466
		c-0.567,29.928-24.08,54.466-53.649,56.466h-7.75c-29.558-2-53.065-26.248-53.648-56.162
		C171.378,140.142,183.033,148.878,196.668,148.878z M216.065,192.047l-20.276,17.055l-3.349-24.855
		C199.598,188.262,207.58,190.965,216.065,192.047z M256.591,184.112l-3.387,24.997l-20.317-17.082
		C241.408,190.92,249.417,188.175,256.591,184.112z M290.124,119.425V98.884c0,0.015-0.02,0.025,0.013,0.04
		c4.009,1.815,6.643,5.829,6.643,10.226C296.781,113.755,294.124,117.693,290.124,119.425z M288.51,44.16
		c0,1.982-0.3,3.957-0.891,5.868l-1.11,3.589l3.513,1.333c7.572,2.873,12.659,10.243,12.659,18.34
		c0,7.627-4.292,14.405-11.054,17.662c-0.561-0.192-1.13-0.354-1.704-0.492c-0.42-25.415-15.36-47.357-36.881-57.856
		c3.652-4.993,9.521-8.064,15.849-8.064C279.708,24.54,288.51,33.342,288.51,44.16z M204.32,8c6.831,0,13.067,3.474,16.683,9.292
		l3.401,5.473l3.395-5.477C231.405,11.472,237.641,8,244.48,8c7.085,0,13.413,3.722,16.878,9.602
		c-6.529,1.859-12.217,6.082-15.871,11.901c-6.623-2.257-13.712-3.5-21.089-3.5c-7.378,0-14.467,1.243-21.091,3.501
		c-3.648-5.82-9.334-10.043-15.865-11.902C190.906,11.722,197.234,8,204.32,8z M146.11,73.29c0-8.095,5.091-15.465,12.669-18.34
		l3.528-1.338l-1.13-3.6c-0.588-1.873-0.886-3.841-0.886-5.852c0-10.818,8.801-19.62,19.62-19.62c6.331,0,12.199,3.072,15.844,8.065
		c-21.518,10.499-36.457,32.437-36.88,57.849c-0.58,0.139-1.152,0.301-1.714,0.494C150.399,87.678,146.11,80.902,146.11,73.29z
		 M152.289,109.15c0-4.396,2.657-8.411,6.682-10.237c0.027-0.013-0.846-0.021,0.154-0.034v20.549
		C155.124,117.7,152.289,113.761,152.289,109.15z M154.124,225.7v31.813l-14.535,14.642l-24.829-23.924l42.216-42.297
		C155.147,212.27,154.124,218.902,154.124,225.7z M154.124,268.828v8.444c-2-0.45-4.051-0.681-6.192-0.681
		c-0.503,0-1.058,0.013-1.555,0.038L154.124,268.828z M81.736,248.719l6.865-6.871l10.642,10.642l-4.852,4.852
		c-0.682,0.682-1.312,1.396-1.899,2.133L81.736,248.719z M100.048,287.401c-6.728-6.728-6.728-17.675,0-24.402l9.109-9.109
		l24.882,23.924l-9.588,9.588c-3.259,3.259-7.592,5.053-12.201,5.053S103.307,290.661,100.048,287.401z M147.932,327.37
		c-11.794,0-21.336-9.596-21.336-21.39c0-11.795,9.515-21.39,21.309-21.39c2.161,0,4.219,0.322,6.219,0.949v40.881
		C152.124,327.048,150.093,327.37,147.932,327.37z M162.124,225.7c0-13.606,4.335-26.462,12.337-37.182
		c2.723-3.658,5.814-6.948,9.104-9.829l6.104,45.901l30.455-25.686v158.324h-58V225.7z M220.124,365.229v37.967
		c-5-4.786-11.556-7.725-18.921-7.725c-7.444,0-14.079,2.999-19.079,7.875v-38.117H220.124z M219.929,418.229h-37.021
		c1.896-8,9.469-14.979,18.511-14.979C210.46,403.249,218.033,410.229,219.929,418.229z M228.867,418.229
		c1.896-8,9.469-14.979,18.511-14.979c9.042,0,16.615,6.979,18.511,14.979H228.867z M266.124,403.235
		c-5-4.809-11.577-7.764-18.962-7.764c-7.423,0-14.038,2.983-19.038,7.836v-38.078h38V403.235z M286.124,357.229h-58V198.656
		l30.948,25.929l6.251-45.724c3.713,3.277,7.303,7.829,7.303,7.829c8.884,11.03,13.499,24.52,13.499,39.011V357.229z
		 M291.266,205.182l44.075,44.021l-24.963,23.923l-16.254-16.173V225.7C294.124,218.605,293.222,211.723,291.266,205.182z
		 M349.191,287.401c-3.259,3.259-7.592,5.054-12.202,5.054c-4.609,0-8.942-1.794-12.201-5.054l-8.617-8.617l24.882-23.923
		l8.138,8.138C355.919,269.727,355.919,280.674,349.191,287.401z"/>
	<circle cx="198.019" cy="116.759" r="9.449"/>
	<circle cx="250.776" cy="116.759" r="9.449"/>
	<rect x="241.124" y="240.229" width="30" height="8"/>
</g>
<g>
</g>
<g>
</g>
<g>
</g>
<g>
</g>
<g>
</g>
<g>
</g>
<g>
</g>
<g>
</g>
<g>
</g>
<g>
</g>
<g>
</g>
<g>
</g>
<g>
</g>
<g>
</g>
<g>
</g>
</svg>
