<?xml version="1.0" encoding="iso-8859-1"?>
<!-- Generator: Adobe Illustrator 18.0.0, SVG Export Plug-In . SVG Version: 6.00 Build 0)  -->
<!DOCTYPE svg PUBLIC "-//W3C//DTD SVG 1.1//EN" "http://www.w3.org/Graphics/SVG/1.1/DTD/svg11.dtd">
<svg version="1.1" id="Capa_1" xmlns="http://www.w3.org/2000/svg" xmlns:xlink="http://www.w3.org/1999/xlink" x="0px" y="0px"
	 viewBox="0 0 428.082 428.082" style="enable-background:new 0 0 428.082 428.082;" xml:space="preserve">
<g>
	<path d="M358.819,285.237c-0.438-0.331-0.885-0.652-1.34-0.964c0.734-2.386,1.117-4.893,1.117-7.459
		c0-6.748-2.63-13.092-7.404-17.859c0,0-81.214-81.79-83.911-84.182c11.57-11.677,18.781-27.67,18.992-45.319
		c8.504-2.017,14.72-9.599,14.72-18.691c0-9.094-6.22-16.679-14.728-18.693c-0.007-0.407,0.029-25.522,0.029-25.522
		c0-35.973-28.566-65.991-64.534-66.539c-36.61-0.558-66.57,29.06-66.57,65.544c0,0,0.038,26.108,0.031,26.514
		c-8.509,2.008-14.728,9.593-14.728,18.696c0,9.101,6.216,16.684,14.72,18.694c0.211,17.634,7.411,33.613,18.964,45.287
		c-2.935,3.509-73.063,73.831-73.063,73.831l-0.235-57.982l1.362-0.005c7.684-0.03,14.341-5.764,15.054-13.416
		c0.349-3.743-0.725-7.223-2.725-10.001c14.759-6.708,24.518-21.52,24.452-38.214l-0.26-65.35l-8,0.031l0.246,61.892l-6.887-0.025
		l-0.248-61.829l-8,0.031l0.247,61.768l-7.521-0.028l-0.247-61.709l-8,0.031l0.247,61.649l-6.744-0.025l-0.247-61.595l-8,0.031
		l0.247,61.534l-7.521-0.028L78.09,63.859l-8,0.031l0.246,61.414l-6.918-0.026l-0.244-61.372l-8,0.031l0.26,65.35
		c0.066,16.715,9.957,31.454,24.79,38.029c-1.708,2.425-2.717,5.375-2.705,8.56c0.033,8.134,6.676,14.75,14.809,14.75l0.552-0.002
		l0.267,65.918l-2.412,2.412c-9.844,9.844-9.845,25.869,0,35.726c0.811,0.811,1.671,1.555,2.567,2.24l0.512,126.719l8-0.033
		l-0.495-122.588c2.33,0.697,4.774,1.06,7.275,1.06c6.747,0,13.089-2.627,17.858-7.397l23.291-23.291v54.113h21.04v102.58h99.92
		v-102.58h20.04v-55.553l19.995,19.995c-0.34,0.376-0.671,0.759-0.995,1.148c-6.464,7.769-9.056,18.056-7.596,28.056l9.616,65.846
		h51.578l9.197-65.529C374.369,306.428,369.327,293.166,358.819,285.237z M130.735,133.529c-0.768,5.899-3.059,11.371-6.516,15.959
		l-0.064-15.984L130.735,133.529z M116.154,133.475l0.095,23.608c-2.3,1.564-4.814,2.856-7.505,3.827l-0.11-27.463L116.154,133.475z
		 M100.634,133.417l0.11,27.558L94,161.002l-0.111-27.61L100.634,133.417z M85.889,133.362L86,161.005
		c-2.699-0.945-5.223-2.212-7.536-3.753l-0.096-23.918L85.889,133.362z M63.693,133.28l6.676,0.025l0.066,16.442
		C66.821,145.047,64.443,139.392,63.693,133.28z M92.328,182.626c-3.739,0-6.794-3.042-6.809-6.781
		c-0.015-3.754,3.027-6.82,6.781-6.836l10.253-0.041c3.739,0,6.793,3.042,6.809,6.781c0.015,3.754-3.027,6.82-6.781,6.836
		l-10.225,0.041 M350.596,276.813c0,4.61-1.797,8.946-5.061,12.21c-3.259,3.259-7.592,5.054-12.202,5.054
		c-4.609,0-8.942-1.795-12.201-5.054l-8.619-8.619l24.888-23.93l8.136,8.137C348.8,267.871,350.596,272.204,350.596,276.813z
		 M306.855,274.746l-5.381-5.381l24.889-23.93l5.381,5.381L306.855,274.746z M266.929,185.658
		c-5.574,5.866-8.706,13.582-8.706,21.693c0,14.048,8.927,26.184,22.21,30.198c0.761,0.23,1.532,0.433,2.31,0.604v12.348h-125
		v-12.296c1.018-0.218,2.015-0.485,2.982-0.799c13.134-4.141,22.308-16.5,22.308-30.056c0-8.347-3.033-16.107-8.429-21.817
		c1.751-1.93,3.621-3.74,5.587-5.428c3.306,2.612,6.867,4.91,10.642,6.855c2.609,14.31,15.199,24.918,29.905,24.918
		c14.706,0,27.3-10.608,29.911-24.918c3.764-1.939,7.316-4.23,10.614-6.832C263.266,181.85,265.162,183.695,266.929,185.658z
		 M147.857,261.963l-24.888-23.929l46.381-46.381c3.644,4.172,5.684,9.718,5.684,15.699c0,10.102-6.872,19.323-16.746,22.435
		c-1.57,0.51-3.227,0.851-4.925,1.014l-3.619,0.346v28.929L147.857,261.963z M142.198,267.621l-6.153,6.153l-24.888-23.929
		l6.153-6.153L142.198,267.621z M282.744,258.502v30h-125v-30H282.744z M220.74,203.879c-8.857,0-16.655-5.229-20.264-12.889
		c6.387,2.082,13.195,3.222,20.268,3.222c7.071,0,13.878-1.14,20.264-3.221C237.396,198.65,229.596,203.879,220.74,203.879z
		 M292.994,110.762c0,4.605-2.734,8.544-6.7,10.275v-20.549C290.26,102.219,292.994,106.157,292.994,110.762z M268.515,82.848
		h-95.544C201.247,61.926,240.238,61.926,268.515,82.848z M278.295,65.552v14.9c-15.428-13.26-34.368-20.341-53.551-21.202V8.155
		C254.617,10.218,278.295,35.164,278.295,65.552z M216.744,8.154v51.095c-19.184,0.861-38.125,7.942-53.553,21.202v-14.9
		C163.191,35.163,186.87,10.217,216.744,8.154z M148.494,110.762c0-4.611,2.734-8.551,6.7-10.279v20.559
		C151.228,119.314,148.494,115.374,148.494,110.762z M163.253,90.848h114.981c0.031,0.776,0.059,37.815,0.059,37.815
		c0,31.733-25.817,57.55-57.55,57.55s-57.55-25.816-57.55-57.55C163.194,128.662,163.222,91.623,163.253,90.848z M120.795,289.023
		c-3.259,3.259-7.592,5.054-12.201,5.054s-8.943-1.795-12.2-5.053c-6.728-6.735-6.728-17.688-0.001-24.414l9.106-9.106
		l24.888,23.929L120.795,289.023z M216.744,325.502v41h-37.96v-41H216.744z M216.744,405.304c-4.878-4.819-11.586-7.781-18.98-7.781
		c-7.394,0-14.101,2.961-18.979,7.78v-13.801h37.96V405.304z M197.763,405.522c9.001,0,16.542,5.91,18.481,14.56h-36.962
		C181.222,411.433,188.763,405.522,197.763,405.522z M224.744,391.502h37.96v13.803c-4.878-4.82-11.586-7.782-18.981-7.782
		c-7.394,0-14.1,2.961-18.979,7.779V391.502z M243.722,405.522c9.001,0,16.542,5.91,18.481,14.56h-36.962
		C227.181,411.433,234.722,405.522,243.722,405.522z M262.704,383.502h-37.96v-9h37.96V383.502z M216.744,383.502h-37.96v-9h37.96
		V383.502z M262.704,366.502h-37.96v-41h37.96V366.502z M157.744,317.502v-21h125v21H157.744z M287.146,230.772
		c-1.485-0.15-2.963-0.446-4.395-0.88c-9.886-2.987-16.527-12.046-16.527-22.541c0-5.892,2.235-11.508,6.21-15.852l48.271,48.276
		l-24.889,23.93l-5.071-5.071v-27.5L287.146,230.772z M316.432,295.587c4.645,4.195,10.597,6.49,16.902,6.49
		c6.747,0,13.089-2.627,17.858-7.397c0.991-0.991,1.884-2.054,2.686-3.17c6.424,4.79,10.651,12.134,11.698,20.322H309.14
		C309.92,305.762,312.459,300.101,316.432,295.587z M356.489,376.993h-37.871l-8.176-57.161h54.221L356.489,376.993z"/>
	<circle cx="194.364" cy="118.375" r="9.449"/>
	<circle cx="247.121" cy="118.375" r="9.449"/>
</g>
<g>
</g>
<g>
</g>
<g>
</g>
<g>
</g>
<g>
</g>
<g>
</g>
<g>
</g>
<g>
</g>
<g>
</g>
<g>
</g>
<g>
</g>
<g>
</g>
<g>
</g>
<g>
</g>
<g>
</g>
</svg>
