<?xml version="1.0" encoding="iso-8859-1"?>
<!-- Generator: Adobe Illustrator 18.0.0, SVG Export Plug-In . SVG Version: 6.00 Build 0)  -->
<!DOCTYPE svg PUBLIC "-//W3C//DTD SVG 1.1//EN" "http://www.w3.org/Graphics/SVG/1.1/DTD/svg11.dtd">
<svg version="1.1" id="Capa_1" xmlns="http://www.w3.org/2000/svg" xmlns:xlink="http://www.w3.org/1999/xlink" x="0px" y="0px"
	 viewBox="0 0 448.317 448.317" style="enable-background:new 0 0 448.317 448.317;" xml:space="preserve">
<g>
	<path d="M293.961,359.577v-69.919l24.583,24.479c9.868,9.857,25.925,9.857,35.794-0.002c4.792-4.792,7.432-11.155,7.432-17.919
		c0-6.735-2.619-13.058-7.36-17.786c-0.391-0.395-82.604-82.946-84.195-84.463c0.355-0.363,0.704-0.732,1.051-1.103l13.504,1.148
		c18.738,1.597,36.416-8.709,43.991-25.642c6.784-15.164,10.131-31.339,9.949-48.077C338.029,58.151,286.919,7.242,224.78,6.808
		c-21.256-0.139-41.66,5.445-59.45,16.048c0.632-5.412-1.108-11.05-5.251-15.193c-3.482-3.482-8.112-5.4-13.036-5.4
		c-3.556,0-6.951,1.014-9.879,2.881C132.759,1.809,127.419,0,121.801,0c-6.816,0-13.226,2.656-18.048,7.479
		c-9.095,9.095-9.868,23.409-2.33,33.408c-4.527,7.127-3.696,16.703,2.517,22.916c3.482,3.482,8.111,5.4,13.036,5.4
		c1.781,0,3.521-0.259,5.184-0.744c-8.472,16.192-12.969,34.297-12.969,53.109c0,16.247,3.323,31.939,9.876,46.637
		c7.074,15.883,22.935,25.971,40.255,25.971c1.262,0,2.535-0.054,3.81-0.163l12.591-1.076c0.469,0.501,0.935,1.005,1.42,1.49
		c-1.347,1.279-82.835,83.622-83.199,83.993c-4.77,4.77-7.397,11.112-7.397,17.858c0,6.746,2.627,13.089,7.397,17.858
		c4.773,4.773,11.116,7.401,17.858,7.401c6.749,0,13.095-2.628,17.868-7.4l24.292-24.285v70.406c0,17.396,7.266,33.772,20,45.228
		v9.831h-17.478c-5.828-3.848-14.202-8.521-23.986-8.521c-19.882,0-36.536,17.183-36.536,37.521v4h256v-4
		c0-20.338-17.026-37.521-36.908-37.521c-9.784,0-18.53,4.673-24.357,8.521h-17.735v-9.519
		C286.318,394.157,293.961,377.362,293.961,359.577z M285.961,270.396v89.181c0,15.469-6.289,29.524-17.745,39.74h-40.255V260.156
		c25.178-1.436,47.616-15.164,60.359-36.873c15.218,15.262,34.378,34.55,46.995,47.261l-24.069,25.034L285.961,270.396z
		 M353.771,296.217c0,4.626-1.807,8.981-5.087,12.26c-6.75,6.743-17.734,6.744-24.492-0.006l-7.278-7.248l24.037-25
		c4.732,4.769,7.684,7.745,7.794,7.856C351.987,287.312,353.771,291.623,353.771,296.217z M223.461,205.674
		c-31.706,0-57.5-25.817-57.5-57.552v-35.49c0-6.686,1.243-13.336,3.703-19.836c6.942,6.469,16.248,10.195,25.94,10.195
		c11.012,0,21.258-4.739,28.347-12.903c7.089,8.164,17.335,12.903,28.347,12.903c9.567,0,18.535-3.622,25.411-10.111
		c2.16,6.097,3.253,12.716,3.253,19.752v35.49C280.961,179.857,255.167,205.674,223.461,205.674z M223.461,213.674
		c9.6,0,18.715-2.095,26.938-5.824c-7.209,6.572-16.681,10.365-26.871,10.365c-10.154,0-19.574-3.75-26.763-10.255
		C204.926,211.62,213.956,213.674,223.461,213.674z M109.41,13.136C112.722,9.824,117.122,8,121.801,8
		c3.314,0,6.479,0.932,9.226,2.642L106.92,34.749C102.737,27.989,103.556,18.99,109.41,13.136z M109.597,58.145
		c-1.971-1.971-3.057-4.591-3.057-7.379c0-2.788,1.086-5.408,3.057-7.379l30.067-30.067c1.971-1.971,4.592-3.057,7.379-3.057
		c2.787,0,5.408,1.086,7.379,3.057c1.971,1.971,3.057,4.592,3.057,7.379c0,2.788-1.086,5.408-3.057,7.379l-30.067,30.067
		c-1.971,1.971-4.592,3.057-7.379,3.057C114.188,61.202,111.568,60.117,109.597,58.145z M162.451,186.042
		c-15.372,1.313-29.872-7.163-36.076-21.094c-6.093-13.668-9.183-28.264-9.183-43.381c0-28.665,11.202-55.573,31.543-75.769
		c20.335-20.19,47.316-31.201,75.989-30.991c57.807,0.404,105.354,47.764,105.988,105.573c0.17,15.574-2.943,30.621-9.252,44.723
		c-6.188,13.831-20.656,22.247-36.01,20.938l-8.12-0.69c7.186-10.382,11.451-22.926,11.611-36.446
		c8.704-1.813,15.26-9.454,15.26-18.583c0-9.133-6.554-16.777-15.263-18.592c-0.122-10.141-2.265-19.556-6.41-27.986l-2.88-5.857
		l-3.911,5.225c-5.652,7.549-14.195,11.879-23.438,11.879c-10.163,0-19.499-5.13-24.974-13.724l-3.374-5.295l-3.374,5.295
		c-5.475,8.593-14.811,13.724-24.974,13.724c-9.414,0-18.359-4.44-23.928-11.879l-3.912-5.225l-2.88,5.857
		c-4.439,9.027-6.742,18.408-6.894,27.897c-8.255,2.194-14.289,9.742-14.289,18.586c0,8.835,6.028,16.375,14.277,18.572
		c0.139,13.594,4.431,26.204,11.668,36.627L162.451,186.042z M296.201,130.322c0,4.781-2.972,8.747-7.24,10.292v-20.594
		C293.229,121.568,296.201,125.537,296.201,130.322z M157.961,140.284c-3.717-1.841-6.26-5.674-6.26-10.057
		c0-4.386,2.543-8.223,6.26-10.066V140.284z M181.493,201.35c8.369,15.18,24.6,24.865,42.036,24.865
		c17.869,0,33.934-9.675,42.306-25.358c2.153,2.105,6.879,6.795,16.619,16.547c-3.123,5.71-6.98,10.837-11.423,15.294l-8.699-8.935
		l-5.732,5.581l8.45,8.678c-5.46,4.297-11.564,7.714-18.111,10.126l-4.171-11.895l-7.549,2.646l4.052,11.556
		c-5.063,1.201-10.321,1.836-15.699,1.836c-4.26,0-8.466-0.422-12.574-1.216l4.269-12.175l-7.549-2.646l-4.498,12.829
		c-6.854-2.203-13.313-5.484-19.114-9.694l9.78-10.044l-5.732-5.581l-10.249,10.526c-5.089-4.705-9.478-10.211-12.937-16.377
		C173.51,209.303,179.034,203.767,181.493,201.35z M124.013,308.479c-3.262,3.262-7.599,5.058-12.211,5.058
		c-4.606,0-8.94-1.796-12.202-5.058c-3.259-3.259-5.053-7.592-5.053-12.202c0-4.609,1.795-8.943,5.074-12.222
		c0.097-0.098,2.6-2.638,6.677-6.773l24.938,23.977L124.013,308.479z M161.961,360.258v-89.715l-25.067,25.059l-24.979-24.016
		c12.398-12.57,31.838-32.266,47.221-47.792c12.853,21.34,35.843,35.176,60.825,36.399v139.125h-40.868
		C168.19,389.388,161.961,375.271,161.961,360.258z M219.961,440.317H103.953c1.964-14.191,14.173-25.521,28.403-25.521
		c8.175,0,15.711,4.47,20.667,7.831l1.017,0.69h42.922v-8h-15v-8h38V440.317z M293.14,423.317l1.017-0.69
		c4.957-3.361,12.492-7.831,20.667-7.831c14.23,0,26.439,11.329,28.403,25.521H227.961v-33h37v8h-14v8H293.14z"/>
	<path d="M198.499,311.334c8.935,0,16.205-7.27,16.205-16.205c0-8.936-7.27-16.205-16.205-16.205
		c-8.936,0-16.205,7.27-16.205,16.205C182.294,304.065,189.563,311.334,198.499,311.334z M198.499,286.924
		c4.524,0,8.205,3.681,8.205,8.205c0,4.524-3.681,8.205-8.205,8.205c-4.524,0-8.205-3.681-8.205-8.205
		C190.294,290.604,193.974,286.924,198.499,286.924z"/>
	<path d="M198.499,365.279c8.935,0,16.205-7.27,16.205-16.204c0-8.935-7.27-16.205-16.205-16.205
		c-8.936,0-16.205,7.27-16.205,16.205C182.294,358.01,189.563,365.279,198.499,365.279z M198.499,340.87
		c4.524,0,8.205,3.681,8.205,8.205c0,4.523-3.681,8.204-8.205,8.204c-4.524,0-8.205-3.681-8.205-8.204
		C190.294,344.551,193.974,340.87,198.499,340.87z"/>
	<g>
		<path d="M224.297,128.326c-9.182,0-16.652,7.47-16.652,16.652c0,9.182,7.47,16.652,16.652,16.652
			c9.182,0,16.652-7.47,16.652-16.652C240.949,135.796,233.479,128.326,224.297,128.326z M224.297,153.629
			c-4.771,0-8.652-3.881-8.652-8.652c0-4.77,3.881-8.652,8.652-8.652c4.77,0,8.652,3.881,8.652,8.652
			C232.949,149.748,229.068,153.629,224.297,153.629z"/>
		<path d="M256.592,129.452v-9.968h-8v9.968c-3.216,1.507-5.449,4.765-5.449,8.551c0,3.787,2.233,7.044,5.449,8.551v10.929h8
			v-10.929c3.216-1.507,5.449-4.765,5.449-8.551C262.041,134.217,259.808,130.96,256.592,129.452z"/>
		<path d="M199.725,129.286v-9.968h-8v9.968c-3.216,1.507-5.449,4.765-5.449,8.551c0,3.787,2.233,7.044,5.449,8.551v10.929h8
			v-10.929c3.216-1.507,5.449-4.765,5.449-8.551C205.174,134.05,202.941,130.793,199.725,129.286z"/>
	</g>
</g>
<g>
</g>
<g>
</g>
<g>
</g>
<g>
</g>
<g>
</g>
<g>
</g>
<g>
</g>
<g>
</g>
<g>
</g>
<g>
</g>
<g>
</g>
<g>
</g>
<g>
</g>
<g>
</g>
<g>
</g>
</svg>
