<?xml version="1.0" encoding="iso-8859-1"?>
<!-- Generator: Adobe Illustrator 18.0.0, SVG Export Plug-In . SVG Version: 6.00 Build 0)  -->
<!DOCTYPE svg PUBLIC "-//W3C//DTD SVG 1.1//EN" "http://www.w3.org/Graphics/SVG/1.1/DTD/svg11.dtd">
<svg version="1.1" id="Capa_1" xmlns="http://www.w3.org/2000/svg" xmlns:xlink="http://www.w3.org/1999/xlink" x="0px" y="0px"
	 viewBox="0 0 456.729 456.729" style="enable-background:new 0 0 456.729 456.729;" xml:space="preserve">
<rect x="260.3" y="432.018" style="fill:none;stroke:#FF0000;stroke-miterlimit:10;" width="13.531" height="5.844"/>
<g>
	<circle cx="239.865" cy="148.231" r="9.412"/>
	<circle cx="292.414" cy="148.231" r="9.412"/>
	<path d="M396.133,288.292c0,0-82.487-82.964-83.519-83.88c11.499-11.633,18.653-27.562,18.819-45.134
		c8.465-2.017,14.651-9.571,14.651-18.628c0-7.154-3.861-13.371-9.655-16.662l15.775-38.15l-25.131-60.551L265.911,0L205.36,25.13
		l-25.286,61.163l15.669,37.752c-5.736,3.304-9.55,9.488-9.55,16.605c0,9.065,6.186,16.618,14.653,18.63
		c0.167,17.572,7.32,33.5,18.82,45.133c-3.475,3.084-72.152,72.951-72.152,72.951l-66.912-66.911
		c-3.031-3.032-7.058-4.702-11.338-4.702c-4.273,0-8.296,1.67-11.328,4.702c-3.029,3.028-4.697,7.054-4.697,11.333
		s1.668,8.305,4.695,11.332l71.366,71.366c-0.429,6.941,1.995,14.028,7.284,19.324l0.181,0.17c4.735,4.69,11.007,7.271,17.673,7.271
		c6.709,0,13.015-2.614,17.755-7.359l23.951-23.951V353.6h20.22v99.211c0,0.013,0,3.919,0,3.919h45.78h8h45.771V353.6h20.22v-54.103
		l24.392,24.392c4.745,4.746,11.054,7.359,17.762,7.359c6.67,0,12.94-2.583,17.671-7.275l0.174-0.164
		c4.746-4.746,7.359-11.054,7.359-17.762C403.491,299.336,400.877,293.03,396.133,288.292z M338.084,140.649
		c0,4.571-2.706,8.483-6.635,10.211v-20.421C335.378,132.167,338.084,136.078,338.084,140.649z M200.83,150.864
		c-3.93-1.725-6.637-5.638-6.637-10.214c0-4.576,2.707-8.488,6.637-10.214V150.864z M188.733,86.287l22.754-55.038l54.43-22.59
		l55.037,22.754l22.59,54.43l-12.469,30.159c-1.233-11.574-5.516-22.245-12.019-31.208c-3.536-26.171-26.093-45.783-52.912-45.783
		c-26.828,0-49.384,19.611-52.919,45.783c-6.551,9.03-10.855,19.791-12.052,31.464L188.733,86.287z M266.319,57.817h-0.358
		c-15.335,0-29.438,5.34-40.578,14.241c7.438-14.953,22.996-25.048,40.761-25.048c17.758,0,33.315,10.095,40.752,25.047
		C295.756,63.156,281.653,57.817,266.319,57.817z M282.901,68.279c-0.237,8.815-7.656,16.354-16.762,16.354
		c-9.106,0-16.525-7.539-16.762-16.354c5.251-1.596,10.817-2.463,16.583-2.463h0.358C272.085,65.817,277.65,66.683,282.901,68.279z
		 M208.83,158.655v-35.708c0-22.798,13.428-42.512,32.786-51.67c1.738,11.572,12.071,21.357,24.523,21.357
		c12.452,0,22.785-9.785,24.523-21.357c19.359,9.157,32.787,28.872,32.787,51.67v35.708c0,31.501-25.628,57.13-57.13,57.13h-0.358
		C234.459,215.785,208.83,190.156,208.83,158.655z M296.643,216.269l-2.748,20.311l-16.386-13.778
		C284.304,221.621,290.74,219.389,296.643,216.269z M254.777,222.804l-16.387,13.778l-2.753-20.312
		C241.542,219.39,247.98,221.622,254.777,222.804z M204.143,256.74c0-13.453,4.242-26.253,12.265-37.017
		c2.734-3.66,5.862-6.976,9.293-9.929c0.367,0.29,0.729,0.585,1.103,0.867l5.612,41.397l29.728-24.996v94.947h-14.121v4.541h-43.879
		V256.74z M113.11,254.273l-11.353,11.353l-15.476-15.475l11.353-11.353L113.11,254.273z M61.239,221.785
		c0-2.143,0.835-4.159,2.354-5.676c1.521-1.521,3.535-2.359,5.671-2.359c2.143,0,4.161,0.837,5.682,2.359l9.165,9.165
		l-11.353,11.353l-9.165-9.165C62.074,225.943,61.239,223.928,61.239,221.785z M136.585,288.291
		c-2.135,2.135-3.804,4.563-5.007,7.156l-16.296-16.296l11.353-11.353l15.222,15.222L136.585,288.291z M166.533,318.233
		c-3.229,3.233-7.525,5.014-12.096,5.014c-4.572,0-8.871-1.781-12.105-5.016l-0.17-0.16c-6.588-6.684-6.562-17.481,0.08-24.123
		l6.755-6.755l24.765,23.811L166.533,318.233z M196.143,256.74v31.883l-16.723,16.723l-24.765-23.811l44.204-44.204
		C197.063,243.573,196.143,250.086,196.143,256.74z M204.143,345.6v-11.05h43.879v11.05H204.143z M224.784,448.729
		c1.821-8.795,9.406-14.769,18.466-14.769s16.645,5.974,18.466,14.769H224.784z M262.143,433.674
		c-4.86-4.783-11.535-7.713-18.893-7.713c-7.355,0-14.028,2.928-18.888,7.709V353.6h23.659v4.645h14.121V433.674z M256.022,350.245
		v-20.235h20.235v20.235H256.022z M270.562,448.729c1.821-8.795,9.406-14.769,18.466-14.769c9.061,0,16.646,5.974,18.467,14.769
		H270.562z M307.914,433.667c-4.859-4.779-11.531-7.706-18.886-7.706c-7.354,0-14.025,2.927-18.885,7.706v-75.422h14.114V353.6
		h23.656V433.667z M328.134,345.6h-43.876v-11.05h43.876V345.6z M328.134,326.55h-43.876v-4.541h-14.114v-94.947l29.729,24.997
		l5.601-41.397c0.38-0.287,0.748-0.587,1.122-0.882c1.159,0.999,2.292,2.041,3.378,3.127c1.587,1.587,3.087,3.26,4.466,4.982
		c8.83,10.951,13.693,24.748,13.693,38.85V326.55z M336.134,288.183V256.74c0-6.844-1.021-13.622-2.97-20.111l43.83,43.836
		l-23.812,24.766L336.134,288.183z M390.552,318.074l-0.168,0.159c-3.229,3.233-7.525,5.014-12.097,5.014s-8.87-1.781-12.105-5.016
		l-7.341-7.341l23.812-24.766l7.824,7.825c3.234,3.229,5.015,7.525,5.015,12.096C395.491,310.581,393.738,314.848,390.552,318.074z"
		/>
	<rect x="214.763" y="263.85" width="35" height="8"/>
	<polygon points="307.503,257.228 300.396,259.784 293.288,257.228 291.949,264.661 286.18,269.538 291.949,274.415 
		293.288,281.849 300.396,279.292 307.503,281.849 308.843,274.415 314.611,269.538 308.843,264.661 	"/>
</g>
<g>
</g>
<g>
</g>
<g>
</g>
<g>
</g>
<g>
</g>
<g>
</g>
<g>
</g>
<g>
</g>
<g>
</g>
<g>
</g>
<g>
</g>
<g>
</g>
<g>
</g>
<g>
</g>
<g>
</g>
</svg>
