<?xml version="1.0" encoding="iso-8859-1"?>
<!-- Generator: Adobe Illustrator 18.0.0, SVG Export Plug-In . SVG Version: 6.00 Build 0)  -->
<!DOCTYPE svg PUBLIC "-//W3C//DTD SVG 1.1//EN" "http://www.w3.org/Graphics/SVG/1.1/DTD/svg11.dtd">
<svg version="1.1" id="Capa_1" xmlns="http://www.w3.org/2000/svg" xmlns:xlink="http://www.w3.org/1999/xlink" x="0px" y="0px"
	 viewBox="0 0 427.99 427.99" style="enable-background:new 0 0 427.99 427.99;" xml:space="preserve">
<g>
	<path d="M102.19,297.58c-8.42,0-15.27,6.85-15.27,15.27c0,8.42,6.85,15.26,15.27,15.26c8.42,0,15.27-6.84,15.27-15.26
		C117.46,304.43,110.61,297.58,102.19,297.58z M102.19,320.11c-4.01,0-7.27-3.26-7.27-7.26c0-4.01,3.26-7.27,7.27-7.27
		c4.01,0,7.27,3.26,7.27,7.27C109.46,316.85,106.2,320.11,102.19,320.11z"/>
	<path d="M205.01,224.99h-4v64h4c17.32,0,31.95-14.68,31.95-32S222.33,224.99,205.01,224.99z M209.01,280.61V233.4
		c11.16,1.97,19.95,11.98,19.95,23.6C228.96,268.63,220.17,278.64,209.01,280.61z"/>
	<path d="M248.998,232.999h20v29.123c0,10.82-9,19.623-20,19.623v8c15,0,28-12.392,28-27.623v-37.123h-28V232.999z"/>
	<path d="M370.85,258.86c0,0-81.3-81.62-84.16-84.18c7.92-7.97,13.74-17.85,16.72-28.43c18.06-1.75,32.31-17.14,32.31-35.58
		c0-1.59-0.13-11.26-0.14-11.85c-0.45-23.7-9.97-46.14-26.36-63.39c-2.09-15.1-12.51-28.27-27.99-33.11L273.87,0l2.46,7.39
		c0.65,1.96,1.09,3.96,1.36,5.97C266,8.39,253.04,5.78,240.25,5.78c-52.38,0-95.24,42.51-95.24,94.77c0,0,0.04,8.83,0.04,10.12
		c0,18.29,14.15,33.59,32.01,35.54c2.99,10.81,8.65,20.5,16.43,28.39c-3.36,3.51-84.58,85.52-85.14,86.2
		c-2.02-0.24-4.08-0.38-6.16-0.38c-28.91,0-52.43,23.52-52.43,52.43c0,28.91,23.52,52.42,52.43,52.42
		c28.91,0,52.42-23.51,52.42-52.42c0-7.91-1.77-15.41-4.92-22.15l20.32-20.31v53.6h20v104h100v-104h20v-54.51l25.11,25.11
		c4.92,4.92,11.39,7.38,17.86,7.38c6.47,0,12.94-2.46,17.87-7.38C380.69,284.74,380.69,268.72,370.85,258.86z M298.01,106.87
		c-2.38-9.15-10.68-15.88-20.59-15.88h-33.41v15h-6v-15h-34.24c-9.89,0-18.32,6.7-20.76,15.83V93.08c0-1.82,0.05-3.5,0.15-5.09
		h12.85v-8h-11.73c0.55-2.41,1.26-4.74,2.09-7h12.64v-8h-8.97c0.08-0.15,0.77-1.35,1.06-1.79c2.36-3.74,5.48-6.97,9.12-9.5
		c0.02-0.02,0.04-0.03,0.06-0.04c6.73-4.67,13.06-6.27,18.8-4.77c7.93,2.08,13.14,9.53,15.09,12.79c0.56,0.93,0.97,1.49,0.97,1.49
		c5.4,8.34,13.72,14.5,23.57,17.14c3.45,0.93,7,1.4,10.54,1.4c9.27,0,17.98-3.17,24.94-8.6c0.87,2.28,1.58,4.54,2.1,6.74
		c1.16,4.91,1.72,9.24,1.72,13.23V106.87z M259.51,112.99l18.5-18.5l-8.29,18.5h9.79l-17.75,17.75l7.96-17.75H259.51z
		 M200.78,112.99l18.5-18.5l-8.29,18.5h9.79l-17.75,17.75l7.96-17.75H200.78z M216.85,40.43c7.13-3.16,15.01-4.9,23.24-4.9
		c9.38,0,18.52,2.27,26.74,6.59c-5.8,5.06-13.35,8.07-21.44,8.07c-2.84,0-5.69-0.38-8.47-1.12c-0.02-0.01-0.06-0.02-0.11-0.03
		c-2.05-0.6-4-1.55-5.7-2.85c-2.78-2.15-6.1-4-9.93-5.02C219.75,40.79,218.3,40.55,216.85,40.43z M305.23,137.91
		c0.52-3.27,0.78-6.36,0.78-9.34V93.08c0-3.05-0.28-6.25-0.85-9.65c12.81,2.45,22.56,13.79,22.56,27.24
		C327.72,124.09,317.99,135.43,305.23,137.91z M309.33,47.53c8.92,11.47,14.75,24.88,17.05,39.14
		c-5.85-6.42-13.98-10.73-23.08-11.58c-0.77-2.62-1.75-5.29-2.92-7.96c3.7-4.43,6.51-9.69,8.08-15.53
		C308.82,50.25,309.11,48.88,309.33,47.53z M284.6,27.98c1.34-4.98,1.71-10.01,1.13-15.05c12.45,7.25,18.89,22.07,15,36.59
		c-3.82,14.23-16.76,24.16-31.48,24.16c-2.84,0-5.69-0.4-8.47-1.14c-8.24-2.21-15.15-7.53-19.45-14.66
		c1.35,0.14,2.71,0.11,4.06,0.11c9.16,0,17.78-3.07,24.7-8.36C277.01,44.35,282.23,36.85,284.6,27.98z M153.43,113.3
		c-0.09-0.87-0.48-6.93,0.74-10.61c3.22-9.67,11.11-17.17,21.13-19.21c-0.36,2.91-0.29,6.05-0.29,9.6v35.49
		c0,3.45,0.16,6.49,0.5,9.29C163.72,135.43,154.59,125.45,153.43,113.3z M177.27,75.13c-8.93,0.95-16.89,5.23-22.64,11.55
		c6.67-41.27,42.64-72.9,85.88-72.9c13.04,0,25.52,2.8,37.14,8.32c-0.18,1.31-0.43,2.62-0.78,3.91c-0.97,3.64-2.54,6.99-4.59,9.97
		c-9.79-5.53-20.84-8.45-32.19-8.45c-20.85,0-39.69,9.75-51.73,25.44c-0.07,0.08-1.91,2.45-3.77,5.52
		c-1.78,2.95-3.58,6.59-3.58,6.59C179.51,68.28,178.25,71.64,177.27,75.13z M184.24,141.52c-0.84-3.63-1.23-7.75-1.23-12.95v-10.15
		c2.82,12.23,14,21.33,27,21.33v-0.01c15,0,26.55-11.38,27.49-25.75h6.19c0.94,14.37,12.88,25.73,27.48,25.73
		c13.08,0,24.03-9.08,26.84-21.29v10.14c0,3.95-0.54,8.19-1.64,12.95c-2.65,11.53-9.15,22.3-18.32,30.33
		c-10.47,9.2-23.93,14.27-37.9,14.27c-13.94,0-27.39-5.07-37.88-14.28C193.21,163.9,186.97,153.42,184.24,141.52z M267.67,188.04
		c-2.85,12.61-14.13,22.05-27.58,22.05c-13.47,0-24.77-9.48-27.59-22.12c8.6,4.01,18.02,6.15,27.65,6.15
		C249.74,194.12,259.12,192.01,267.67,188.04z M102.19,357.27c-24.5,0-44.43-19.93-44.43-44.42c0-24.5,19.93-44.43,44.43-44.43
		s44.42,19.93,44.42,44.43C146.61,337.34,126.69,357.27,102.19,357.27z M170.01,259.07l-24.41,24.41
		c-6.64-9.78-16.49-17.21-28.03-20.75l36.44-36.42l16,15.38V259.07z M170.01,227.23v3.36l-10.34-9.94l13.09-13.08
		C170.95,213.87,170.01,220.47,170.01,227.23z M198.6,419.99c1.9-8.27,9.47-14.98,18.51-14.98c9.04,0,16.62,6.71,18.51,14.98H198.6z
		 M236.01,404.71c-4.87-4.77-11.54-7.7-18.9-7.7c-7.45,0-14.21,3.01-19.1,7.9v-80.92h38V404.71z M244.56,419.99
		c1.9-8.27,9.47-14.98,18.51-14.98c9.04,0,16.62,6.71,18.51,14.98H244.56z M282.01,404.75c-4.88-4.79-11.56-7.74-18.94-7.74
		c-7.43,0-14.18,2.99-19.06,7.86v-80.88h38V404.75z M302.01,315.99h-124v-88.76c0-13.59,4.22-26.44,12.21-37.17
		c0,0,4.29-5.69,9.33-10.09c1.39,1.11,2.83,2.16,4.3,3.14c0.69,19.4,16.68,34.98,36.24,34.98c19.53,0,35.5-15.52,36.24-34.88
		c1.5-0.99,2.95-2.05,4.36-3.17c3.94,3.07,9.07,9.29,9.5,9.88c7.74,10.53,11.82,23.39,11.82,37.31V315.99z M307.1,206.43l12.8,12.8
		l-9.89,9.51v-1.51C310.01,220,309.02,213.03,307.1,206.43z M365.19,288.93c-6.73,6.73-17.68,6.73-24.41,0l-30.77-30.77v-18.33
		l15.55-14.94l39.63,39.63C371.92,271.25,371.92,282.2,365.19,288.93z"/>
</g>
<g>
</g>
<g>
</g>
<g>
</g>
<g>
</g>
<g>
</g>
<g>
</g>
<g>
</g>
<g>
</g>
<g>
</g>
<g>
</g>
<g>
</g>
<g>
</g>
<g>
</g>
<g>
</g>
<g>
</g>
</svg>
