<?xml version="1.0" encoding="iso-8859-1"?>
<!-- Generator: Adobe Illustrator 18.0.0, SVG Export Plug-In . SVG Version: 6.00 Build 0)  -->
<!DOCTYPE svg PUBLIC "-//W3C//DTD SVG 1.1//EN" "http://www.w3.org/Graphics/SVG/1.1/DTD/svg11.dtd">
<svg version="1.1" id="Capa_1" xmlns="http://www.w3.org/2000/svg" xmlns:xlink="http://www.w3.org/1999/xlink" x="0px" y="0px"
	 viewBox="0 0 431 431" style="enable-background:new 0 0 431 431;" xml:space="preserve">
<rect x="249.373" y="226.719" style="fill:none;stroke:#FF0000;stroke-width:0.25;stroke-miterlimit:10;" width="12.594" height="2.641"/>
<g>
	<path d="M345.654,262.361c0,0-82.753-83.136-83.685-83.979c11.623-11.929,18.523-28.118,18.648-45.415
		c8.556-1.964,14.809-9.544,14.809-18.697c0-9.16-6.264-16.746-14.824-18.708c-0.141-12.268-3.994-23.95-9.994-34.099V0h-110v41.545
		c-8,5.773-13.696,15.357-13.696,26.19c0,5.676,1.501,11.007,4.109,15.63c-0.861,4.17-1.326,8.286-1.375,12.27
		c-8.396,2.083-14.53,9.644-14.53,18.634c0,8.98,6.13,16.533,14.518,18.62c0.106,17.312,7.085,33.548,18.844,45.51
		c-3.231,2.891-83.15,83.961-83.15,83.961c-9.786,9.786-9.786,25.718-0.001,35.515l0.223,0.213c4.89,4.867,11.301,7.3,17.712,7.3
		c6.43,0,12.85-2.447,17.745-7.341l23.602-23.611V355h21v76h46.018h8h45.982v-76h20v-81.293l24.352,24.344
		c4.896,4.889,11.329,7.333,17.76,7.333c6.433,0,12.869-2.446,17.767-7.339l0.167-0.166c4.746-4.746,7.36-11.054,7.36-17.762
		C353.013,273.407,350.399,267.101,345.654,262.361z M280.607,103.954c4,1.697,6.8,5.654,6.8,10.316c0,4.658-2.8,8.612-6.8,10.307
		V103.954z M149.607,124.446c-4-1.772-6.51-5.666-6.51-10.176c0-4.515,2.51-8.412,6.51-10.186V124.446z M168.607,8h94v48h-54.093
		c-4.687-11.809-16.227-20.184-29.684-20.184c-3.572,0-7.223,0.599-10.223,1.686V8z M178.84,43.816
		c13.189,0,23.92,10.73,23.92,23.919s-10.73,23.92-23.92,23.92s-23.919-10.73-23.919-23.92S165.65,43.816,178.84,43.816z
		 M157.607,132.49V96.35c0-1.521,0.102-3.051,0.242-4.59c5.615,4.91,12.958,7.895,20.986,7.895c17.601,0,31.922-14.319,31.922-31.92
		c0-1.264-0.08-2.509-0.224-3.735h52.191c6.482,9.474,9.883,20.614,9.883,32.35v36.14c0,22.791-13.381,43.463-34.108,52.666
		c-7.218,3.214-14.908,4.844-22.874,4.844h-0.71c-6.06,0-12.344-1.11-18.726-3.305c-1.087-0.374-4.271-1.601-4.335-1.626
		C171.056,175.803,157.607,155.165,157.607,132.49z M263.191,240.566c0,5.275-4.291,9.566-9.565,9.566s-9.565-4.291-9.565-9.566
		s4.291-9.566,9.565-9.566S263.191,235.291,263.191,240.566z M115.358,292.392c-6.671,6.67-17.523,6.67-24.194,0l-0.216-0.207
		c-6.631-6.681-6.619-17.511,0.036-24.167l6.823-6.822l24.852,23.894L115.358,292.392z M144.607,230.68v32.443l-16.301,16.31
		L103.46,255.54l43.828-43.829C145.523,217.851,144.607,224.215,144.607,230.68z M174.053,423
		c1.911-8.427,9.407-14.739,18.355-14.739s16.443,6.313,18.355,14.739H174.053z M211.607,408.425
		c-5-5.031-11.689-8.164-19.218-8.164c-7.307,0-13.782,2.951-18.782,7.723V355h38V408.425z M211.607,347h-59V230.68
		c0-12.64,3.929-24.655,11.362-35.645l0.039-0.035c0,0,4.543-6.469,10.44-11.207c0.055,0.043,0.159,0.084,0.159,0.128v29.71
		c-4,0.789-7.291,2.624-9.979,5.311c-3.883,3.883-6.021,8.815-6.021,13.889V269c0,7.168,6,13,13,13v-8c-3,0-5-2.243-5-5v-36.17
		c0-2.894,1.35-5.894,3.687-8.231c2.135-2.134,5.308-3.409,8.497-3.409c6.518,0,11.816,5.222,11.816,11.64V269
		c0,2.757-2.225,5-4.982,5h-1.018v8h1.018c7.168,0,12.982-5.832,12.982-13v-36.17c0-9.534-7-17.496-16-19.266v-24.235
		c2,1.048,3.71,2.015,5.654,2.894l23.346,33.041V347z M215.637,217.078l-14.636-20.713c4.699,1.074,9.352,1.635,13.914,1.635h0.71
		c4.899,0,9.706-0.559,14.392-1.631L215.637,217.078z M219.733,423c1.911-8.427,9.407-14.739,18.354-14.739
		c8.948,0,16.443,6.313,18.355,14.739H219.733z M257.607,408.763c-5-5.228-11.843-8.502-19.539-8.502
		c-7.147,0-13.461,2.826-18.461,7.416V355h38V408.763z M277.607,347h-58V225.36l23.179-33.382c2.362-1.099,4.821-2.328,6.821-3.68
		v35.18c-8,1.818-13.556,8.781-13.556,17.089c0,9.686,7.885,17.566,17.57,17.566s17.559-7.88,17.559-17.566
		c0-8.308-5.572-15.271-13.572-17.089v-38.223c1,0.47,1.008,0.957,1.516,1.464c1.556,1.552,4.356,4.978,4.356,4.978
		c9.113,11.483,14.128,25.328,14.128,38.983V347z M285.607,262.393V230.68c0-6.788-1.082-13.606-3.169-20.212l44.003,43.999
		l-23.902,24.852L285.607,262.393z M339.994,292.226l-0.165,0.165c-6.673,6.666-17.532,6.666-24.205,0.001l-7.414-7.414
		l23.895-24.852l7.895,7.895c3.234,3.229,5.015,7.525,5.015,12.096C345.013,284.688,343.232,288.987,339.994,292.226z"/>
	<circle cx="188.925" cy="121.871" r="9.438"/>
	<circle cx="241.618" cy="121.871" r="9.438"/>
	<circle cx="178.84" cy="68.129" r="7.078"/>
	<polygon points="211.607,43 219.607,43 219.607,35 227.607,35 227.607,27 219.607,27 219.607,19 211.607,19 211.607,27 203.607,27 
		203.607,35 211.607,35 	"/>
</g>
<g>
</g>
<g>
</g>
<g>
</g>
<g>
</g>
<g>
</g>
<g>
</g>
<g>
</g>
<g>
</g>
<g>
</g>
<g>
</g>
<g>
</g>
<g>
</g>
<g>
</g>
<g>
</g>
<g>
</g>
</svg>
