<?xml version="1.0" encoding="iso-8859-1"?>
<!-- Generator: Adobe Illustrator 18.0.0, SVG Export Plug-In . SVG Version: 6.00 Build 0)  -->
<!DOCTYPE svg PUBLIC "-//W3C//DTD SVG 1.1//EN" "http://www.w3.org/Graphics/SVG/1.1/DTD/svg11.dtd">
<svg version="1.1" id="Capa_1" xmlns="http://www.w3.org/2000/svg" xmlns:xlink="http://www.w3.org/1999/xlink" x="0px" y="0px"
	 viewBox="0 0 400.465 400.465" style="enable-background:new 0 0 400.465 400.465;" xml:space="preserve">
<g>
	<path d="M364.977,292.63c-0.385-13.62-7.898-25.997-19.338-32.331c1.674-3.414,2.564-7.19,2.564-11.104
		c0-6.746-2.627-13.088-7.397-17.857c0,0-82.807-83.292-83.867-84.231c11.543-11.673,18.736-27.645,18.947-45.27
		c8.505-2.017,14.722-9.6,14.722-18.691c0-9.094-6.22-16.68-14.729-18.694C275.286,28.813,246.131,0,210.355,0
		c-35.776,0-64.931,28.813-65.524,64.45c-8.505,2.013-14.723,9.598-14.723,18.694c0,9.093,6.214,16.675,14.715,18.692
		c0.212,17.627,7.406,33.602,18.952,45.274c-3.207,3.861-68.747,69.546-68.747,69.546v-35.392c0-5.949-4.84-10.79-10.79-10.79h-38.9
		c-1.02,0-1.85-0.83-1.85-1.85v-18.86c0-1.02,0.83-1.85,1.85-1.85h6.8v0.591c0,7.33,5.963,13.293,13.292,13.293h53.318
		c7.33,0,13.292-5.963,13.292-13.293v-9.277c0-7.329-5.963-13.292-13.292-13.292H65.431c-7.329,0-13.292,5.963-13.292,13.292v0.686
		h-6.8c-5.431,0-9.85,4.419-9.85,9.85v18.86c0,5.431,4.419,9.85,9.85,9.85h38.9c1.538,0,2.79,1.252,2.79,2.79v43.393l-6.677,6.678
		c-4.776,4.77-7.406,11.112-7.406,17.86c0,6.747,2.63,13.09,7.402,17.856c1.982,1.985,4.239,3.593,6.68,4.802v112.353h8V274.253
		c1.047,0.131,2.108,0.205,3.18,0.205c6.748,0,13.09-2.631,17.858-7.405l24.032-24.032v53.904h20.3v103.54h99.92v-103.54h20.29
		v-54.353l23.271,23.27c-7.212,6.877-11.501,16.538-11.788,26.788l10.861,73.161h51.577L364.977,292.63z M60.138,139.229
		c0-2.918,2.374-5.292,5.292-5.292h53.318c2.918,0,5.292,2.374,5.292,5.292v9.277c0,2.919-2.374,5.293-5.292,5.293H65.431
		c-2.918,0-5.292-2.374-5.292-5.293V139.229z M340.203,249.194c0,4.61-1.795,8.943-5.056,12.204
		c-3.258,3.263-7.591,5.059-12.199,5.059c-4.609,0-8.941-1.796-12.202-5.06l-8.616-8.616l24.883-23.924l8.137,8.137
		C338.408,240.252,340.203,244.585,340.203,249.194z M169.797,152.483c0.521,0.412,31.502,31.141,31.502,31.141l-16.387,7.203
		l-18.133-35.598C167.748,154.283,168.76,153.372,169.797,152.483z M210.358,181.368l-17.039-17.033
		c5.436,1.465,11.143,2.259,17.035,2.259c5.895,0,11.606-0.795,17.045-2.261L210.358,181.368z M250.92,152.477
		c1.031,0.885,2.036,1.806,3.007,2.758l-18.13,35.592l-16.382-7.201C219.415,183.626,250.404,152.885,250.92,152.477z
		 M282.608,83.145c0,4.605-2.735,8.544-6.702,10.275v-20.55C279.874,74.601,282.608,78.539,282.608,83.145z M210.355,8
		c21.267,0,39.863,11.604,49.826,28.805h-99.651C170.492,19.604,189.088,8,210.355,8z M215.891,65.046
		c-9.899-1.813-17.722-9.637-19.536-19.535C206.253,47.324,214.077,55.147,215.891,65.046z M187.558,45.511
		c-1.814,9.898-9.637,17.722-19.536,19.535C169.836,55.147,177.66,47.324,187.558,45.511z M138.108,83.145
		c0-4.605,2.732-8.543,6.695-10.275v20.549C140.84,91.688,138.108,87.75,138.108,83.145z M152.803,65.552
		c0-7.314,1.386-14.306,3.885-20.747h14.368c-6.986,5.935-11.431,14.776-11.431,24.64v4h4c12.191,0,22.825-6.784,28.332-16.774
		c5.508,9.99,16.141,16.774,28.333,16.774h4v-4c0-9.864-4.445-18.704-11.431-24.64h27.21v12h8v-12h5v17h8v-17h2.954
		c2.499,6.441,3.885,13.433,3.885,20.747v35.49c0,31.734-25.818,57.552-57.552,57.552c-31.734,0-57.552-25.817-57.552-57.552V65.552
		z M110.408,261.398c-3.258,3.263-7.591,5.06-12.2,5.06c-4.608,0-8.941-1.797-12.203-5.064c-3.262-3.259-5.059-7.591-5.059-12.199
		c0-4.609,1.797-8.941,5.061-12.202l9.105-9.106l24.883,23.924L110.408,261.398z M125.653,246.153l-24.884-23.925l42.066-42.072
		c-1.798,6.259-2.738,12.821-2.738,19.539v32.013L125.653,246.153z M148.098,199.694c0-14.022,4.624-27.274,12.976-38.04
		l20.139,39.536l24.855-10.923v98.658h-57.97V199.694z M206.358,296.925v80.684c-4.878-4.821-11.587-7.783-18.983-7.783
		c-7.393,0-14.099,2.96-18.977,7.778v-44.602c2.647,1.79,5.836,2.837,9.265,2.837c9.141,0,16.577-7.437,16.577-16.576
		c0-9.141-7.436-16.577-16.577-16.577c-3.429,0-6.618,1.047-9.265,2.837v-8.597H206.358z M205.876,392.465h-37.002
		c1.91-8.694,9.472-14.64,18.501-14.64C196.404,377.825,203.966,383.771,205.876,392.465z M169.086,319.262
		c0-4.729,3.848-8.577,8.577-8.577c4.729,0,8.577,3.848,8.577,8.577c0,4.729-3.848,8.576-8.577,8.576
		C172.934,327.838,169.086,323.99,169.086,319.262z M214.833,392.465c1.91-8.694,9.472-14.64,18.501-14.64
		c9.029,0,16.591,5.946,18.501,14.64H214.833z M252.318,377.61c-4.879-4.821-11.588-7.784-18.984-7.784
		c-7.393,0-14.098,2.96-18.976,7.777v-80.677h37.96V377.61z M272.608,288.925h-58.54v-98.91l25.428,11.175l20.136-39.529
		c8.406,10.852,12.977,24.09,12.977,38.033V288.925z M277.676,179.52l43.678,43.678l-24.883,23.924l-15.864-15.864v-31.564
		C280.608,192.762,279.604,185.984,277.676,179.52z M310.128,270.966c3.843,2.275,8.237,3.491,12.82,3.491
		c6.747,0,13.09-2.63,17.858-7.404c0.06-0.06,0.115-0.122,0.174-0.183c9.378,4.795,15.606,14.74,15.997,25.76H300.09
		C300.385,284.235,304.048,276.378,310.128,270.966z M347.676,357.791h-37.87l-8.875-57.161h55.221L347.676,357.791z"/>
	<circle cx="183.976" cy="90.757" r="9.449"/>
	<circle cx="236.733" cy="90.757" r="9.449"/>
	<path d="M252.824,210.985c-3.594,0-7.037,1.333-9.694,3.756c-1.85,1.688-3.209,3.807-3.972,6.156
		c-3.055,0.73-5.854,2.206-8.216,4.361c-3.703,3.377-5.869,7.982-6.099,12.989c-0.23,5.007,1.503,9.78,4.881,13.484
		c3.547,3.889,8.601,6.073,13.867,6.073c0,0,0.001,0,0.001,0c4.686,0,9.176-1.694,12.64-4.855c4.652-4.242,6.813-10.48,5.899-16.599
		c0.134-0.112,0.264-0.228,0.393-0.345c2.84-2.59,4.501-6.131,4.677-9.97c0.176-3.84-1.153-7.519-3.743-10.358
		C260.739,212.695,256.863,210.985,252.824,210.985z M257.132,230.097c-0.391,0.358-0.836,0.665-1.36,0.938l-2.996,1.563l1.04,3.215
		c1.299,4.016,0.132,8.44-2.974,11.273c-1.988,1.813-4.562,2.811-7.249,2.811h-0.001c-3.022,0-5.922-1.279-7.957-3.51
		c-1.938-2.125-2.932-4.876-2.8-7.749c0.132-2.872,1.374-5.521,3.499-7.458c1.789-1.633,4.021-2.591,6.454-2.77l3.379-0.249
		l0.31-3.374c0.147-1.597,0.873-3.064,2.044-4.134c1.18-1.075,2.708-1.668,4.303-1.668c1.821,0,3.498,0.739,4.724,2.083
		c1.15,1.262,1.741,2.895,1.662,4.6C259.132,227.373,258.395,228.945,257.132,230.097z"/>
</g>
<g>
</g>
<g>
</g>
<g>
</g>
<g>
</g>
<g>
</g>
<g>
</g>
<g>
</g>
<g>
</g>
<g>
</g>
<g>
</g>
<g>
</g>
<g>
</g>
<g>
</g>
<g>
</g>
<g>
</g>
</svg>
