<?xml version="1.0" encoding="iso-8859-1"?>
<!-- Generator: Adobe Illustrator 18.0.0, SVG Export Plug-In . SVG Version: 6.00 Build 0)  -->
<!DOCTYPE svg PUBLIC "-//W3C//DTD SVG 1.1//EN" "http://www.w3.org/Graphics/SVG/1.1/DTD/svg11.dtd">
<svg version="1.1" id="Capa_1" xmlns="http://www.w3.org/2000/svg" xmlns:xlink="http://www.w3.org/1999/xlink" x="0px" y="0px"
	 viewBox="0 0 441.6 441.6" style="enable-background:new 0 0 441.6 441.6;" xml:space="preserve">
<g>
	<path d="M381.795,225.393l12.181-19.866l-12.434-12.434l-19.884,12.199l5.045,9.303l-42.41,42.41
		c-5.77-3.477-13.392-2.746-18.38,2.229l-1.831,1.835c0,0-71.399-71.874-72.46-72.814c11.907-12.042,18.734-28.258,18.942-45.275
		c8.499-2.018,14.712-9.605,14.712-18.7c0-9.094-6.214-16.676-14.715-18.692c-0.093-5.652-0.891-11.207-2.4-16.588h15.935v-8
		h-13.512v-9.131c0-34.78-27.23-63.306-61.488-65.413V0h-8v6.446c-34.319,2.044-61.615,30.6-61.615,65.423V81h-13.385v8H121.9
		c-1.508,5.381-2.306,10.935-2.399,16.588c-8.501,2.016-14.715,9.598-14.715,18.692c0,9.096,6.212,16.682,14.712,18.7
		c0.209,17.013,7.035,33.232,18.942,45.283c-3.491,3.092-83.41,84.206-83.41,84.206c-4.775,4.77-7.406,11.114-7.406,17.865
		c0,6.751,2.63,13.096,7.404,17.863c4.923,4.924,11.391,7.386,17.858,7.386c6.467,0,12.935-2.462,17.858-7.386l24.032-24.032v27.124
		v26.77h20.3V441.6h99.92V338.06h20.29v-26.77v-27.574l24.481,24.482c4.924,4.925,11.39,7.386,17.858,7.386
		c6.467,0,12.936-2.463,17.859-7.386c6.213-6.213,8.502-14.883,6.878-22.91l4.796-4.803c2.842-2.83,4.408-6.603,4.408-10.625
		c0-2.503-0.608-4.912-1.753-7.06l42.52-42.519L381.795,225.393z M250.586,114.007c3.96,1.732,6.69,5.669,6.69,10.273
		c0,4.608-2.73,8.548-6.69,10.282V114.007z M119.476,134.562c-3.961-1.734-6.69-5.674-6.69-10.282c0-4.604,2.729-8.541,6.69-10.273
		V134.562z M189.096,14.477C214.941,16.29,236.132,35.23,241.347,60h-52.251V14.477z M181.096,14.467V60h-52.378
		C133.941,35.189,155.193,16.227,181.096,14.467z M127.625,68h114.814c0.085,1.28,0.145,13,0.145,13H127.48
		C127.48,81,127.54,69.28,127.625,68z M201.76,89c-1.02,8.133-8.126,14.867-16.728,14.867S169.324,97.133,168.304,89H201.76z
		 M127.476,142.18V106.69c0-6.062,0.943-11.996,2.785-17.69h29.99c1.005,13.02,11.732,22.867,24.782,22.867
		c13.05,0,23.777-9.847,24.782-22.867H239.8c1.842,5.695,2.786,11.629,2.786,17.69v35.489c0,16.564-7.15,32.337-19.62,43.274
		c-10.484,9.206-23.955,14.276-37.931,14.276c-13.972,0-27.443-5.067-37.932-14.268l-0.491-0.428
		C134.443,174.108,127.476,158.526,127.476,142.18z M170.182,291v-10.482h29.701v28.745h-29.701V299h17.914v-8H170.182z
		 M208.544,203.365l-23.512,26.345l-23.523-26.358c7.446,2.863,15.41,4.378,23.527,4.378
		C193.146,207.73,201.105,206.223,208.544,203.365z M122.776,240.84c0-13.55,4.278-26.428,12.374-37.245
		c2.387-3.194,5.078-6.128,8.007-8.791l37.939,42.511v35.204h-18.914v5.972h-39.406V240.84z M122.776,286.49h39.406v16.8h-39.406
		V286.49z M99.363,239.444c0.963,1.533,1.491,3.314,1.491,5.184c0,5.393-4.387,9.779-9.78,9.779c-1.869,0-3.65-0.528-5.183-1.49
		L99.363,239.444z M85.087,302.542c-6.728,6.727-17.674,6.727-24.405-0.002c-3.262-3.259-5.059-7.593-5.059-12.205
		s1.797-8.946,5.061-12.207l9.103-9.104l24.889,23.93L85.087,302.542z M114.776,240.84v32.013l-14.442,14.442l-24.889-23.93
		l4.709-4.71c3.086,2.415,6.89,3.752,10.92,3.752c9.804,0,17.78-7.976,17.78-17.779c0-4.031-1.338-7.836-3.754-10.922l12.421-12.423
		C115.707,227.568,114.776,234.131,114.776,240.84z M143.567,433.6c1.932-8.66,9.479-14.579,18.486-14.579
		c9.007,0,16.554,5.919,18.486,14.579H143.567z M181.036,418.804c-4.878-4.821-11.587-7.783-18.983-7.783
		c-7.393,0-14.099,2.96-18.977,7.778V338.06h37.96V418.804z M181.096,330.06h-58.32v-18.77h39.406v5.974h18.914V330.06z
		 M189.526,433.6c1.932-8.66,9.479-14.579,18.486-14.579c9.007,0,16.554,5.919,18.486,14.579H189.526z M226.996,418.805
		c-4.879-4.821-11.588-7.784-18.984-7.784c-7.393,0-14.098,2.96-18.976,7.777V338.06h37.96V418.805z M247.286,330.06h-58.19v-12.796
		h18.787v-5.974h39.403V330.06z M207.882,303.29v-16.8h6.046l8.476,8.4l-8.475,8.399H207.882z M247.286,303.29h-21.992l8.475-8.399
		l-8.476-8.4h21.993V303.29z M247.286,278.49h-39.403v-5.972h-18.787v-35.346l37.813-42.37c0.728,0.662,5.235,5.273,6.632,7.006
		c8.864,11.005,13.745,24.867,13.745,39.031V278.49z M255.286,272.403V240.84c0-6.891-1.029-13.716-2.996-20.249l43.745,43.745
		l-24.888,23.929L255.286,272.403z M309.828,302.542c-6.728,6.728-17.675,6.728-24.403,0l-8.619-8.62l24.888-23.929l8.135,8.135
		C316.558,284.859,316.558,295.81,309.828,302.542z M321.505,274.824l-2.333,2.337c-1.02-1.669-2.245-3.247-3.688-4.689
		l-5.745-5.745l1.831-1.835c2.745-2.737,7.202-2.738,9.936-0.004c1.328,1.328,2.059,3.094,2.059,4.973
		C323.566,271.738,322.837,273.498,321.505,274.824z"/>
	<circle cx="158.654" cy="131.895" r="9.449"/>
	<circle cx="211.411" cy="131.895" r="9.449"/>
	<circle cx="151.815" cy="294.344" r="3.694"/>
	<polygon points="217.096,222 209.096,222 209.096,254.223 223.096,246.349 223.096,266 231.096,266 231.096,232.671 
		217.096,240.545 	"/>
</g>
<g>
</g>
<g>
</g>
<g>
</g>
<g>
</g>
<g>
</g>
<g>
</g>
<g>
</g>
<g>
</g>
<g>
</g>
<g>
</g>
<g>
</g>
<g>
</g>
<g>
</g>
<g>
</g>
<g>
</g>
</svg>
