<?xml version="1.0" encoding="iso-8859-1"?>
<!-- Generator: Adobe Illustrator 18.0.0, SVG Export Plug-In . SVG Version: 6.00 Build 0)  -->
<!DOCTYPE svg PUBLIC "-//W3C//DTD SVG 1.1//EN" "http://www.w3.org/Graphics/SVG/1.1/DTD/svg11.dtd">
<svg version="1.1" id="Capa_1" xmlns="http://www.w3.org/2000/svg" xmlns:xlink="http://www.w3.org/1999/xlink" x="0px" y="0px"
	 viewBox="0 0 470.67 470.67" style="enable-background:new 0 0 470.67 470.67;" xml:space="preserve">
<g>
	<path d="M393.219,301.542c0,0-83.037-83.255-84.069-84.172c11.139-11.717,18.08-27.624,18.326-45.163
		c8.839-1.725,15.534-9.52,15.534-18.856c0-3.145-0.749-6.145-2.158-8.846c10.875-10.259,16.609-22.294,16.609-34.994
		c0-16.766-10.036-32.397-28.258-44.015c-2.289-1.459-4.678-2.829-7.149-4.116c-3.664-20.87-18.912-39.089-38.854-46.484
		C281.795,6.455,274.442,0,265.61,0h-5.42c-8.816,0-16.157,6.438-17.573,14.863c-20.639,7.378-35.698,25.47-39.141,47.09
		c-2.09,1.121-4.126,2.295-6.081,3.541c-18.22,11.617-28.254,27.249-28.254,44.015c0,12.42,5.497,24.22,15.92,34.323
		c-1.646,2.882-2.54,6.152-2.54,9.518c0,9.096,6.443,16.802,15.001,18.738c0.219,17.54,7.211,33.452,18.45,45.187
		c-3.85,3.404-80.172,81.218-80.172,81.218l-9.831-11.416l-2.87,1.658c-1.212,0.7-28.986,17.16-36.42,55.367h-7.162l-9.451,63.119
		h39.21l-9.451-63.119H94.85c5.775-26.83,22.868-41.691,29.542-46.596l5.913,6.867c-3.213,4.323-4.95,9.54-4.95,15.026
		c0,6.747,2.627,13.089,7.398,17.86c2.077,2.075,4.431,3.707,6.94,4.907c-8.313,5.152-13.865,14.355-13.865,24.834v66.993h58.395
		v-66.993c0-12.39-7.762-22.996-18.675-27.229c1.024-0.751,2.004-1.589,2.929-2.515l23.771-23.771v53.643h20.55v103.54h99.92V367.13
		h20.03v-54.613l24.743,24.743c4.927,4.922,11.396,7.382,17.865,7.382c6.469,0,12.938-2.462,17.86-7.384
		C403.066,327.411,403.066,311.389,393.219,301.542z M99.989,399.222H79.353l7.055-47.119h6.525L99.989,399.222z M324.75,269.9
		v69.44h-44.461v-4.198H266.5v-93.561l29.409,24.715l5.705-42.118c0.559-0.43,1.103-0.879,1.647-1.327
		c1.113,0.964,2.205,1.972,3.26,3.027c1.639,1.639,3.183,3.365,4.598,5.144C320.037,242.146,324.75,255.59,324.75,269.9z
		 M251.942,363.489v-20.347h20.347v20.347H251.942z M273.022,236.612c7.021-1.143,13.664-3.455,19.745-6.721l-2.836,20.932
		L273.022,236.612z M327.5,163.916v-21.17c1.955,0.683,3.7,1.906,5.039,3.578c1.616,1.999,2.471,4.429,2.471,7.025
		C335.01,158.225,331.88,162.372,327.5,163.916z M247.546,21.653l2.825-0.868V17.83c0-5.42,4.405-9.83,9.82-9.83h5.42
		c5.42,0,9.83,4.41,9.83,9.83v2.925l2.787,0.887c16.554,5.268,29.741,19.061,34.628,35.526c-9.581-3.863-20.128-6.575-31.231-7.988
		c0.061-0.619,0.097-1.242,0.097-1.87c0-10.455-8.506-18.96-18.96-18.96c-10.455,0-18.96,8.505-18.96,18.96
		c0,0.679,0.046,1.353,0.117,2.021c-11.162,1.508-21.753,4.315-31.333,8.305C217.251,40.659,230.354,26.938,247.546,21.653z
		 M251.87,48.491c-0.042-0.39-0.07-0.784-0.07-1.181c0-6.043,4.916-10.96,10.96-10.96c6.043,0,10.96,4.917,10.96,10.96
		c0,0.369-0.022,0.734-0.058,1.097c-3.42-0.242-6.875-0.377-10.362-0.377C259.448,48.03,255.637,48.197,251.87,48.491z
		 M177.14,109.51c0-29.489,38.651-53.48,86.16-53.48s86.16,23.991,86.16,53.48c0,10.275-4.732,20.163-13.702,28.788
		c-2.411-1.928-5.248-3.232-8.288-3.82c-0.306-16.779-6.599-31.8-17.833-43.502l-0.655-0.682l-0.89-0.317
		c-13.964-4.967-29.036-8.086-44.796-8.086c-16.625,0-32.355,2.726-46.751,8.102l-0.88,0.329l-0.642,0.687
		c-11.039,11.808-17.216,27.247-17.496,43.586c-2.578,0.579-5.012,1.689-7.142,3.251C181.714,129.338,177.14,119.604,177.14,109.51z
		 M190.52,153.35c0-2.739,1-5.377,2.822-7.436c1.149-1.305,2.582-2.296,4.158-2.941v20.746
		C193.418,162.036,190.52,158.008,190.52,153.35z M205.5,135.755c0-14.415,5.226-28.082,14.734-38.594
		c2.056-0.747,4.159-1.431,6.296-2.066l19.491,19.491l5.657-5.657l-16.137-16.138c4.12-0.883,8.342-1.564,12.626-2.046
		l23.833,23.843l5.658-5.655l-18.949-18.956c1.526-0.051,3.054-0.084,4.586-0.084c3.222,0,6.406,0.13,9.559,0.351l24.345,24.345
		l5.657-5.657l-17.134-17.134c6.459,1.116,12.738,3.106,18.786,5.201c9.674,10.428,14.989,23.894,14.989,38.756v35.49
		c0,32.073-25.406,58.18-56.63,58.195c-31.634-0.016-57.37-26.122-57.37-58.195V135.755z M251.363,236.387l-17.175,14.437
		l-2.941-21.682C237.412,232.61,244.187,235.087,251.363,236.387z M221.879,222.742c0.158,0.129,0.319,0.253,0.478,0.381
		l5.856,43.173l30.287-25.458v94.304h-14.558v4.198H200.25V269.9c0-13.108,4.025-25.646,11.639-36.256
		C214.784,229.613,218.14,225.962,221.879,222.742z M176.224,367.001v58.993h-42.395v-58.993c0-11.689,9.509-21.198,21.197-21.198
		C166.715,345.803,176.224,355.313,176.224,367.001z M162.822,331.602c-6.727,6.726-17.679,6.725-24.413,0
		c-3.259-3.259-5.054-7.593-5.054-12.202s1.794-8.942,5.054-12.201l6.749-6.749l24.887,23.928L162.822,331.602z M175.703,318.72
		l-24.887-23.928l44.085-44.085c-1.749,6.182-2.65,12.624-2.65,19.193v32.273L175.703,318.72z M200.25,347.34h43.692v11.79H200.25
		V347.34z M243.942,367.13v4.358h14.818v39.951H220.8v-44.31H243.942z M285.743,439.46c-7.396,0-14.105,2.963-18.983,7.784V419.44
		h37.96v27.798C299.843,442.421,293.137,439.46,285.743,439.46z M304.315,462.67h-37.143c1.806-8.38,9.445-15.21,18.571-15.21
		C294.87,447.46,302.509,454.291,304.315,462.67z M258.76,447.237c-4.878-4.817-11.584-7.777-18.976-7.777
		c-7.396,0-14.106,2.963-18.984,7.785V419.44h37.96V447.237z M258.356,462.67h-37.142c1.806-8.38,9.445-15.21,18.571-15.21
		C248.911,447.46,256.55,454.291,258.356,462.67z M304.721,411.44h-37.96v-39.951h13.529v-4.358h24.431V411.44z M280.289,359.13
		v-11.79h44.461v11.79H280.289z M329.733,249.37l44.347,44.347l-23.929,24.887l-17.401-17.402V269.9
		C332.75,262.823,331.728,255.933,329.733,249.37z M387.562,331.602c-6.728,6.727-17.68,6.725-24.414,0l-7.339-7.34l23.929-24.887
		l7.824,7.824C394.29,313.926,394.29,324.874,387.562,331.602z"/>
	<rect x="211.5" y="276.44" width="35" height="8"/>
	<path d="M278.589,286.684c0,9.587,7.799,17.386,17.386,17.386c9.587,0,17.386-7.799,17.386-17.386
		c0-9.586-7.799-17.386-17.386-17.386C286.388,269.298,278.589,277.098,278.589,286.684z M305.361,286.684
		c0,5.176-4.21,9.386-9.386,9.386c-5.176,0-9.386-4.21-9.386-9.386c0-5.175,4.211-9.386,9.386-9.386
		C301.151,277.298,305.361,281.509,305.361,286.684z"/>
	<circle cx="236.386" cy="160.96" r="9.449"/>
	<circle cx="289.143" cy="160.96" r="9.449"/>
</g>
<g>
</g>
<g>
</g>
<g>
</g>
<g>
</g>
<g>
</g>
<g>
</g>
<g>
</g>
<g>
</g>
<g>
</g>
<g>
</g>
<g>
</g>
<g>
</g>
<g>
</g>
<g>
</g>
<g>
</g>
</svg>
