<?xml version="1.0" encoding="iso-8859-1"?>
<!-- Generator: Adobe Illustrator 18.0.0, SVG Export Plug-In . SVG Version: 6.00 Build 0)  -->
<!DOCTYPE svg PUBLIC "-//W3C//DTD SVG 1.1//EN" "http://www.w3.org/Graphics/SVG/1.1/DTD/svg11.dtd">
<svg version="1.1" id="Capa_1" xmlns="http://www.w3.org/2000/svg" xmlns:xlink="http://www.w3.org/1999/xlink" x="0px" y="0px"
	 viewBox="0 0 453.327 453.327" style="enable-background:new 0 0 453.327 453.327;" xml:space="preserve">
<g>
	<circle cx="77.192" cy="222.509" r="5.906"/>
	<circle cx="233.583" cy="143.636" r="9.449"/>
	<circle cx="286.34" cy="143.636" r="9.449"/>
	<path d="M390.418,284.219l-84.093-84.093c11.606-11.679,18.843-27.699,19.064-45.382c8.563-1.969,14.821-9.559,14.821-18.716
		c0-9.162-6.258-16.757-14.821-18.726c-0.087-5.376-0.793-10.611-2.106-15.625c6.473-2.884,12.745-6.231,18.763-10.038l4.313-2.728
		l-32.149-30.489c-2.129-23.57-21.699-42.094-45.459-42.094h-16.43c-24.787,0-45.036,19.942-45.87,44.77l-28.938,27.814l4.313,2.728
		c4.912,3.107,9.999,5.893,15.22,8.386c-1.639,5.611-2.514,11.411-2.612,17.301c-8.506,2.017-14.723,9.604-14.723,18.702
		c0,9.091,6.216,16.674,14.721,18.691c0.215,17.826,7.562,33.963,19.326,45.669c-2.879,2.508-70.347,70.401-70.347,70.401v-74.462
		h10v-8h-10v-41h10v-8h-10v-41h10v-8h-10v-41h10v-8h-10v-9h-0.12C141.868,14.265,126.83,0,108.409,0c-19.356,0-35,15.747-35,35.103
		v150.335c-11,11.669-17.578,26.92-17.834,43.122c-0.251,15.896,5.273,31.059,15.669,42.959
		c-7.954,10.042-13.259,21.386-14.964,32.184l-0.756,4.624h43.271l-0.797-4.672c-2.118-12.422-7.737-23.63-16.299-32.564
		c10.415-11.689,16.33-26.404,16.531-41.857c0.211-16.202-5.82-31.511-16.82-43.351V35.103c0-14.945,12.055-27.103,27-27.103
		s27,12.158,27,27.103v5.843c-15,0-28.41,12.745-28.41,28.41c0,10.365,5.873,19.448,14.191,24.41
		c-8.318,4.962-14.191,14.045-14.191,24.41c0,10.365,5.873,19.448,14.191,24.41c-8.318,4.962-14.191,14.045-14.191,24.41
		c0,10.365,5.873,19.448,14.191,24.41c-8.318,4.962-14.191,14.045-14.191,24.41c0,15.666,13.41,28.41,28.41,28.41v34.546
		l-5.458,5.447c-4.77,4.77-7.397,11.112-7.397,17.858c0,6.747,2.627,13.089,7.396,17.858c1.647,1.647,3.485,3.031,5.458,4.147
		v58.245h-11v71h30v-71h-11v-11.355c3.218,2.405,7.195,3.847,11.512,3.847c10.64,0,19.295-8.656,19.295-19.296
		c0-10.64-8.656-19.296-19.295-19.296c-4.317,0-8.294,1.443-11.512,3.847v-13.131c1.441,0.252,2.912,0.388,4.405,0.388
		c6.75,0,13.094-2.627,17.864-7.396l23.731-23.731v54.123h21v14h-11.303l11.303,27.022v61.978h99v-61.978l11.303-27.022h-11.303v-14
		h21v-54.673l24.281,24.281c4.923,4.922,11.39,7.383,17.859,7.383c6.469,0,12.941-2.462,17.868-7.383
		C400.265,310.088,400.265,294.066,390.418,284.219z M325.409,125.698c4.022,1.703,6.8,5.666,6.8,10.329
		c0,4.566-2.817,8.556-6.8,10.291V125.698z M194.409,146.302c-3.966-1.732-6.7-5.67-6.7-10.274c0-4.609,2.734-8.551,6.7-10.284
		V146.302z M89.11,300.327H65.129c2.014-7.705,6.01-15.609,11.576-22.869C82.655,283.938,86.879,291.73,89.11,300.327z
		 M76.271,265.153c-17.433-20.974-17.141-50.826,0.542-71.826l0.178-0.2l0.178,0.2C94.882,214.327,94.523,244.137,76.271,265.153z
		 M154.922,344.228c6.229,0,11.295,5.067,11.295,11.296c0,6.229-5.067,11.296-11.295,11.296s-11.296-5.067-11.296-11.296
		C143.626,349.295,148.693,344.228,154.922,344.228z M252.32,24.327h16.43c20.488,0,37.194,16.752,37.639,37.513
		c-2.634,1.054-5.295,2.004-7.979,2.864V49.327h-8v17.642c-9.264,2.267-18.782,3.412-28.475,3.412
		c-16.455,0-32.408-3.296-47.466-9.793C215.549,40.409,232.112,24.327,252.32,24.327z M190.484,87.538l20.523-19.726
		c16.149,7.015,33.268,10.569,50.928,10.569s34.779-3.555,50.928-10.569l20.523,19.726c-21.481,12.5-46.07,19.082-71.451,19.082
		S211.965,100.038,190.484,87.538z M202.409,153.917v-35.49c0-5.14,0.684-10.205,2.017-15.113
		c18.039,7.432,37.544,11.306,57.508,11.306c18.635,0,36.864-3.385,53.88-9.877c1.058,4.388,1.595,8.973,1.595,13.685v35.49
		c0,31.739-25.794,57.56-57.5,57.56S202.409,185.656,202.409,153.917z M114.999,69.356c0-11.254,9.41-20.41,20.41-20.41v40.82
		C124.409,89.766,114.999,80.61,114.999,69.356z M114.999,118.176c0-11.254,9.41-20.41,20.41-20.41v40.82
		C124.409,138.586,114.999,129.43,114.999,118.176z M114.999,166.996c0-11.254,9.41-20.41,20.41-20.41v40.82
		C124.409,187.406,114.999,178.25,114.999,166.996z M114.999,215.816c0-11.254,9.41-20.41,20.41-20.41v40.82
		C124.409,236.226,114.999,227.07,114.999,215.816z M146.409,390.327v55h-14v-55H146.409z M160.021,314.279
		c-3.259,3.259-7.594,5.053-12.206,5.053c-4.612,0-8.947-1.794-12.207-5.054c-3.259-3.259-5.053-7.592-5.053-12.201
		c0-4.609,1.794-8.943,5.051-12.198l9.124-9.104l24.878,23.919L160.021,314.279z M189.409,257.174v27.716l-14.145,14.145
		l-24.871-23.913l57.834-57.713c3.961,4.283,6.192,9.967,6.192,15.988c0,10.839-6.504,19.7-16.563,22.573
		c-1.559,0.442-3.173,0.74-4.798,0.883L189.409,257.174z M219.109,445.327c1.839-8.416,9.34-14.74,18.3-14.74
		s16.461,6.324,18.3,14.74H219.109z M256.409,430.104c-5-4.649-11.576-7.517-18.78-7.517c-7.425,0-14.37,3.044-19.22,7.946v-37.206
		h38V430.104z M256.409,385.327h-39.915l-5.448-13h45.363V385.327z M256.409,364.327h-38v-14h38V364.327z M256.409,256.327h-11v8h11
		v29h-11v8h11v41h-46h-13v-78.028c0.889-0.177,1.77-0.389,2.639-0.636c13.381-3.822,22.371-15.985,22.371-30.267
		c0-8.238-3.132-16.025-8.689-21.821c1.894-2.09,3.933-4.049,6.092-5.865c2.893,2.248,5.971,4.266,9.219,6.011
		c2.139,14.015,13.496,24.784,27.367,26.425V256.327z M238.435,215.84c6.732,2.346,13.954,3.637,21.475,3.637
		c7.684,0,15.057-1.342,21.913-3.786c-3.499,8.663-12.006,14.681-21.724,14.681C250.434,230.372,241.967,224.424,238.435,215.84z
		 M264.409,350.327h37v14h-37V350.327z M264.109,445.327c1.839-8.416,9.34-14.74,18.3-14.74c8.96,0,16.461,6.324,18.3,14.74H264.109
		z M301.409,430.533c-4.85-4.903-11.355-7.946-18.78-7.946c-7.145,0-14.22,2.822-18.22,7.403v-36.663h37V430.533z M303.324,385.327
		h-38.915v-13h44.363L303.324,385.327z M322.409,342.327h-13h-45v-41h11v-8h-11v-29h11v-8h-11v-18.254
		c13.661-1.895,24.759-12.661,26.784-26.572c3.086-1.687,6.013-3.626,8.775-5.77c2.197,1.846,4.268,3.843,6.193,5.976
		c-5.483,5.807-8.562,13.514-8.562,21.689c0,15.001,10.438,27.664,24.81,30.805V342.327z M330.409,284.34v-27.152l-3.591-0.37
		c-12.097-1.245-21.219-11.313-21.219-23.421c0-6.136,2.319-11.909,6.437-16.246l58.926,58.926l-24.887,23.928L330.409,284.34z
		 M384.763,314.277c-6.735,6.729-17.689,6.729-24.415,0.001l-8.615-8.615l24.887-23.928l8.141,8.141
		c3.259,3.258,5.054,7.592,5.054,12.201C389.815,306.686,388.02,311.02,384.763,314.277z"/>
	<path d="M206.409,287.465c0,4.38,3.669,7.862,8.049,7.862h14.949c4.38,0,8.002-3.482,8.002-7.862v-20.138h-31V287.465z
		 M214.409,275.327h15v12.081l-15,0.057V275.327z"/>
	<path d="M206.409,325.261c0,4.38,3.669,8.066,8.049,8.066h14.949c4.38,0,8.002-3.686,8.002-8.066v-19.934h-31V325.261z
		 M214.409,313.327h15v11.877l-15,0.057V313.327z"/>
	<path d="M282.409,287.465c0,4.38,4.004,7.862,8.384,7.862h14.949c4.38,0,7.667-3.482,7.667-7.862v-20.138h-31V287.465z
		 M290.409,275.327h15v12.081l-15,0.057V275.327z"/>
	<path d="M282.409,325.261c0,4.38,4.004,8.066,8.384,8.066h14.949c4.38,0,7.667-3.686,7.667-8.066v-19.934h-31V325.261z
		 M290.409,313.327h15v11.877l-15,0.057V313.327z"/>
</g>
<g>
</g>
<g>
</g>
<g>
</g>
<g>
</g>
<g>
</g>
<g>
</g>
<g>
</g>
<g>
</g>
<g>
</g>
<g>
</g>
<g>
</g>
<g>
</g>
<g>
</g>
<g>
</g>
<g>
</g>
</svg>
