<?xml version="1.0" encoding="iso-8859-1"?>
<!-- Generator: Adobe Illustrator 18.0.0, SVG Export Plug-In . SVG Version: 6.00 Build 0)  -->
<!DOCTYPE svg PUBLIC "-//W3C//DTD SVG 1.1//EN" "http://www.w3.org/Graphics/SVG/1.1/DTD/svg11.dtd">
<svg version="1.1" id="Capa_1" xmlns="http://www.w3.org/2000/svg" xmlns:xlink="http://www.w3.org/1999/xlink" x="0px" y="0px"
	 viewBox="0 0 420.82 420.82" style="enable-background:new 0 0 420.82 420.82;" xml:space="preserve">
<g>
	<circle cx="179.215" cy="109.772" r="9.449"/>
	<circle cx="231.972" cy="109.772" r="9.449"/>
	<path d="M352.55,344.098h-30.254v-50.964c5.191-0.846,9.973-3.281,13.748-7.065c4.77-4.77,7.397-11.111,7.397-17.858
		c0-6.746-2.627-13.088-7.397-17.857l-13.749-13.749v-21.766c9.994-1.725,18-10.646,18-21.017v-4h-43v4
		c0,10.023,7.477,18.692,17,20.82v13.963c0,0-59.372-59.685-62.158-62.298c12.041-12.092,18.941-28.402,19.137-45.496
		c8.418-2.074,14.57-9.642,14.57-18.65c0-9.008-6.153-16.575-14.571-18.65c-0.033-1.685-0.142-3.431-0.343-5.321
		c4.78-2.346,9.45-4.952,13.984-7.82l4.246-2.686l-29.999-29.727C255.267,16.321,236.19,0,213.748,0h-16.43
		c-22.65,0-41.604,16.153-45.432,38.094l-29.863,29.591l4.246,2.686c4.613,2.917,9.366,5.56,14.232,7.937
		c-0.136,1.794-0.185,3.521-0.197,5.126c-8.534,1.956-14.959,9.656-14.959,18.727c0,9.075,6.431,16.78,14.972,18.73
		c0.213,17.035,6.971,33.216,18.754,45.186c-1.248,1.103-83.482,84.274-83.482,84.274c-4.776,4.77-7.406,11.112-7.406,17.86
		c0,6.747,2.63,13.09,7.402,17.855c4.769,4.776,11.112,7.406,17.859,7.407c0,0,0,0,0,0c6.747,0,13.09-2.631,17.859-7.405
		l24.031-24.032v28.213c0,12.073,8.42,22.417,19.96,25.035V420.82h101V315.204c11.279-2.749,19.55-12.913,19.55-24.954v-28.663
		l24.482,24.481c3.847,3.847,8.704,6.295,13.968,7.104v50.925h-28.605l-0.087,29.344c-0.038,12.974,6.519,24.805,17.539,31.647
		l15.977,9.924l15.977-9.923c11.02-6.844,17.577-18.675,17.539-31.648L352.55,344.098z M105.646,280.413
		c-3.259,3.264-7.592,5.061-12.2,5.061c-4.609-0.001-8.941-1.798-12.203-5.064c-3.263-3.259-5.059-7.591-5.059-12.199
		c0-4.609,1.796-8.941,5.061-12.202l9.631-9.633l23.924,24.883L105.646,280.413z M135.336,218.71v32.013l-14.878,14.878
		l-23.925-24.883l41.548-41.554C136.267,205.448,135.336,212.007,135.336,218.71z M155.296,306.976
		c-7.012-2.391-11.96-9.046-11.96-16.726v-71.54c0-13.301,4.138-25.962,11.96-36.668V306.976z M277.846,102.16
		c0,4.533-2.668,8.439-6.55,10.207V91.954C275.178,93.722,277.846,97.629,277.846,102.16z M197.318,8h16.43
		c18.774,0,34.699,13.813,37.652,32.014c-14.569,6.033-29.954,9.098-45.807,9.098c-15.892,0-31.313-3.08-45.914-9.142
		C162.644,21.589,178.427,8,197.318,8z M154.707,46.562c16.137,7.003,33.241,10.551,50.886,10.551s34.749-3.548,50.886-10.551
		l19.849,19.668c-21.465,12.524-45.811,19.12-70.735,19.12c-24.924,0-49.27-6.596-70.735-19.12L154.707,46.562z M133.346,102.16
		c0-4.641,2.884-8.662,6.95-10.354v20.708C136.23,110.822,133.346,106.801,133.346,102.16z M148.334,81.846
		c18.057,7.559,37.483,11.504,57.259,11.504c19.902,0,39.449-3.998,57.605-11.652c0.06,0.988,0.099,38.363,0.099,38.363
		c0,16.039-6.736,31.357-18.531,42.265c-0.252,0.233-1.205,1.08-1.205,1.08c-10.474,9.159-23.933,14.204-37.904,14.204
		c-13.912,0-27.336-5.051-37.811-14.224c0,0-0.923-0.821-1.153-1.033c-11.709-10.816-18.397-26.148-18.397-42.293
		C148.296,120.061,148.31,82.788,148.334,81.846z M182.296,181.283c7.399,2.832,15.306,4.327,23.36,4.327
		c7.438,0,14.744-1.271,21.64-3.675v23.885h-45V181.283z M201.343,412.82h-37.467c1.394-9.416,9.253-15.979,18.737-15.979
		c8.515,0,15.725,5.288,18.115,13.184C201.14,411.383,201.343,412.82,201.343,412.82z M209.835,412.82
		c1.394-9.416,9.253-15.979,18.737-15.979s17.343,6.564,18.737,15.979H209.835z M248.296,397.391
		c-4.928-5.27-11.945-8.55-19.724-8.55c-7.546,0-14.375,3.086-19.276,8.082V320.82h15v-8h-37v8h14v75.518
		c-4.852-4.65-11.436-7.498-18.683-7.498c-7.568,0-14.413,3.104-19.317,8.125V173.051c0.58-0.537,1.173-1.057,1.769-1.571
		c2.912,2.306,6.004,4.339,9.231,6.104v36.237h61v-35.285c3.852-1.948,7.526-4.268,10.949-6.965
		c0.699,0.607,1.384,1.224,2.051,1.857V397.391z M267.846,290.25c0,7.598-4.78,14.103-11.55,16.597V182.583
		c7.566,10.564,11.55,22.977,11.55,36.127V290.25z M306.463,197.82h25.315c-1.787,5.282-6.939,9.323-12.657,9.323
		C313.402,207.144,308.25,203.103,306.463,197.82z M275.846,250.275V218.71c0-6.886-1.028-13.706-2.992-20.235l44.055,44.054
		l-23.924,24.883L275.846,250.275z M305.985,280.412l-7.342-7.342l23.924-24.883l7.821,7.821c3.259,3.259,5.053,7.592,5.053,12.201
		c0,4.61-1.794,8.943-5.057,12.205c-3.227,3.234-7.528,5.03-12.11,5.056c-0.032,0-0.063,0-0.095,0
		C313.578,285.471,309.25,283.677,305.985,280.412z M330.876,398.294l-11.756,7.301l-11.756-7.302
		c-8.646-5.369-13.79-14.65-13.76-24.828l0.063-21.367h20.628v23.723h8v-23.723h22.277l0.063,21.367
		C344.666,383.643,339.522,392.924,330.876,398.294z"/>
	<path d="M177.322,249.733h5.512v28.347h45.796v-28.347h5.512v-26.11h-56.82V249.733z M220.63,270.08h-29.796v-20.347h29.796V270.08
		z M185.322,231.623h40.82v10.11h-40.82V231.623z"/>
</g>
<g>
</g>
<g>
</g>
<g>
</g>
<g>
</g>
<g>
</g>
<g>
</g>
<g>
</g>
<g>
</g>
<g>
</g>
<g>
</g>
<g>
</g>
<g>
</g>
<g>
</g>
<g>
</g>
<g>
</g>
</svg>
