<?xml version="1.0" encoding="iso-8859-1"?>
<!-- Generator: Adobe Illustrator 18.0.0, SVG Export Plug-In . SVG Version: 6.00 Build 0)  -->
<!DOCTYPE svg PUBLIC "-//W3C//DTD SVG 1.1//EN" "http://www.w3.org/Graphics/SVG/1.1/DTD/svg11.dtd">
<svg version="1.1" id="Capa_1" xmlns="http://www.w3.org/2000/svg" xmlns:xlink="http://www.w3.org/1999/xlink" x="0px" y="0px"
	 viewBox="0 0 439.377 439.377" style="enable-background:new 0 0 439.377 439.377;" xml:space="preserve">
<g>
	<circle cx="149.09" cy="129.665" r="9.449"/>
	<circle cx="201.847" cy="129.665" r="9.449"/>
	<path d="M406.241,220.493c-2.486-6.378-8.599-10.663-15.211-10.663c-0.987,0-70.901,6.445-70.901,6.445l-3.113,6.76l-41.176,17.134
		c0,0-52.726-53.211-53.788-54.151c11.542-11.673,18.735-27.645,18.948-45.27c8.504-2.017,14.72-9.6,14.72-18.691
		c0-9.099-6.219-16.687-14.727-18.703c-0.281-17.093-7.054-33.125-19.175-45.246c-7.542-7.542-16.781-13.109-26.882-16.246
		l3.435-36.168l-2.456-1.225C190.054,1.546,183.493,0,176.943,0c-6.551,0-13.111,1.546-18.973,4.47l-2.456,1.225l3.357,35.347
		c-28.215,7.361-48.429,32.916-48.926,62.31c-8.507,2.009-14.725,9.597-14.725,18.705c0,9.102,6.216,16.684,14.721,18.694
		c0.214,17.625,7.407,33.597,18.95,45.269c-1.013,0.895-81.826,81.526-81.826,81.526c-6.522,6.512-8.944,16.198-6.364,24.998
		c-9.333,13.938-11.362,31.466-5.203,46.259l4.691,11.276l-4.107,1.709l3.074,7.387l4.106-1.709l4.945,11.887
		c7.709,18.531,26.657,29.86,46.401,29.858c6.526,0,13.142-1.238,19.463-3.863c4.086-1.706,7.929-3.905,11.439-6.509v50.538h99.92
		v-103.54h20.29v-49.609l3.351-1.394l21.131,21.131c4.923,4.924,11.391,7.386,17.858,7.386c6.467,0,12.935-2.462,17.858-7.386
		c9.847-9.847,9.847-25.869,0-35.717l-6.405-6.405l27.001-11.236l0.342-0.117c4.49-1.536,9.622-1.097,13.978,1.196l8.017,4.222
		l31.138-20.672c3.059,3.375,7.351,5.355,11.934,5.355c2.248,0,4.423-0.482,6.467-1.435
		C405.94,237.644,409.388,228.566,406.241,220.493z M172.965,280.327c-1.793-0.667-3.221-2.016-3.92-3.703
		c-1.498-3.612,0.526-7.897,4.52-9.558c3.952-1.653,6.505-5.391,6.505-9.52c0-4.3-2.7-7.905-6.876-9.185
		c-10.105-3.102-21.134-2.545-31.056,1.569c-6.647,2.756-12.658,7.052-17.382,12.425c-3.149,3.582-7.143,6.276-11.546,7.893v-31.643
		c0-15.694,5.77-30.437,16.104-41.793c-0.013,0.457-0.024,0.915-0.024,1.372c0,25.458,20.712,46.17,46.17,46.17
		c25.463,0,46.18-20.712,46.18-46.17c0-0.453-0.011-0.905-0.024-1.357c0.592,0.656,2.361,2.77,2.361,2.77
		c8.862,10.98,13.743,24.834,13.743,39.008v17.425l-57.807,24.054c-2.193,0.912-4.662,1.07-6.895,0.26
		C173,280.34,172.983,280.334,172.965,280.327z M213.328,193.417c0.196,1.576,0.312,3.166,0.312,4.769
		c0,21.047-17.127,38.17-38.18,38.17c-21.047,0-38.17-17.123-38.17-38.17c0-1.602,0.117-3.195,0.313-4.775
		c10.703,7.605,23.766,12.096,37.866,12.096C189.566,205.507,202.626,201.019,213.328,193.417z M166.477,294.342l5.749,13.804
		l-10.782,4.487l-5.745-13.806L166.477,294.342z M179.612,305.072l-5.749-13.804l13.7-5.701l5.743,13.806L179.612,305.072z
		 M200.693,296.3l-5.743-13.806l13.693-5.698l5.743,13.806L200.693,296.3z M221.773,287.528l-5.743-13.806l13.697-5.699
		l5.743,13.806L221.773,287.528z M242.855,278.755l-5.743-13.806l13.701-5.701l5.743,13.805L242.855,278.755z M263.943,269.98
		l-5.743-13.806l13.692-5.697l5.744,13.805L263.943,269.98z M285.023,261.208l-5.745-13.805l13.695-5.699l5.745,13.804
		L285.023,261.208z M245.72,252.703v-14.096c0-6.884-1.026-13.701-2.986-20.222l25.116,25.11L245.72,252.703z M247.72,122.057
		c0,4.605-2.734,8.542-6.7,10.274v-20.558C244.986,113.506,247.72,117.447,247.72,122.057z M189.877,10.518l-4.427,46.615
		c-5.513-1.634-11.503-1.634-17.015,0l-4.427-46.615C172.202,7.213,181.681,7.213,189.877,10.518z M103.22,122.057
		c0-4.616,2.734-8.559,6.7-10.289v20.569C105.954,130.609,103.22,126.669,103.22,122.057z M117.92,104.457
		c0-25.777,17.298-48.367,41.718-55.334l1.9,20.009l5.271-2.753c6.229-3.254,14.036-3.254,20.265,0l5.271,2.753l1.815-19.109
		c8.241,2.828,15.777,7.518,22,13.741c10.872,10.871,16.859,25.322,16.859,40.692v35.489c0,31.739-25.817,57.561-57.55,57.561
		c-31.733,0-57.55-25.821-57.55-57.561V104.457z M52.719,273.205l55.702-55.701c-2.104,6.727-3.21,13.823-3.21,21.103v33.322
		c-0.304,0.019-2.504,0.095-2.504,0.095l-25.585,25.585c-6.728,6.727-17.638,6.689-24.41-0.007c-3.415-3.377-4.106-6.55-4.106-6.55
		C46.464,284.841,48.072,277.844,52.719,273.205z M110.996,387.962c-21.439,8.899-46.81-1.028-55.402-21.682l-12.71-30.551
		c-4.576-10.989-3.707-23.848,2.096-34.816c0.642,0.825,1.336,1.609,2.083,2.352c9.847,9.848,25.869,9.848,35.717,0l23.373-23.373
		c9.435-0.699,18.332-5.108,24.612-12.253c3.921-4.459,8.914-8.026,14.438-10.316c8.208-3.403,17.314-3.868,25.647-1.311
		c0.302,0.093,1.221,0.374,1.221,1.536c0,0.346-0.115,1.521-1.585,2.137c-8.055,3.347-12.016,12.32-8.831,20.003
		c0.993,2.398,2.636,4.472,4.709,6.038l-21.123,8.79l11.891,28.577l10.477-4.359c-0.223,2.279,0.077,4.614,0.986,6.83
		c3.172,7.517,12.279,10.924,20.305,7.587c3.553-1.48,6.438,0.195,7.45,2.62c0.814,1.948,0.239,4.023-1.581,5.697
		c-3.358,3.099-7.264,5.583-11.617,7.39c-5.595,2.333-11.621,3.364-17.427,2.989c-13.301-0.831-26.351,6.089-33.231,17.667
		C127.655,377.643,120.019,384.196,110.996,387.962z M217.43,416.32c-4.879-4.821-11.587-7.783-18.983-7.783
		c-7.393,0-14.1,2.961-18.978,7.778v-40.799h37.96V416.32z M216.999,431.377h-37.103c1.836-8.805,9.453-14.84,18.551-14.84
		C207.546,416.537,215.163,422.573,216.999,431.377z M171.47,416.319c-4.878-4.82-11.586-7.782-18.981-7.782
		c-7.394,0-14.1,2.961-18.979,7.779v-34.768c1.7-1.899,3.261-3.913,4.655-6.031h33.305V416.319z M171.04,431.377h-37.103
		c1.836-8.805,9.453-14.84,18.552-14.84C161.587,416.537,169.204,422.573,171.04,431.377z M144.256,367.517
		c5.599-5.272,13.229-8.172,20.955-7.689c2.073,0.135,4.166,0.104,6.259-0.053v7.741H144.256z M217.43,367.517h-37.96v-9.046
		c2.29-0.578,4.553-1.311,6.753-2.229c5.218-2.164,9.918-5.157,13.965-8.891c3.432-3.157,4.984-7.364,4.404-11.514h12.838V367.517z
		 M237.72,327.837h-37.453c-4.008-3.485-9.803-4.008-14.441-2.074c-4.039,1.678-8.37,0.223-9.845-3.273
		c-1.217-2.967,0.056-6.5,3.019-8.498l58.72-24.435V327.837z M300.262,275.904c6.728,6.729,6.728,17.677,0,24.404
		c-6.728,6.727-17.675,6.727-24.403,0l-18.799-18.799l34.465-14.342L300.262,275.904z M306.105,252.435l-5.745-13.804l14.215-5.915
		l5.744,13.805L306.105,252.435z M395.014,233.905c-0.979,0.456-2.019,0.686-3.091,0.686c-2.999,0-5.885-1.835-7.354-4.676
		l-2.049-3.963l-34.141,22.666l-3.818-2.011c-3.774-1.987-7.979-3.037-12.16-3.037c-1.455,0-2.897,0.124-4.317,0.371l-5.246-14.428
		l2.618-5.685c63.239-5.674,63.79-5.787,64.087-5.849c0.486-0.101,0.985-0.151,1.485-0.151c3.341,0,6.459,2.237,7.757,5.568
		C400.406,227.552,398.749,232.167,395.014,233.905z"/>
	<rect x="115.955" y="312.396" transform="matrix(0.3842 0.9233 -0.9233 0.3842 372.4896 74.334)" width="29.134" height="8"/>
	<rect x="97.78" y="319.959" transform="matrix(-0.3842 -0.9233 0.9233 -0.3842 -143.5849 552.1479)" width="29.134" height="8"/>
	<path d="M64.444,323.782l14.569,35.011l21.199-8.821l-14.569-35.011L64.444,323.782z M83.326,348.334l-8.422-20.239l6.426-2.675
		l8.422,20.239L83.326,348.334z"/>
</g>
<g>
</g>
<g>
</g>
<g>
</g>
<g>
</g>
<g>
</g>
<g>
</g>
<g>
</g>
<g>
</g>
<g>
</g>
<g>
</g>
<g>
</g>
<g>
</g>
<g>
</g>
<g>
</g>
<g>
</g>
</svg>
