<?xml version="1.0" encoding="iso-8859-1"?>
<!-- Generator: Adobe Illustrator 18.0.0, SVG Export Plug-In . SVG Version: 6.00 Build 0)  -->
<!DOCTYPE svg PUBLIC "-//W3C//DTD SVG 1.1//EN" "http://www.w3.org/Graphics/SVG/1.1/DTD/svg11.dtd">
<svg version="1.1" id="Capa_1" xmlns="http://www.w3.org/2000/svg" xmlns:xlink="http://www.w3.org/1999/xlink" x="0px" y="0px"
	 viewBox="0 0 432.333 432.333" style="enable-background:new 0 0 432.333 432.333;" xml:space="preserve">
<g>
	<path d="M410.324,210.356l16.351,16.352l5.657-5.657l-16.351-16.352c-6.665-6.666-17.513-6.666-24.179,0l-49.233,49.228
		c0,0-79.11-79.035-80.065-79.905c6.466-6.531,11.568-15.015,14.849-23.015h21.816V88.854c0-46.059-37.458-83.53-83.5-83.53
		s-83.5,37.471-83.5,83.53v62.154h22.475c3.275,8,8.364,16.451,14.81,22.974c-2.362,2.077-69.223,69.234-69.223,69.234
		c-7.288-5.864-18.006-5.461-24.771,1.303c-4.066,4.073-5.845,9.563-5.338,14.891l-20.747-11.095l-23.223-43.47l-7.056,3.767
		l17.586,32.912L3.77,223.938L0,230.993l43.465,23.223l10.952,20.497c-0.624-0.063-1.254-0.097-1.89-0.097
		c-4.959,0-9.622,1.931-13.129,5.438c-7.239,7.239-7.239,19.018,0,26.258c3.507,3.507,8.17,5.438,13.129,5.438
		s9.622-1.931,13.129-5.438c5.986-5.986,7.007-15.068,3.09-22.127c-0.422-0.761-12.589-23.188-12.589-23.188
		s21.472,11.729,21.945,12.059c-0.83,7.381,1.572,15.063,7.219,20.717c4.927,4.922,11.396,7.382,17.865,7.382
		c6.469,0,12.773-2.461,17.696-7.383l24.286-24.451v9.227l-17.048,102.459h37.048v46h46.33h8h45.67v-46h38.572l-17.572-101.669
		v-10.027l24.626,24.461c4.922,4.922,11.472,7.384,17.941,7.384c6.469,0,12.982-2.462,17.911-7.385
		c9.325-9.335,9.83-24.206,1.487-34.116l10.29-10.28c0.686,3.046,2.201,5.942,4.567,8.309l16.354,16.351l5.659-5.657l-16.351-16.351
		c-3.547-3.547-3.547-9.318,0-12.865l0.16-0.16l22.784,22.784l5.657-5.657l-22.784-22.784l6.035-6.035l22.784,22.784l5.657-5.657
		l-22.783-22.784l6.035-6.035l22.784,22.784l5.657-5.657l-22.764-22.764C401.445,206.824,406.912,206.942,410.324,210.356z
		 M59.999,300.656c-1.996,1.996-4.649,3.095-7.472,3.095c-2.823,0-5.477-1.099-7.472-3.095c-4.12-4.121-4.12-10.824,0-14.944
		c1.996-1.996,4.649-3.095,7.472-3.095c2.823,0,5.477,1.099,7.472,3.095C64.119,289.832,64.119,296.536,59.999,300.656z
		 M264.448,187.855c6.335,8.064,13.721,21.3,13.721,38.559v47.594h-58.218l31.802-91.288c1.632-1.068,3.129-2.252,4.656-3.458
		C258.75,181.182,264.448,187.855,264.448,187.855z M216.07,260.671l-25.265-72.417c7.76,3.249,16.27,5.05,25.194,5.05
		c8.98,0,17.543-1.821,25.343-5.109L216.07,260.671z M140.169,143.008V88.854c0-41.647,33.869-75.53,75.5-75.53
		s75.5,33.882,75.5,75.53v54.154h-11.405c1.122-5,1.405-10.118,1.405-15.256V92.263c0-10.074-0.698-23.052-7.429-34.088l-5.511-9.17
		L266.504,59.6c-2.713,16.262-15.716,27.62-31.649,27.62c-18.292,0-32.611-14.544-32.611-33.111c0-6.442,0.556-13.786,4.641-19.417
		l6.306-8.688l-10.615,2.443c-30.271,7.077-52.406,33.915-52.406,63.814v35.489c0,5.138,0.942,10.256,2.064,15.256H140.169z
		 M158.169,92.263c0-23.351,15.528-44.593,37.741-53.371c-1.536,5.11-1.738,10.394-1.738,15.217
		c0,22.668,18.264,41.111,40.662,41.111c16.126,0,29.713-9.242,36.148-23.474c1.605,5.561,2.187,12.162,2.187,20.517v35.489
		c0,31.734-25.794,57.552-57.5,57.552s-57.5-25.817-57.5-57.552V92.263z M167.379,187.784c0.076-0.103,5.347-6.252,8.093-8.592
		c1.588,1.256,3.234,2.525,4.936,3.633l31.782,91.183h-59.021v-47.594c0-13.46,5.066-27.142,13.966-38.526L167.379,187.784z
		 M85.32,258.046c-1.953,1.953-3.512,4.152-4.69,6.495c-3.609-4.146-3.452-10.46,0.49-14.408c1.996-1.997,4.652-3.096,7.478-3.096
		c2.138,0,4.178,0.632,5.919,1.812L85.32,258.046z M115.391,288.116c-6.727,6.728-17.68,6.726-24.412,0.002
		c-6.727-6.735-6.728-17.688-0.001-24.415l9.403-9.403l24.892,23.933L115.391,288.116z M130.766,272.575l-24.81-23.933
		l42.631-42.755c-2.158,6.708-3.418,13.636-3.418,20.527v31.593L130.766,272.575z M211.169,381.008v22.72
		c-5-4.87-11.519-8.023-18.847-8.023c-7.482,0-14.153,3.285-19.153,8.331v-23.027H211.169z M211.163,419.008h-37.021
		c1.896-9,9.469-14.98,18.51-14.98C201.694,404.028,209.267,410.008,211.163,419.008z M219.601,419.008
		c1.896-9,9.469-14.98,18.51-14.98c9.042,0,16.615,5.98,18.511,14.98H219.601z M257.169,404.286c-5-5.186-11.783-8.581-19.388-8.581
		c-7.212,0-13.612,3.056-18.612,7.794v-22.491h38V404.286z M137.597,373.008l15.459-91h125.753l15.458,91H137.597z M283.011,205.848
		l43.994,43.912l-25.016,23.933l-15.819-15.695v-31.583C286.169,219.513,285.189,212.573,283.011,205.848z M341.032,288.114
		c-6.735,6.729-17.688,6.729-24.415,0.001l-8.765-8.765l24.892-23.933l8.285,8.285C347.757,270.429,347.757,281.382,341.032,288.114
		z"/>
	<circle cx="189.553" cy="117.467" r="9.449"/>
	<circle cx="242.311" cy="117.467" r="9.449"/>
</g>
<g>
</g>
<g>
</g>
<g>
</g>
<g>
</g>
<g>
</g>
<g>
</g>
<g>
</g>
<g>
</g>
<g>
</g>
<g>
</g>
<g>
</g>
<g>
</g>
<g>
</g>
<g>
</g>
<g>
</g>
</svg>
