<?xml version="1.0" encoding="utf-8"?>

<!-- License Agreement at http://iconmonstr.com/license/ -->

<!DOCTYPE svg PUBLIC "-//W3C//DTD SVG 1.1//EN" "http://www.w3.org/Graphics/SVG/1.1/DTD/svg11.dtd">
<svg version="1.1" xmlns="http://www.w3.org/2000/svg" xmlns:xlink="http://www.w3.org/1999/xlink" x="0px" y="0px"
	 width="512px" height="512px" viewBox="0 0 512 512" style="enable-background:new 0 0 512 512;" xml:space="preserve">
<path id="disk-2-icon" d="M367.852,366.678c28.299,33.428-23.437,65.281-39.346,24.912c-7.293-18.541-24.693-64.543-29.02-76.109
	c-5.364-14.301,8.551-21.459,17.368-9.557C322.705,313.803,355.715,352.361,367.852,366.678z M427.666,50v412H84.334V50H427.666z
	 M393.334,84.333H118.667v343.333h17.167v-25.75c0-4.744,3.839-8.582,8.583-8.582s8.583,3.838,8.583,8.582v25.75h17.167v-25.75
	c0-4.744,3.839-8.582,8.583-8.582s8.584,3.838,8.584,8.582v25.75H204.5v-25.75c0-4.744,3.839-8.582,8.584-8.582
	c4.744,0,8.583,3.838,8.583,8.582v25.75h171.667V84.333z M256,204.5c-9.463,0-17.166,7.703-17.166,17.167
	c0,9.464,7.703,17.167,17.166,17.167s17.166-7.703,17.166-17.167C273.166,212.203,265.463,204.5,256,204.5z M256,101.5
	c66.37,0,120.166,53.797,120.166,120.167c0,33.579-13.812,63.906-36.01,85.716c-4.492-5.398-8.08-9.773-9.521-11.701
	c-6.068-8.198-14.786-12.926-23.873-12.926c-8.348,0-16.127,4.074-20.854,10.896c-5.349,7.712-6.254,17.871-2.482,27.863
	c1.141,3.051,3.253,8.684,5.852,15.557c-10.578,3.034-21.719,4.762-33.277,4.762c-66.37,0-120.166-53.797-120.166-120.167
	C135.834,155.297,189.63,101.5,256,101.5z M213.092,150.184c11.266-6.79,23.588-10.385,35.893-11.165l2.054-13.344
	c-15.322,0.486-30.721,4.744-44.786,13.227c-14.048,8.474-24.971,20.125-32.564,33.445l12.766,4.409
	C192.874,166.227,201.793,157.015,213.092,150.184z M226.722,172.807c5.733-3.454,11.886-5.558,18.122-6.647l2.079-13.596
	c-9.271,0.981-18.491,3.781-27.033,8.936c-8.508,5.146-15.28,11.978-20.478,19.731l12.976,4.526
	C216.261,180.737,220.979,176.277,226.722,172.807z M290.334,221.667c0-18.969-15.357-34.333-34.334-34.333
	c-18.969,0-34.333,15.364-34.333,34.333C221.667,240.636,237.031,256,256,256C274.977,256,290.334,240.636,290.334,221.667z"/>
</svg>
