<?xml version="1.0" encoding="utf-8"?>

<!-- License Agreement at http://iconmonstr.com/license/ -->

<!DOCTYPE svg PUBLIC "-//W3C//DTD SVG 1.1//EN" "http://www.w3.org/Graphics/SVG/1.1/DTD/svg11.dtd">
<svg version="1.1" xmlns="http://www.w3.org/2000/svg" xmlns:xlink="http://www.w3.org/1999/xlink" x="0px" y="0px"
	 width="512px" height="512px" viewBox="0 0 512 512" style="enable-background:new 0 0 512 512;" xml:space="preserve">
<path id="disk-icon" d="M225.347,169.605c-7.477,4.493-13.612,10.302-18.658,16.815l-16.882-5.851
	c6.772-10.083,15.591-18.977,26.655-25.658c11.098-6.689,23.067-10.335,35.138-11.626l-2.716,17.669
	C240.787,162.38,232.79,165.104,225.347,169.605z M254.282,125.683l2.648-17.343c-19.916,0.629-39.933,6.144-58.206,17.175
	c-18.272,11.022-32.489,26.169-42.329,43.495l16.579,5.733c8.349-13.705,19.95-25.691,34.636-34.534
	C222.262,131.357,238.272,126.672,254.282,125.683z M290.334,221.667C290.334,240.636,274.977,256,256,256
	c-18.969,0-34.333-15.364-34.333-34.333c0-18.969,15.364-34.333,34.333-34.333C274.977,187.333,290.334,202.698,290.334,221.667z
	 M273.166,221.667c0-9.463-7.703-17.167-17.166-17.167s-17.166,7.703-17.166,17.167c0,9.464,7.703,17.167,17.166,17.167
	S273.166,231.13,273.166,221.667z M427.666,50v412H221.667v-25.75c0-4.744-3.839-8.584-8.583-8.584c-4.745,0-8.584,3.84-8.584,8.584
	V462h-17.166v-25.75c0-4.744-3.84-8.584-8.584-8.584s-8.583,3.84-8.583,8.584V462H153v-25.75c0-4.744-3.839-8.584-8.583-8.584
	s-8.583,3.84-8.583,8.584V462h-51.5V50H427.666z M367.852,366.678c-12.137-14.316-45.146-52.875-50.997-60.754
	c-8.817-11.902-22.732-4.744-17.368,9.557c4.326,11.566,21.727,57.568,29.02,76.109C344.415,431.959,396.15,400.105,367.852,366.678
	z M393.334,221.667c0-75.85-61.492-137.333-137.334-137.333c-75.85,0-137.333,61.483-137.333,137.333
	C118.667,297.508,180.15,359,256,359c13.696,0,26.906-2.062,39.396-5.801c-5.264-13.863-10.025-26.471-11.971-31.684
	c-12.363-32.825,26.673-53.562,47.209-25.834c2.498,3.353,11.098,13.646,20.553,24.844
	C377.139,295.547,393.334,260.526,393.334,221.667z"/>
</svg>
