<?xml version="1.0" encoding="iso-8859-1"?>
<!-- Generator: Adobe Illustrator 18.0.0, SVG Export Plug-In . SVG Version: 6.00 Build 0)  -->
<!DOCTYPE svg PUBLIC "-//W3C//DTD SVG 1.1//EN" "http://www.w3.org/Graphics/SVG/1.1/DTD/svg11.dtd">
<svg version="1.1" id="Capa_1" xmlns="http://www.w3.org/2000/svg" xmlns:xlink="http://www.w3.org/1999/xlink" x="0px" y="0px"
	 viewBox="0 0 464.205 464.205" style="enable-background:new 0 0 464.205 464.205;" xml:space="preserve">
<g>
	<path d="M386,295.077c0,0-83.758-84.118-83.875-84.222c8.364-8.456,14.437-19.172,17.238-31.136c2.228,1.656,4.976,2.65,7.959,2.65
		c7.378,0,13.381-6.003,13.381-13.381c0-3.652-1.474-6.964-3.854-9.381c2.38-2.417,3.854-5.729,3.854-9.381
		c0-3.758-1.563-7.153-4.066-9.586c2.285-2.42,3.669-5.669,3.669-9.174c0-5.587-3.479-10.476-8.487-12.448
		c-2.247-18.888-11.429-36.213-25.66-48.728l51.872-22.344L255.551,0L153.061,47.946l51.189,22.055
		c-14.436,12.675-23.688,30.253-25.843,49.389c-4.549,2.186-7.621,6.871-7.621,12.075c0,3.688,1.554,7.108,4.076,9.568
		c-2.276,2.4-3.683,5.632-3.683,9.192c0,3.652,1.474,6.964,3.854,9.381c-2.38,2.417-3.854,5.729-3.854,9.381
		c0,7.378,6.003,13.381,13.381,13.381c2.685,0,5.183-0.802,7.28-2.169c2.85,11.771,8.875,22.312,17.128,30.655
		c-3.496,3.091-81.132,81.928-81.132,81.928l-13.542-13.549l15.156-15.156l-22.669-22.671l-35.973,35.973l22.67,22.671l15.159-15.16
		l13.858,13.865c-2.831,4.15-4.357,9.047-4.357,14.18c0,6.748,2.63,13.091,7.404,17.858c4.924,4.924,11.391,7.386,17.858,7.386
		s12.935-2.462,17.858-7.386l24.032-24.032v109.744h20.3v47.699h45.96h8h45.96v-47.699h20.29V306.312l24.482,24.482
		c4.924,4.924,11.391,7.386,17.858,7.386s12.935-2.462,17.858-7.386c4.77-4.77,7.397-11.111,7.397-17.858
		S390.77,299.847,386,295.077z M93.478,288.735l-11.356-11.356l24.659-24.658l11.356,11.356L93.478,288.735z M327.322,174.369
		c-2.967,0-5.381-2.414-5.381-5.381c0-2.967,2.414-5.381,5.381-5.381c2.967,0,5.381,2.414,5.381,5.381
		C332.703,171.955,330.289,174.369,327.322,174.369z M327.322,155.607c-2.967,0-5.381-2.414-5.381-5.381s2.414-5.381,5.381-5.381
		c2.967,0,5.381,2.414,5.381,5.381S330.289,155.607,327.322,155.607z M324.13,122.492l0.264,3.231l3.034,0.387
		c2.196,0.28,4.114,1.791,4.688,3.929c0.832,3.098-1.164,6.088-4.083,6.681c-0.002,0.001-0.004,0.001-0.007,0.001
		c-0.846,0.145-1.714,0.124-2.556-0.044c-0.603-0.12-1.302-0.304-2.094-0.552c-1.414-0.442-8.368-3.324-8.874-3.533
		c-26.05-10.666-45.333-32.826-52.344-59.828h34.368C312.459,84.664,322.515,102.742,324.13,122.492z M217.962,64.766V46.29
		c24.541-6.389,50.634-6.389,75.17,0v18.476H217.962z M172.582,47.646l82.969-38.813l82.959,38.813l-37.378,16.099V40.203
		l-2.914-0.822c-27.713-7.817-57.438-7.837-85.174-0.048l-3.082,0.87v23.548L172.582,47.646z M184.561,174.369
		c-2.967,0-5.381-2.414-5.381-5.381c0-2.967,2.414-5.381,5.381-5.381c2.967,0,5.381,2.414,5.381,5.381
		C189.942,171.955,187.528,174.369,184.561,174.369z M184.561,155.607c-2.967,0-5.381-2.414-5.381-5.381s2.414-5.381,5.381-5.381
		c2.967,0,5.381,2.414,5.381,5.381S187.528,155.607,184.561,155.607z M185.74,136.522c-0.89,0.261-1.828,0.329-2.744,0.184
		c-0.003-0.001-0.005-0.001-0.008-0.001c-2.436-0.538-4.202-2.739-4.202-5.239c0-2.51,1.772-4.719,4.214-5.252l2.902-0.635
		l0.232-2.961c1.55-19.758,11.515-37.882,27.358-49.853h34.944c-6.957,27.119-26.313,49.304-52.524,59.87
		C195.432,132.829,188.982,135.571,185.74,136.522z M197.991,164.775v-24.338c0.347-0.149,0.655-0.279,0.911-0.382
		c27.542-11.103,48.144-33.971,56.399-62.083c8.294,27.982,28.808,50.823,56.164,62.023c0.457,0.188,1.012,0.428,1.636,0.699v24.082
		c0,30.43-23.736,55.405-53.66,57.414v-12.504h-8v12.487C221.616,220.056,197.991,195.131,197.991,164.775z M278.516,258.813
		l-11.894-11.811l19.902-24.464c3.387-1.824,6.587-3.946,9.585-6.315c0.072,0.063,0.145,0.126,0.217,0.189
		C301.128,232.728,285.103,251.839,278.516,258.813z M224.651,222.577l19.987,24.552l-11.771,11.688
		c-2.616-2.764-6.72-7.445-10.429-13.148c-5.098-7.841-10.365-19.167-7.331-29.352C218.094,218.665,221.281,220.768,224.651,222.577
		z M155.603,325.138c-6.728,6.727-17.675,6.727-24.405-0.002c-3.262-3.259-5.059-7.591-5.059-12.2c0-4.609,1.797-8.941,5.061-12.202
		l9.107-9.108l24.883,23.925L155.603,325.138z M185.291,263.435v32.013l-14.443,14.443l-24.884-23.925l42.073-42.078
		C186.222,250.173,185.291,256.733,185.291,263.435z M193.291,408.506v-145.07c0-13.523,4.269-26.39,12.345-37.207
		c0.21-0.281,0.437-0.55,0.652-0.827c1.72,21.282,22.775,41.015,23.848,42.007l2.814,2.602l16.763-16.646l1.728,2.122v153.02
		H193.291z M214.102,456.205c1.961-8.616,9.487-14.499,18.466-14.499c8.979,0,16.505,5.883,18.466,14.499H214.102z M251.551,441.49
		c-4.879-4.821-11.587-7.784-18.983-7.784c-7.393,0-14.099,2.961-18.977,7.778v-24.978h37.96V441.49z M239.695,228.386
		c5.08,1.267,10.389,1.95,15.856,1.95c5.487,0,10.816-0.687,15.913-1.964l-15.884,19.526L239.695,228.386z M260.061,456.205
		c1.961-8.616,9.487-14.499,18.466-14.499c8.979,0,16.505,5.883,18.466,14.499H260.061z M297.511,441.491
		c-4.879-4.822-11.588-7.785-18.984-7.785c-7.392,0-14.098,2.96-18.976,7.777v-24.977h37.96V441.491z M317.801,408.506h-58.36
		V255.829l2.108-2.591l16.888,16.771l2.814-2.602c1.068-0.987,21.906-20.516,23.821-41.667
		c8.326,10.902,12.729,23.894,12.729,37.695V408.506z M325.801,294.999v-31.563c0-6.884-1.025-13.706-2.991-20.234l43.736,43.736
		l-24.883,23.924L325.801,294.999z M380.343,325.138c-6.728,6.728-17.675,6.728-24.403,0l-8.618-8.618l24.883-23.924l8.138,8.138
		c3.259,3.259,5.053,7.593,5.053,12.202C385.396,317.545,383.602,321.879,380.343,325.138z"/>
	<circle cx="229.169" cy="154.494" r="9.449"/>
	<circle cx="281.926" cy="154.494" r="9.449"/>
	<path d="M224.304,186.921h8c0-3.873,3.151-7.025,7.024-7.025h11.811v-8h-11.811C231.044,171.896,224.304,178.637,224.304,186.921z"
		/>
	<path d="M277.455,186.921h8c0-8.284-6.74-15.025-15.024-15.025H258.62v8h11.811C274.304,179.896,277.455,183.048,277.455,186.921z"
		/>
</g>
<g>
</g>
<g>
</g>
<g>
</g>
<g>
</g>
<g>
</g>
<g>
</g>
<g>
</g>
<g>
</g>
<g>
</g>
<g>
</g>
<g>
</g>
<g>
</g>
<g>
</g>
<g>
</g>
<g>
</g>
</svg>
