<?xml version="1.0" encoding="iso-8859-1"?>
<!-- Generator: Adobe Illustrator 18.0.0, SVG Export Plug-In . SVG Version: 6.00 Build 0)  -->
<!DOCTYPE svg PUBLIC "-//W3C//DTD SVG 1.1//EN" "http://www.w3.org/Graphics/SVG/1.1/DTD/svg11.dtd">
<svg version="1.1" id="Capa_1" xmlns="http://www.w3.org/2000/svg" xmlns:xlink="http://www.w3.org/1999/xlink" x="0px" y="0px"
	 viewBox="0 0 434.127 434.127" style="enable-background:new 0 0 434.127 434.127;" xml:space="preserve">
<g>
	<circle cx="230.631" cy="124.165" r="9.449"/>
	<circle cx="283.389" cy="124.165" r="9.449"/>
	<path d="M387.461,264.748l-74.905-75.052c6.541-10.198,10.501-22.308,10.501-35.299V134.4c8-2.112,14.5-9.68,14.5-18.633
		c0-7.356-4.5-13.886-10.5-17.131V57.316l-3.917-0.397c-0.012-0.002-0.099-0.005-0.112-0.007c-0.163-1.108-0.388-2.216-0.607-3.316
		c-1.461-7.333-1.247-15.392,0.67-23.947c0.511-2.261,0.683-4.602,0.531-6.963c-0.794-12.094-10.517-21.823-22.608-22.63
		c-2.262-0.151-4.514,0.006-6.676,0.467c-8.588,1.809-17.258,1.972-25.764,0.485c-7.257-1.275-14.753-1.334-21.974-0.202
		c-9.727,1.53-18.778,1.435-26.896-0.281c-2.275-0.484-4.649-0.635-7.065-0.444c-10.617,0.858-19.574,8.792-21.784,19.302
		c-0.773,3.712-0.671,7.434,0.304,11.068c1.953,7.228,2.178,15.303,0.652,23.348c-0.195,1.023-0.218,2.073-0.368,3.139l-3.388,0.607
		v40.831c-7,3.134-11,9.865-11,17.314c0,9.219,6,16.799,15,18.683v20.024c0,12.603,3.391,24.645,9.966,35.019
		c-0.496,0.625-68.117,68.505-68.117,68.505l-12.9-12.863l5.797-5.815l-32.891-32.881l-5.825,5.82l-9.193-9.191l-15.678,15.677
		l9.19,9.191l-1.457,1.456l-31.689,17.482l1.722,3.437c8.916,17.799,23.583,32.653,41.298,41.826l4.571,2.366l17.006-32.256
		l1.43-1.429l15.218,15.218c-2.376,8.678,0.032,18.053,6.498,24.509c4.829,4.829,11.29,7.402,17.871,7.401
		c2.218,0,4.597-0.305,6.785-0.902l55.396,55.249v71.913h100v-104h20v-54.643l24.834,24.982c4.924,4.923,11.317,7.385,17.785,7.385
		c6.467,0,12.898-2.461,17.822-7.385C397.345,290.618,397.308,274.596,387.461,264.748z M323.057,105.587
		c4,1.823,6.5,5.742,6.5,10.18c0,4.496-2.5,8.393-6.5,10.18V105.587z M192.057,126.018c-4-1.635-7-5.608-7-10.329
		c0-4.633,2-8.655,7-10.35V126.018z M315.057,133.729c-9,3.108-16.376,8.881-21.613,16.464
		c-8.157-11.751-21.811-19.039-36.361-19.039c-14.543,0-28.011,7.287-36.173,19.038c-5.133-7.435-12.853-13.133-20.853-16.283
		v-28.665l0.243-0.063c37.803-6.918,76.212-6.918,114.014,0l0.744,0.125V133.729z M198.687,21.02
		c1.485-7.06,7.488-12.392,14.588-12.966c1.64-0.128,3.243-0.029,4.771,0.296c9.08,1.919,19.106,2.04,29.797,0.358
		c6.351-0.996,12.952-0.945,19.352,0.179c9.516,1.665,19.204,1.484,28.804-0.538c1.447-0.309,2.954-0.413,4.479-0.311
		c8.108,0.54,14.623,7.063,15.155,15.167c0.103,1.592-0.018,3.167-0.362,4.687c-2.118,9.446-2.399,18.429-0.838,26.709
		c0.035,0.186,0.125,0.664,0.136,0.717c-38.177-6.759-76.752-6.742-114.908,0.05c0.005-0.025,0.085-0.461,0.119-0.653
		c1.632-9.039,1.324-18.138-0.893-26.345C198.24,25.963,198.174,23.487,198.687,21.02z M196.057,97.787v-33.56
		c41-7.96,82-7.959,123,0.006v33.678l-3.873-0.785h-0.01c-38.604-7-77.595-6.946-116.196,0.103
		C198.979,97.23,197.057,97.622,196.057,97.787z M200.057,154.397v-11.831c7,3.54,13.573,9.634,17.189,17.309l3.54,7.67l3.585-7.665
		c5.949-12.59,18.756-20.725,32.657-20.725c13.908,0,26.725,8.134,32.666,20.723l3.613,7.666l3.762-7.666
		c3.703-7.847,9.988-14.031,17.988-17.533v12.052c0,31.733-25.946,57.55-57.657,57.55c-15.35,0-29.717-5.987-40.588-16.859
		C205.96,184.236,200.057,169.785,200.057,154.397z M288.057,273.127v49h-61v-49h4v-23h-4v-37.692c9,4.905,19.692,7.512,30.49,7.512
		c11.012,0,21.51-2.745,30.51-7.569v37.749h-4v23H288.057z M195.057,233.107c0-13.235,3.982-26.009,11.566-36.516
		c0,0,0.194-0.354,0.234-0.409c1.306,1.574,2.797,3.1,4.261,4.564c2.455,2.456,4.939,4.682,7.939,6.691v42.691h-4v23h4v49h-24
		V233.107z M189.659,213.555c-1.801,6.295-2.601,12.87-2.601,19.551v32.003l-14.6,14.453l-24.882-23.924L189.659,213.555z
		 M187.057,276.424v34.426l-17.213-17.213L187.057,276.424z M78.893,214.304l3.534,3.534l-4.363,4.363l-3.534-3.534L78.893,214.304z
		 M97.347,257.367l-13.846,26.261c-14.003-7.843-25.751-19.604-33.566-33.584l25.872-14.272l18.097-18.097l21.567,21.567
		L97.347,257.367z M124.099,268.236l-13.154-13.154l4.368-4.368l12.863,12.863l-1.171,1.171
		C125.923,265.83,124.958,266.998,124.099,268.236z M151.156,298.682c-6.385,2.497-13.645,0.977-18.497-3.876
		c-4.857-4.849-6.377-12.106-3.873-18.488c0.874-2.226,2.178-4.215,3.875-5.913l9.109-9.109l24.882,23.923l-9.588,9.588
		C155.366,296.506,153.377,297.81,151.156,298.682z M207.057,350.9l-47.676-47.529c1.238-0.859,2.332-1.824,3.413-2.905l1.282-1.172
		l22.981,22.869v7.964h7.789l12.211,12.037V350.9z M215.444,426.127c1.783-9,9.439-14.98,18.587-14.98
		c9.148,0,16.804,5.98,18.587,14.98H215.444z M253.057,410.813c-5-4.678-11.461-7.545-18.732-7.545
		c-7.542,0-14.268,3.083-19.268,8.073v-25.213h38V410.813z M253.057,378.127h-38v-48h38V378.127z M261.403,426.127
		c1.783-9,9.439-14.98,18.587-14.98c9.148,0,16.804,5.98,18.587,14.98H261.403z M299.057,410.852
		c-5-4.701-11.481-7.584-18.773-7.584c-7.521,0-14.227,3.065-19.227,8.03v-25.171h38V410.852z M299.057,378.127h-38v-48h38V378.127z
		 M319.057,322.127h-23v-49h4v-23h-4v-42.749c4-3.093,8.092-6.681,11.477-10.68c7.458,10.422,11.523,23.163,11.523,36.409V322.127z
		 M327.057,264.17v-31.063c0-7.144-1.21-14.159-3.231-20.827l44.255,44.329l-24.772,23.924L327.057,264.17z M381.805,294.808
		c-6.728,6.728-17.675,6.728-24.403,0l-8.618-8.618l24.883-23.924l8.139,8.139C388.532,277.133,388.532,288.08,381.805,294.808z"/>
</g>
<g>
</g>
<g>
</g>
<g>
</g>
<g>
</g>
<g>
</g>
<g>
</g>
<g>
</g>
<g>
</g>
<g>
</g>
<g>
</g>
<g>
</g>
<g>
</g>
<g>
</g>
<g>
</g>
<g>
</g>
</svg>
