<?xml version="1.0" encoding="iso-8859-1"?>
<!-- Generator: Adobe Illustrator 18.0.0, SVG Export Plug-In . SVG Version: 6.00 Build 0)  -->
<!DOCTYPE svg PUBLIC "-//W3C//DTD SVG 1.1//EN" "http://www.w3.org/Graphics/SVG/1.1/DTD/svg11.dtd">
<svg version="1.1" id="Capa_1" xmlns="http://www.w3.org/2000/svg" xmlns:xlink="http://www.w3.org/1999/xlink" x="0px" y="0px"
	 viewBox="0 0 436.267 436.267" style="enable-background:new 0 0 436.267 436.267;" xml:space="preserve">
<g>
	<circle cx="227.144" cy="126.561" r="9.449"/>
	<circle cx="279.901" cy="126.561" r="9.449"/>
	<path d="M383.971,267.139l-41.466-41.471l6.839-6.576l-5.544-5.768l-6.953,6.686c0,0-29.881-30.091-30.448-30.737
		c13.601-1.035,24.353-12.425,24.353-26.285v-33.66c1.91-2.992,3.02-6.55,3.02-10.38c0-3.828-1.109-7.383-3.02-10.374V89.286
		c0-25.271-12.344-48.872-33.06-63.345c-2.192-3.892-4.887-7.516-8.073-10.769C280.035,5.389,267.166,0,253.383,0
		c-13.783,0-26.652,5.389-36.237,15.173c-3.275,3.343-6.03,7.078-8.253,11.093c-20.428,14.486-32.6,37.967-32.6,63.02v19.277
		c-1.911,2.992-3.021,6.55-3.021,10.383c0,3.834,1.109,7.395,3.021,10.389v33.651c0,13.866,10.76,25.259,24.368,26.286
		c-1.125,1.287-2.216,2.6-3.24,3.959l-26.97,26.97l-6.145-5.908l-5.547,5.766l6.033,5.801l-39.244,39.244l-18.466-18.466
		l-13.289-56.778l-7.789,1.822l6.04,25.807l-2.024,2.024l-13.462-20.889l-6.725,4.334l14.398,22.343l-3.83,3.83l-22.343-14.398
		l-4.334,6.725l20.889,13.461l-2.093,2.093l-25.807-6.041l-1.823,7.789l56.142,13.141l19.229,19.229
		c-6.434,9.793-5.351,23.118,3.252,31.732c4.77,4.771,11.112,7.397,17.858,7.397c5.007,0,9.789-1.45,13.873-4.145l8.549,8.549
		l5.657-5.656l-8.182-8.182l22.004-22.003v16.325l-17.768,83.186h38.058v57.932h45.96h8h45.96v-57.932h38.057l-17.767-83.18v-16.772
		l24.482,24.481c4.77,4.771,11.112,7.397,17.858,7.397c6.747,0,13.089-2.627,17.858-7.397c4.775-4.774,7.404-11.119,7.404-17.866
		C391.375,278.25,388.745,271.906,383.971,267.139z M81.689,239.159l12.501-12.501l3.82,16.321L81.689,239.159z M315.773,235.507
		v56.087h-57.94v-70.988c17.707-1.653,32.764-13.392,38.678-30.117c0.349,0.333,0.705,0.667,1.034,0.995
		C309.3,203.24,315.773,218.874,315.773,235.507z M253.523,212.814c-10.044,0-19.494-3.912-26.606-11.015
		c-2.473-2.473-4.572-5.259-6.255-8.27c9.669,5.627,20.89,8.868,32.861,8.868c11.979,0,23.208-3.245,32.882-8.88
		C279.905,205.229,267.485,212.814,253.523,212.814z M297.383,299.594v10.961c0,24.714-19.962,44.819-44.5,44.819
		s-44.5-20.105-44.5-44.819v-10.961H297.383z M322.753,162.986c0,10.129-8.241,18.37-18.37,18.37h-2.795
		c10.672-11.516,17.262-26.855,17.466-43.709c1.292-0.307,2.526-0.749,3.699-1.299V162.986z M319.074,129.23v-20.557
		c3.965,1.732,6.698,5.67,6.698,10.274C325.773,123.555,323.04,127.496,319.074,129.23z M322.753,89.286v12.268
		c-1.175-0.551-2.412-0.994-3.707-1.301c-0.253-15.213-5.704-29.179-14.663-40.194v-8.357c0-3.56-0.353-7.06-1.03-10.465
		C315.679,54.021,322.753,71.176,322.753,89.286z M210.383,51.703c0-24.507,18.888-43.703,43-43.703s43,19.196,43,43.703v0.118
		c-11.502-9.966-26.483-16.016-42.86-16.016c-16.51,0-31.602,6.148-43.14,16.258V51.703z M269.074,71.384
		c2.655,2.152,5.616,3.756,8.775,4.772c-9.907,8.381-24.721,8.808-35.151,0.329c-8.654-7.047-12.153-18.57-9.029-29.149
		c6.191-2.283,12.878-3.531,19.852-3.531c2.123,0,4.217,0.124,6.281,0.349C257.467,54.092,260.917,64.74,269.074,71.384z
		 M224.727,51.559c-1.174,11.689,3.507,23.466,12.923,31.132c6.583,5.351,14.515,7.952,22.399,7.952
		c10.332,0,20.58-4.471,27.581-13.083c0.467-0.566,0.902-1.155,1.335-1.745l4.577-6.229l-7.729-0.139
		c-4.299-0.078-8.346-1.557-11.696-4.272c-5.861-4.774-8.288-12.485-6.444-19.604c24.913,6.323,43.4,28.934,43.4,55.786v35.489
		c0,31.734-25.817,57.552-57.552,57.552s-57.552-25.817-57.552-57.552v-35.489C195.971,80.109,207.553,61.528,224.727,51.559z
		 M184.293,89.286c0-17.912,6.942-34.928,19.043-47.674c-0.629,3.286-0.953,6.662-0.953,10.091v8.712
		c-8.791,10.958-14.133,24.785-14.384,39.835c-1.295,0.306-2.531,0.748-3.706,1.298V89.286z M181.273,118.946
		c0-4.611,2.733-8.55,6.698-10.279v20.567C184.006,127.504,181.273,123.561,181.273,118.946z M184.293,162.986v-26.632
		c1.172,0.549,2.406,0.99,3.698,1.296c0.205,16.853,6.794,32.191,17.466,43.706h-2.794
		C192.534,181.356,184.293,173.115,184.293,162.986z M191.273,235.507c0-17.061,6.992-33.299,19.277-45.034
		c2.256,6.352,5.89,12.164,10.712,16.985c7.747,7.737,17.782,12.338,28.571,13.197v70.938h-58.56V235.507z M186.089,215.878
		c-1.572,5.403-2.501,11.014-2.737,16.729l-7.133-6.859L186.089,215.878z M153.574,297.208c-3.259,3.259-7.592,5.054-12.202,5.054
		c-4.609,0-8.942-1.795-12.2-5.053c-6.728-6.735-6.728-17.688-0.001-24.414l41.389-41.389l12.713,12.224v23.88L153.574,297.208z
		 M212.009,428.267c1.862-8.766,9.459-14.77,18.534-14.77s16.672,6.004,18.534,14.77H212.009z M249.523,413.278
		c-4.878-4.819-11.586-7.781-18.98-7.781s-14.102,2.961-18.98,7.781v-34.943h37.96V413.278z M257.968,428.267
		c1.862-8.766,9.46-14.77,18.534-14.77c9.074,0,16.672,6.004,18.534,14.77H257.968z M295.483,413.279
		c-4.879-4.82-11.586-7.782-18.981-7.782c-7.394,0-14.101,2.961-18.979,7.78v-34.942h37.96V413.279z M331.651,370.335H175.395
		l15.109-70.741h9.879v10.961c0,29.125,23.551,52.819,52.5,52.819c28.949,0,52.5-23.694,52.5-52.819v-10.961h11.158L331.651,370.335
		z M323.704,232.648c-0.236-5.946-1.202-11.76-2.866-17.338l10.243,10.244L323.704,232.648z M378.314,297.208
		c-3.259,3.259-7.592,5.054-12.201,5.054c-4.609,0-8.942-1.795-12.201-5.054l-30.139-30.138v-23.39l12.965-12.466l41.578,41.584
		c3.263,3.259,5.059,7.592,5.059,12.201C383.375,289.608,381.578,293.944,378.314,297.208z"/>
	<circle cx="239.401" cy="229.926" r="6.952"/>
	<path d="M308.836,244.215h-34v-21.578h34V244.215z M282.836,236.215h18v-5.578h-18V236.215z"/>
</g>
<g>
</g>
<g>
</g>
<g>
</g>
<g>
</g>
<g>
</g>
<g>
</g>
<g>
</g>
<g>
</g>
<g>
</g>
<g>
</g>
<g>
</g>
<g>
</g>
<g>
</g>
<g>
</g>
<g>
</g>
</svg>
