<?xml version="1.0" encoding="iso-8859-1"?>
<!-- Generator: Adobe Illustrator 18.0.0, SVG Export Plug-In . SVG Version: 6.00 Build 0)  -->
<!DOCTYPE svg PUBLIC "-//W3C//DTD SVG 1.1//EN" "http://www.w3.org/Graphics/SVG/1.1/DTD/svg11.dtd">
<svg version="1.1" id="Capa_1" xmlns="http://www.w3.org/2000/svg" xmlns:xlink="http://www.w3.org/1999/xlink" x="0px" y="0px"
	 viewBox="0 0 400.423 400.423" style="enable-background:new 0 0 400.423 400.423;" xml:space="preserve">
<g>
	<path d="M330.457,231.34c0,0-80.675-81.114-83.915-84.187c11.569-11.676,18.779-27.666,18.992-45.313
		c8.501-2.016,14.714-9.599,14.714-18.691c0-9.1-6.217-16.689-14.722-18.704C264.931,28.81,235.777,0,200.003,0
		c-35.774,0-64.928,28.81-65.524,64.445c-8.504,2.015-14.721,9.604-14.721,18.703c0,9.092,6.213,16.675,14.713,18.691
		c0.212,17.624,7.405,33.595,18.949,45.267c-3.571,3.157-83.43,84.233-83.43,84.233c-4.77,4.77-7.397,11.112-7.397,17.858
		c0,6.746,2.431,13.089,7.202,17.86c1.71,1.708,3.431,3.113,5.431,4.228v40.136h74v89h100v-104h21v-53.477l24.309,24.113
		c4.927,4.921,11.494,7.382,17.963,7.382c6.469,0,12.987-2.461,17.909-7.383c4.77-4.77,7.421-11.112,7.421-17.859
		C337.829,242.452,335.227,236.109,330.457,231.34z M265.227,72.864c4,1.734,6.694,5.675,6.694,10.284
		c0,4.605-2.694,8.543-6.694,10.275V72.864z M204.132,8.164c24.289,1.732,44.448,18.592,51.088,41.195
		c-3.708,1.126-7.567,1.701-11.518,1.701c-21.892,0-39.702-17.81-39.702-39.702C204.001,10.291,204.047,9.225,204.132,8.164z
		 M195.869,8.165c0.085,1.06,0.131,2.127,0.131,3.194c0,21.892-17.81,39.702-39.702,39.702c-3.945,0-7.802-0.575-11.513-1.7
		C151.425,26.759,171.582,9.899,195.869,8.165z M134.227,93.423c-4-1.732-6.693-5.67-6.693-10.274c0-4.609,2.693-8.55,6.693-10.284
		V93.423z M142.227,101.041V65.552c0-2.839,0.327-5.628,0.727-8.359c4.277,1.236,8.765,1.867,13.289,1.867
		c19.517,0,36.352-11.786,43.73-28.61c7.379,16.824,24.2,28.61,43.716,28.61c4.53,0,8.807-0.631,13.082-1.867
		c0.399,2.73,0.457,5.52,0.457,8.359v35.489c0,31.723-25.831,57.778-57.55,57.796C167.958,158.819,142.227,132.764,142.227,101.041z
		 M199.97,168.453l13.567,11.457l-13.485,13.285l-13.478-13.478L199.97,168.453z M172.128,181.409l-3.057-22.592
		c6.578,3.536,13.825,5.976,21.498,7.087L172.128,181.409z M209.363,165.914c7.631-1.096,14.84-3.508,21.391-7.004l-2.993,22.539
		L209.363,165.914z M132.175,180.273c-1.818,6.263-2.948,12.782-2.948,19.425v32.143l-14.118,14.314l-24.888-23.928L132.175,180.273
		z M70.594,249.198c0-4.609,1.795-8.943,5.054-12.201l9.112-9.113l24.888,23.928l-9.587,9.587c-6.726,6.727-17.679,6.727-24.413,0
		C72.388,258.141,70.594,253.808,70.594,249.198z M83.227,303.423v-29.345c2,0.237,2.82,0.362,4.239,0.362
		c2.622,0,5.761-0.412,7.761-1.22v19.202h8v-23.493c1-0.58,1.427-1.201,2.098-1.872l12.902-12.902v38.267h8v-42h-4.291l10-10h31.291
		v63H83.227z M158.437,392.423c1.783-8,9.439-14.979,18.587-14.979c9.148,0,16.804,6.979,18.587,14.979H158.437z M195.227,377.274
		c-4-4.6-11.392-7.415-18.595-7.415c-7.613,0-14.405,3.143-19.405,8.217v-66.653h14v-15h24V377.274z M195.227,288.423h-24v-56h-34
		v-32.724c0-13.303,4.419-26.055,12.412-36.896l0.4-0.409c2.71-3.618,5.884-6.939,9.354-9.914c0.26,0.206,0.544,0.413,0.807,0.615
		l5.938,43.793l14.283-12.004l8.616,8.612l-16.684,59.043l22.874,23.068V288.423z M181.513,250.189l14.02-50.1l8.953-0.042
		l14.003,50.142l-18.488,18.487L181.513,250.189z M204.396,392.423c1.783-8,9.439-14.979,18.587-14.979
		c9.148,0,16.804,6.979,18.587,14.979H204.396z M241.227,377.313c-4-4.624-11.412-7.454-18.636-7.454
		c-7.592,0-14.364,3.125-19.364,8.174v-81.61h38V377.313z M262.227,288.423h-59v-12.052l24.028-23.832l-16.346-58.882l8.716-8.565
		l14.117,11.901l5.821-43.735c0.328-0.249,0.655-0.509,0.978-0.764c3.054,2.878,7.507,7.586,8.654,9.056
		c8.651,11.093,13.031,24.286,13.031,38.15V288.423z M270.227,231.631v-31.933c0-6.763-0.77-13.381-2.649-19.727l43.326,43.228
		l-25.034,23.928L270.227,231.631z M324.8,261.4c-6.726,6.726-17.679,6.727-24.413,0l-8.615-8.615l24.887-23.928l8.14,8.14
		c3.259,3.258,5.053,7.592,5.053,12.201C329.854,253.808,328.059,258.141,324.8,261.4z"/>
	<circle cx="173.625" cy="90.756" r="9.449"/>
	<circle cx="226.382" cy="90.756" r="9.449"/>
	<rect x="224.227" y="205.423" width="25" height="8"/>
	<rect x="142.227" y="250.423" width="8" height="42"/>
</g>
<g>
</g>
<g>
</g>
<g>
</g>
<g>
</g>
<g>
</g>
<g>
</g>
<g>
</g>
<g>
</g>
<g>
</g>
<g>
</g>
<g>
</g>
<g>
</g>
<g>
</g>
<g>
</g>
<g>
</g>
</svg>
