<?xml version="1.0" encoding="iso-8859-1"?>
<!-- Generator: Adobe Illustrator 18.0.0, SVG Export Plug-In . SVG Version: 6.00 Build 0)  -->
<!DOCTYPE svg PUBLIC "-//W3C//DTD SVG 1.1//EN" "http://www.w3.org/Graphics/SVG/1.1/DTD/svg11.dtd">
<svg version="1.1" id="Capa_1" xmlns="http://www.w3.org/2000/svg" xmlns:xlink="http://www.w3.org/1999/xlink" x="0px" y="0px"
	 viewBox="0 0 422.675 422.675" style="enable-background:new 0 0 422.675 422.675;" xml:space="preserve">
<g>
	<path d="M128.286,337.69l11.656,8.672l13.181-5.864l1.364-14.465l-11.656-8.672l-13.181,5.863L128.286,337.69z M137.175,328.633
		l4.633-2.061l4.292,3.193l-0.502,5.325l-4.633,2.061l-4.292-3.193L137.175,328.633z"/>
	<path d="M364.199,253.503c0,0-83.303-83.733-83.78-84.162c11.344-11.722,18.409-27.68,18.631-45.281
		c8.616-1.935,14.895-9.571,14.895-18.748c0-9.085-5.739-16.662-14.739-18.686V65.552C299.205,29.406,269.85,0,233.705,0
		c-36.145,0-65.5,29.406-65.5,65.552v21.074c-8,2.023-14.699,9.6-14.699,18.686c0,9.052,6.151,16.604,14.586,18.665
		c0.201,17.63,7.305,33.616,18.724,45.355c-0.577,0.511-69.55,70.54-69.55,70.54l-5.103-11.48c3.745-6.226,5.349-13.418,4.53-20.822
		c-0.984-8.896-5.34-16.777-12.262-22.191c-5.823-4.554-13.102-7.062-20.495-7.062c-6.321,0-12.409,1.764-17.605,5.104l-4.739,3.043
		l19.875,15.538l-6.713,8.575L54.977,195.09l-1.883,5.14c-4.889,13.448-0.63,28.527,10.599,37.309
		c5.914,4.625,12.969,7.136,20.403,7.136c0.001,0,0.001,0,0.002,0c0.055,0,1.055-0.021,1.536-0.039l10.847,24.265
		c-0.74,7.296,1.675,14.802,7.252,20.386c0.937,0.935,1.929,1.753,2.967,2.511l10.197,22.916c-1.398,1.994-2.56,4.166-3.456,6.498
		c-2.873,7.476-2.662,15.62,0.594,22.937c4.811,10.815,15.57,17.801,27.41,17.801c4.206,0,8.302-0.874,12.172-2.596
		c15.105-6.72,21.928-24.477,15.208-39.583c-4.329-9.732-13.479-16.346-23.894-17.577l-5.674-12.774
		c0.067-0.065,0.136-0.126,0.202-0.192l23.612-23.612l0.172,24.613c1.012,11.455,9.962,20.798,20.962,22.942v109.502h99V313.21
		c11-2.06,19.828-11.397,20.829-22.979l0.07-25.403l24.386,24.403c4.927,4.922,11.387,7.382,17.856,7.382
		c6.469,0,12.935-2.462,17.858-7.385C374.048,279.373,374.043,263.347,364.199,253.503z M299.205,94.947
		c4,1.68,6.92,5.673,6.92,10.364c0,4.695-2.92,8.692-6.92,10.373V94.947z M168.205,115.546c-4-1.76-6.57-5.672-6.57-10.234
		c0-4.558,2.57-8.467,6.57-10.226V115.546z M59.273,208.756l16.856,13.123l16.57-21.218l-16.684-13.066
		c2.516-0.839,5.187-1.29,7.922-1.29c5.697,0,11.08,1.832,15.566,5.34c5.212,4.076,8.493,9.99,9.238,16.728
		c0.745,6.73-1.122,13.491-5.256,18.777c-4.701,6.011-11.767,9.524-19.386,9.524c0,0-0.001,0-0.001,0
		c-5.631,0-10.983-1.924-15.476-5.438C61.665,225.797,58.247,217.274,59.273,208.756z M103.732,253.503
		c-1.313,1.313-2.446,2.739-3.408,4.243l-6.635-14.91c4.786-1.43,9.17-3.941,12.84-7.415l4.684,10.545L103.732,253.503z
		 M141.416,309.97c8.682,0,16.572,5.124,20.1,13.055c4.927,11.075-0.075,24.094-11.15,29.021c-2.84,1.264-5.842,1.904-8.92,1.904
		c-8.683,0-16.573-5.125-20.1-13.055c-2.387-5.365-2.542-11.338-0.435-16.819c2.106-5.482,6.221-9.815,11.586-12.201
		C135.336,310.61,138.337,309.97,141.416,309.97z M117.456,296.267c1.371,0.226,2.757,0.346,4.143,0.346
		c3.764,0,7.526-0.84,10.986-2.506l3.693,8.315c-2.407,0.421-4.76,1.131-7.035,2.143c-2.311,1.028-4.45,2.322-6.388,3.845
		L117.456,296.267z M133.802,283.573c-6.727,6.728-17.68,6.726-24.412,0.002c-6.728-6.736-6.728-17.688,0.009-24.425l9.588-9.662
		l23.97,24.93L133.802,283.573z M163.205,221.871v32.433l-14.522,14.455l-24.024-24.952l41.409-41.675
		C164.169,208.516,163.205,215.161,163.205,221.871z M238.205,8.179c30,2.221,53,27.095,53,57.372v14.9
		c-15-13.185-34-20.264-53-21.191V8.179z M281.516,83.675h-95.542C214.251,62.675,253.24,62.675,281.516,83.675z M176.205,65.552
		c0-30.499,24-55.519,54-57.422v51.112c-19,0.796-38,7.875-54,21.21V65.552z M176.205,123.211V91.675h115v31.536
		c0,31.992-25.714,58.02-57.33,58.02C202.076,181.231,176.205,155.204,176.205,123.211z M209.205,250.675v5h-17.135
		c0,0,0.52-80.51,0.756-80.712c2.914,2.346,6.379,4.231,9.379,6.059v34.654h61v-33.496c4-2.075,7.824-4.342,11.351-7.195
		c0.194,0.171,0.514,80.691,0.514,80.691h-16.865v-5H209.205z M250.205,258.675v28h-33v-28H250.205z M210.205,207.675v-22.901
		c7,2.867,15.332,4.457,23.68,4.457c7.465,0,14.32-1.289,21.32-3.63v22.074H210.205z M171.205,221.871c0-13.652,5-27.03,13-37.906
		v71.71h-13V221.871z M171.205,263.675h38v19h-38V263.675z M184.205,304.926c-7-1.948-12.019-8.25-12.962-14.25h12.962V304.926z
		 M192.423,414.675c1.993-9,9.496-14.577,18.443-14.577s16.45,5.577,18.443,14.577H192.423z M237.682,414.675
		c1.994-9,9.496-14.577,18.443-14.577c8.948,0,16.449,5.577,18.443,14.577H237.682z M275.205,399.449
		c-5-4.815-11.818-7.794-19.196-7.794c-7.183,0-13.804,2.827-18.804,7.421v-76.4h15v-8h-37v8h14v76.544
		c-4-4.678-11.197-7.564-18.455-7.564c-7.303,0-13.545,2.921-18.545,7.651v-108.63h17v4h49v-4h17V399.449z M283.205,304.993v-14.317
		h12.706C295.005,297.675,290.205,303.141,283.205,304.993z M296.205,282.675h-38v-19h38V282.675z M296.205,255.675h-13v-71.812
		c8,10.83,13,24.233,13,38.008V255.675z M304.205,253.515v-31.643c0-6.888-1.115-13.689-3.081-20.197l43.94,44.007l-23.866,24.892
		L304.205,253.515z M358.542,283.573c-6.727,6.726-17.679,6.726-24.413,0l-7.341-7.341l23.934-24.892l7.821,7.821
		C365.269,265.887,365.268,276.839,358.542,283.573z"/>
	<circle cx="207.367" cy="112.926" r="9.449"/>
	<circle cx="260.124" cy="112.926" r="9.449"/>
</g>
<g>
</g>
<g>
</g>
<g>
</g>
<g>
</g>
<g>
</g>
<g>
</g>
<g>
</g>
<g>
</g>
<g>
</g>
<g>
</g>
<g>
</g>
<g>
</g>
<g>
</g>
<g>
</g>
<g>
</g>
</svg>
