<?xml version="1.0" encoding="iso-8859-1"?>
<!-- Generator: Adobe Illustrator 18.0.0, SVG Export Plug-In . SVG Version: 6.00 Build 0)  -->
<!DOCTYPE svg PUBLIC "-//W3C//DTD SVG 1.1//EN" "http://www.w3.org/Graphics/SVG/1.1/DTD/svg11.dtd">
<svg version="1.1" id="Capa_1" xmlns="http://www.w3.org/2000/svg" xmlns:xlink="http://www.w3.org/1999/xlink" x="0px" y="0px"
	 viewBox="0 0 432.874 432.874" style="enable-background:new 0 0 432.874 432.874;" xml:space="preserve">
<g>
	<circle cx="189.828" cy="123.162" r="9.449"/>
	<circle cx="242.585" cy="123.162" r="9.449"/>
	<path d="M346.656,263.745l-39.423-39.432l6.847-6.847l-40.735-40.735l-6.589,6.59c-0.292-0.304-2.906-2.865-3.967-3.805
		c11.542-11.673,18.735-27.645,18.948-45.271c8.504-2.017,14.72-9.6,14.72-18.691c0-3.568-1.001-6.977-2.772-9.914h13.195
		l-3.264-7.752c-4.154-9.865-7.333-20.868-9.447-32.704C287.423,27.413,254.635,0,216.207,0c-38.427,0-71.215,27.413-77.962,65.184
		c-2.114,11.835-5.292,22.838-9.447,32.705l-3.263,7.751h13.193c-1.77,2.938-2.771,6.346-2.771,9.914
		c0,9.102,6.215,16.685,14.72,18.694c0.214,17.631,7.411,33.607,18.96,45.28c-1.376,1.219-2.705,2.484-3.973,3.798l-6.596-6.596
		l-40.734,40.735l7.076,7.077l-39.212,39.203c-9.847,9.848-9.847,25.87,0,35.717c4.924,4.924,11.391,7.386,17.858,7.386
		c6.467,0,12.935-2.462,17.858-7.386l24.032-24.032v53.904h20.3v103.54h99.92v-103.54h20.29V274.98l24.482,24.482
		c4.924,4.925,11.391,7.386,17.859,7.386c6.466,0,12.934-2.462,17.856-7.384c4.776-4.77,7.406-11.112,7.406-17.859
		C354.06,274.857,351.43,268.514,346.656,263.745z M273.346,188.045l29.421,29.421l-8.263,8.263l-29.421-29.421L273.346,188.045z
		 M281.758,125.828V105.64h0.731c3.649,1.934,5.969,5.744,5.969,9.914C288.458,120.159,285.724,124.096,281.758,125.828z
		 M150.658,125.834c-3.966-1.728-6.7-5.668-6.7-10.28c0-4.169,2.316-7.978,5.961-9.914h0.739V125.834z M137.532,97.64
		c3.721-9.523,6.607-19.95,8.589-31.05C152.185,32.641,181.661,8,216.208,8c34.547,0,64.022,24.641,70.086,58.59
		c1.983,11.101,4.868,21.527,8.589,31.05H137.532z M158.658,133.443V105.64h115.1v27.804c0,31.739-25.817,57.561-57.55,57.561
		C184.474,191.004,158.658,165.183,158.658,133.443z M259.934,187.797c-4.68,5.062-14.049,15.233-21.701,23.783
		c-1.618-5.819-5.187-10.43-9.13-13.857c10.296-2.063,19.719-6.554,27.667-12.836C257.857,185.82,258.915,186.791,259.934,187.797z
		 M203.316,197.724c-3.943,3.424-7.512,8.032-9.13,13.847c-2.628-2.938-18.482-20.292-21.697-23.766
		c1.019-1.005,2.07-1.982,3.158-2.916C183.596,191.171,193.019,195.661,203.316,197.724z M173.857,201.096
		c2.204,2.401,16.402,18.024,20.576,22.846l8.635,9.973l-1.642-13.089c-1.298-10.345,5.73-16.612,10.721-19.702v74.836h-18.444
		v5.934h-39.756v-49.79c0-4.156,0.434-8.301,1.253-12.35L173.857,201.096z M230.712,283.959v20.41h-29.009v-20.41H230.712z
		 M193.703,289.893v8.54h-39.756v-8.54H193.703z M159.069,188.045l8.263,8.263l-29.421,29.421l-8.263-8.263L159.069,188.045z
		 M116.259,293.806c-6.728,6.729-17.675,6.728-24.403,0c-6.728-6.728-6.728-17.676,0-24.403l9.111-9.108l24.882,23.923
		L116.259,293.806z M145.948,232.104v32.013l-14.442,14.442l-24.881-23.922l24.443-24.437l6.843,6.843l8.123-8.123
		C145.986,229.98,145.948,231.042,145.948,232.104z M153.948,321.334v-14.9h39.756v5.936h18.444v8.965H153.948z M174.675,424.874
		c1.836-8.804,9.453-14.84,18.552-14.84c9.099,0,16.715,6.035,18.551,14.84H174.675z M212.208,409.815
		c-4.878-4.819-11.586-7.781-18.981-7.781c-7.394,0-14.101,2.961-18.979,7.78v-80.48h37.96V409.815z M220.634,424.874
		c1.836-8.804,9.453-14.84,18.551-14.84c9.099,0,16.716,6.035,18.552,14.84H220.634z M258.168,409.816
		c-4.878-4.82-11.586-7.782-18.982-7.782c-7.393,0-14.1,2.961-18.978,7.779v-80.479h37.96V409.816z M278.458,321.334h-58.31v-8.965
		h18.564v-5.936h39.746V321.334z M278.458,298.434h-39.746v-8.54h39.746V298.434z M278.458,281.893h-39.746v-5.934h-18.564v-74.914
		c5,3.066,12.149,9.353,10.845,19.786l-1.633,13.068l8.625-9.952c5.435-6.272,13.898-15.574,20.575-22.85l18.646,18.646
		c0.818,4.049,1.253,8.198,1.253,12.36V281.893z M286.458,263.667v-31.563c0-1.066-0.039-2.13-0.087-3.194l8.133,8.133l7.073-7.073
		l25.629,25.635l-24.884,23.926L286.458,263.667z M340.999,293.806c-6.728,6.729-17.675,6.728-24.403,0l-8.617-8.617l24.884-23.925
		l8.138,8.14c3.263,3.259,5.06,7.592,5.06,12.201C346.06,286.213,344.263,290.545,340.999,293.806z"/>
	<rect x="239.147" y="234.014" width="27" height="8"/>
	<rect x="166.147" y="234.014" width="28" height="8"/>
	<path d="M216.206,59.056c-7.85,0-14.236,6.387-14.236,14.236c0,7.851,6.386,14.237,14.236,14.237
		c7.85,0,14.237-6.387,14.237-14.237C230.443,65.442,224.056,59.056,216.206,59.056z M216.206,79.529
		c-3.439,0-6.236-2.798-6.236-6.237c0-3.438,2.798-6.236,6.236-6.236c3.439,0,6.237,2.798,6.237,6.236
		C222.443,76.731,219.645,79.529,216.206,79.529z"/>
</g>
<g>
</g>
<g>
</g>
<g>
</g>
<g>
</g>
<g>
</g>
<g>
</g>
<g>
</g>
<g>
</g>
<g>
</g>
<g>
</g>
<g>
</g>
<g>
</g>
<g>
</g>
<g>
</g>
<g>
</g>
</svg>
