<?xml version="1.0" encoding="iso-8859-1"?>
<!-- Generator: Adobe Illustrator 18.0.0, SVG Export Plug-In . SVG Version: 6.00 Build 0)  -->
<!DOCTYPE svg PUBLIC "-//W3C//DTD SVG 1.1//EN" "http://www.w3.org/Graphics/SVG/1.1/DTD/svg11.dtd">
<svg version="1.1" id="Capa_1" xmlns="http://www.w3.org/2000/svg" xmlns:xlink="http://www.w3.org/1999/xlink" x="0px" y="0px"
	 viewBox="0 0 441.66 441.66" style="enable-background:new 0 0 441.66 441.66;" xml:space="preserve">
<g>
	<circle cx="186.28" cy="131.952" r="9.449"/>
	<circle cx="239.036" cy="131.952" r="9.449"/>
	<rect x="163.791" y="299" width="30" height="8"/>
	<rect x="230.791" y="299" width="31" height="8"/>
	<path d="M347.804,301.748c4.759-9.467,3.199-21.324-4.693-29.216c0,0-82.806-83.291-83.866-84.229
		c11.544-11.673,18.736-27.646,18.947-45.272c8.504-2.017,14.72-9.6,14.72-18.691c0-9.093-6.218-16.677-14.725-18.692
		c-0.099-6.027-1.006-11.938-2.711-17.647h16.316v-8H278.21v-8.687c0-34.8-27.261-63.34-61.548-65.418V0h-8v5.895
		c-34.29,2.074-61.555,30.616-61.555,65.418V80h-13.315v8h16.046c-1.705,5.709-2.612,11.621-2.711,17.648
		c-8.501,2.016-14.715,9.599-14.715,18.692c0,9.091,6.211,16.672,14.71,18.69c0.21,17.629,7.406,33.605,18.955,45.279
		c-3.523,3.121-83.422,84.221-83.422,84.221c-4.776,4.77-7.406,11.112-7.406,17.86c0,6.747,2.63,13.09,7.402,17.856
		c4.77,4.775,11.113,7.406,17.861,7.406c6.747-0.001,13.09-2.631,17.858-7.405l24.031-24.032v53.904h20.3v103.54h99.92V338.12h20.29
		v-54.353l20.023,20.022c-1.829,0.919-3.525,2.112-5.001,3.583c-3.657,3.657-5.671,8.519-5.671,13.688
		c0,8,4.877,14.881,11.814,17.828v57.438h9.843v24.41h11.874V441h8v-20.265h10.961v-24.41h9.843v-57.433
		c2.266-0.96,4.351-2.352,6.145-4.145c3.657-3.658,5.671-8.52,5.671-13.688C366.411,310.645,358.129,302.148,347.804,301.748z
		 M278.211,114.066c3.966,1.732,6.7,5.67,6.7,10.274c0,4.605-2.734,8.542-6.7,10.274V114.066z M147.101,134.613
		c-3.96-1.733-6.69-5.669-6.69-10.273c0-4.603,2.73-8.54,6.69-10.273V134.613z M337.453,278.189
		c6.728,6.729,6.728,17.675-0.001,24.404c-3.259,3.264-7.592,5.061-12.2,5.06c-4.609,0-8.941-1.797-12.201-5.061l-8.616-8.616
		l24.882-23.924L337.453,278.189z M216.661,13.917c29.872,2.065,53.548,27.01,53.548,57.397V80h-53.548v-1.414
		c8.976-1.856,15.745-9.821,15.745-19.339s-6.769-17.483-15.745-19.339V13.917z M229.268,88c-1.352,8.343-8.275,13.867-16.61,13.867
		c-8.335,0-15.259-5.524-16.61-13.867H229.268z M212.658,47.499c6.478,0,11.749,5.271,11.749,11.748s-5.271,11.748-11.749,11.748
		c-6.478,0-11.749-5.271-11.749-11.748S206.18,47.499,212.658,47.499z M155.106,71.314c0-30.389,23.68-55.336,53.555-57.397v25.99
		c-8.98,1.853-15.752,9.821-15.752,19.341s6.772,17.488,15.752,19.341V80h-53.555V71.314z M155.101,142.24v-35.49
		c0-6.442,1.058-12.737,3.133-18.75h29.738c1.462,12.521,11.972,21.867,24.686,21.867s23.224-9.346,24.686-21.867h29.735
		c2.074,6.013,3.133,12.308,3.133,18.75v35.49c0,31.733-25.817,57.55-57.55,57.55C180.923,199.79,155.101,173.974,155.101,142.24z
		 M178.791,208.145l28.749,44.316l-28.749-13.41V208.145z M112.711,302.594c-3.259,3.262-7.591,5.059-12.2,5.06
		c-4.608,0-8.941-1.797-12.204-5.063c-3.263-3.259-5.059-7.591-5.059-12.199c0-4.609,1.796-8.941,5.061-12.202l9.106-9.107
		l24.883,23.925L112.711,302.594z M127.957,287.348l-24.883-23.925l6.152-6.153l24.884,23.925L127.957,287.348z M142.401,240.89
		v32.013l-2.633,2.633l-24.884-23.925l30.263-30.267C143.332,227.628,142.401,234.187,142.401,240.89z M171.177,433.66
		c1.91-8.694,9.472-14.64,18.501-14.64c9.029,0,16.591,5.946,18.501,14.64H171.177z M208.661,418.804
		c-4.878-4.821-11.587-7.784-18.983-7.784c-7.393,0-14.099,2.961-18.977,7.778V338.12h37.96V418.804z M208.791,330.12h-58.39v-89.23
		c0-13.523,4.269-26.39,12.347-37.208c1.863-2.498,3.919-4.85,6.141-7.043c0.494-0.487,1.903-1.847,1.903-1.847v3.334v46.021
		l38,17.725V330.12z M183.714,201.035c8.736,4.318,18.561,6.756,28.947,6.756c10.384,0,20.205-2.437,28.939-6.754l-28.943,44.614
		L183.714,201.035z M246.791,207.734v31.317l-29.131,13.588L246.791,207.734z M217.136,433.66c1.91-8.694,9.472-14.64,18.501-14.64
		c9.028,0,16.591,5.946,18.501,14.64H217.136z M254.621,418.805c-4.879-4.821-11.588-7.785-18.984-7.785
		c-7.393,0-14.098,2.96-18.976,7.777V338.12h37.96V418.805z M274.911,330.12h-58.12v-68.248l38-17.725v-49.084l6.375,6.816
		c8.992,11.165,13.745,24.654,13.745,39.011V330.12z M282.911,272.454V240.89c0-6.883-1.024-13.704-2.99-20.233l31.925,31.925
		l-24.882,23.924L282.911,272.454z M298.775,288.317l-6.153-6.153l24.883-23.924l6.153,6.153L298.775,288.317z M336.753,412.735
		h-14.835v-16.41h14.835V412.735z M346.596,388.325h-1.843v-0.787h-30.835v0.787h-1.843v-47.119h34.521V388.325z M355.083,329.092
		c-2.146,2.146-4.999,3.328-8.032,3.328h-35.43c-6.264,0-11.36-5.097-11.36-11.36c0-3.032,1.182-5.885,3.323-8.025
		c1.573-1.568,3.561-2.621,5.705-3.069c4.495,3.684,10.074,5.687,15.961,5.687c0,0,0,0,0,0c6.021,0,11.716-2.099,16.262-5.942h5.538
		c6.264,0,11.36,5.092,11.36,11.35C358.411,324.093,357.229,326.945,355.083,329.092z"/>
</g>
<g>
</g>
<g>
</g>
<g>
</g>
<g>
</g>
<g>
</g>
<g>
</g>
<g>
</g>
<g>
</g>
<g>
</g>
<g>
</g>
<g>
</g>
<g>
</g>
<g>
</g>
<g>
</g>
<g>
</g>
</svg>
