<?xml version="1.0" encoding="iso-8859-1"?>
<!-- Generator: Adobe Illustrator 18.0.0, SVG Export Plug-In . SVG Version: 6.00 Build 0)  -->
<!DOCTYPE svg PUBLIC "-//W3C//DTD SVG 1.1//EN" "http://www.w3.org/Graphics/SVG/1.1/DTD/svg11.dtd">
<svg version="1.1" id="Capa_1" xmlns="http://www.w3.org/2000/svg" xmlns:xlink="http://www.w3.org/1999/xlink" x="0px" y="0px"
	 viewBox="0 0 423.619 423.619" style="enable-background:new 0 0 423.619 423.619;" xml:space="preserve">
<g>
	<path d="M179.509,262.41c-2.566,0-5.116,0.397-7.579,1.182c-3.23,1.026-6.166,2.664-8.731,4.87
		c-7.597,6.553-10.542,16.961-7.501,26.515c2.757,8.662,10.009,15.147,18.92,16.922c1.605,0.322,3.25,0.486,4.886,0.486
		c2.563,0,5.113-0.397,7.577-1.182c13.125-4.178,20.405-18.255,16.228-31.379C199.995,269.408,190.43,262.41,179.509,262.41z
		 M184.656,303.58c-2.748,0.875-5.654,1.037-8.467,0.474c-6.063-1.208-10.994-5.615-12.868-11.503
		c-2.067-6.496-0.064-13.574,5.1-18.028c1.739-1.495,3.735-2.608,5.935-3.308c1.678-0.534,3.412-0.805,5.153-0.805
		c7.422,0,13.924,4.758,16.178,11.84C198.526,291.172,193.578,300.74,184.656,303.58z"/>
	<circle cx="329.896" cy="230.439" r="4.731"/>
	<circle cx="352.438" cy="223.265" r="4.731"/>
	<circle cx="357.562" cy="239.366" r="4.731"/>
	<circle cx="335.02" cy="246.54" r="4.731"/>
	<path d="M381.921,222.023l-17.086-22.631l-14.025,4.464l-4.078-12.819l-7.624,2.426l4.078,12.82l-16.847,5.362l-4.077-12.817
		l-7.624,2.426l4.077,12.818l-13.203,4.202l2.663,8.368l-20.077,6.391l-22.688-22.689V86.31c0-23.063-8.979-44.736-25.281-61.027
		C223.836,8.979,202.166,0,179.11,0C131.519,0,92.8,38.719,92.8,86.31v124.487l-43.695,43.701
		c-4.773,4.761-7.404,11.096-7.408,17.839c-0.004,6.752,2.625,13.103,7.404,17.881c4.873,4.873,11.373,7.367,17.897,7.367
		c2.572,0,5.146-0.396,7.628-1.179c-0.55,6.673-0.007,13.526,1.764,20.315c6.524,24.957,27.463,42.873,52.76,45.615v61.283h99.91
		V322.726c15.431-7.592,25.825-22.832,27.282-39.978l7.608-2.422l9.892,9.892c4.923,4.924,11.39,7.386,17.857,7.385
		c6.468,0,12.937-2.462,17.861-7.387c6.991-7.001,9.143-17.259,5.935-26.295l4.127-1.313l2.664,8.371l13.204-4.202l3.737,11.755
		l7.624-2.424l-3.738-11.757l16.856-5.365l3.737,11.755l7.624-2.424l-3.738-11.758l14.079-4.481L381.921,222.023z M269.577,225.824
		l9.939,9.939l-30.156,9.599v-0.099L269.577,225.824z M249.36,234.164v-11.304c0-6.89-1.029-13.716-2.996-20.249l17.554,17.555
		L249.36,234.164z M234.473,30.938c14.792,14.782,22.938,34.447,22.938,55.371v116.033c0,0-30.528-31.008-31.525-31.897
		c12.108-12.201,18.778-28.416,18.778-45.752c-0.032-6.736-0.587-47.095-0.587-47.095s-6.991-0.161-11.835-1.292
		c-24.393-5.694-43.682-24.973-48.132-49.348c-0.658-3.602-1.006-7.36-1.006-11.36l-0.019-7.5
		C202.509,9.064,220.629,17.086,234.473,30.938z M179.102,208.993c19.652,0,36.518-13.958,40.42-32.923
		c2.389,1.696,6.699,6.026,8.093,7.758c8.864,11.005,13.746,24.866,13.746,39.031v20.195
		c-12.357-11.767-30.355-16.577-47.026-12.023c-5.677,1.554-10.971,4.064-15.747,7.469c-7.192,5.162-16.379,6.722-24.578,4.17
		c-12.169-3.791-24.999-3.689-37.16,0.262v-20.072c0-13.267,4.101-25.895,11.866-36.57c0,0,3.089-4.589,9.895-10.608
		C142.357,194.844,159.315,208.993,179.102,208.993z M149.269,182.45c8.987,4.663,19.176,7.315,29.976,7.315
		c10.431,0,20.466-2.399,29.484-6.902c-5.56,10.828-16.864,18.13-29.627,18.13C166.176,200.993,154.747,193.506,149.269,182.45z
		 M236.271,85.19c0.185,7.645,0.333,26.922,0.393,39.522c0,15.346-5.958,29.706-16.778,40.436
		c-3.097,3.071-6.501,5.732-10.131,7.987v-28.482c0-8.284-6.74-15.024-15.024-15.024h-11.811v8h11.811
		c3.873,0,7.024,3.151,7.024,7.024v32.618c-7.014,2.941-14.633,4.494-22.509,4.494c-8.404,0-16.384-1.834-23.585-5.098v-32.013
		c0-3.873,3.151-7.024,7.024-7.024h11.811v-8h-11.811c-8.284,0-15.024,6.74-15.024,15.024v27.592
		c-15.55-10.304-25.833-27.969-25.833-47.994l0.238-39.118c13.997-1.54,27.357-8.326,37.97-17.879
		c8.585-7.729,15.123-17.543,19-28.345C187.667,63.208,209.752,81.354,236.271,85.19z M100.8,86.31
		c0-41.84,32.984-76.122,74.316-78.208l-0.012,7.498c0,4-0.32,7.174-1.006,10.928c-2.545,13.943-9.849,26.233-20.01,35.163
		c-4.447,3.908-18.502,15.957-40.079,15.957c-0.09,1.465-0.183,46.58-0.183,46.58c0,17.882,7.193,34.107,18.824,45.943
		c-2.99,3.095-31.85,32.625-31.85,32.625V86.31z M111.593,203.316c-1.812,6.282-2.743,12.841-2.743,19.544v14.762l-16.09-15.47
		L111.593,203.316z M76.177,286.942c-6.723,4.253-15.703,3.333-21.418-2.38c-3.266-3.267-5.064-7.607-5.061-12.22
		c0.003-4.604,1.799-8.93,5.061-12.184l32.343-32.348l20.015,19.244C91.37,255.395,80.274,270.144,76.177,286.942z M137.611,415.619
		c1.889-8.282,9.467-14.999,18.516-14.999c9.049,0,16.627,6.717,18.516,14.999H137.611z M175.11,400.405
		c-4.879-4.821-11.588-7.785-18.984-7.785c-7.393,0-14.098,2.96-18.976,7.777v-37.715c5.849-0.132,11.646-1.09,17.284-2.882
		c7.607-2.424,14.619-6.288,20.676-11.336V400.405z M183.57,415.619c1.889-8.282,9.467-14.999,18.516-14.999
		c9.049,0,16.627,6.717,18.516,14.999H183.57z M221.06,400.396c-4.878-4.816-11.583-7.776-18.975-7.776
		c-7.392,0-14.097,2.96-18.975,7.776v-59.966c0.534-0.645,1.061-1.297,1.566-1.962c5.076-6.687,13.16-10.651,21.678-10.651
		c0.111,0,0.223,0,0.334,0.002c4.84,0.047,9.66-0.611,14.371-1.981V400.396z M223.41,316.526c-0.338,0.152-2.732,1.061-3.629,1.351
		c-4.243,1.345-13.28,1.94-13.423,1.94c-11.01,0-21.471,5.143-28.052,13.811c-0.703,0.925-1.446,1.837-2.217,2.72
		c-6.397,7.375-14.725,12.849-24.081,15.828c-6.071,1.929-12.352,2.763-18.667,2.477l-0.067-0.003
		c-23.446-1.128-43.191-17.177-49.143-39.95c-7.02-26.907,8.136-54.994,34.505-63.942c10.78-3.661,22.189-3.814,32.996-0.449
		c10.583,3.293,22.402,1.308,31.61-5.302c3.996-2.849,8.438-4.955,13.202-6.259c14.25-3.894,29.667,0.395,40.035,10.715
		l-21.044,6.698l11.446,35.963l21.067-6.705C245.637,299.123,236.475,310.965,223.41,316.526z M303.901,284.562
		c-6.728,6.727-17.676,6.727-24.403,0l-6.966-6.967l35.345-11.249C310.196,272.579,308.742,279.713,303.901,284.562z
		 M232.079,282.075l-6.594-20.717l85.117-27.094l6.594,20.721L232.079,282.075z M373.721,246.214l-46.237,14.716l-11.921-37.46
		l46.301-14.735l12.036,15.941L373.721,246.214z"/>
	<circle cx="152.727" cy="113.915" r="9.449"/>
	<circle cx="205.484" cy="113.915" r="9.449"/>
</g>
<g>
</g>
<g>
</g>
<g>
</g>
<g>
</g>
<g>
</g>
<g>
</g>
<g>
</g>
<g>
</g>
<g>
</g>
<g>
</g>
<g>
</g>
<g>
</g>
<g>
</g>
<g>
</g>
<g>
</g>
</svg>
