<?xml version="1.0" encoding="iso-8859-1"?>
<!-- Generator: Adobe Illustrator 18.0.0, SVG Export Plug-In . SVG Version: 6.00 Build 0)  -->
<!DOCTYPE svg PUBLIC "-//W3C//DTD SVG 1.1//EN" "http://www.w3.org/Graphics/SVG/1.1/DTD/svg11.dtd">
<svg version="1.1" id="Capa_1" xmlns="http://www.w3.org/2000/svg" xmlns:xlink="http://www.w3.org/1999/xlink" x="0px" y="0px"
	 viewBox="0 0 400.461 400.461" style="enable-background:new 0 0 400.461 400.461;" xml:space="preserve">
<g>
	<path d="M331.553,231.333c0,0-82.818-83.282-83.879-84.221c11.545-11.671,18.74-27.642,18.953-45.267
		c8.503-2.012,14.717-9.598,14.717-18.703c0-9.103-6.218-16.687-14.725-18.696c-0.028-1.684-0.113-3.354-0.267-5.005h5.031v-8
		h-6.283c-0.837-3.799-1.997-7.478-3.463-11h9.746v-8h-13.748C246.238,13.052,225.169,0,201.096,0
		c-24.072,0-45.142,13.052-56.54,32.441h-14.171v8h10.169c-1.466,3.522-2.626,7.201-3.463,11h-6.706v8h5.454
		c-0.154,1.652-0.239,3.322-0.267,5.007c-8.508,2.014-14.728,9.598-14.728,18.693c0,9.096,6.216,16.682,14.72,18.701
		c0.213,17.626,7.408,33.598,18.954,45.27c-3.523,3.122-83.432,84.221-83.432,84.221c-9.844,9.844-9.845,25.87,0,35.727
		c0.653,0.653,1.335,1.26,2.039,1.826c-6.854,3.331-11.601,10.343-11.601,18.461v8.662h8v-8.662c0-6.912,5.624-12.535,12.536-12.535
		s12.536,5.623,12.536,12.535V398.04h8V287.347c0-5.499-2.185-10.489-5.717-14.179c3.633-1.195,7.049-3.226,9.935-6.108
		l24.032-24.032v53.894h20.29v103.539h99.92V296.922h20.3v-54.334l24.472,24.471c4.922,4.922,11.389,7.383,17.858,7.383
		c6.469,0,12.941-2.461,17.87-7.384C341.398,257.203,341.398,241.177,331.553,231.333z M201.096,158.593
		c-29.217,0-53.402-21.89-57.057-50.129c7.471,3.553,13.559,9.606,17.143,17.216l3.613,7.67l3.622-7.666
		c5.949-12.59,18.775-20.725,32.675-20.725c13.908,0,26.734,8.134,32.675,20.723l3.618,7.666l3.617-7.666
		c3.592-7.613,9.683-13.667,17.15-17.219C254.499,136.702,230.314,158.593,201.096,158.593z M191.092,165.83l-17.786,14.794
		l-2.936-21.701C176.732,162.313,183.708,164.694,191.092,165.83z M232.004,158.83l-2.948,21.791l-17.663-14.843
		C218.738,164.614,225.679,162.226,232.004,158.83z M273.345,83.142c0,4.615-2.733,8.557-6.697,10.288V72.863
		C270.612,74.592,273.345,78.531,273.345,83.142z M145.3,51.441c0.97-3.833,2.324-7.514,4.021-11h16.064v-8h-11.318
		C164.495,17.673,181.682,8,201.096,8s36.601,9.673,47.03,24.441h-11.741v8h16.486c1.697,3.486,3.051,7.167,4.021,11h-20.507v8
		h21.936c0.213,2.009,0.328,4.046,0.328,6.11v34.051c-8.643,3.126-16.07,8.869-21.268,16.394
		c-8.157-11.75-21.737-19.038-36.287-19.038c-14.543,0-28.122,7.287-36.283,19.038c-5.193-7.522-12.619-13.265-21.266-16.392V65.552
		c0-2.064,0.115-4.102,0.328-6.11h21.513v-8H145.3z M128.845,83.142c0-4.605,2.734-8.543,6.7-10.275v20.558
		C131.579,91.691,128.845,87.75,128.845,83.142z M101.158,261.401c-6.736,6.728-17.688,6.729-24.413,0.003
		c-6.729-6.735-6.729-17.687-0.002-24.415l6.745-6.745l24.893,23.934L101.158,261.401z M114.039,248.52l-24.893-23.934
		l44.445-44.445c-1.815,6.287-2.747,12.851-2.747,19.56v32.013L114.039,248.52z M138.845,199.701
		c0-13.528,4.266-26.395,12.336-37.207c2.738-3.669,5.894-7.009,9.374-9.999c0.325,0.257,0.647,0.518,0.977,0.768l5.792,42.835
		l29.773-25.029v117.852h-58.251V199.701z M197.095,296.922v80.319c-4.878-4.818-11.585-7.779-18.978-7.779
		c-7.395,0-14.104,2.962-18.982,7.782v-80.322H197.095z M196.633,392.461h-37.032c1.889-8.282,9.467-14.999,18.516-14.999
		C187.166,377.462,194.744,384.179,196.633,392.461z M205.56,392.461c1.889-8.282,9.467-14.999,18.516-14.999
		c9.049,0,16.627,6.717,18.516,14.999H205.56z M243.055,377.242c-4.878-4.819-11.585-7.78-18.979-7.78
		c-7.395,0-14.103,2.962-18.981,7.782v-80.322h37.96V377.242z M263.355,288.922h-58.258V170.938l29.937,25.166l5.816-42.989
		c0.271-0.207,0.536-0.421,0.804-0.632c1.191,1.023,6.56,6.468,7.947,8.201c8.998,11.158,13.754,24.65,13.754,39.018V288.922z
		 M268.355,179.448l44.061,44.061l-23.934,24.893l-17.128-17.127v-31.574C271.355,192.809,270.324,185.981,268.355,179.448z
		 M325.898,261.401c-6.736,6.729-17.688,6.728-24.415,0.002l-7.343-7.343l23.934-24.893l7.822,7.822
		C332.623,243.717,332.623,254.669,325.898,261.401z"/>
	<circle cx="174.718" cy="90.756" r="9.449"/>
	<circle cx="227.475" cy="90.756" r="9.449"/>
	<rect x="223.385" y="206.441" width="28" height="8"/>
</g>
<g>
</g>
<g>
</g>
<g>
</g>
<g>
</g>
<g>
</g>
<g>
</g>
<g>
</g>
<g>
</g>
<g>
</g>
<g>
</g>
<g>
</g>
<g>
</g>
<g>
</g>
<g>
</g>
<g>
</g>
</svg>
