<?xml version="1.0" encoding="iso-8859-1"?>
<!-- Generator: Adobe Illustrator 18.0.0, SVG Export Plug-In . SVG Version: 6.00 Build 0)  -->
<!DOCTYPE svg PUBLIC "-//W3C//DTD SVG 1.1//EN" "http://www.w3.org/Graphics/SVG/1.1/DTD/svg11.dtd">
<svg version="1.1" id="Capa_1" xmlns="http://www.w3.org/2000/svg" xmlns:xlink="http://www.w3.org/1999/xlink" x="0px" y="0px"
	 viewBox="0 0 423 423" style="enable-background:new 0 0 423 423;" xml:space="preserve">
<g>
	<path d="M354.088,253.998c0,0-81.132-81.686-83.739-84.019c12.099-12.159,19.028-28.499,19.211-45.587
		c8.273-2.173,14.319-9.717,14.319-18.585c0-8.874-6.275-16.424-14.551-18.597c-0.243-15.402-5.799-30.292-16.799-42.204V0h-98
		v44.801c-11,11.91-16.571,26.897-16.805,42.445c-8.211,2.219-14.274,9.756-14.274,18.56c0,8.797,5.969,16.328,14.177,18.549
		c0.175,17.089,7.119,33.455,19.274,45.648c-3.353,2.997-83.267,83.745-83.267,83.745C89.182,258.196,86.594,264,86.265,270H79.53
		v19h-18v66h84v-66h-15.968l23.968-23.516V319h20v104h100V319h20v-54.066l24.808,24.783c4.927,4.921,11.409,7.382,17.878,7.382
		c6.469,0,12.944-2.462,17.867-7.384C363.929,279.868,363.935,263.845,354.088,253.998z M289.53,95.715c4,1.83,6.3,5.679,6.3,10.092
		c0,4.409-2.3,8.254-6.3,10.082V95.715z M157.53,115.822c-4-1.855-6.19-5.668-6.19-10.016c0-4.352,2.19-8.169,6.19-10.025V115.822z
		 M281.53,123.697c0,14.076-5,27.613-15,38.14v-25.163l15-27.361V123.697z M182.53,8h82v35h-82V8z M165.53,88.206
		c0-13.46,4.914-27.206,13.792-37.206h88.448c8.922,10,13.761,23.79,13.761,37.206v4.073L260.966,131H186.96l-21.395-38.924
		l-0.035,0.019V88.206z M165.53,123.697v-14.999l15,26.723v26.484C170.53,151.35,165.53,137.783,165.53,123.697z M87.53,280.028
		c1,3.517,3.227,5.972,5.898,8.972H87.53V280.028z M137.53,297v50h-68v-50H137.53z M123.691,284.058
		c-6.728,6.728-17.674,6.728-24.405-0.001c-3.263-3.259-5.059-7.592-5.059-12.2c0-4.609,1.797-8.941,5.062-12.203l9.106-9.107
		l24.883,23.924L123.691,284.058z M153.53,222.356v31.813l-14.619,14.643l-24.871-23.925l42.297-42.321
		C154.504,208.899,153.53,215.548,153.53,222.356z M182.069,415c1.783-8,9.439-14.979,18.587-14.979
		c9.148,0,16.804,6.979,18.587,14.979H182.069z M219.53,400.245c-5-4.787-11.558-7.728-18.924-7.728
		c-7.442,0-14.076,2.998-19.076,7.872V319h38V400.245z M219.53,311h-58v-88.644c0-18.243,7.735-35.185,21.324-46.989
		c10.533,8.292,23.676,13.163,36.676,13.988V311z M188.53,169.384V139h70v30.342c-10,7.854-22.166,12.154-35.005,12.154
		C210.686,181.497,198.53,177.212,188.53,169.384z M228.028,415c1.783-8,9.439-14.979,18.587-14.979
		c9.148,0,16.804,6.979,18.587,14.979H228.028z M265.53,400.284c-5-4.811-11.578-7.767-18.965-7.767
		c-7.421,0-14.035,2.982-19.035,7.833V319h38V400.284z M285.53,311h-58V189.363c13-0.806,26.196-5.689,36.758-14.016
		c13.536,11.771,21.242,28.72,21.242,47.009V311z M293.53,253.619v-31.263c0-7.087-1.008-13.995-2.975-20.553l44.066,44.054
		l-24.906,23.929L293.53,253.619z M348.432,284.058c-6.728,6.727-17.68,6.727-24.414,0l-8.614-8.614l24.887-23.929l8.14,8.14
		C355.159,266.383,355.159,277.33,348.432,284.058z"/>
	<circle cx="197.256" cy="113.414" r="9.449"/>
	<circle cx="250.013" cy="113.414" r="9.449"/>
	<circle cx="204.15" cy="200.621" r="7.169"/>
	<polygon points="98.53,334 105.53,334 105.53,326 113.53,326 113.53,319 105.53,319 105.53,311 98.53,311 98.53,319 90.53,319 
		90.53,326 98.53,326 	"/>
	<polygon points="226.53,14 218.53,14 218.53,22 210.53,22 210.53,30 218.53,30 218.53,38 226.53,38 226.53,30 234.53,30 234.53,22 
		226.53,22 	"/>
</g>
<g>
</g>
<g>
</g>
<g>
</g>
<g>
</g>
<g>
</g>
<g>
</g>
<g>
</g>
<g>
</g>
<g>
</g>
<g>
</g>
<g>
</g>
<g>
</g>
<g>
</g>
<g>
</g>
<g>
</g>
</svg>
