<?xml version="1.0" encoding="iso-8859-1"?>
<!-- Generator: Adobe Illustrator 18.0.0, SVG Export Plug-In . SVG Version: 6.00 Build 0)  -->
<!DOCTYPE svg PUBLIC "-//W3C//DTD SVG 1.1//EN" "http://www.w3.org/Graphics/SVG/1.1/DTD/svg11.dtd">
<svg version="1.1" id="Capa_1" xmlns="http://www.w3.org/2000/svg" xmlns:xlink="http://www.w3.org/1999/xlink" x="0px" y="0px"
	 viewBox="0 0 435.098 435.098" style="enable-background:new 0 0 435.098 435.098;" xml:space="preserve">
<g>
	<circle cx="179.582" cy="125.387" r="9.449"/>
	<circle cx="232.339" cy="125.387" r="9.449"/>
	<path d="M197.484,250.423c0.012-0.297,0.017-0.592,0.017-0.887c0-13.06-10.625-23.686-23.685-23.686
		c-13.06,0-23.686,10.625-23.686,23.686c0,12.542,9.798,22.837,22.141,23.636c2.871,6.184,9.114,10.286,16.111,10.286
		c9.804,0,17.78-7.976,17.78-17.78C206.162,259.391,202.776,253.593,197.484,250.423z M188.382,275.458
		c-4.434,0-8.318-3-9.445-7.295l-0.836-3.186l-3.287,0.21c-0.331,0.021-0.663,0.036-0.999,0.036
		c-8.649,0-15.686-7.037-15.686-15.686s7.037-15.686,15.686-15.686c8.649,0,15.685,7.037,15.685,15.686
		c0,0.852-0.074,1.727-0.219,2.599l-0.54,3.242l3.076,1.158c3.794,1.428,6.344,5.102,6.344,9.143
		C198.162,271.071,193.775,275.458,188.382,275.458z"/>
	<path d="M228.084,295.994c0,9.152,7.446,16.599,16.599,16.599c9.153,0,16.599-7.446,16.599-16.599
		c0-9.152-7.446-16.599-16.599-16.599C235.53,279.396,228.084,286.842,228.084,295.994z M253.281,295.994
		c0,4.741-3.857,8.599-8.599,8.599c-4.741,0-8.599-3.858-8.599-8.599c0-4.741,3.857-8.599,8.599-8.599
		C249.424,287.396,253.281,291.253,253.281,295.994z"/>
	<path d="M344.292,232.938c-12.087,0-23.402,2.866-33.069,7.837c0,0-57.614-58.088-58.67-59.023
		c11.9-12.045,18.723-28.262,18.932-45.28c8.505-2.01,14.722-9.593,14.722-18.695c0-9.109-6.219-16.697-14.727-18.706
		c-0.284-17.089-7.052-33.119-19.165-45.243c-12.382-12.382-28.846-19.202-46.359-19.202c-2.535,0-5.059,0.153-7.561,0.441
		c4.104-9.148,2.411-20.285-5.089-27.785C188.61,2.587,182.365,0,175.723,0c-6.642,0-12.887,2.587-17.583,7.283l-16.798,16.799
		l-8.864-8.864l-5.657,5.657l8.864,8.864l-16.52,16.52c-9.696,9.696-9.696,25.471,0,35.167c4.697,4.696,10.941,7.283,17.583,7.283
		c1.611,0,3.199-0.155,4.747-0.453c-0.653,3.551-1.007,7.168-1.068,10.821c-8.504,2.018-14.721,9.604-14.721,18.701
		c0,9.092,6.217,16.675,14.722,18.691c0.208,17.02,7.033,33.24,18.936,45.286c-3.534,3.133-83.416,84.214-83.416,84.214
		c-0.482,0.482-0.938,0.987-1.378,1.505l-9.105-9.105c2.84-3.671,4.536-8.27,4.536-13.26c0-11.975-9.742-21.717-21.717-21.717
		H26.569v21.717c0,11.975,9.742,21.717,21.717,21.717c4.096,0,7.93-1.141,11.203-3.12l10.852,10.852
		c-3.625,9.224-1.517,20.003,5.609,27.129c4.835,4.835,11.353,7.369,17.924,7.369c3.123,0,6.257-0.577,9.229-1.747l13.558,13.557
		l5.656-5.656l-12.144-12.144c0.517-0.44,1.021-0.896,1.504-1.379l24.031-24.031v53.904h20.29v103.54h99.92v-103.54h20.3v-54.344
		l4.266,4.266c-0.274,2.051-0.43,4.133-0.43,6.246c0,5.126,0.832,10.202,2.472,15.09c2.084,6.211,7.985,10.385,14.682,10.385
		c1.545,0,3.085-0.224,4.578-0.663c1.984-0.585,4.057-0.824,6.172-0.702c8.694,0.499,15.948,7.395,16.873,16.044l0.019,0.188
		c0.753,7.784,6.896,13.794,14.609,14.292c1.603,0.103,3.229,0.154,4.832,0.154c35.421,0,64.237-24.578,64.237-54.788
		C408.529,257.516,379.712,232.938,344.292,232.938z M271.508,107.488c3.966,1.73,6.7,5.673,6.7,10.289
		c0,4.612-2.734,8.551-6.7,10.28V107.488z M140.407,128.052c-3.966-1.732-6.7-5.67-6.7-10.275c0-4.609,2.734-8.55,6.7-10.284
		V128.052z M48.285,258.825c-7.563,0-13.717-6.153-13.717-13.717v-13.717h13.717c7.563,0,13.717,6.153,13.717,13.717
		C62.002,252.672,55.849,258.825,48.285,258.825z M211.361,42.88c13.41,1.194,25.663,6.97,35.296,16.604
		c6.771,6.777,11.644,14.945,14.357,23.857c-23.613,1.198-44.929-15.272-49.398-38.856C211.527,44.008,211.359,42.95,211.361,42.88z
		 M203.168,42.702c-0.921,30.504-24.669,55.273-54.76,57.731v-0.246c0-5.35,0.734-10.613,2.169-15.67
		c1.335-0.897,2.593-1.929,3.755-3.091l36.881-36.882C195.106,43.513,199.112,42.896,203.168,42.702z M136.748,80.709
		c-4.505,0-8.741-1.754-11.927-4.94c-6.576-6.576-6.576-17.276,0-23.853l38.976-38.976C166.983,9.754,171.218,8,175.723,8
		c4.505,0,8.741,1.754,11.926,4.94c6.576,6.576,6.576,17.276,0,23.853l-38.975,38.976C145.488,78.955,141.253,80.709,136.748,80.709
		z M148.407,135.667v-27.219c28.262-2.101,52.069-22.091,59.989-48.493c9.227,18.971,28.694,31.456,50.193,31.456
		c1.399,0,2.809-0.056,4.224-0.163c0.455,2.932,0.694,5.917,0.694,8.94v35.48c0,16.568-7.147,32.345-19.609,43.284
		c-10.483,9.206-23.958,14.276-37.941,14.276c-13.977,0-27.447-5.07-37.931-14.276l-0.504-0.439
		C155.366,167.591,148.407,152.014,148.407,135.667z M236.961,193.438c-4.883,12.484-17.076,21.177-31.003,21.177
		c-13.934,0-26.127-8.701-31.002-21.194c9.46,5.082,20.093,7.806,31.002,7.806C216.866,201.227,227.503,198.515,236.961,193.438z
		 M135.707,266.34l-29.688,29.688c-1.184,1.184-2.517,2.18-3.972,2.964c-6.667,3.625-15.073,2.404-20.442-2.963
		c-5.366-5.367-6.585-13.769-2.963-20.434c0.794-1.461,1.79-2.797,2.963-3.97l36.667-36.667l17.435,16.761V266.34z M135.707,234.327
		v6.296l-11.776-11.322l14.518-14.518C136.637,221.065,135.707,227.624,135.707,234.327z M164.409,427.098
		c1.806-8.38,9.445-15.21,18.571-15.21c9.126,0,16.766,6.83,18.571,15.21H164.409z M201.957,411.665
		c-4.878-4.817-11.584-7.778-18.977-7.778c-7.396,0-14.105,2.963-18.983,7.784v-80.114h37.96V411.665z M210.368,427.098
		c1.806-8.38,9.445-15.21,18.571-15.21c9.127,0,16.765,6.83,18.571,15.21H210.368z M247.917,411.666
		c-4.878-4.818-11.585-7.779-18.978-7.779c-7.396,0-14.104,2.962-18.982,7.783v-80.113h37.96V411.666z M268.217,323.558h-124.51
		v-89.23c0-13.516,4.256-26.369,12.309-37.171c2.667-3.581,5.729-6.867,9.117-9.813c2.936,20.151,20.369,35.271,40.824,35.271
		c20.456,0,37.895-15.122,40.834-35.273c2.696,2.192,7.681,7.975,7.681,7.975c8.992,11.164,13.745,24.653,13.745,39.011V323.558z
		 M273.22,214.087l14.139,14.139l-11.141,11.583v-5.481C276.217,227.441,275.188,220.618,273.22,214.087z M282.652,272.335
		l-6.435-6.435v-14.551l16.799-17.466l11.122,11.122C294.011,251.944,286.399,261.439,282.652,272.335z M344.292,334.515
		c-1.434,0-2.888-0.047-4.319-0.139c-3.775-0.243-6.786-3.22-7.159-7.082l-0.027-0.268c-1.336-12.492-11.812-22.456-24.37-23.177
		c-0.511-0.029-1.019-0.044-1.524-0.044c-2.505,0-4.984,0.356-7.367,1.059c-0.758,0.224-1.537,0.337-2.316,0.337
		c-3.307,0-6.093-1.936-7.098-4.93c-1.364-4.065-2.056-8.286-2.056-12.545c0-25.799,25.228-46.789,56.238-46.789
		s56.237,20.989,56.237,46.789C400.529,313.525,375.301,334.515,344.292,334.515z"/>
	<path d="M310.432,267.585c-8.501,0-15.417,6.916-15.417,15.417c0,8.502,6.916,15.418,15.417,15.418
		c8.502,0,15.418-6.916,15.418-15.418C325.85,274.5,318.934,267.585,310.432,267.585z M310.432,290.42
		c-4.09,0-7.417-3.328-7.417-7.418c0-4.09,3.327-7.417,7.417-7.417c4.09,0,7.418,3.328,7.418,7.417
		C317.85,287.092,314.522,290.42,310.432,290.42z"/>
	<ellipse cx="358.859" cy="315.316" rx="13.386" ry="8.238"/>
	<ellipse cx="376.97" cy="292.481" rx="13.386" ry="8.238"/>
	<ellipse cx="368.308" cy="266.496" rx="13.386" ry="8.238"/>
	<ellipse cx="339.961" cy="254.685" rx="13.386" ry="8.238"/>
</g>
<g>
</g>
<g>
</g>
<g>
</g>
<g>
</g>
<g>
</g>
<g>
</g>
<g>
</g>
<g>
</g>
<g>
</g>
<g>
</g>
<g>
</g>
<g>
</g>
<g>
</g>
<g>
</g>
<g>
</g>
</svg>
