<?xml version="1.0" encoding="iso-8859-1"?>
<!-- Generator: Adobe Illustrator 18.0.0, SVG Export Plug-In . SVG Version: 6.00 Build 0)  -->
<!DOCTYPE svg PUBLIC "-//W3C//DTD SVG 1.1//EN" "http://www.w3.org/Graphics/SVG/1.1/DTD/svg11.dtd">
<svg version="1.1" id="Capa_1" xmlns="http://www.w3.org/2000/svg" xmlns:xlink="http://www.w3.org/1999/xlink" x="0px" y="0px"
	 viewBox="0 0 454.004 454.004" style="enable-background:new 0 0 454.004 454.004;" xml:space="preserve">
<g>
	<circle cx="196.858" cy="277.498" r="5.133"/>
	<circle cx="226.78" cy="290.884" r="8.545"/>
	<circle cx="200.401" cy="144.293" r="9.449"/>
	<circle cx="253.159" cy="144.293" r="9.449"/>
	<path d="M357.235,284.875c0,0-82.806-83.281-83.862-84.218c11.9-12.044,18.723-28.261,18.932-45.279
		c8.506-2.009,14.722-9.593,14.722-18.695c0-9.11-6.22-16.699-14.729-18.706c-0.147-8.954-2.05-17.606-5.7-25.718
		c-3.26-7.282-7.79-13.851-13.463-19.523c-9.84-9.839-22.621-16.296-36.282-18.414c-1.351-0.209-2.637-0.794-3.563-1.8
		c-0.005-0.005-0.01-0.011-0.015-0.016c-3.9-4.251-5.912-9.767-5.664-15.53c0.248-5.764,2.726-11.086,6.976-14.986
		c2.703-2.48,6.013-4.24,9.569-5.089l7.384-1.762l-5.628-5.095C238.757,3.567,229.482,0,219.796,0
		c-9.766,0-19.111,3.639-26.312,10.247c-7.665,7.032-12.132,16.63-12.579,27.023c-0.433,10.058,2.961,19.693,9.554,27.251
		c-10.319,6.864-18.414,16.399-23.501,27.732c-3.653,8.121-5.558,16.773-5.704,25.728c-8.508,2.015-14.729,9.603-14.729,18.703
		c0,9.091,6.216,16.674,14.721,18.691c0.209,17.019,7.033,33.239,18.937,45.286c-3.535,3.134-83.416,84.214-83.416,84.214
		c-9.847,9.848-9.847,25.87,0.002,35.719c4.927,4.922,11.396,7.382,17.865,7.382c6.469-0.001,12.938-2.462,17.86-7.384
		l24.032-24.032v53.904h20.29v103.54h99.92v-103.54h20.3v-54.344l24.472,24.472c4.925,4.925,11.394,7.388,17.863,7.388
		c6.469,0,12.938-2.463,17.863-7.388C367.083,310.745,367.083,294.723,357.235,284.875z M292.327,126.395
		c3.966,1.729,6.7,5.673,6.7,10.289c0,4.612-2.734,8.552-6.7,10.28V126.395z M161.227,146.958c-3.966-1.732-6.7-5.669-6.7-10.274
		c0-4.609,2.734-8.551,6.7-10.284V146.958z M188.898,37.611c0.355-8.258,3.905-15.883,9.995-21.471
		c5.721-5.249,13.145-8.141,20.903-8.141c5.367,0,10.574,1.377,15.161,3.954c-2.078,1.14-4.021,2.53-5.778,4.141
		c-5.825,5.345-9.22,12.639-9.56,20.538c-0.34,7.898,2.417,15.458,7.762,21.283c2.703,2.945,5.891,5.268,9.428,6.89
		c-5.016,3.303-10.898,5.087-16.985,5.087c0,0-0.001,0-0.002,0c-8.652,0-16.966-3.66-22.81-10.029
		C191.425,53.775,188.543,45.868,188.898,37.611z M169.227,154.574v-35.489c0-2.767,0.209-5.497,0.591-8.19h9.029v-8h-7.295
		c0.495-1.688,1.062-3.356,1.715-5h14.58v-8H177.17c4.727-8.042,11.326-14.792,19.354-19.757c6.68,4.979,14.858,7.757,23.298,7.757
		c0.001,0,0.001,0,0.002,0c9.767,0,19.114-3.645,26.318-10.255c0.546-0.501,1.997-1.982,1.997-1.982
		c7.188,2.879,13.797,7.192,19.34,12.735c3.468,3.468,6.437,7.325,8.894,11.502h-10.526v8h14.44c0.654,1.644,1.22,3.312,1.715,5
		h-7.155v8h8.889c0.382,2.693,0.591,5.424,0.591,8.19v35.489c0,16.569-7.147,32.346-19.609,43.284
		c-10.483,9.206-23.958,14.276-37.941,14.276c-13.971,0-27.446-5.07-37.941-14.276C176.374,186.917,169.227,171.141,169.227,154.574
		z M242.989,254.331h7.858v6.174h-39v-6.611h-15v6.611h-8v-52.473c11.038,7.836,24.272,12.102,37.93,12.102
		c13.724,0,27.014-4.299,38.07-12.196v17.134h-21.858c-5.422,0-9.833,4.41-9.833,9.832v9.596
		C233.156,249.921,237.567,254.331,242.989,254.331z M219.037,268.505c-9.268,3.216-15.942,12.03-15.942,22.379
		c0,10.348,6.673,19.161,15.939,22.378h-30.381v-44.757H219.037z M211.095,290.884c0-8.649,7.037-15.686,15.686-15.686
		c8.649,0,15.685,7.036,15.685,15.686c0,8.649-7.036,15.685-15.685,15.685C218.131,306.57,211.095,299.534,211.095,290.884z
		 M250.465,290.884c0-10.349-6.674-19.163-15.942-22.379h30.383v44.757h-30.381C243.793,310.045,250.465,301.232,250.465,290.884z
		 M258.847,260.505v-6.174h6v6.174H258.847z M242.989,246.331c-1.01,0-1.833-0.822-1.833-1.832v-9.596
		c0-1.01,0.822-1.832,1.833-1.832h24.556c1.01,0,1.832,0.822,1.832,1.832v9.596c0,1.01-0.822,1.832-1.832,1.832H242.989z
		 M156.527,285.247l-29.688,29.689c-6.726,6.727-17.679,6.725-24.413,0c-6.728-6.729-6.728-17.676,0-24.404l29.586-29.585
		l24.516,23.58V285.247z M156.527,253.234v20.193l-18.858-18.138l21.6-21.599C157.457,239.971,156.527,246.53,156.527,253.234z
		 M185.261,446.004c1.853-8.324,9.457-15.09,18.54-15.09s16.686,6.766,18.54,15.09H185.261z M222.777,430.692
		c-4.878-4.817-11.584-7.777-18.976-7.777c-7.396,0-14.105,2.963-18.984,7.784v-80.234h37.96V430.692z M231.22,446.004
		c1.853-8.324,9.457-15.09,18.54-15.09c9.082,0,16.686,6.766,18.54,15.09H231.22z M268.737,430.692
		c-4.878-4.818-11.584-7.778-18.977-7.778c-7.396,0-14.104,2.963-18.983,7.783v-80.233h37.96V430.692z M289.037,342.464h-124.51
		v-89.23c0-13.516,4.256-26.368,12.308-37.17c1.253-1.683,2.593-3.301,4.012-4.85l-0.194,110.049h92.254l-0.06-68.496
		c2.72-1.751,4.53-4.798,4.53-8.267v-9.596c0-3.469-1.81-6.516-4.53-8.267v-15.264c0.841,0.925,1.663,1.869,2.445,2.839
		c8.992,11.165,13.745,24.658,13.745,39.021V342.464z M294.042,232.995l20.114,20.114l-17.119,16.467v-16.342
		C297.037,246.347,296.008,239.525,294.042,232.995z M351.579,314.936c-6.73,6.729-17.682,6.729-24.413,0l-30.128-30.128v-4.131
		l22.777-21.91l31.765,31.765C358.307,297.26,358.307,308.207,351.579,314.936z"/>
</g>
<g>
</g>
<g>
</g>
<g>
</g>
<g>
</g>
<g>
</g>
<g>
</g>
<g>
</g>
<g>
</g>
<g>
</g>
<g>
</g>
<g>
</g>
<g>
</g>
<g>
</g>
<g>
</g>
<g>
</g>
</svg>
