<?xml version="1.0" encoding="iso-8859-1"?>
<!-- Generator: Adobe Illustrator 18.0.0, SVG Export Plug-In . SVG Version: 6.00 Build 0)  -->
<!DOCTYPE svg PUBLIC "-//W3C//DTD SVG 1.1//EN" "http://www.w3.org/Graphics/SVG/1.1/DTD/svg11.dtd">
<svg version="1.1" id="Capa_1" xmlns="http://www.w3.org/2000/svg" xmlns:xlink="http://www.w3.org/1999/xlink" x="0px" y="0px"
	 viewBox="0 0 425.001 425.001" style="enable-background:new 0 0 425.001 425.001;" xml:space="preserve">
<g>
	<circle cx="153.037" cy="115.289" r="9.449"/>
	<circle cx="205.794" cy="115.289" r="9.449"/>
	<path d="M333.438,180.887l-5.657,5.656l5.176,5.176c-7.269,9.906-7.324,24.29-0.155,34.258l-26.408,26.417
		c0,0-78.739-78.719-80.384-80.739c11.901-12.045,18.724-28.262,18.933-45.279c8.505-2.01,14.721-9.593,14.721-18.695
		c0-9.108-6.218-16.696-14.725-18.705c-0.033-2.01,0.028-23.424,0.028-23.424C244.967,29.406,215.561,0,179.415,0
		s-65.552,29.406-65.552,65.552v9.289h-41.71v8h41.71v0.133c0,0,0.058,3.994,0.025,6.005c-8.507,2.017-14.725,9.604-14.725,18.702
		c0,9.091,6.216,16.674,14.722,18.691c0.208,17.021,7.033,33.24,18.937,45.287c-3.168,3.849-83.416,84.214-83.416,84.214
		c-4.77,4.77-7.397,11.111-7.397,17.857c0,6.747,2.627,13.089,7.396,17.858c4.923,4.923,11.389,7.384,17.859,7.384
		c6.468-0.001,12.94-2.462,17.868-7.384l24.031-24.032v53.904h20.03v103.54h45.96h8h45.96v-103.54h20.561v-54.343l20.993,20.993
		l-9.282,9.282l5.657,5.656l9.419-9.419c4.549,3.558,10.043,5.343,15.543,5.343c6.468,0,12.94-2.462,17.868-7.384
		c9.109-9.109,9.785-23.5,2.04-33.4l26.489-26.497c4.862,3.675,10.891,5.669,17.339,5.669c6.364,0,12.487-1.98,17.333-5.523
		l4.261,4.261l5.657-5.656L333.438,180.887z M244.964,97.392c3.966,1.729,6.7,5.673,6.7,10.289c0,4.612-2.734,8.552-6.7,10.28
		V97.392z M113.864,117.955c-3.966-1.732-6.7-5.669-6.7-10.274c0-4.609,2.734-8.55,6.7-10.283V117.955z M236.967,65.552v9.422
		h-14.482c-1.763-13.901-12.574-25.017-26.332-27.23v-5.153c0-12.545-3.93-24.458-11.198-34.319
		C214.1,11.069,236.967,35.687,236.967,65.552z M214.409,74.974h-46.596c1.906-11.136,11.627-19.637,23.298-19.637
		C202.782,55.337,212.503,63.838,214.409,74.974z M121.864,65.552c0-30.07,23.185-54.812,52.615-57.326
		c8.82,9.274,13.675,21.423,13.675,34.365v4.889c-14.738,1.373-26.566,12.897-28.418,27.494l-37.872-0.133V65.552z M79.477,285.931
		c-6.735,6.729-17.687,6.728-24.415,0.002c-3.259-3.259-5.053-7.592-5.053-12.202c0-4.609,1.794-8.942,5.054-12.201l9.111-9.111
		l24.888,23.928L79.477,285.931z M109.164,224.23v32.013l-14.444,14.445L69.832,246.76l42.071-42.071
		C110.092,210.969,109.164,217.527,109.164,224.23z M124.154,313.461h-6.99v-17.62h6.99V313.461z M137.623,417.001
		c1.834-8.347,9.452-15.14,18.553-15.14c9.101,0,16.719,6.793,18.553,15.14H137.623z M175.153,401.64
		c-4.878-4.818-11.584-7.778-18.977-7.778c-7.396,0-14.104,2.962-18.983,7.783v-80.183h2.961v12.38h8v-12.38h26.999V401.64z
		 M132.154,313.461v-17.62h8v17.62H132.154z M133.19,268.772l4.674-8.798h22.993v8.798H133.19z M148.154,295.841h9v17.62h-9V295.841
		z M175.154,313.461h-10v-17.62h10V313.461z M175.154,287.841h-27v-11.068h20.703v-24.798h-35.801l-13.175,24.798h20.273v11.068
		h-22.99v-63.61c0-13.526,4.259-26.382,12.316-37.177c2.742-3.674,5.896-7.016,9.369-10.006
		c10.415,8.213,23.068,13.059,36.305,13.919V287.841z M179.414,183.121c-13.972,0-27.443-5.067-37.932-14.268l-0.483-0.421
		c-12.169-10.921-19.134-26.505-19.134-42.861v-11.73h7.29V82.974h30.321h63.273h7.406v30.867h6.81v11.73
		c0,16.278-6.899,31.792-18.961,42.705l-0.659,0.578C206.866,178.055,193.395,183.121,179.414,183.121z M183.154,295.841h5v17.62h-5
		V295.841z M183.582,417.001c1.834-8.347,9.452-15.14,18.553-15.14c9.101,0,16.719,6.793,18.553,15.14H183.582z M221.113,401.641
		c-4.878-4.818-11.585-7.779-18.979-7.779c-7.395,0-14.103,2.962-18.982,7.782v-80.183h37.96V401.641z M196.154,313.461v-17.62
		h9.323v17.62H196.154z M226.737,313.461h-13.26v-17.62h13.26V313.461z M213.478,287.841c0.013-3.645,2.981-6.606,6.629-6.606
		c3.647,0,6.616,2.961,6.629,6.606H213.478z M241.674,313.461h-6.936v-17.62h6.936V313.461z M241.674,287.841h-6.938
		c-0.008-4.634-2.186-8.761-5.565-11.438c3.384-2.682,5.566-6.818,5.566-11.462v-10.016h-8v10.016c0,3.655-2.975,6.63-6.63,6.63
		c-3.656,0-6.63-2.975-6.63-6.63v-9.229h-8v9.229c0,4.644,2.182,8.78,5.566,11.462c-3.378,2.677-5.557,6.804-5.565,11.438h-22.324
		v-96.839c13.44-0.765,26.297-5.639,36.845-13.968c2.697,2.182,6.535,6.447,7.921,8.178c8.869,10.999,13.754,24.855,13.754,39.019
		V287.841z M265.528,271.658l-15.854-15.854V224.23c0-6.887-1.029-13.71-2.995-20.238l43.737,43.737L265.528,271.658z
		 M304.217,285.931c-6.735,6.727-17.688,6.727-24.415,0.002l-8.616-8.616l24.888-23.929l8.141,8.141
		C310.943,268.258,310.943,279.204,304.217,285.931z M355.741,229.36c-5.631,0-10.788-2.055-14.52-5.786
		c-6.695-6.695-7.533-18.203-2.513-26.104l28.616,28.616C364.014,228.195,359.964,229.36,355.741,229.36z"/>
	<rect x="200.154" y="216.841" width="31" height="8"/>
</g>
<g>
</g>
<g>
</g>
<g>
</g>
<g>
</g>
<g>
</g>
<g>
</g>
<g>
</g>
<g>
</g>
<g>
</g>
<g>
</g>
<g>
</g>
<g>
</g>
<g>
</g>
<g>
</g>
<g>
</g>
</svg>
