<?xml version="1.0" encoding="iso-8859-1"?>
<!-- Generator: Adobe Illustrator 18.0.0, SVG Export Plug-In . SVG Version: 6.00 Build 0)  -->
<!DOCTYPE svg PUBLIC "-//W3C//DTD SVG 1.1//EN" "http://www.w3.org/Graphics/SVG/1.1/DTD/svg11.dtd">
<svg version="1.1" id="Capa_1" xmlns="http://www.w3.org/2000/svg" xmlns:xlink="http://www.w3.org/1999/xlink" x="0px" y="0px"
	 viewBox="0 0 454.567 454.567" style="enable-background:new 0 0 454.567 454.567;" xml:space="preserve">
<g>
	<path d="M353.605,285.149l13.305-13.305l-44.732-44.732l-13.31,13.31c0,0-36.829-37.7-38.033-38.752
		c11.193-11.561,18.164-27.254,18.402-44.559c8.633-1.853,15.133-9.548,15.133-18.72c0-9.178-6.5-16.876-15.133-18.73
		c-0.209-12.017-3.508-23.41-9.633-33.312c17.704-6.583,26.677-17.515,26.677-32.558c0-14.712-8.749-28.412-24.635-38.577
		C266.312,5.403,246.007,0,224.469,0c-21.541,0-41.848,5.403-57.179,15.213c-15.884,10.165-24.631,23.865-24.631,38.577
		c0,14.967,8.886,25.867,26.397,32.455c-6.229,9.977-9.578,21.437-9.775,33.499c-8.506,1.984-14.722,9.544-14.722,18.646
		c0,9.096,6.215,16.652,14.721,18.635c0.22,17.699,7.475,33.727,19.098,45.37c-0.557,0.503-83.346,83.504-83.346,83.504
		c-4.756,4.75-7.376,11.068-7.376,17.791c0,6.722,2.619,13.043,7.374,17.798c4.906,4.906,11.167,7.358,17.611,7.358
		c4.675,0,9.252-1.298,13.252-3.88v55.6h48v74h100v-104h21v-22.665l7.979,7.796l15.054-14.963l0.786,0.74
		c4.75,4.757,11.092,7.377,17.814,7.377c6.721,0,13.053-2.619,17.808-7.375c9.806-9.805,9.813-25.769,0.006-35.586L353.605,285.149z
		 M288.894,128.001c5,1.625,7.11,5.667,7.11,10.39c0,4.718-2.11,8.756-7.11,10.38V128.001z M158.894,148.621
		c-4-1.707-6.7-5.628-6.7-10.231c0-4.606,2.7-8.531,6.7-10.24V148.621z M329.344,245.592l23.773,23.773l-24.687,4.859
		L329.344,245.592z M321.549,239.056l-1.586,49.696l-49.696,1.586L321.549,239.056z M303.211,246.079l-7.959,7.959
		c-0.035-6.351-0.948-12.597-2.703-18.621L303.211,246.079z M150.568,53.791C150.568,28.542,183.725,8,224.424,8
		s73.852,20.542,73.852,45.791c0,11.985-8.382,20.421-23.382,25.75V55.86l-2.933-0.822c-15.481-4.367-31.496-6.581-47.581-6.581
		c-16.016,0-32.052,2.195-47.472,6.526l-3.014,0.819v23.734C157.894,74.212,150.568,65.778,150.568,53.791z M181.894,83.567V61.893
		c27-7.234,57-7.218,85,0.051v21.623H181.894z M248.01,91.567c-7.054,5-15.182,8.38-23.544,8.38s-16.489-3.38-23.544-8.38H248.01z
		 M166.894,156.201v-35.33c0-10.579,3.127-20.304,8.379-29.304h13.887c9.741,10,22.234,16.38,35.306,16.38s25.564-6.38,35.306-16.38
		h13.548c5.204,8,7.574,18.697,7.574,29.304v35.33c0,31.584-25.57,57.279-57,57.279S166.894,187.785,166.894,156.201z
		 M195.75,214.945l24.144,34.976v40.322l-35.78-82.423c0.038-0.033,0.074-0.07,0.112-0.103
		C187.793,210.506,191.647,212.941,195.75,214.945z M162.894,254.411c0-14.248,4.859-27.628,13.723-38.713
		c0.465-0.59,1.04-1.249,1.534-1.827l34.461,78.696h-49.719V254.411z M158.151,233.904c-2.02,6.607-3.257,13.524-3.257,20.506
		v31.123l-14.925,15.108l-24.751-23.798L158.151,233.904z M124.961,315.833c-6.692,6.69-17.581,6.692-24.272,0
		c-3.245-3.245-5.031-7.557-5.031-12.142c0-4.583,1.786-8.892,5.031-12.133l9.055-9.056l24.75,23.798L124.961,315.833z
		 M182.964,446.567c1.677-9,9.341-15.301,18.526-15.301s16.849,6.301,18.526,15.301H182.964z M219.894,431.085
		c-4-4.738-11.472-7.666-18.77-7.666c-7.532,0-14.23,3.119-19.23,8.127v-50.98h38V431.085z M223.894,372.567h-90v-38.411
		l43.736,20.215l46.264-19.637V372.567z M223.894,326.044l-46.126,19.577l-43.874-20.278v-7.496l17.492-17.28h72.508V326.044z
		 M209.076,219.663c4.875,1.176,9.955,1.817,15.184,1.817c5.402,0,10.648-0.676,15.669-1.93l-15.456,22.18L209.076,219.663z
		 M228.516,446.567c1.677-9,9.341-15.301,18.526-15.301c9.186,0,16.85,6.301,18.527,15.301H228.516z M265.894,431.533
		c-5-5-11.692-8.113-19.217-8.113c-7.304,0-13.783,2.933-18.783,7.678v-50.531h4v-30h34V431.533z M286.894,342.567h-55v-50h-4
		v-42.532l24.898-35.291c4.252-2.112,8.331-4.679,11.997-7.636c1.311,1.112,7.849,7.977,9.65,10.371
		c8.238,10.911,12.455,23.682,12.455,36.931v7.62l-28.936,28.936l28.936,28.936V342.567z M300.575,321.904l-23.771-23.77
		l28.629-0.914L300.575,321.904z M313.639,296.957l14.08-0.45l0.449-14.077l20.97-4.128l-39.627,39.627L313.639,296.957z
		 M348.691,315.822c-3.244,3.244-7.555,5.031-12.14,5.031c-4.584,0-8.892-1.786-12.133-5.032l-0.742-0.742l24.273-24.273
		l0.741,0.741C355.379,298.244,355.379,309.133,348.691,315.822z"/>
	<rect x="242.894" y="251.567" width="30" height="8"/>
	<circle cx="198.206" cy="145.963" r="9.407"/>
	<circle cx="250.726" cy="145.963" r="9.407"/>
	<circle cx="178.331" cy="331.089" r="5.879"/>
	<path d="M224.466,42.419c6.744,0,12.23-5.486,12.23-12.23s-5.486-12.23-12.23-12.23c-6.744,0-12.23,5.486-12.23,12.23
		S217.722,42.419,224.466,42.419z M224.466,25.958c2.333,0,4.23,1.897,4.23,4.23s-1.898,4.23-4.23,4.23s-4.23-1.897-4.23-4.23
		S222.133,25.958,224.466,25.958z"/>
</g>
<g>
</g>
<g>
</g>
<g>
</g>
<g>
</g>
<g>
</g>
<g>
</g>
<g>
</g>
<g>
</g>
<g>
</g>
<g>
</g>
<g>
</g>
<g>
</g>
<g>
</g>
<g>
</g>
<g>
</g>
</svg>
