<?xml version="1.0" encoding="iso-8859-1"?>
<!-- Generator: Adobe Illustrator 18.0.0, SVG Export Plug-In . SVG Version: 6.00 Build 0)  -->
<!DOCTYPE svg PUBLIC "-//W3C//DTD SVG 1.1//EN" "http://www.w3.org/Graphics/SVG/1.1/DTD/svg11.dtd">
<svg version="1.1" id="Capa_1" xmlns="http://www.w3.org/2000/svg" xmlns:xlink="http://www.w3.org/1999/xlink" x="0px" y="0px"
	 viewBox="0 0 402.182 402.182" style="enable-background:new 0 0 402.182 402.182;" xml:space="preserve">
<g>
	<path d="M349.398,231.339c0,0-81.7-81.612-83.227-82.918c12.327-11.773,20.081-28.282,20.302-46.581
		c8.503-2.012,14.716-9.593,14.716-18.693c0-9.107-6.217-16.695-14.724-18.705C285.869,28.809,256.715,0,220.942,0
		c-35.774,0-64.928,28.81-65.524,64.445c-8.509,2.015-14.728,9.604-14.728,18.703c0,9.092,6.216,16.674,14.72,18.691
		c0.216,17.934,7.662,34.155,19.563,45.878c-3.809,2.917-75.963,75.345-75.963,75.345l-5.764-5.764
		c2.557-8.383,0.536-17.875-6.081-24.492c-4.624-4.624-10.772-7.171-17.312-7.171c-6.54,0-12.688,2.547-17.313,7.171
		c-9.546,9.546-9.546,25.079,0,34.626c4.624,4.624,10.772,7.17,17.313,7.17c1.937,0,3.838-0.229,5.677-0.663l8.675,8.674
		c-0.569,2.122-0.87,4.331-0.87,6.587c0,6.747,2.627,13.089,7.396,17.859c4.925,4.925,11.395,7.387,17.863,7.387
		c2.08,0,4.159-0.258,6.187-0.767l5.35,5.35c2.402,2.402,5.558,3.603,8.714,3.603c3.155,0,6.311-1.201,8.713-3.603
		c4.804-4.805,4.804-12.622,0-17.427l-2.766-2.821l14.298-14.243v53.647h20v104h100v-104h20v-55.817l24.636,24.691
		c4.923,4.922,11.361,7.383,17.831,7.383c6.468,0,12.926-2.461,17.854-7.383c4.77-4.77,7.39-11.112,7.39-17.859
		S354.168,236.109,349.398,231.339z M287.091,72.861c3,1.731,6.696,5.673,6.696,10.287c0,4.61-3.696,8.549-6.696,10.278V72.861z
		 M155.091,93.423c-4-1.732-6.7-5.67-6.7-10.275c0-4.609,2.7-8.55,6.7-10.284V93.423z M221.241,8
		c31.734,0,57.85,25.817,57.85,57.552v3.171c-33-1.275-59.514-27.721-60.91-60.628C219.243,8.036,220.163,8,221.241,8z
		 M209.766,9.098c1.107,20.802,11.392,39.436,26.811,51.864c-10.707,1.303-21.604-0.705-31.506-5.933
		c-11.814-6.239-20.93-16.388-26.052-28.846C187.092,17.592,197.76,11.471,209.766,9.098z M173.384,33.182
		c5.469,11.189,13.913,20.492,24.496,26.941c-11.408,1.957-23.02,0.357-33.581-4.696C165.749,47.299,168.898,39.753,173.384,33.182z
		 M163.091,101.041V65.552c0-0.582,0.176-1.157,0.193-1.734c7.987,3.406,16.517,5.127,25.042,5.127
		c6.694,0,13.467-1.064,20.053-3.204l0.664-0.201c6.859,2.531,14.009,3.821,21.175,3.821c5.225,0,10.761-0.691,15.903-2.058
		c9.733,5.618,20.969,9,32.969,9.419v24.32c0,31.734-26.172,57.141-57.906,57.141h-0.327
		C189.124,158.182,163.091,132.775,163.091,101.041z M264.247,186.446l-11.156,3.803v-32.049c0-0.332,1.153-0.663,1.732-1.013
		L264.247,186.446z M263.855,214.722l-10.764,30.901v-46.458L263.855,214.722z M196.091,265.182v-73.903l17.033-9.831
		c2.048,2.104,4.967,3.459,7.967,3.643v80.092H196.091z M206.091,273.182v7h-10v-7H206.091z M209.838,175.23l-13.747,7.966v-21.027
		l13.868,8.036c-0.212,0.898-0.336,1.828-0.336,2.79C209.622,173.76,209.702,174.505,209.838,175.23z M216.741,172.995
		c0-2.733,2.224-4.957,4.957-4.957c2.733,0,4.957,2.224,4.957,4.957c0,2.733-2.224,4.957-4.957,4.957
		C218.965,177.952,216.741,175.728,216.741,172.995z M214.091,273.182h31v7h-31V273.182z M230.091,265.182v-82.557l15,8.654v73.903
		H230.091z M233.372,176.469c0.33-1.102,0.485-2.266,0.485-3.474c0-1.397-0.208-2.735-0.645-3.985l11.878-6.838v21.026
		L233.372,176.469z M188.091,157.667v32.602l-11.328-3.823l9.646-29.774C186.955,157.012,187.091,157.342,188.091,157.667z
		 M69.853,226.601c-4.403,0-8.543-1.714-11.655-4.828c-6.427-6.427-6.427-16.884,0-23.311c3.113-3.113,7.253-4.828,11.655-4.828
		c4.403,0,8.542,1.715,11.655,4.828c6.427,6.427,6.427,16.885,0.001,23.311C78.395,224.886,74.256,226.601,69.853,226.601z
		 M87.344,235.539l-4.583-4.615c1.578-0.983,3.057-2.147,4.404-3.494c0.833-0.833,1.568-1.727,2.255-2.643l3.932,3.932l-2.621,2.621
		C89.44,232.631,88.312,234.04,87.344,235.539z M96.388,261.4c-3.259-3.259-5.054-7.592-5.054-12.202s1.795-8.942,5.054-12.201
		l9.111-9.111l24.887,23.928l-9.585,9.586C114.071,268.13,103.119,268.131,96.388,261.4z M131.901,273.369
		c-0.816,0.816-1.902,1.266-3.057,1.266c-1.154,0-2.24-0.45-3.056-1.266l-3.166-3.166c1.354-0.905,2.641-1.952,3.836-3.146
		l2.622-2.622l2.821,2.821c0.816,0.816,1.266,1.902,1.266,3.056C133.167,271.467,132.717,272.553,131.901,273.369z M149.091,199.698
		v33.523L136.1,246.156l-24.915-23.928l40.295-40.253C149.882,187.643,149.091,193.585,149.091,199.698z M157.091,290.182v-90.485
		c0-17.441,7.68-33.324,21.347-44.46l-11.739,36.252l13.617,4.623l-11.991,17.401l19.765,56.601v20.068H157.091z M188.091,199.078
		v46.717l-10.824-31.073L188.091,199.078z M177.103,394.182c1.04-9,9.098-16.979,18.86-16.979c9.761,0,17.819,7.979,18.859,16.979
		H177.103z M223.062,394.182c1.041-9,9.098-16.979,18.859-16.979c9.761,0,17.819,7.979,18.859,16.979H223.062z M261.091,377.233
		c-5-4.864-11.625-7.855-19.058-7.855c-7.376,0-13.942,2.947-18.942,7.744v-69.94h11v-8h-31v8h12v70.012
		c-5-4.84-11.604-7.816-19.017-7.816c-7.396,0-13.983,2.962-18.983,7.783v-78.979h19v-10h49v10h16V377.233z M281.091,290.182h-28
		v-20.24l19.601-56.429l-12.067-17.401l13.617-4.623l-11.371-35.348c11.622,10.879,18.22,26.402,18.22,43.556V290.182z
		 M289.091,231.051v-31.353c0-7.086-1.055-13.929-2.961-20.368l43.84,43.868l-24.846,23.928L289.091,231.051z M343.743,261.398
		c-6.735,6.728-17.688,6.728-24.414,0.001l-8.616-8.616l24.887-23.928l8.141,8.141c3.259,3.258,5.053,7.592,5.053,12.201
		S347,258.141,343.743,261.398z"/>
	<circle cx="212.461" cy="197.72" r="6.037"/>
	<circle cx="212.461" cy="224.949" r="6.037"/>
	<circle cx="212.461" cy="252.177" r="6.037"/>
	<circle cx="194.563" cy="90.756" r="9.449"/>
	<circle cx="247.321" cy="90.756" r="9.449"/>
</g>
<g>
</g>
<g>
</g>
<g>
</g>
<g>
</g>
<g>
</g>
<g>
</g>
<g>
</g>
<g>
</g>
<g>
</g>
<g>
</g>
<g>
</g>
<g>
</g>
<g>
</g>
<g>
</g>
<g>
</g>
</svg>
