<?xml version="1.0" encoding="iso-8859-1"?>
<!-- Generator: Adobe Illustrator 18.0.0, SVG Export Plug-In . SVG Version: 6.00 Build 0)  -->
<!DOCTYPE svg PUBLIC "-//W3C//DTD SVG 1.1//EN" "http://www.w3.org/Graphics/SVG/1.1/DTD/svg11.dtd">
<svg version="1.1" id="Capa_1" xmlns="http://www.w3.org/2000/svg" xmlns:xlink="http://www.w3.org/1999/xlink" x="0px" y="0px"
	 viewBox="0 0 400.012 400.012" style="enable-background:new 0 0 400.012 400.012;" xml:space="preserve">
<circle cx="173.71" cy="90.599" r="9.449"/>
<circle cx="226.467" cy="90.599" r="9.449"/>
<g>
	<path d="M330.933,231.013c0,0-82.251-82.337-84.098-83.981c11.429-11.751,18.5-27.753,18.555-45.383
		c8.527-1.958,14.946-9.653,14.946-18.716c0-9.077-6.432-16.784-14.973-18.733C264.685,28.686,235.588,0,199.895,0
		c-35.72,0-64.834,28.729-65.47,64.28c-8.429,2.07-14.59,9.641-14.59,18.652c0,8.997,6.148,16.556,14.563,18.635
		c0.034,17.674,7.12,33.717,18.579,45.488c-2.304,2.048-83.891,83.959-83.891,83.959c-4.77,4.77-7.396,11.114-7.396,17.864
		c0,6.75,2.627,13.093,7.399,17.865c4.921,4.916,11.386,7.374,17.851,7.374c6.465,0,12.931-2.458,17.853-7.375l24.602-24.586
		v114.857h21v43h100v-43h20V241.924l24.833,24.818c4.921,4.916,11.386,7.373,17.851,7.373c6.465,0,12.931-2.458,17.854-7.375
		C340.784,256.891,340.784,240.864,330.933,231.013z M265.396,72.58c4,1.693,6.94,5.713,6.94,10.352c0,4.635-2.94,8.651-6.94,10.343
		V72.58z M134.396,93.13c-4-1.766-6.56-5.67-6.56-10.198c0-4.533,2.56-8.441,6.56-10.208V93.13z M99.139,261.082
		c-6.727,6.718-17.67,6.719-24.395,0.002c-6.731-6.731-6.731-17.682-0.001-24.412l9.099-9.093l24.889,23.916L99.139,261.082z
		 M129.396,199.412v31.433l-15.004,14.994l-24.89-23.916l42.961-42.933C130.447,185.576,129.396,192.463,129.396,199.412z
		 M199.895,8c13.161,0,25.295,4.452,34.997,11.914c-9.979,7.58-22.16,11.713-34.807,11.713c-12.728,0-24.983-4.188-34.997-11.862
		C174.758,12.391,186.821,8,199.895,8z M142.396,101.441V65.462c0-15.7,6.338-29.943,16.585-40.325
		c11.628,9.363,26.078,14.49,41.105,14.49c14.934,0,29.297-5.066,40.887-14.319c10.149,10.367,16.423,24.539,16.423,40.154v35.979
		c0,31.685-25.794,57.463-57.5,57.463C168.19,158.904,142.396,133.126,142.396,101.441z M203.396,166.808v19.204h-7v-19.204
		c1.159,0.061,2.325,0.095,3.5,0.095C201.07,166.904,202.236,166.87,203.396,166.808z M158.907,392.012
		c1.861-8.519,9.46-14.92,18.534-14.92c9.075,0,16.673,6.401,18.534,14.92H158.907z M196.396,376.89
		c-4.876-4.817-11.573-7.798-18.954-7.798c-7.427,0-14.162,3.016-19.046,7.885v-19.966h38V376.89z M204.666,392.012
		c1.861-8.519,9.459-14.92,18.535-14.92c9.075,0,16.673,6.401,18.534,14.92H204.666z M242.396,377.132
		c-4.895-4.959-11.691-8.039-19.195-8.039c-7.307,0-13.942,2.923-18.805,7.656v-19.736h38V377.132z M262.396,349.012h-125v-149.6
		c0-14.097,4.88-27.904,13.747-38.883c2.354-2.926,4.97-5.622,7.791-8.06c8.382,6.735,18.449,11.445,29.463,13.404v28.139h23
		v-28.139c11.023-1.96,21.099-6.678,29.486-13.423c2.861,2.478,5.509,5.215,7.884,8.185c8.917,11.117,13.63,24.525,13.63,38.777
		V349.012z M270.396,230.615v-31.202c0-7.066-1.091-14.067-3.171-20.755l44.265,44.236L286.6,246.809L270.396,230.615z
		 M325.279,261.082c-6.727,6.718-17.67,6.718-24.396,0.001l-8.623-8.618l24.89-23.916l8.128,8.122
		C332.008,243.401,332.008,254.353,325.279,261.082z"/>
	<polygon points="204.009,205.012 196.009,205.012 196.009,217.012 184.009,217.012 184.009,225.012 196.009,225.012 
		196.009,249.012 204.009,249.012 204.009,225.012 216.009,225.012 216.009,217.012 204.009,217.012 	"/>
</g>
<g>
</g>
<g>
</g>
<g>
</g>
<g>
</g>
<g>
</g>
<g>
</g>
<g>
</g>
<g>
</g>
<g>
</g>
<g>
</g>
<g>
</g>
<g>
</g>
<g>
</g>
<g>
</g>
<g>
</g>
</svg>
