<?xml version="1.0" encoding="iso-8859-1"?>
<!-- Generator: Adobe Illustrator 18.0.0, SVG Export Plug-In . SVG Version: 6.00 Build 0)  -->
<!DOCTYPE svg PUBLIC "-//W3C//DTD SVG 1.1//EN" "http://www.w3.org/Graphics/SVG/1.1/DTD/svg11.dtd">
<svg version="1.1" id="Capa_1" xmlns="http://www.w3.org/2000/svg" xmlns:xlink="http://www.w3.org/1999/xlink" x="0px" y="0px"
	 viewBox="0 0 430.057 430.057" style="enable-background:new 0 0 430.057 430.057;" xml:space="preserve">
<g>
	<circle cx="182.047" cy="116.076" r="9.449"/>
	<circle cx="234.804" cy="116.076" r="9.449"/>
	<path d="M316.835,345.677c-23.264,0-42.19,18.927-42.19,42.19c0,9.385,3.083,18.062,8.286,25.077
		c-2.094,0.739-4.367,0.927-6.598,0.5c-3.623-0.692-6.757-2.923-8.601-6.117l-9.346-16.198v-68.884h20.29v-54.354l24.48,24.481
		c4.77,4.775,11.113,7.405,17.86,7.405c6.747,0,13.09-2.63,17.857-7.402c4.775-4.77,7.405-11.112,7.406-17.859
		c0-6.747-2.63-13.091-7.404-17.859c0,0-82.798-83.282-83.854-84.217c11.904-12.048,18.728-28.267,18.934-45.283
		c8.505-2.017,14.721-9.6,14.721-18.691c0-9.093-6.219-16.678-14.727-18.693c-0.281-17.099-7.053-33.135-19.175-45.255
		c-1.556-1.556-3.203-3.03-4.907-4.422V0h-82.883v40.101c-15.036,12.283-23.756,30.298-24.078,49.666
		c-8.51,2.006-14.731,9.592-14.731,18.697c0,9.102,6.216,16.685,14.721,18.695c0.207,17.016,7.031,33.235,18.936,45.283
		c-3.536,3.134-83.416,84.214-83.416,84.214c-9.847,9.848-9.847,25.87-0.001,35.716c4.77,4.775,11.112,7.405,17.86,7.405
		c6.747,0,13.09-2.63,17.858-7.404l24.041-24.042v53.914h20.29v103.54h99.92v-18.649l2.417,4.189
		c3.006,5.21,8.119,8.847,14.027,9.977c1.293,0.248,2.595,0.369,3.89,0.369c3.441,0,6.829-0.862,9.856-2.506
		c7.486,6.765,17.398,10.892,28.259,10.892c23.263,0,42.19-18.926,42.19-42.189C359.025,364.603,340.098,345.677,316.835,345.677z
		 M166.466,340.715h37.96v15h-37.96V340.715z M250.386,378.715h-37.96v-15h37.96V378.715z M250.386,355.715h-37.96v-15h37.96
		V355.715z M166.466,363.715h37.96v15h-37.96V363.715z M204.426,402.516c-4.878-4.819-11.585-7.781-18.98-7.781
		c-7.395,0-14.102,2.962-18.98,7.781v-15.801h37.96V402.516z M185.446,402.735c9.068,0,16.66,6.744,18.529,15.05h-37.058
		C168.786,409.48,176.378,402.735,185.446,402.735z M250.386,402.517c-4.878-4.819-11.586-7.781-18.981-7.781
		c-7.394,0-14.101,2.962-18.979,7.78v-15.801h37.96V402.517z M249.934,417.785h-37.058c1.869-8.305,9.462-15.05,18.529-15.05
		C240.473,402.735,248.065,409.48,249.934,417.785z M250.386,332.715h-37.96v-10.47h37.96V332.715z M208.422,203.154
		c-12.865,0-24.246-7.418-29.754-18.389c9.143,4.662,19.325,7.149,29.758,7.149c10.432,0,20.612-2.487,29.755-7.148
		C232.669,195.737,221.286,203.154,208.422,203.154z M181.029,200.715c7.337,6.513,16.973,10.439,27.393,10.439
		c10.42,0,20.057-3.926,27.396-10.439h29.952c1.771,4.167,3.074,8.516,3.888,13H147.203c0.816-4.476,2.109-8.83,3.881-13H181.029z
		 M275.68,204.768l17.822,17.824l-14.826,14.827v-12.404C278.676,218.124,277.646,211.299,275.68,204.768z M270.676,235.715h-124.5
		c0,0,0.039-12.904,0.096-14h124.31C270.638,222.81,270.676,235.715,270.676,235.715z M146.176,243.715h124.5v12h-124.5V243.715z
		 M138.176,234.711l-13.252-13.247l15.994-15.994c-1.812,6.282-2.742,12.841-2.742,19.545V234.711z M146.176,263.715h124.5v12
		h-124.5V263.715z M146.176,283.715h124.5v13h-124.5V283.715z M278.676,248.732l20.483-20.483l11.604,11.606l-24.405,24.405
		l-7.682-7.682V248.732z M303.617,281.52l-11.603-11.603l24.404-24.405l11.603,11.605L303.617,281.52z M333.216,286.718
		c-3.259,3.263-7.591,5.06-12.2,5.06c-4.39,0-8.519-1.647-11.72-4.623l24.359-24.359c2.976,3.2,4.623,7.329,4.623,11.72
		C338.278,279.124,336.481,283.456,333.216,286.718z M256.941,186.004c1.734,2.153,3.306,4.395,4.721,6.711h-18.866
		c2.937-4.4,5.047-9.409,6.112-14.815c0.034-0.027,0.068-0.055,0.103-0.082c1.182,1.016,2.334,2.074,3.437,3.176
		c1.371,1.371,2.695,2.823,3.942,4.326L256.941,186.004z M280.676,108.465c0,4.605-2.734,8.543-6.7,10.274V98.19
		C277.942,99.922,280.676,103.86,280.676,108.465z M174.984,28.715h66.883v10.152h-66.883V28.715z M241.867,8v12.715h-66.883V8
		H241.867z M136.176,108.465c0-4.612,2.734-8.552,6.7-10.28v20.56C138.91,117.017,136.176,113.077,136.176,108.465z M150.876,90.875
		c0-17.078,7.463-33.03,20.496-44.008h74.135c1.248,1.052,2.457,2.153,3.61,3.306c10.871,10.871,16.858,25.326,16.858,40.702v35.49
		c0,16.267-6.896,31.772-18.95,42.686l-0.669,0.588c-10.483,9.206-23.954,14.276-37.931,14.276s-27.447-5.07-37.931-14.276
		l-0.506-0.439c-12.156-10.922-19.114-26.494-19.114-42.834V90.875z M158.484,187.845c2.73-3.666,5.875-7.023,9.361-10.023
		c0.033,0.026,0.065,0.053,0.098,0.079c1.065,5.406,3.173,10.415,6.109,14.815h-18.846
		C156.22,191.052,157.307,189.424,158.484,187.845z M102.006,244.381l24.403,24.404l-11.604,11.603l-24.404-24.404L102.006,244.381z
		 M96.276,291.777c-4.609,0-8.941-1.797-12.202-5.061c-6.728-6.728-6.728-17.676,0-24.404l0.671-0.671l24.404,24.403l-0.673,0.673
		C105.217,289.98,100.885,291.777,96.276,291.777z M132.065,263.128l-24.403-24.404l11.604-11.604l18.91,18.902v10.996
		L132.065,263.128z M146.176,304.715h124.5v9.53h-124.5V304.715z M204.426,322.245v10.47h-37.96v-10.47H204.426z M316.835,422.057
		c-18.852,0-34.19-15.337-34.19-34.189c0-18.853,15.338-34.19,34.19-34.19c18.852,0,34.19,15.338,34.19,34.19
		C351.025,406.72,335.687,422.057,316.835,422.057z"/>
</g>
<g>
</g>
<g>
</g>
<g>
</g>
<g>
</g>
<g>
</g>
<g>
</g>
<g>
</g>
<g>
</g>
<g>
</g>
<g>
</g>
<g>
</g>
<g>
</g>
<g>
</g>
<g>
</g>
<g>
</g>
</svg>
