<?xml version="1.0" encoding="iso-8859-1"?>
<!-- Generator: Adobe Illustrator 18.0.0, SVG Export Plug-In . SVG Version: 6.00 Build 0)  -->
<!DOCTYPE svg PUBLIC "-//W3C//DTD SVG 1.1//EN" "http://www.w3.org/Graphics/SVG/1.1/DTD/svg11.dtd">
<svg version="1.1" id="Capa_1" xmlns="http://www.w3.org/2000/svg" xmlns:xlink="http://www.w3.org/1999/xlink" x="0px" y="0px"
	 viewBox="0 0 400.091 400.091" style="enable-background:new 0 0 400.091 400.091;" xml:space="preserve">
<g>
	<path d="M98.052,203.479v-8c-10,0-17.42,7.612-17.42,16.612h8C88.632,207.091,93.052,203.479,98.052,203.479z"/>
	<path d="M97.052,176.894c-20,0-34.996,15.197-34.996,34.197h8c0-14,11.996-26.197,26.996-26.197V176.894z"/>
	<path d="M97.052,165.382v-8c-30,0-54.5,24.709-54.5,53.709h8C50.552,186.091,71.052,165.382,97.052,165.382z"/>
	<path d="M350.164,231.277c0,0-81.658-82.054-83.718-83.932c11.547-11.801,18.69-27.93,18.716-45.704
		c8.374-2.113,14.493-9.674,14.493-18.637c0-8.973-6.132-16.542-14.52-18.646C284.508,28.766,255.39,0,219.665,0
		c-35.687,0-64.779,28.705-65.467,64.245c-8.58,1.917-15.042,9.633-15.042,18.759c0,9.116,6.448,16.825,15.015,18.752
		c0.057,17.747,7.207,33.849,18.751,45.628c-2.205,1.985-71.36,71.514-71.36,71.514l-5.58-5.583l-42.404,42.423l29.041,29.054
		l13.096-13.102c3.577,1.806,7.457,2.707,11.329,2.707c6.516,0,12.936-2.517,17.825-7.405l24.184-24.256v54.355h21v103h99v-103h20
		v-55.375l25.318,25.278c4.926,4.926,11.425,7.389,17.896,7.389c6.471,0,12.957-2.463,17.885-7.391
		C359.992,257.139,360.005,241.117,350.164,231.277z M285.052,72.819c4,1.788,6.49,5.685,6.49,10.186c0,4.5-2.49,8.397-6.49,10.185
		V72.819z M154.052,93.396c-4-1.673-7.01-5.711-7.01-10.392c0-4.68,3.01-8.718,7.01-10.392V93.396z M268.609,161.51
		c3.82,4.971,6.843,10.581,9.021,16.581h-18.605c0.427-12,0.938-23.996,1.347-25.409
		C263.323,155.301,266.122,158.265,268.609,161.51z M201.536,10.947C207.24,9.045,213.331,8,219.665,8
		c0.378,0,0.751,0.021,1.127,0.029c-0.868,3.327-1.313,6.755-1.313,10.249c0,13.104,6.142,25.011,16.259,32.543
		c-0.801,0.059-1.607,0.089-2.416,0.089c-17.984,0-32.615-14.638-32.615-32.631C200.707,15.795,200.988,13.339,201.536,10.947z
		 M162.052,65.527c0-22.05,12.527-41.232,30.777-50.884c-0.107,1.206-0.15,2.417-0.15,3.634c0,22.404,18.234,40.631,40.629,40.631
		c5.103,0,10.105-0.947,14.856-2.814l9.471-3.721l-9.465-3.724c-12.57-4.945-20.692-16.867-20.692-30.372
		c0-3.263,0.419-6.455,1.359-9.526c27.332,4.432,48.214,28.199,48.214,56.776v17.563h-8v-6h-45v11h-10v-11h-45v6h-7V65.527z
		 M254.018,85.091h7.034v13h-8.525c2.097-2,3.434-4.349,3.434-7.282C255.96,88.654,255.231,86.091,254.018,85.091z M240.496,98.091
		h-8.444v-13h6.952c-1.214,1-1.942,3.564-1.942,5.718C237.062,93.742,238.399,96.091,240.496,98.091z M199.801,85.091h6.251v13
		h-7.742c2.097-2,3.434-4.349,3.434-7.282C201.744,88.654,201.015,86.091,199.801,85.091z M186.279,98.091h-9.227v-13h7.736
		c-1.214,1-1.942,3.564-1.942,5.718C182.846,93.742,184.182,96.091,186.279,98.091z M171.303,160.666
		c2.274-2.853,4.824-5.529,7.593-7.955c0.603,2.901,1.27,25.38,1.27,25.38h-18.912C163.554,172.091,166.962,166.074,171.303,160.666
		z M157.052,199.614c0-4.184,0.674-8.524,1.805-13.524h21.195v20h-23V199.614z M157.052,214.091h23v20h-23V214.091z
		 M157.052,242.091h23v20h-23V242.091z M82.619,273.477l-17.729-17.737l31.092-31.106l17.729,17.737L82.619,273.477z
		 M149.052,231.418l-29.841,29.918c-4.661,4.661-11.399,6.154-17.41,4.238l23.208-23.204l-17.798-17.813l24.252-24.317
		l17.589,16.974V231.418z M151.851,181.018c-1.845,6.741-2.799,12.823-2.799,18.596v6.499l-11.929-11.532l15.238-15.245
		C152.191,179.898,152.004,180.457,151.851,181.018z M157.052,289.091v-19h23v19h-9.887H157.052z M178.643,392.091
		c1.895-8,9.355-14.694,18.262-14.694c8.906,0,16.367,6.694,18.262,14.694H178.643z M216.052,377.104
		c-5-4.764-11.837-7.67-19.17-7.67c-7.165,0-13.83,2.777-18.83,7.348v-79.692h38V377.104z M191.593,183.685l-3.428-24.513
		c6.334,3.92,23.46,7.665,23.46,7.665L191.593,183.685z M215.052,174.144v3.947h-4.279L215.052,174.144z M201.261,186.091h13.791v20
		h-27v-9.238L201.261,186.091z M215.052,214.091v20h-27v-20H215.052z M215.052,242.091v20h-27v-20H215.052z M215.052,270.091v19h-27
		v-19H215.052z M162.052,101.544V91.091h7v15h45v-10h10v10h45v-15h8v10.453c0,31.721-25.794,57.527-57.5,57.527
		S162.052,133.264,162.052,101.544z M223.052,234.091v-20h27v20H223.052z M250.052,242.091v20h-27v-20H250.052z M223.052,206.091
		v-20h15.088l11.912,10.547v9.453H223.052z M223.052,178.091v-4.189l5.587,4.189H223.052z M247.339,183.623l-19.792-16.766
		c0,0,16.619-3.992,22.619-7.582L247.339,183.623z M223.052,270.091h27v19h-27V270.091z M224.052,392.091v-0.275
		c2-8.047,9.224-14.4,18.017-14.4c8.906,0,16.204,6.675,18.098,14.675H224.052z M261.052,377.284c-5-4.871-11.485-7.85-18.91-7.85
		c-7.016,0-14.09,2.662-18.09,7.064v-79.408h37V377.284z M281.052,289.091h-11.887h-11.113v-19h23V289.091z M281.052,262.091h-23
		v-20h23V262.091z M281.052,234.091h-23v-20h23V234.091z M281.052,206.091h-22.887c0,0,0.244-9,0.591-20h21.161
		c0.825,4,1.135,8.524,1.135,13.524V206.091z M286.889,181.028c-0.218-0.805-0.436-1.595-0.678-2.386l12.774,12.822l-9.933,9.514
		v-1.363C289.052,192.6,288.383,186.519,286.889,181.028z M344.507,261.336c-6.734,6.733-17.746,6.733-24.479,0.001l-30.975-30.939
		v-18.32l15.604-14.955l39.823,39.811C351.203,243.657,351.23,254.605,344.507,261.336z"/>
</g>
<g>
</g>
<g>
</g>
<g>
</g>
<g>
</g>
<g>
</g>
<g>
</g>
<g>
</g>
<g>
</g>
<g>
</g>
<g>
</g>
<g>
</g>
<g>
</g>
<g>
</g>
<g>
</g>
<g>
</g>
</svg>
