<?xml version="1.0" encoding="iso-8859-1"?>
<!-- Generator: Adobe Illustrator 18.0.0, SVG Export Plug-In . SVG Version: 6.00 Build 0)  -->
<!DOCTYPE svg PUBLIC "-//W3C//DTD SVG 1.1//EN" "http://www.w3.org/Graphics/SVG/1.1/DTD/svg11.dtd">
<svg version="1.1" id="Capa_1" xmlns="http://www.w3.org/2000/svg" xmlns:xlink="http://www.w3.org/1999/xlink" x="0px" y="0px"
	 viewBox="0 0 410.354 410.354" style="enable-background:new 0 0 410.354 410.354;" xml:space="preserve">
<g>
	<rect x="226.192" y="184.354" width="25" height="8"/>
	<rect x="161.192" y="184.354" width="25" height="8"/>
	<rect x="226.192" y="200.354" width="25" height="8"/>
	<path d="M335.423,241.592c0,0-68.089-68.369-84.092-84.03c4.365-4.354,8.122-9.347,11.141-14.844
		c0.298,0.154,0.604,0.297,0.928,0.413c2.921,1.04,6.077,0.163,8.04-2.237c12.7-15.52,19.694-34.983,19.694-54.803
		c0-47.47-38.656-86.09-86.17-86.09c-18.737,0-36.543,5.917-51.495,17.112c-14.45,10.819-25.344,26.233-30.676,43.407
		c-2.56,8.283-3.858,16.886-3.858,25.571c0,19.784,7.046,39.252,19.839,54.818c1.416,1.724,3.446,2.66,5.559,2.66
		c0.822,0,1.656-0.142,2.472-0.434c0.241-0.086,0.464-0.2,0.69-0.308c2.997,5.493,6.692,10.46,10.978,14.781
		c-16.617,15.987-83.517,83.984-83.517,83.984c-4.77,4.77-7.396,11.112-7.396,17.858c0,6.747,2.627,13.088,7.398,17.86
		c4.928,4.922,11.396,7.382,17.865,7.382c6.469,0,12.737-2.461,17.659-7.383l23.711-23.911V263.7v27.653h21v119h45.402h4h50.341
		l-0.329-119h20.586V263.7v-10.493l24.302,24.101c4.77,4.77,11.214,7.397,17.964,7.397c6.75,0,13.144-2.627,17.914-7.397
		c4.77-4.77,7.422-11.112,7.422-17.858C342.794,252.704,340.193,246.362,335.423,241.592z M105.026,271.651
		c-6.727,6.728-17.679,6.727-24.413,0c-3.259-3.258-5.054-7.592-5.054-12.201c0-4.609,1.795-8.943,5.054-12.201l2.024-2.025
		l24.887,23.928L105.026,271.651z M134.192,242.083l-21.211,21.412l-15.225-14.541l36.436-36.536V242.083z M135.245,200.453
		L92.29,243.408l-3.995-3.841l49.025-49.025C136.386,193.78,135.701,197.092,135.245,200.453z M282.933,85.917
		c0,17.267-5.741,34.415-16.741,48.219V86.78c0-8.146-2.955-15.427-8.546-21.427h22.767
		C282.177,72.354,282.933,78.863,282.933,85.917z M229.98,23.021c9.587,3.379,16.298,12.499,16.276,23.208
		c-0.029,13.5-10.644,24.484-24.627,24.503c-5.817-0.017-11.217-2.069-15.556-5.693c14.586-3.195,25.535-16.212,25.568-31.737
		C231.649,29.777,231.066,26.313,229.98,23.021z M208.099,75.354h-40.555c-6.032,0-11.503,2.756-15.484,6.698
		c1.768-8.455,8.586-15.104,17.476-16.567c1.178-0.194,6.303-0.131,6.303-0.131h19.927
		C199.037,70.354,203.284,73.354,208.099,75.354z M167.544,83.354h18.727l-28.147,28.32c-2.889-3.948-4.6-8.894-4.6-14.134
		C153.524,89.809,159.813,83.354,167.544,83.354z M197.585,83.354h5.686l-35.789,35.962c-1.272-0.582-2.485-1.358-3.626-2.147
		L197.585,83.354z M214.585,83.354h25.686l-27.169,27.169c-2.54-3.783-4.024-8.169-4.024-13.169h-8
		c-0.001,13-10.663,24.107-23.77,24.107c-0.215,0-0.427-0.097-0.64-0.103L214.585,83.354z M249.609,85.676
		c0.961,0.575,1.851,1.257,2.648,2.038l-30.809,30.809c-0.993-0.548-1.943-1.163-2.844-1.842L249.609,85.676z M256.262,95.023
		c0.188,0.919,0.288,1.869,0.288,2.84c0,13.036-10.642,23.589-23.72,23.595c-0.957,0-1.899-0.065-2.826-0.177L256.262,95.023z
		 M242.53,75.354h-7.098c4.208-2,7.93-4.593,10.939-8.052c6.105,2.876,10.44,8.255,11.776,14.794
		C254.155,78.076,248.629,75.354,242.53,75.354z M204.964,7.653c33.079,0,61.403,20.7,72.799,49.7H252.24
		c1.36-3,2.115-7.26,2.123-11.298c0.037-17.527-13.644-31.741-31.146-32.491l-7.771-0.29l4.249,6.536
		c2.609,4,3.983,8.488,3.972,13.288c-0.027,12.849-9.992,23.255-22.633,24.255h-68.779C143.868,27.354,172.425,7.653,204.964,7.653z
		 M143.192,86.72v47.408c-10-13.842-16.459-30.988-16.459-48.211c0-6.904,1.105-13.563,2.889-20.563h22.938
		C146.988,71.354,143.192,78.5,143.192,86.72z M151.192,132.836V116.64c6,7.943,15.353,13.121,25.914,13.121
		c11.936,0,22.456-6.775,27.884-16.545c5.432,9.701,15.925,16.137,27.826,16.137h0.022c10.6,0,20.353-4.929,25.353-12.924v15.758
		c-8,21.954-30.02,36.662-53.63,36.662C180.901,168.85,160.192,154.734,151.192,132.836z M142.192,209.95
		c0-13.461,4.481-26.317,12.576-37.177c2.684-3.596,5.718-6.93,9.233-9.957c10.449,8.259,23.191,13.243,37.191,13.939v86.598h-59
		V209.95z M142.192,283.354v-12h40.24l-7.196,12H142.192z M163.192,291.354h6v92.139c-2,1.262-4,2.836-6,4.665V291.354z
		 M164.605,402.354c1.709-8,9.104-14.63,17.94-14.63c8.837,0,16.231,6.63,17.941,14.63H164.605z M200.192,387.263
		c-4-4.453-11.066-7.193-18.049-7.193c-1.693,0-2.951,0.167-4.951,0.474v-89.19h23V387.263z M208.648,402.354
		c1.709-8,9.104-14.63,17.941-14.63c8.837,0,16.231,6.63,17.941,14.63H208.648z M208.192,387.211v-95.858h23v89.2
		c-1-0.314-3.294-0.483-5.005-0.483C219.232,380.07,213.192,382.788,208.192,387.211z M239.192,383.523v-92.17h7.414l0.07,97.893
		C244.646,386.79,242.192,385.113,239.192,383.523z M267.192,283.354h-82.72l7.196-12h75.524V283.354z M267.192,263.354h-58v-86.676
		c14-0.952,25.971-5.968,36.148-13.984c1.263,1.07,2.554,2.152,3.638,3.235c1.983,1.983,3.241,3.523,4.427,5.003
		c8.989,11.147,13.788,25.004,13.788,39.019V263.354z M274.82,199.827c-0.492-3.275-1.213-6.514-2.166-9.69l51.975,51.975
		l-3.836,3.688L274.82,199.827z M275.192,241.893v-29.978l39.632,39.431L299.44,266.04L275.192,241.893z M329.766,271.651
		c-3.259,3.259-7.594,5.054-12.207,5.054c-4.59,0-8.904-1.78-12.158-5.009l24.859-23.901c2.934,3.191,4.559,7.294,4.559,11.656
		C334.819,264.06,333.025,268.393,329.766,271.651z"/>
</g>
<g>
</g>
<g>
</g>
<g>
</g>
<g>
</g>
<g>
</g>
<g>
</g>
<g>
</g>
<g>
</g>
<g>
</g>
<g>
</g>
<g>
</g>
<g>
</g>
<g>
</g>
<g>
</g>
<g>
</g>
</svg>
