<?xml version="1.0" encoding="iso-8859-1"?>
<!-- Generator: Adobe Illustrator 18.0.0, SVG Export Plug-In . SVG Version: 6.00 Build 0)  -->
<!DOCTYPE svg PUBLIC "-//W3C//DTD SVG 1.1//EN" "http://www.w3.org/Graphics/SVG/1.1/DTD/svg11.dtd">
<svg version="1.1" id="Capa_1" xmlns="http://www.w3.org/2000/svg" xmlns:xlink="http://www.w3.org/1999/xlink" x="0px" y="0px"
	 viewBox="0 0 424.148 424.148" style="enable-background:new 0 0 424.148 424.148;" xml:space="preserve">
<g>
	<path d="M362.116,256.431l-35.043-35.113V95.341C327.073,42.77,284.144,0,231.573,0s-95.5,42.77-95.5,95.341v126.423
		l-26.332,26.425l-7.257-7.378c2.556-8.382,0.558-17.873-6.059-24.49c-4.624-4.624-10.761-7.171-17.3-7.171
		c-6.54,0-12.683,2.547-17.307,7.171c-9.546,9.546-9.543,25.079,0.003,34.625c4.624,4.624,10.774,7.17,17.314,7.17
		c1.798,0,3.566-0.199,5.281-0.575l10.542,10.55c-0.502,2.002-0.762,4.08-0.762,6.197c0,6.747,2.627,13.088,7.397,17.858
		c4.77,4.77,11.112,7.397,17.858,7.397c2.118,0,4.195-0.259,6.196-0.762l3.765,3.766c2.402,2.402,5.558,3.603,8.713,3.603
		s6.311-1.201,8.713-3.603c4.805-4.805,4.805-12.622,0-17.427l-1.24-1.251l15.474-15.463v23.563l-8.716,74.179h30.716v58h98v-58
		h29.77l-8.77-75.018v-23.263l24.27,24.281c4.77,4.77,11.107,7.397,17.853,7.397c6.747,0,13.086-2.627,17.854-7.395
		c4.776-4.77,7.438-11.112,7.438-17.86C369.488,267.542,366.89,261.199,362.116,256.431z M144.073,95.341
		c0-48.16,39.34-87.341,87.5-87.341c48.16,0,87.5,39.181,87.5,87.341v117.976c0,0-38.5-38.403-40.934-41.279
		c11.708-11.835,18.934-28.045,18.934-45.909V90.968l-4.74,0.877c-6.079,1.127-9.571,1.63-14.157,1.63
		c-29.392,0-54.744-21.786-58.968-50.675l-7.956,0.411c-0.968,23.026-19.275,42.196-42.598,44.59l-3.581,0.369v37.961
		c0,18.133,7.454,34.567,19.474,46.446c-4.099,4.465-40.474,41.189-40.474,41.189V95.341z M253.285,241.165l-17.212,14.213v-5.712
		l26.848-66.037c0.463-0.253,0.81-0.521,1.266-0.784l-1.546,38.838l-14.839,0.049L253.285,241.165z M244.779,206.148h-26.087
		l-7.194-17.475c6.181,1.908,12.748,2.973,19.553,2.973c7.391,0,14.494-1.284,21.135-3.52L244.779,206.148z M231.073,183.681
		c-31.981,0-58-25.818-58-57.553V95.271c20-3.34,35.969-17.081,42.775-35.086c10.346,24.388,34.779,41.29,62.34,41.29
		c3.792,0,6.886-0.304,10.886-0.936v25.59C289.073,157.863,263.055,183.681,231.073,183.681z M190.626,177.882
		c0.046,0.035,0.085,0.072,0.132,0.107l1.984,51.67l12.377,0.039l-4.111,14.322l27.066,21.908v16.22h-59v-57.359
		C169.073,206.715,176.89,189.792,190.626,177.882z M210.212,241.205l5.771-19.473l-15.542-0.049l-1.474-38.298
		c0.71,0.394,1.641,0.77,2.366,1.139l26.74,64.704v6.376L210.212,241.205z M221.973,214.148h19.529l-9.761,23.822L221.973,214.148z
		 M236.073,265.703l26.32-21.644l-4.099-14.361l12.046-0.04l1.975-52.057c1.231,1.043,2.384,2.092,3.43,3.138
		c11.82,11.83,18.328,27.474,18.328,44.05v57.359h-58V265.703z M79.136,250.117c-4.403,0-8.542-1.714-11.656-4.828
		c-6.427-6.427-6.427-16.884,0-23.311c3.113-3.114,7.253-4.828,11.656-4.828c4.403,0,8.542,1.714,11.656,4.828
		c6.427,6.426,6.427,16.884,0,23.311C87.679,248.402,83.539,250.117,79.136,250.117z M98.442,260.26l-6.041-6.046
		c1.444-0.935,2.802-2.023,4.048-3.268c0.768-0.768,1.452-1.587,2.097-2.427l5.529,5.43l-2.482,2.482
		C100.408,257.616,99.355,258.899,98.442,260.26z M119.451,291.544c-4.609,0-8.943-1.794-12.201-5.054
		c-3.259-3.258-5.054-7.592-5.054-12.201c0-4.609,1.795-8.943,5.054-12.201l9.496-9.496l24.882,23.923l-9.975,9.975
		C128.394,289.75,124.061,291.544,119.451,291.544z M141.183,296.891c-1.686,1.686-4.428,1.685-6.113,0.001l-1.591-1.592
		c1.362-0.914,2.646-1.966,3.831-3.152l2.622-2.621l1.252,1.252c0.816,0.816,1.266,1.902,1.266,3.057
		C142.449,294.989,141.999,296.075,141.183,296.891z M161.073,257.092l-13.777,13.766l-24.888-23.924l41.337-41.329
		c-1.76,6.162-2.672,12.605-2.672,19.184V257.092z M228.073,416.148h-36.946c1.738-8,9.472-14.893,18.525-14.893
		c8.904,0,16.421,6.355,18.421,14.693V416.148z M228.073,400.594c-5-4.48-11.205-7.232-18.26-7.232
		c-7.293,0-13.74,2.938-18.74,7.689v-34.904h37V400.594z M273.073,416.148h-36.946c1.738-8,9.472-14.893,18.525-14.893
		c8.904,0,16.421,6.355,18.421,14.693V416.148z M273.073,400.594c-5-4.48-11.205-7.232-18.26-7.232
		c-7.293,0-13.74,2.938-18.74,7.689v-34.904h37V400.594z M161.351,358.148l7.932-68h124.633l7.932,68H161.351z M302.073,256.552
		v-31.763c0-6.842-1.003-13.54-2.9-19.939l43.816,43.828l-24.875,23.924L302.073,256.552z M356.392,286.491
		c-3.258,3.259-7.592,5.053-12.201,5.053c-4.609,0-8.943-1.794-12.202-5.054l-8.231-8.231l24.883-23.924l7.753,7.754
		c3.263,3.259,5.059,7.591,5.059,12.2S359.657,283.23,356.392,286.491z"/>
	<circle cx="205.222" cy="115.847" r="9.449"/>
	<circle cx="257.979" cy="115.847" r="9.449"/>
</g>
<g>
</g>
<g>
</g>
<g>
</g>
<g>
</g>
<g>
</g>
<g>
</g>
<g>
</g>
<g>
</g>
<g>
</g>
<g>
</g>
<g>
</g>
<g>
</g>
<g>
</g>
<g>
</g>
<g>
</g>
</svg>
