<?xml version="1.0" encoding="iso-8859-1"?>
<!-- Generator: Adobe Illustrator 18.0.0, SVG Export Plug-In . SVG Version: 6.00 Build 0)  -->
<!DOCTYPE svg PUBLIC "-//W3C//DTD SVG 1.1//EN" "http://www.w3.org/Graphics/SVG/1.1/DTD/svg11.dtd">
<svg version="1.1" id="Capa_1" xmlns="http://www.w3.org/2000/svg" xmlns:xlink="http://www.w3.org/1999/xlink" x="0px" y="0px"
	 viewBox="0 0 432.391 432.391" style="enable-background:new 0 0 432.391 432.391;" xml:space="preserve">
<g>
	<path d="M385.223,216.082l-0.102,0.102l-0.005-0.005l-42.826,42.827c0,0-78.33-78.417-79.447-79.401
		c11.461-11.652,18.603-27.56,18.826-45.112c8.627-1.93,14.961-9.564,14.961-18.741c0-9.178-6.337-16.813-14.966-18.742
		c-0.259-15.099-5.572-29.354-15.108-40.762l21.158-40.858h-35.464C242.85,5.391,229.887,0,216.38,0
		c-13.507,0-26.47,5.391-35.869,15.391h-35.469l21.063,40.676c-9.727,11.534-15.145,25.949-15.39,41.087
		c-8.434,2.059-14.585,9.575-14.585,18.627c0,9.05,6.148,16.579,14.579,18.64c0.201,17.669,7.412,33.673,18.988,45.359
		c-2.481,2.158-79.392,79.33-79.392,79.33l-43.135-43.13l-33.975,33.975l20.002,7.369l7.369,20.003l28.322-28.321l15.78,15.78
		c-4.264,4.662-6.6,10.659-6.6,17.017c0,6.748,2.629,13.093,7.404,17.867c4.77,4.77,11.112,7.397,17.859,7.397
		c6.747,0,12.844-2.627,17.613-7.397L145.2,275.17v54.221h21v103h100v-103h20V274.85l25.066,24.821
		c4.77,4.77,11.235,7.397,17.981,7.397s13.15-2.627,17.921-7.398c9.602-9.613,9.862-25.096,0.73-34.988l15.592-15.574l28.328,28.32
		l7.372-20.003l20.005-7.369L385.223,216.082z M288.14,115.753c0,4.696-1.94,8.693-6.94,10.369v-20.738
		C286.2,107.061,288.14,111.057,288.14,115.753z M216.38,8c8.466,0,16.678,2.391,23.586,7.391h-47.171
		C199.702,10.391,207.914,8,216.38,8z M274.578,23.391l-15.387,29h-85.629l-15.386-29H274.578z M143.64,115.753
		c0-4.558,3.56-8.464,6.56-10.222v20.445C147.2,124.216,143.64,120.311,143.64,115.753z M158.2,98.163
		c0-13.694,5.33-26.772,14.15-37.772h87.801c8.741,11,13.049,23.999,13.049,37.772v35.49c0,31.733-25.794,57.55-57.5,57.55
		s-57.5-25.817-57.5-57.55V98.163z M175.728,185.143c11.149,8.793,25.198,14.06,40.462,14.06c15.349,0,29.47-5.325,40.648-14.207
		c2.519,1.253,8.833,9.278,9.129,9.666c-17.041,2.621-32.283,12.085-42.264,26.334c-2.174-1.202-4.67-1.891-7.326-1.891
		c-2.579,0-5.008,0.65-7.138,1.789c-9.92-14.303-25.216-23.859-42.369-26.58C167.074,194.051,172.519,187.856,175.728,185.143z
		 M211.979,249.991c-1.814,9.899-9.637,17.722-19.536,19.536C194.257,259.628,202.08,251.805,211.979,249.991z M223.57,234.299
		c0,3.966-3.227,7.193-7.193,7.193c-3.966,0-7.193-3.227-7.193-7.193c0-3.966,3.227-7.193,7.193-7.193
		C220.343,227.106,223.57,230.333,223.57,234.299z M240.311,269.527c-9.898-1.814-17.722-9.637-19.536-19.536
		C230.674,251.805,238.497,259.628,240.311,269.527z M43.75,262.83l-4.323-11.735l-11.735-4.323l19.477-19.477l16.058,16.058
		L43.75,262.83z M115.531,294.015c-3.258,3.259-7.592,5.053-12.201,5.053c-4.609,0-8.943-1.794-12.202-5.054
		c-3.263-3.263-5.061-7.6-5.061-12.21c0-4.609,1.797-8.942,5.054-12.196l9.113-9.113l24.887,23.929L115.531,294.015z
		 M130.535,278.766l-24.765-23.929l42.738-42.921c-2.052,6.609-3.308,13.488-3.308,20.397v31.543L130.535,278.766z M212.2,329.391
		v80.28c-4-4.896-11.542-8.068-18.893-8.068c-7.458,0-14.107,3.264-19.107,8.282v-80.494H212.2z M212.308,424.391h-37.021
		c1.896-8,9.469-14.98,18.51-14.98C202.839,409.411,210.412,416.391,212.308,424.391z M220.846,424.391
		c1.896-8,9.469-14.98,18.511-14.98c9.042,0,16.615,6.98,18.511,14.98H220.846z M258.2,410.127c-4-5.153-11.757-8.524-19.334-8.524
		c-7.239,0-13.666,3.079-18.666,7.847v-80.059h38V410.127z M278.2,321.391h-125v-89.078c0-10.624,3.121-21.181,8.453-30.545
		c16.916,1.543,32.248,10.621,41.58,24.745c-1.369,2.281-2.11,4.939-2.11,7.787c0,3.611,0.879,6.927,2.991,9.537
		c-12.002,4.728-20.914,16.428-20.914,30.089v3.466h4.845c12.191,0,22.825-6.784,28.333-16.774
		c5.508,9.99,16.141,16.774,28.332,16.774h3.49v-3.466c0-13.661-8.265-25.361-20.267-30.089c2.112-2.61,3.51-5.926,3.51-9.537
		c0-2.77-0.693-5.36-1.993-7.599c9.397-14.114,24.354-23.119,41.165-24.558c5.125,9.173,7.585,19.436,7.585,30.17V321.391z
		 M283.278,211.553l44.377,44.254l-25.071,23.928l-16.384-16.2v-31.223C286.2,225.249,285.355,218.245,283.278,211.553z
		 M341.571,294.015c-3.258,3.259-7.592,5.053-12.201,5.053c-4.609,0-8.943-1.794-12.202-5.054l-8.621-8.621l24.888-23.928
		l8.136,8.136C348.298,276.328,348.297,287.281,341.571,294.015z M392.965,251.195l-4.323,11.735l-19.477-19.477l16.058-16.057
		l19.477,19.476L392.965,251.195z"/>
	<circle cx="189.998" cy="123.366" r="9.449"/>
	<circle cx="242.756" cy="123.366" r="9.449"/>
</g>
<g>
</g>
<g>
</g>
<g>
</g>
<g>
</g>
<g>
</g>
<g>
</g>
<g>
</g>
<g>
</g>
<g>
</g>
<g>
</g>
<g>
</g>
<g>
</g>
<g>
</g>
<g>
</g>
<g>
</g>
</svg>
