<?xml version="1.0" encoding="iso-8859-1"?>
<!-- Generator: Adobe Illustrator 18.0.0, SVG Export Plug-In . SVG Version: 6.00 Build 0)  -->
<!DOCTYPE svg PUBLIC "-//W3C//DTD SVG 1.1//EN" "http://www.w3.org/Graphics/SVG/1.1/DTD/svg11.dtd">
<svg version="1.1" id="Capa_1" xmlns="http://www.w3.org/2000/svg" xmlns:xlink="http://www.w3.org/1999/xlink" x="0px" y="0px"
	 viewBox="0 0 402.945 402.945" style="enable-background:new 0 0 402.945 402.945;" xml:space="preserve">
<g>
	<path d="M331.706,233.817c0,0-82.441-82.697-83.88-84.224c11.544-11.671,18.738-27.641,18.952-45.265
		c8.505-2.011,14.72-9.597,14.72-18.704c0-9.02-6.109-16.541-14.498-18.631c0,0-0.267-32.479-0.202-50.267
		c0-9.224-7.509-16.727-16.74-16.727h-97.473c-9.23,0-16.74,7.504-16.74,16.729c0.008,17.815-0.364,50.272-0.364,50.272
		c-8.381,2.102-14.484,9.618-14.484,18.624c0,0.09,0.012,0.177,0.013,0.267h-0.009v28.961c0,12.287,9.997,22.284,22.285,22.284
		h1.712c2.721,4.537,5.973,8.718,9.673,12.458c-3.468,3.838-83.433,84.224-83.433,84.224c-9.844,9.854-9.843,25.881,0.001,35.725
		c4.926,4.926,11.394,7.388,17.863,7.388c6.468,0,12.939-2.463,17.863-7.388l24.032-24.031v53.893h20.29v103.54h99.92v-103.54h20.3
		v-54.333l24.471,24.471c4.923,4.923,11.39,7.384,17.859,7.384c6.468,0,12.94-2.462,17.867-7.384
		C341.55,259.699,341.551,243.673,331.706,233.817z M226.791,227.061l-21.713,17.713V225.23l25.953-63.342
		c3.033-1.554,5.93-3.334,8.667-5.323l-1.838,47.799l-19.217-1.747L226.791,227.061z M165.066,204.364l-1.826-47.484
		c2.71,1.936,5.57,3.67,8.564,5.182l25.274,61.65v20.432l-20.942-17.084l8.148-24.443L165.066,204.364z M201.388,213.136
		l-8.946-21.822l8.845-14.458l8.96,14.658L201.388,213.136z M214.009,182.331l-8.211-13.432c5.129-0.354,10.103-1.283,14.843-2.754
		L214.009,182.331z M188.679,182.134l-6.519-15.902c4.672,1.425,9.565,2.331,14.612,2.673L188.679,182.134z M220.969,81.904h7.5
		l-16.431,16.43c-0.608-1.906-0.943-3.932-0.943-6.037v-0.52L220.969,81.904z M243.515,82.358c1.901,0.581,3.567,1.696,4.835,3.166
		l-25.1,25.1c-1.808-0.766-3.477-1.795-4.966-3.034L243.515,82.358z M240.484,73.904h-78.467c-8.479,0-15.616,5.774-17.736,13.591
		h-0.583v-19.46c0-0.086,0.004-0.176,0.004-0.263c10.806-1.091,19.738-8.511,22.721-18.826h68.737
		c3.066,10.589,12.415,18.133,23.635,18.904c0,0.061,0.003,0.124,0.003,0.185v19.46h-0.578
		C256.1,79.678,248.962,73.904,240.484,73.904z M170.369,81.904h8.5l-22.844,22.844c-1.3-1.615-2.342-3.439-3.091-5.409
		L170.369,81.904z M187.869,81.904h3.536v3.464l-25.892,25.892c-1.694-0.537-3.284-1.305-4.749-2.251L187.869,81.904z
		 M273.498,85.625c0,4.616-2.734,8.559-6.7,10.289V75.346C270.764,77.074,273.498,81.014,273.498,85.625z M143.846,16.727
		c0-4.812,3.92-8.727,8.74-8.727h97.473c4.819,0,8.74,3.915,8.74,8.713c-0.014,3.795-0.115,32.068-0.05,43.116
		c-8.38-0.844-15.141-7.098-16.427-15.489l0,0c-0.299-1.952-1.978-3.394-3.953-3.394h-75.151c-1.975,0-3.654,1.442-3.953,3.394l0,0
		c-1.241,8.095-7.557,14.2-15.499,15.38C143.857,48.552,143.848,20.506,143.846,16.727z M135.698,75.35v20.558
		c-3.966-1.733-6.7-5.675-6.7-10.284C128.998,81.02,131.732,77.082,135.698,75.35z M129.002,114.852v-13.586
		c1.984,1.421,4.253,2.475,6.717,3.06c0.105,8.702,1.902,17.004,5.096,24.582C134.114,127.732,129.002,121.884,129.002,114.852z
		 M149.732,129.137c-3.854-7.719-6.034-16.413-6.034-25.611v-8.03h0.114c1.592,13.879,13.404,24.694,27.702,24.694
		c15.379,0,27.891-12.512,27.891-27.892V81.896h3.69v10.402c0,15.38,12.512,27.892,27.891,27.892
		c14.298,0,26.11-10.815,27.702-24.694h0.109v8.03c0,31.733-25.817,57.55-57.55,57.55c-19.193,0-36.21-9.453-46.671-23.938h10.583
		v-8H149.732z M76.896,263.887c-6.727-6.727-6.726-17.679,0.001-24.413l0.445-0.445l24.892,23.933l-0.925,0.925
		C94.579,270.616,83.628,270.616,76.896,263.887z M107.893,257.303L83.001,233.37l50.738-50.739
		c-1.8,6.263-2.741,12.831-2.741,19.554v32.013L107.893,257.303z M138.998,202.186c0-15.828,5.866-30.687,16.361-42.08l2.038,52.989
		l15.429-1.403l-6.026,18.078l30.278,24.7v36.936h-58.08V202.186z M197.248,299.405v80.261c-4.878-4.943-11.584-8.15-18.977-8.15
		c-7.396,0-14.105,3.21-18.983,8.156v-80.267H197.248z M196.885,394.945h-37.229c1.719-8.479,9.409-15.43,18.615-15.43
		C187.477,379.516,195.167,386.466,196.885,394.945z M205.615,394.945c1.719-8.479,9.409-15.43,18.615-15.43
		c9.206,0,16.896,6.95,18.615,15.43H205.615z M243.208,379.667c-4.878-4.944-11.585-8.151-18.978-8.151
		c-7.395,0-14.104,3.209-18.982,8.155v-80.266h37.96V379.667z M263.508,291.405h-58.43v-36.308l31.049-25.328l-6.026-18.078
		l15.429,1.403l2.02-52.522c10.313,11.447,15.958,26.097,15.958,41.613V291.405z M268.571,181.996l51.085,51.085l-23.933,24.892
		l-24.216-24.215v-31.573C271.508,195.247,270.502,188.464,268.571,181.996z M326.051,263.885
		c-6.735,6.728-17.688,6.728-24.415,0.002l-0.255-0.255l23.933-24.892l0.733,0.733C332.775,246.208,332.776,257.16,326.051,263.885z
		"/>
	<circle cx="184.399" cy="266.968" r="7.617"/>
</g>
<g>
</g>
<g>
</g>
<g>
</g>
<g>
</g>
<g>
</g>
<g>
</g>
<g>
</g>
<g>
</g>
<g>
</g>
<g>
</g>
<g>
</g>
<g>
</g>
<g>
</g>
<g>
</g>
<g>
</g>
</svg>
