<?xml version="1.0" encoding="iso-8859-1"?>
<!-- Generator: Adobe Illustrator 18.0.0, SVG Export Plug-In . SVG Version: 6.00 Build 0)  -->
<!DOCTYPE svg PUBLIC "-//W3C//DTD SVG 1.1//EN" "http://www.w3.org/Graphics/SVG/1.1/DTD/svg11.dtd">
<svg version="1.1" id="Capa_1" xmlns="http://www.w3.org/2000/svg" xmlns:xlink="http://www.w3.org/1999/xlink" x="0px" y="0px"
	 viewBox="0 0 469.96 469.96" style="enable-background:new 0 0 469.96 469.96;" xml:space="preserve">
<g>
	<path d="M365.215,301.273c0,0-82.892-83.444-83.96-84.398c2.366-2.411,4.542-5.008,6.516-7.759
		c5.247,3.488,11.351,5.332,17.72,5.332c0.936,0,1.879-0.04,2.824-0.12c14.682-1.243,26.615-12.256,29.018-26.778
		c1.632-9.787-1.396-19.677-8.255-27.139c-7.133-7.737-11.092-17.4-11.092-27.209v-1.12c0-20.191-7.276-39.683-20.544-54.883
		c-12.836-14.704-30.367-24.436-49.512-27.538L206.176,7.822l-9.217,11.242L164.428,0l-3.173,37.941l-14.501,0.539l10.689,61.435
		c-4.262,10.175-6.458,20.978-6.458,32.167v0.71c0,10.059-3.88,19.811-10.979,27.457c-5.119,5.507-8.072,12.907-8.343,20.842
		c-0.48,14.66,8.731,27.33,21.969,31.715c-0.947,0.759-1.858,1.568-2.728,2.438l-5.332,5.333l5.334,5.334
		c5.383,5.383,12.309,8.659,19.78,9.423l-65.938,65.939c-9.844,9.844-9.844,25.87,0.002,35.728
		c4.927,4.922,11.396,7.382,17.865,7.382c6.469,0,12.907-2.461,17.83-7.383l23.54-23.571v8.701l-14.79,52.83h35.79v95h46.062h8
		h45.938v-95h35.342l-15.342-54.342v-8.058l24.474,24.443c4.927,4.922,11.411,7.382,17.88,7.382c6.469,0,12.947-2.462,17.87-7.385
		C375.052,327.144,375.059,311.118,365.215,301.273z M296.985,269.642v47.317h-58v-58.245c19-1.877,34.369-16.948,36.608-36.142
		c1.056,0.931,6.204,6.214,7.692,8.066C292.129,241.621,296.985,255.473,296.985,269.642z M291.985,170.98
		c0,31.734-25.794,57.552-57.5,57.552s-57.5-25.817-57.5-57.552v-35.489c0-1.185,0.281-2.444,0.639-3.76
		c7.497,6.985,18.177,11.244,28.975,11.244c11.429,0,22.126-4.919,29.536-13.381c7.409,8.463,18.102,13.381,29.532,13.381
		c10.343,0,19.533-4.104,26.462-11.554c-0.062,1.324-0.144,2.682-0.144,4.07V170.98z M235.047,250.96h-0.25
		c-8.65,0-16.926-3.531-23.301-9.897c-0.094-0.094-0.218-0.252-0.349-0.413c-0.206-3.134-0.859-6.247-1.959-9.227
		c7.804,3.292,16.373,5.113,25.36,5.113c11.466,0,22.248-2.95,31.632-8.153C261.769,241.53,249.399,250.96,235.047,250.96z
		 M196.309,226.91c8.059,9.032,8.059,22.765,0,31.796c-3.915-4.381-6.055-9.975-6.055-15.898
		C190.254,236.886,192.394,231.292,196.309,226.91z M182.064,235.972c-0.47,2.223-0.702,4.51-0.702,6.836
		c0,8.753,3.416,16.983,9.606,23.172l5.337,5.334l5.335-5.334c4.402-4.402,7.257-9.754,8.625-15.403
		c6.117,4.638,13.719,7.448,20.719,8.153v58.229h-59v-47.317C171.985,257.64,175.48,246.074,182.064,235.972z M171.343,13.324
		l20.483,12.003l-9.71,11.839l-12.806,0.476L171.343,13.324z M186.015,45.027l20.75-25.298l34.391,34.455l-7.983,6.935
		c-15.955,13.86-35.197,24.012-55.646,29.357l-12.986,3.395l-8.33-47.737L186.015,45.027z M139.674,181.358
		c0.208-6.091,2.329-11.507,6.193-15.665c8.48-9.132,13.118-20.817,13.118-32.902v-0.71c0-10.515,2.163-20.643,6.318-30.15
		l14.231-3.716c21.633-5.655,41.997-16.395,58.876-31.058l10.591-9.197c16.394,3.194,31.326,11.801,42.41,24.499
		c11.996,13.743,18.573,31.365,18.573,49.622v1.12c0,11.824,4.711,23.413,13.206,32.627c5.175,5.63,7.458,13.067,6.234,20.41
		c-1.777,10.738-10.938,19.198-21.794,20.117c-5.608,0.474-11.065-0.943-15.618-4.014c5.096-9.322,7.972-20.009,7.972-31.363
		v-35.489c0-12.829-3.312-21.978-3.312-21.978s-3.842,6.246-5.142,8.066c-6.873,9.624-18.672,13.396-25.868,13.396
		c-10.582,0-20.366-5.298-26.178-14.172l-3.344-5.109l-3.345,5.109c-5.813,8.875-15.6,14.172-26.182,14.172
		c-10.851,0-21.891-5.501-27.474-13.688l-5.415-7.894c0,0-4.74,12.019-4.74,22.098v35.489c0,11.409,2.964,22.143,8.107,31.496
		c-1.88,1.24-6.56,4.603-15.034,3.907C149.078,205.316,139.245,194.458,139.674,181.358z M174.08,214.523
		c5.922,0,11.517,2.141,15.898,6.055c-4.382,3.915-9.976,6.056-15.898,6.056c-5.923,0-11.517-2.141-15.898-6.056
		C162.563,216.664,168.157,214.523,174.08,214.523z M110.406,331.345c-6.728-6.735-6.728-17.688-0.002-24.415l4.385-4.385
		l24.892,23.933l-4.865,4.865C128.091,338.071,117.138,338.069,110.406,331.345z M145.31,320.821l-24.877-23.933l4.519-4.512
		l9.082,9.078l5.659-5.657l-9.077-9.078l4.58-4.579l9.078,9.078l5.657-5.657l-9.077-9.078l25.799-25.83
		c-1.742,6.13-2.668,12.503-2.668,18.99v32.473L145.31,320.821z M230.985,374.96v8h-38v-8H230.985z M276.985,447.427
		c-5-5.137-11.744-8.494-19.306-8.494c-7.252,0-13.694,3.09-18.694,7.874V390.96h38V447.427z M276.251,461.96H239.23
		c1.896-8,9.469-14.98,18.511-14.98C266.782,446.979,274.355,453.96,276.251,461.96z M230.985,446.974
		c-5-4.88-11.528-8.041-18.865-8.041c-7.473,0-14.135,3.277-19.135,8.311V390.96h38V446.974z M230.692,461.96h-37.021
		c1.896-8,9.469-14.98,18.51-14.98C221.223,446.979,228.796,453.96,230.692,461.96z M276.985,382.96h-38v-8h38V382.96z
		 M159.778,366.96l11.753-42h126.461l11.752,42H159.778z M302.039,249.443l27.124,27.109l-9.001,9.008l5.66,5.657l9.011-9.009
		l4.58,4.579l-9.008,9.009l5.657,5.657l9.009-9.009l4.643,4.643l-24.923,23.933l-19.807-19.776v-31.603
		C304.985,262.766,303.993,255.958,302.039,249.443z M359.558,331.344c-6.726,6.726-17.679,6.726-24.413,0l-4.665-4.664
		l24.892-23.933l4.185,4.185C366.285,313.657,366.284,324.61,359.558,331.344z"/>
	<circle cx="208.382" cy="160.695" r="9.449"/>
	<circle cx="261.14" cy="160.695" r="9.449"/>
	<path d="M199.261,75.776c1.546,0,3.006-0.351,4.338-1.042c2.936-1.523,4.882-4.566,5.337-8.348
		c0.394-3.274-0.332-6.895-2.045-10.197c-2.846-5.485-7.838-9.029-12.718-9.029c-1.546,0-3.006,0.351-4.338,1.042
		c-2.936,1.523-4.882,4.566-5.337,8.348c-0.394,3.274,0.333,6.895,2.045,10.197C189.389,72.232,194.381,75.776,199.261,75.776z
		 M192.441,57.507c0.132-1.098,0.535-1.921,1.079-2.203c0.186-0.097,0.4-0.144,0.654-0.144c1.538,0,4.029,1.652,5.617,4.713
		c0.966,1.862,1.405,3.887,1.204,5.557c-0.132,1.098-0.535,1.921-1.079,2.203c-1.309,0.679-4.42-1.002-6.271-4.569
		C192.679,61.202,192.24,59.176,192.441,57.507z"/>
	<path d="M260.178,272.96h-7.193v8h6.877c1.531,5,6.287,8.883,11.908,8.883c5.621,0,10.376-3.883,11.908-8.883h7.308v-8h-7.624
		c-1.796-5-6.308-7.978-11.592-7.978S261.974,267.96,260.178,272.96z M276.2,277.364c0,2.443-1.987,4.431-4.43,4.431
		c-2.443,0-4.43-1.988-4.43-4.431s1.987-4.43,4.43-4.43C274.213,272.934,276.2,274.921,276.2,277.364z"/>
</g>
<g>
</g>
<g>
</g>
<g>
</g>
<g>
</g>
<g>
</g>
<g>
</g>
<g>
</g>
<g>
</g>
<g>
</g>
<g>
</g>
<g>
</g>
<g>
</g>
<g>
</g>
<g>
</g>
<g>
</g>
</svg>
