<?xml version="1.0" encoding="iso-8859-1"?>
<!-- Generator: Adobe Illustrator 18.0.0, SVG Export Plug-In . SVG Version: 6.00 Build 0)  -->
<!DOCTYPE svg PUBLIC "-//W3C//DTD SVG 1.1//EN" "http://www.w3.org/Graphics/SVG/1.1/DTD/svg11.dtd">
<svg version="1.1" id="Capa_1" xmlns="http://www.w3.org/2000/svg" xmlns:xlink="http://www.w3.org/1999/xlink" x="0px" y="0px"
	 viewBox="0 0 455.702 455.702" style="enable-background:new 0 0 455.702 455.702;" xml:space="preserve">
<g>
	<circle cx="201.75" cy="146.723" r="9.449"/>
	<circle cx="254.507" cy="146.723" r="9.449"/>
	<path d="M358.568,287.122l-84.267-84.088c11.51-11.67,18.674-27.622,18.861-45.221c8.681-1.854,15.218-9.575,15.218-18.782
		c0-9.212-6.538-16.939-15.22-18.793c-0.071-5.229-0.768-10.39-2.049-15.386l8.919-6.053l10.177-45.75l-29.1-38.346L227.679,0
		l-53.417,15.028l-29.081,38.825l10.188,44.932l8.891,6.038c-1.306,5.075-2.008,10.319-2.064,15.625
		c-8.271,2.174-14.315,9.717-14.315,18.584c0,8.861,6.043,16.399,14.312,18.573c0.126,17.155,6.814,33.273,18.88,45.491
		c-2.92,2.551-83.939,84.026-83.939,84.026c-4.775,4.77-7.405,11.112-7.405,17.859c0,6.748,2.63,13.091,7.405,17.861
		c4.921,4.914,11.383,7.371,17.847,7.371c6.463,0,12.927-2.457,17.848-7.372l24.352-24.337v54.198h21v103h98v-103h21v-55.537
		l25.692,25.676c4.918,4.918,11.38,7.377,17.845,7.377c6.463,0,12.928-2.458,17.85-7.375c4.776-4.77,7.406-11.113,7.406-17.861
		C365.973,298.234,363.343,291.891,358.568,287.122z M293.181,128.574c4.204,1.626,7.2,5.698,7.2,10.458
		c0,4.756-2.996,8.824-7.2,10.448V128.574z M162.181,149.105c-3.74-1.826-6.3-5.668-6.3-10.074c0-4.409,2.56-8.255,6.3-10.083
		V149.105z M157.181,287.194l-30.007,29.988c-6.723,6.715-17.663,6.715-24.387,0c-3.262-3.259-5.059-7.592-5.059-12.2
		c0-4.609,1.796-8.941,5.06-12.201l36.357-36.34l18.035,17.324V287.194z M157.181,255.512v7.16l-12.376-11.888l15.355-15.347
		C158.192,241.906,157.181,248.643,157.181,255.512z M162.473,93.939L153.8,55.69l25.239-33.695l48.663-13.691l48.671,13.395
		l25.22,33.234l-8.683,39.031l-4.379,2.972c-2.51-6.313-6.004-12.232-10.395-17.531l-0.049-22.247l-2.908-0.82
		c-15.549-4.383-31.665-6.605-47.901-6.605c-16.167,0-32.218,2.204-47.706,6.551l-2.936,0.824l0.127,22.867
		c-4.165,5.141-7.497,10.856-9.918,16.934L162.473,93.939z M245.549,69.368c0.005-0.172-0.098-0.341-0.098-0.515
		c0-3.904-1.074-7.512-3.192-10.468c3.258,0.283,5.922,0.664,9.922,1.135c0,3.648,0,7.297,0,10.945c3,0.707,7,1.472,11,2.179
		c0-3.68,0-7.359,0-11.039c2,0.504,4.626,1.039,6.918,1.641l0.023,10.581c-2.313-0.358-4.941-0.757-6.941-1.183
		c0,3.354,0,6.707,0,10.06c-4-0.618-8-1.135-11-1.555c0-3.562,0-7.123,0-10.685C249.181,70.073,247.677,69.703,245.549,69.368z
		 M237.327,68.853c0,5.533-4.505,10.034-10.042,10.034c-5.537,0-10.043-4.502-10.043-10.034s4.505-10.034,10.043-10.034
		C232.822,58.819,237.327,63.32,237.327,68.853z M209.334,69.397c-2.064,0.328-4.153,0.688-6.153,1.069c0,3.56,0,7.119,0,10.679
		c-4,0.419-8,0.934-12,1.551c0-3.35,0-6.701,0-10.051c-2,0.421-4.367,0.814-6.649,1.169l-0.157-10.624
		c2.289-0.598,4.806-1.128,6.806-1.628c0,3.695,0,7.389,0,11.083c4-0.707,8-1.472,12-2.179c0-3.658,0-7.316,0-10.974
		c3-0.458,6.299-0.83,9.493-1.107c-2.119,2.956-3.406,6.564-3.406,10.469C209.267,69.037,209.328,69.215,209.334,69.397z
		 M170.181,157.112v-35.98c0-9.655,2.448-19.096,7.003-27.466l4.475-0.97c29.988-6.502,61.674-6.483,91.652,0.055l4.869,1.061
		v-0.004c0,0,0.402,0.559,0.529,0.784c4.627,8.15,6.471,17.192,6.471,26.54v35.98c0,31.684-25.794,57.46-57.5,57.46
		c-15.36,0-29.801-5.977-40.662-16.829C176.161,186.885,170.181,172.455,170.181,157.112z M258,215.109
		c-4.92,12.189-16.868,20.593-30.739,20.593c-13.869,0-25.868-8.584-30.845-21.044c9.486,5.163,20.162,7.914,31.265,7.914
		C238.617,222.572,248.927,219.865,258,215.109z M187.136,447.702c1.861-9,9.346-14.48,18.284-14.48
		c8.938,0,16.423,5.48,18.284,14.48H187.136z M186.181,432.223v-79.521h37v79.351c-5-4.616-11.206-7.424-18.41-7.424
		C197.477,424.628,191.181,427.504,186.181,432.223z M232.136,447.702c1.861-9,9.346-14.48,18.284-14.48
		c8.938,0,16.423,5.48,18.284,14.48H232.136z M231.181,431.938v-79.237h37v79.521c-4-4.719-11.357-7.594-18.65-7.594
		C242.386,424.628,236.181,427.39,231.181,431.938z M289.181,344.702h-124v-89.19c0-13.76,4.586-26.948,13.263-38.142
		c2.216-2.863,4.943-5.693,8.118-8.444c3.339,19.997,20.405,34.775,40.789,34.775c20.503,0,37.693-14.954,40.608-35.026
		c0.07-0.055,0.14-0.11,0.21-0.165c2.677,2.353,5.193,5.016,7.631,8.073c8.754,10.921,13.381,24.382,13.381,38.928V344.702z
		 M293.887,233.786l16.103,16.095l-12.81,12.31v-6.679C297.181,247.961,296.055,240.669,293.887,233.786z M352.914,317.182
		c-6.728,6.719-17.667,6.719-24.386,0.001l-31.348-31.328v-12.569l18.47-17.749l37.264,37.244c3.263,3.258,5.059,7.591,5.059,12.2
		C357.973,309.59,356.177,313.923,352.914,317.182z"/>
	<rect x="199.181" y="291.702" width="11" height="12"/>
	<rect x="210.181" y="303.702" width="12" height="11"/>
	<rect x="222.181" y="291.702" width="11" height="12"/>
	<rect x="245.181" y="291.702" width="11" height="12"/>
	<rect x="233.181" y="303.702" width="12" height="11"/>
	<path d="M240.181,273.702h39v-26h-39V273.702z M248.181,255.702h23v10h-23V255.702z"/>
</g>
<g>
</g>
<g>
</g>
<g>
</g>
<g>
</g>
<g>
</g>
<g>
</g>
<g>
</g>
<g>
</g>
<g>
</g>
<g>
</g>
<g>
</g>
<g>
</g>
<g>
</g>
<g>
</g>
<g>
</g>
</svg>
