<?xml version="1.0" encoding="iso-8859-1"?>
<!-- Generator: Adobe Illustrator 18.0.0, SVG Export Plug-In . SVG Version: 6.00 Build 0)  -->
<!DOCTYPE svg PUBLIC "-//W3C//DTD SVG 1.1//EN" "http://www.w3.org/Graphics/SVG/1.1/DTD/svg11.dtd">
<svg version="1.1" id="Capa_1" xmlns="http://www.w3.org/2000/svg" xmlns:xlink="http://www.w3.org/1999/xlink" x="0px" y="0px"
	 viewBox="0 0 400.465 400.465" style="enable-background:new 0 0 400.465 400.465;" xml:space="preserve">
<g>
	<path d="M319.677,199.079l52.088-84.963l-58.738,80.516l0.001,0.001l-21.317,31.825c-17.73-17.829-78.124-78.555-79.02-79.349
		c11.545-11.673,18.738-27.646,18.95-45.273c8.5-2.017,14.714-9.599,14.714-18.691c0-9.095-6.217-16.68-14.721-18.694
		C231.041,28.813,201.886,0,166.109,0c-35.776,0-64.932,28.813-65.524,64.451c-8.504,2.014-14.72,9.599-14.72,18.693
		c0,9.092,6.212,16.674,14.712,18.691c0.211,17.626,7.405,33.599,18.949,45.272c-3.627,3.204-83.43,84.23-83.43,84.23
		c-4.77,4.77-7.397,11.111-7.397,17.857c0,6.747,2.627,13.089,7.397,17.858c4.774,4.775,11.12,7.405,17.867,7.405
		c6.748,0,13.092-2.631,17.859-7.405l24.032-24.032v53.904h20.3v103.54h99.91v-103.54h20.3v-54.344l24.471,24.471
		c0.736,0.737,1.514,1.415,2.321,2.048l-9.676,14.448l6.647,4.451l10.052-15.011c2.699,0.965,5.572,1.468,8.523,1.468
		c6.748,0,13.091-2.63,17.86-7.404c4.77-4.77,7.397-11.111,7.397-17.858c0-6.316-2.303-12.278-6.512-16.926L319.677,199.079
		L319.677,199.079z M231.661,72.87c3.962,1.732,6.694,5.67,6.694,10.274s-2.731,8.542-6.694,10.274V72.87z M100.557,93.418
		c-3.961-1.732-6.692-5.669-6.692-10.274s2.731-8.542,6.692-10.274V93.418z M201.453,20.18c13.42,10.477,22.095,26.756,22.2,45.037
		c-9.163-3.898-16.353-11.034-20.296-20.198C199.941,37.082,199.309,28.422,201.453,20.18z M136.732,16.088
		C145.339,10.958,155.383,8,166.109,8c10.314,0,19.995,2.741,28.376,7.512c-3.48,10.735-2.974,22.22,1.522,32.669
		c4.306,10.008,11.812,18.02,21.389,22.943l-7.633,5.017c-4.157-4.906-10.357-8.029-17.276-8.029
		c-12.166,0-22.118,9.646-22.619,21.691h-7.518c-0.501-12.045-10.453-21.691-22.619-21.691c-6.546,0-12.449,2.795-16.587,7.251
		l-7.834-5.149c8.777-4.972,15.667-12.617,19.719-22.034C139.444,37.919,140.011,26.657,136.732,16.088z M207.131,90.757
		c0,8.074-6.569,14.644-14.643,14.644c-8.074,0-14.644-6.569-14.644-14.644s6.569-14.644,14.644-14.644
		C200.562,76.113,207.131,82.683,207.131,90.757z M154.375,90.757c0,8.074-6.569,14.644-14.644,14.644
		c-8.075,0-14.644-6.569-14.644-14.644s6.569-14.644,14.644-14.644C147.805,76.113,154.375,82.683,154.375,90.757z M129.786,20.951
		c1.909,8.009,1.203,16.379-2.106,24.069c-3.771,8.763-10.508,15.675-19.101,19.672C108.84,47.07,117.049,31.343,129.786,20.951z
		 M108.557,101.042V75.351l10.257,6.742c-1.11,2.671-1.727,5.597-1.727,8.664c0,12.485,10.158,22.644,22.644,22.644
		c10.025,0,18.544-6.551,21.515-15.596h9.728c2.97,9.044,11.49,15.596,21.515,15.596c12.486,0,22.643-10.158,22.643-22.644
		c0-2.697-0.476-5.284-1.345-7.685l9.875-6.491v24.461c0,31.734-25.818,57.552-57.552,57.552h-0.001
		C134.375,158.594,108.557,132.776,108.557,101.042z M166.109,262.539l-13.912-16.694l13.912-45.118l13.913,45.118L166.109,262.539z
		 M166.105,181.368l-17.034-17.034c5.437,1.465,11.145,2.259,17.038,2.259c5.891,0,11.598-0.794,17.033-2.258L166.105,181.368z
		 M157.01,183.587l-16.472,7.24l-18.091-35.516c0.996-0.975,2.034-1.916,3.101-2.831C126.073,152.895,157.01,183.587,157.01,183.587
		z M206.672,152.479c0.992,0.852,1.967,1.746,2.921,2.677l-18.17,35.671l-16.299-7.164
		C175.125,183.663,206.148,152.893,206.672,152.479z M66.165,261.398c-3.259,3.263-7.592,5.06-12.201,5.06
		c-4.61,0-8.947-1.798-12.211-5.061c-3.258-3.259-5.053-7.592-5.053-12.202c0-4.609,1.795-8.942,5.053-12.201l9.11-9.11
		l24.888,23.929L66.165,261.398z M95.855,199.694v32.013l-14.446,14.446l-24.888-23.929l42.07-42.07
		C96.794,186.414,95.855,192.976,95.855,199.694z M103.855,288.925v-89.23c0-13.983,4.594-27.197,12.894-37.944l20.09,39.44
		l24.009-10.552l-17.575,56.995l18.861,22.632v18.659H103.855z M124.629,392.465c1.91-8.694,9.473-14.64,18.501-14.64
		c9.029,0,16.591,5.946,18.501,14.64H124.629z M162.105,377.601c-4.878-4.816-11.583-7.776-18.976-7.776
		c-7.392,0-14.097,2.96-18.975,7.776v-80.676h37.95V377.601z M170.587,392.465c1.91-8.694,9.473-14.64,18.502-14.64
		s16.591,5.946,18.501,14.64H170.587z M208.065,377.602c-4.878-4.817-11.584-7.777-18.976-7.777c-7.396,0-14.105,2.963-18.984,7.784
		v-80.685h37.96V377.602z M228.365,288.925h-58.23v-18.72l18.81-22.571l-17.535-56.864l23.711,10.421l20.187-39.628
		c8.457,10.862,13.057,24.137,13.057,38.132V288.925z M233.435,179.522l42.696,42.695l-24.888,23.929l-14.878-14.878v-31.574
		C236.365,192.761,235.361,185.983,233.435,179.522z M290.904,261.398c-3.259,3.263-7.592,5.059-12.201,5.059
		c-4.61,0-8.947-1.797-12.21-5.06l-9.592-9.592l24.888-23.929l9.118,9.118c3.259,3.259,5.053,7.592,5.053,12.201
		C295.96,253.805,294.165,258.138,290.904,261.398z"/>
	<circle cx="139.731" cy="90.757" r="5.663"/>
	<circle cx="192.488" cy="90.757" r="5.663"/>
	<rect x="114.535" y="208.805" width="31" height="8"/>
</g>
<g>
</g>
<g>
</g>
<g>
</g>
<g>
</g>
<g>
</g>
<g>
</g>
<g>
</g>
<g>
</g>
<g>
</g>
<g>
</g>
<g>
</g>
<g>
</g>
<g>
</g>
<g>
</g>
<g>
</g>
</svg>
