<?xml version="1.0" encoding="iso-8859-1"?>
<!-- Generator: Adobe Illustrator 18.0.0, SVG Export Plug-In . SVG Version: 6.00 Build 0)  -->
<!DOCTYPE svg PUBLIC "-//W3C//DTD SVG 1.1//EN" "http://www.w3.org/Graphics/SVG/1.1/DTD/svg11.dtd">
<svg version="1.1" id="Capa_1" xmlns="http://www.w3.org/2000/svg" xmlns:xlink="http://www.w3.org/1999/xlink" x="0px" y="0px"
	 viewBox="0 0 400.174 400.174" style="enable-background:new 0 0 400.174 400.174;" xml:space="preserve">
<g>
	<circle cx="199.943" cy="234.389" r="6.04"/>
	<circle cx="199.943" cy="256.446" r="6.04"/>
	<circle cx="188.919" cy="90.621" r="9.453"/>
	<circle cx="241.676" cy="90.621" r="9.453"/>
	<path d="M345.965,231.283c0,0-81.484-81.692-83.72-84.095c11.444-11.772,18.521-27.811,18.565-45.48
		c8.514-2.008,14.734-9.592,14.734-18.704c0-9.122-6.234-16.714-14.761-18.712C280.12,28.73,251.017,0,215.315,0
		c-35.7,0-64.801,28.726-65.468,64.284c-8.551,1.981-14.801,9.576-14.801,18.721c0,9.135,6.238,16.722,14.774,18.713
		c0.046,17.655,7.115,33.681,18.545,45.45c-2.041,2.396-33.57,34.336-47.637,48.571c0.195-0.97,0.3-1.972,0.3-2.999
		c0-8.385-6.819-15.207-15.202-15.207c-8.382,0-15.202,6.822-15.202,15.207c0,3.287,1.059,6.326,2.839,8.816
		c-19.083,5.055-33.573,21.516-35.703,41.619H46.815v8h31.137c0.608,6.387,3.247,12.092,7.449,15.947l0.214,0.195
		c0.179,0.168,0.36,0.333,0.543,0.494l0.399,0.364h0.021c4.8,4.064,10.758,6.095,16.684,6.095c6.473,0,12.908-2.423,17.753-7.268
		l15.809-15.827h7.991v46h21v103h99v-103h21v-54.598l24.41,24.419c4.843,4.849,11.277,7.275,17.752,7.275
		c5.925,0,11.883-2.032,16.685-6.097h0.087l1.162-1.12c4.741-4.569,7.386-10.807,7.448-17.563
		C353.421,242.681,350.726,236.044,345.965,231.283z M280.815,72.706c3.983,1.724,6.73,5.672,6.73,10.299s-2.747,8.575-6.73,10.298
		V72.706z M149.815,93.319c-4.005-1.713-6.77-5.669-6.77-10.314c0-4.646,2.765-8.602,6.77-10.315V93.319z M252.704,21.877
		c6.607,5.673,11.92,12.811,15.42,20.915c-8.831-1.366-15.621-9-15.621-18.212C252.503,23.664,252.575,22.763,252.704,21.877z
		 M215.315,8c11.064,0,21.403,3.15,30.183,8.59c-6.057,10.894-17.554,17.775-30.203,17.775c-12.635,0-24.125-6.874-30.191-17.758
		C193.89,11.157,204.239,8,215.315,8z M177.895,21.903c0.126,0.878,0.197,1.769,0.197,2.677c0,9.199-6.771,16.826-15.584,18.207
		C166.002,34.697,171.303,27.571,177.895,21.903z M157.815,101.544V65.527c0-5.006,0.645-9.864,1.852-14.497
		c12.648-0.008,23.243-8.947,25.821-20.841c7.813,7.66,18.437,12.176,29.807,12.176c11.375,0,22.001-4.445,29.813-12.104
		c2.58,11.899,13.181,20.913,25.837,20.913c0.006,0,0.012,0,0.017,0c1.207,4,1.853,9.347,1.853,14.353v36.016
		c0,31.721-25.794,57.527-57.5,57.527S157.815,133.264,157.815,101.544z M230.231,175.765c0.364-1.348,0.554-2.744,0.554-4.151
		c0-2.129-0.443-4.2-1.243-6.119c7.286-1.621,14.118-4.454,20.273-8.285v30.087L230.231,175.765z M232.057,186.124l-13.243,22.648
		v-21.745c2.828-0.73,5.418-2.227,7.455-4.312L232.057,186.124z M199.665,176.242l-19.851,11.202v-30.876
		c6.19,4.01,13.092,7.001,20.476,8.743c-0.848,1.965-1.316,4.101-1.316,6.303C198.975,173.224,199.219,174.776,199.665,176.242z
		 M203.856,183.063c1.921,1.854,4.304,3.219,6.958,3.924v21.696l-12.53-22.475L203.856,183.063z M105.825,185.533
		c3.971,0,7.202,3.233,7.202,7.207c0,3.974-3.23,7.206-7.202,7.206s-7.202-3.233-7.202-7.206
		C98.624,188.766,101.854,185.533,105.825,185.533z M115.357,261.346c-6.607,6.607-17.582,6.584-24.466-0.051l-0.607-0.581
		c-2.258-2.34-3.755-5.756-4.263-9.539h39.496L115.357,261.346z M145.615,243.174c-1.112,0-79.792,0-79.792,0
		c2.529-19.838,19.498-35.228,40.003-35.228c18.668,0,34.409,12.755,38.989,30.01C144.815,237.956,145.69,241.737,145.615,243.174z
		 M144.815,199.614v20.149c-5.214-7.108-12.316-12.743-20.566-16.159l23.252-23.263
		C145.745,186.525,144.815,192.994,144.815,199.614z M152.815,289.174v-38h11v-8h-9.924c-0.223-2.107-0.59-4.17-1.076-6.188v-37.372
		c0-17.06,6.859-33.024,19-44.728v46.259l19.425-10.962l19.575,34.715v40.288l-23.732,23.989H152.815z M210.815,276.502v12.672
		h-12.582L210.815,276.502z M174.53,392.174c1.861-9,9.346-14.48,18.285-14.48c8.938,0,16.423,5.48,18.284,14.48H174.53z
		 M211.815,375.675c-5-4.616-11.706-7.424-18.91-7.424c-7.293,0-14.09,2.876-19.09,7.595v-78.671h38V375.675z M214.885,179.534
		c-4.361,0-7.91-3.553-7.91-7.92c0-1.795,0.607-3.505,1.692-4.879c2.186,0.221,4.404,0.336,6.648,0.336
		c1.965,0,3.906-0.103,5.827-0.273c1.054,1.368,1.643,3.056,1.643,4.817c0,1.365-0.353,2.71-1.026,3.898
		c-1.34,2.38-3.863,3.919-6.585,4.015L214.885,179.534z M218.815,276.502l12.751,12.672h-12.751V276.502z M219.53,392.174
		c1.861-9,9.346-14.48,18.285-14.48c8.938,0,16.423,5.48,18.284,14.48H219.53z M256.815,375.845c-5-4.719-11.357-7.595-18.65-7.595
		c-7.144,0-14.35,2.762-18.35,7.31v-78.387h37V375.845z M277.815,289.174h-34.777l-24.223-23.989v-40.148l20.226-34.801
		l18.774,11.055v-47.296c12.759,11.788,20,28.13,20,45.619V289.174z M285.815,231.261v-31.646c0-6.934-1.028-13.702-2.957-20.151
		l43.64,43.66l-24.887,23.939L285.815,231.261z M340.692,260.964l-0.343,0.331c-6.887,6.638-17.861,6.659-24.465,0.047l-8.617-8.621
		l24.887-23.939l8.152,8.156c3.254,3.254,5.096,7.802,5.053,12.479C345.318,253.846,343.665,257.928,340.692,260.964z"/>
</g>
<rect x="343.447" y="267.138" style="fill:none;stroke:#FF0000;stroke-width:0.25;stroke-miterlimit:10;" width="2.516" height="1.969"/>
<g>
</g>
<g>
</g>
<g>
</g>
<g>
</g>
<g>
</g>
<g>
</g>
<g>
</g>
<g>
</g>
<g>
</g>
<g>
</g>
<g>
</g>
<g>
</g>
<g>
</g>
<g>
</g>
<g>
</g>
</svg>
