<?xml version="1.0" encoding="iso-8859-1"?>
<!-- Generator: Adobe Illustrator 18.0.0, SVG Export Plug-In . SVG Version: 6.00 Build 0)  -->
<!DOCTYPE svg PUBLIC "-//W3C//DTD SVG 1.1//EN" "http://www.w3.org/Graphics/SVG/1.1/DTD/svg11.dtd">
<svg version="1.1" id="Capa_1" xmlns="http://www.w3.org/2000/svg" xmlns:xlink="http://www.w3.org/1999/xlink" x="0px" y="0px"
	 viewBox="0 0 406 406" style="enable-background:new 0 0 406 406;" xml:space="preserve">
<g>
	<path d="M371.682,307.345c8.284,0,15.063-6.74,15.063-15.024c0-8.284-6.72-15.11-15.005-15.11c-5.698,0-10.646,2.79-13.192,7.79
		h-18.574v12h-11.562c-10.846,0-19.438,8.861-19.438,19.756v37.87c0,9.415-8.044,17.374-17.292,17.374h-14.708v-14h20V252.432
		l23.551,23.543c5.313,5.313,12.381,8.239,19.898,8.239c7.516,0,14.583-2.926,19.896-8.238c5.316-5.317,8.246-12.383,8.246-19.898
		c0-7.515-2.928-14.579-8.244-19.891l-27.652-27.652l-2.09,2.01c0,0-52.161-52.464-53.275-53.625
		c12.174-12.641,19.671-29.804,19.671-48.698V45.293C296.974,20.181,276.569,0,251.457,0h-49.443
		c-25.113,0-45.039,20.181-45.039,45.293v62.929c0,18.945,7.297,36.15,19.529,48.8c-1.718,1.778-50.444,50.874-50.444,50.874
		l-1.831-1.724l-18.481,18.463l-7.882-7.872c-2.977-2.991-6.954-4.638-11.189-4.638c-2.86,0-5.594,0.767-7.987,2.174l-32.683-32.682
		c-5.516-5.515-14.491-5.515-20.005,0l-6.746,6.746l5.656,5.657l6.747-6.746c2.396-2.396,6.295-2.396,8.691,0l32.685,32.686
		c-1.409,2.398-2.177,5.127-2.177,7.979c0,4.222,1.647,8.194,4.637,11.184l12.859,12.86c-0.035,0.574-0.058,1.151-0.058,1.731
		c0,7.514,2.928,14.581,8.245,19.898c5.313,5.312,12.377,8.238,19.894,8.238c0.58,0,1.155-0.023,1.729-0.058l5.751,5.751
		c3.083,3.082,7.247,4.623,11.295,4.623c0.551,0,0.765-0.034,1.765-0.091v62.549c0,13.752,11.364,25.374,25.088,25.374h14.68
		l0.04,26h100.191v-26h14.708c13.818,0,25.292-11.384,25.292-25.374v-37.87c0-6.484,5.003-11.756,11.438-11.756h11.562v4.466
		c-11,4.531-18,15.43-18,28.131V406h60v-68.402c0-12.701-8-23.601-19-28.131v-4.867C365.974,306.323,368.47,307.345,371.682,307.345
		z M371.759,285.297c3.873,0,7.024,3.151,7.024,7.024c0,3.873-3.151,7.024-7.024,7.024c-3.873,0-7.024-3.151-7.024-7.024
		C364.735,288.448,367.886,285.297,371.759,285.297z M332.558,219.74l22.107,22.106c3.805,3.802,5.9,8.856,5.9,14.232
		c0,5.378-2.096,10.435-5.902,14.24c-3.801,3.802-8.857,5.896-14.237,5.896s-10.435-2.094-14.237-5.896l-22.665-22.664
		L332.558,219.74z M324.687,216.091l-27.832,26.768l-0.113-37.342c0-7.049-1.079-13.931-3.043-20.474L324.687,216.091z
		 M288.974,205.516V214h-21v-48.773c1-0.916,2.517-1.859,3.721-2.855C282.838,173.954,288.974,189.219,288.974,205.516z
		 M164.974,108.223V45.293C164.974,24.592,181.311,8,202.013,8h49.443c20.702,0,37.518,16.592,37.518,37.293v62.929
		c0,34.334-27.666,62.266-62,62.266S164.974,142.556,164.974,108.223z M259.974,170.23V214h-64v-42.736
		c9,4.618,19.873,7.225,30.992,7.225C238.891,178.488,249.974,175.493,259.974,170.23z M164.974,205.516
		c0-16.332,6.146-31.488,17.372-43.054c1.802,1.485,3.628,2.878,5.628,4.181V214h-23V205.516z M159.707,185.605
		c-1.864,6.362-2.733,13.041-2.733,19.911v31.702l-24.917-23.775L159.707,185.605z M81.151,233.468
		c-1.479-1.479-2.293-3.441-2.293-5.526c0-2.085,0.815-4.047,2.3-5.533c1.465-1.472,3.424-2.282,5.516-2.282
		c2.091,0,4.05,0.811,5.521,2.289l7.878,7.878l-3.531,3.531c-2.621,2.619-4.659,5.665-6.055,8.979L81.151,233.468z M140.615,281.888
		c-3.045,3.045-7.999,3.045-11.044,0l-2.225-2.225c3.315-1.394,6.362-3.43,8.982-6.049l3.529-3.529l0.761,0.763
		c1.477,1.474,2.29,3.433,2.29,5.518C142.908,278.451,142.094,280.411,140.615,281.888z M130.671,267.957
		c-3.802,3.801-8.858,5.895-14.237,5.895c-5.379,0-10.436-2.094-14.237-5.895c-3.806-3.806-5.902-8.864-5.902-14.241
		c0-5.376,2.095-10.431,5.902-14.233l22.105-22.105l29.033,27.915L130.671,267.957z M176.974,372h-14.912
		c-9.388,0-17.088-7.958-17.088-17.374v-65.755c0-0.408,0.926-0.84,1.41-1.323c2.992-2.985,4.581-6.957,4.581-11.182
		s-1.677-8.196-4.661-11.174l-0.529-0.764l11.199-10.967V358h20V372z M185.245,398c1.896-8,9.469-14.979,18.511-14.979
		c9.042,0,16.615,6.979,18.511,14.979H185.245z M222.974,382.805c-5-4.823-11.589-7.788-18.987-7.788
		c-7.411,0-14.013,2.974-19.013,7.812V358h38V382.805z M231.204,398c1.896-8,9.469-14.979,18.511-14.979
		c9.042,0,16.615,6.979,18.511,14.979H231.204z M268.974,382.844c-5-4.847-11.61-7.827-19.028-7.827
		c-7.39,0-13.972,2.958-18.972,7.773V358h38V382.844z M164.974,350V222h124v128H164.974z M347.974,293h7v14h-7V293z
		 M373.974,337.598V398h-44v-60.402c0-12.34,9.66-22.379,22-22.379C364.314,315.219,373.974,325.258,373.974,337.598z"/>
	<path d="M196.974,295h60v-62h-60V295z M204.974,241h44v10h-44V241z M204.974,259h44v28h-44V259z"/>
	<path d="M272.974,80h-94v34h94V80z M186.974,106V88h23.156l-18.772,18H186.974z M202.672,106l18.772-18h10.733l-18.772,18H202.672z
		 M224.72,106l18.772-18h17.033l-18.772,18H224.72z M264.974,106h-11.907l11.907-11.05V106z"/>
	<circle cx="191.695" cy="33.979" r="6.037"/>
	<circle cx="226.735" cy="33.979" r="6.037"/>
	<circle cx="260.988" cy="33.979" r="6.037"/>
</g>
<g>
</g>
<g>
</g>
<g>
</g>
<g>
</g>
<g>
</g>
<g>
</g>
<g>
</g>
<g>
</g>
<g>
</g>
<g>
</g>
<g>
</g>
<g>
</g>
<g>
</g>
<g>
</g>
<g>
</g>
</svg>
