<?xml version="1.0" ?><!DOCTYPE svg  PUBLIC '-//W3C//DTD SVG 1.1//EN'  'http://www.w3.org/Graphics/SVG/1.1/DTD/svg11.dtd'><svg height="78px" id="Layer_1" style="enable-background:new 0 0 78 78;" version="1.1" viewBox="0 0 78 78" width="78px" xml:space="preserve" xmlns="http://www.w3.org/2000/svg" xmlns:xlink="http://www.w3.org/1999/xlink"><path d="M39,0C20.773,0,6,14.773,6,33c0,13.415,8.008,24.951,19.5,30.111V64.5C25.5,71.925,31.575,78,39,78  s13.5-6.075,13.5-13.5v-1.389C63.992,57.951,72,46.415,72,33C72,14.773,57.227,0,39,0z M40.799,59.934  C40.203,59.973,39.605,60,39,60s-1.203-0.027-1.799-0.066V40.459l3.598-0.002V59.934z M43.799,59.564V32.358h-3v5.099l-3.598,0.002  v-5.101h-3v27.206C21.596,57.293,12,46.249,12,33C12,18.112,24.112,6,39,6s27,12.112,27,27C66,46.249,56.404,57.293,43.799,59.564z   M29.101,24.257c-4.467,0-8.101,3.634-8.101,8.101s3.634,8.102,8.102,8.102l2.146-0.002l-0.002-3l-2.146,0.002  c-2.813,0-5.101-2.288-5.101-5.102c0-2.813,2.288-5.101,5.101-5.101s5.101,2.288,5.101,5.101h3  C37.201,27.891,33.567,24.257,29.101,24.257z M48.899,24.257c-4.467,0-8.101,3.634-8.101,8.101h3c0-2.813,2.288-5.101,5.101-5.101  S54,29.545,54,32.357c0,2.715-2.121,4.952-4.826,5.094c-0.063,0.003-0.126,0.006-0.189,0.007l-0.097,0.001l0.001,0.031  c-0.511-0.036-1.156-0.033-1.966-0.031l0.008,3c0.521-0.001,1.568-0.003,1.969-0.003v0.003c0.143,0,0.284-0.005,0.428-0.012  C53.63,40.223,57,36.669,57,32.357C57,27.891,53.366,24.257,48.899,24.257z" style="fill:#333F4F;"/></svg>