<svg width="640" height="480" xmlns="http://www.w3.org/2000/svg">
 <!-- Created with SVG-edit - http://svg-edit.googlecode.com/ -->
 <g>
  <title>Layer 1</title>
  <path id="svg_1" d="m143.36792,209.484985q46.612091,32.012299 93.115784,0m-83.014023,-63.224579c0,-4.948517 4.011642,-8.958084 8.958847,-8.958084c4.947845,0 8.958099,4.009567 8.958099,8.958084c0,4.946655 -4.010254,8.95813 -8.958099,8.95813c-4.947205,0 -8.958847,-4.011475 -8.958847,-8.95813m55.103683,0c0,-4.948517 4.011475,-8.958084 8.958008,-8.958084c4.947357,0 8.958954,4.009567 8.958954,8.958084c0,4.946655 -4.011597,8.95813 -8.958954,8.95813c-4.946533,0 -8.958008,-4.011475 -8.958008,-8.95813m-104.593369,25.719604l0,0c0,-47.496552 38.503464,-86.000015 86.000015,-86.000015c47.49649,0 86,38.503464 86,86.000015c0,47.49649 -38.50351,86 -86,86c-47.496552,0 -86.000015,-38.50351 -86.000015,-86zm0,0l0,0c0,-47.496552 38.503464,-86.000015 86.000015,-86.000015c47.49649,0 86,38.503464 86,86.000015c0,47.49649 -38.50351,86 -86,86c-47.496552,0 -86.000015,-38.50351 -86.000015,-86z" stroke-width="5" stroke="#000000" fill="#ffffff"/>
  <path id="svg_2" d="m451.502655,294.07309q63.092255,38.899139 126.037262,0m-112.36322,-76.826355c0,-6.011841 5.428772,-10.885406 12.125488,-10.885406c6.696777,0 12.12558,4.873566 12.12558,10.885406c0,6.011887 -5.428802,10.885406 -12.12558,10.885406c-6.696716,0 -12.125488,-4.87352 -12.125488,-10.885406m74.585388,0c0,-6.011841 5.428833,-10.885406 12.125549,-10.885406c6.696777,0 12.125488,4.873566 12.125488,10.885406c0,6.011887 -5.428711,10.885406 -12.125488,10.885406c-6.696655,0 -12.125549,-4.87352 -12.125549,-10.885406m-141.572174,31.253204l0,0c0,-57.713699 52.116302,-104.499939 116.40506,-104.499939c64.288635,0 116.405029,46.786224 116.405029,104.499939c0,57.713776 -52.116394,104.500061 -116.405029,104.500061c-64.288757,0 -116.40506,-46.786285 -116.40506,-104.500061zm0,0l0,0c0,-57.713699 52.116302,-104.499939 116.40506,-104.499939c64.288635,0 116.405029,46.786224 116.405029,104.499939c0,57.713776 -52.116394,104.500061 -116.405029,104.500061c-64.288757,0 -116.40506,-46.786285 -116.40506,-104.500061z" stroke-linecap="null" stroke-linejoin="null" stroke-width="5" stroke="#000000" fill="#ffffff"/>
  <path id="svg_3" d="m450.578522,133.426102q40.921448,28.10405 81.747467,0m-72.87851,-55.506187c0,-4.343468 3.521057,-7.864578 7.864563,-7.864578c4.343475,0 7.864594,3.521111 7.864594,7.864578c0,4.343498 -3.521118,7.864601 -7.864594,7.864601c-4.343506,0 -7.864563,-3.521103 -7.864563,-7.864601m48.375916,0c0,-4.343468 3.521118,-7.864578 7.864594,-7.864578c4.343506,0 7.864563,3.521111 7.864563,7.864578c0,4.343498 -3.521057,7.864601 -7.864563,7.864601c-4.343475,0 -7.864594,-3.521103 -7.864594,-7.864601m-91.823395,22.58007l0,0c0,-41.697487 33.80249,-75.499985 75.5,-75.499985c41.69751,0 75.5,33.802498 75.5,75.499985c0,41.69754 -33.80249,75.500015 -75.5,75.500015c-41.69751,0 -75.5,-33.802475 -75.5,-75.500015zm0,0l0,0c0,-41.697487 33.80249,-75.499985 75.5,-75.499985c41.69751,0 75.5,33.802498 75.5,75.499985c0,41.69754 -33.80249,75.500015 -75.5,75.500015c-41.69751,0 -75.5,-33.802475 -75.5,-75.500015z" stroke-linecap="null" stroke-linejoin="null" stroke-width="5" stroke="#000000" fill="#ffffff"/>
  <path id="svg_5" d="m281.845459,137.94133q47.154541,32.384827 94.199036,0m-83.979218,-63.960754c0,-5.005089 4.057434,-9.062531 9.062531,-9.062531c5.005066,0 9.0625,4.057442 9.0625,9.062531c0,5.005066 -4.057434,9.062477 -9.0625,9.062477c-5.005096,0 -9.062531,-4.057411 -9.062531,-9.062477m55.744476,0c0,-5.005089 4.057404,-9.062531 9.0625,-9.062531c5.005066,0 9.062469,4.057442 9.062469,9.062531c0,5.005066 -4.057404,9.062477 -9.062469,9.062477c-5.005096,0 -9.0625,-4.057411 -9.0625,-9.062477m-105.809753,26.019424l0,0c0,-48.048767 38.951233,-87 87.000031,-87c48.048767,0 86.999969,38.951225 86.999969,87c0,48.048782 -38.951202,87 -86.999969,87c-48.048798,0 -87.000031,-38.951218 -87.000031,-87zm0,0l0,0c0,-48.048767 38.951233,-87 87.000031,-87c48.048767,0 86.999969,38.951225 86.999969,87c0,48.048782 -38.951202,87 -86.999969,87c-48.048798,0 -87.000031,-38.951218 -87.000031,-87z" stroke-linecap="null" stroke-linejoin="null" stroke-width="5" stroke="#000000" fill="#ffffff"/>
  <path id="svg_6" d="m80.760956,317.292755q49.594055,34.06015 99.071686,0m-88.322205,-67.267883c0,-5.265411 4.267761,-9.533112 9.530365,-9.533112c5.265289,0 9.531311,4.2677 9.531311,9.533112c0,5.26358 -4.266022,9.531311 -9.531311,9.531311c-5.262604,0 -9.530365,-4.267731 -9.530365,-9.531311m58.627136,0c0,-5.265411 4.267853,-9.533112 9.531616,-9.533112c5.262268,0 9.530151,4.2677 9.530151,9.533112c0,5.26358 -4.267883,9.531311 -9.530151,9.531311c-5.263763,0 -9.531616,-4.267731 -9.531616,-9.531311m-111.282578,27.365143l0,0c0,-50.534454 40.965591,-91.500015 91.500015,-91.500015c50.53479,0 91.5,40.965561 91.5,91.500015c0,50.534302 -40.96521,91.5 -91.5,91.5c-50.534424,0 -91.500015,-40.965698 -91.500015,-91.5zm0,0l0,0c0,-50.534454 40.965591,-91.500015 91.500015,-91.500015c50.53479,0 91.5,40.965561 91.5,91.500015c0,50.534302 -40.96521,91.5 -91.5,91.5c-50.534424,0 -91.500015,-40.965698 -91.500015,-91.5z" stroke-linecap="null" stroke-linejoin="null" stroke-width="5" stroke="#000000" fill="#ffffff"/>
  <path id="svg_7" d="m241.516083,337.028595q73.983856,50.810699 147.794983,0m-131.760345,-100.352203c0,-7.852814 6.365906,-14.21875 14.21875,-14.21875c7.852753,0 14.21875,6.365936 14.21875,14.21875c0,7.852783 -6.365997,14.21875 -14.21875,14.21875c-7.852844,0 -14.21875,-6.365967 -14.21875,-14.21875m87.461182,0c0,-7.852814 6.365845,-14.21875 14.218597,-14.21875c7.852875,0 14.218781,6.365936 14.218781,14.21875c0,7.852783 -6.365906,14.21875 -14.218781,14.21875c-7.852722,0 -14.218597,-6.365967 -14.218597,-14.21875m-166.011902,40.823547l0,0c0,-75.386841 61.113098,-136.499939 136.499939,-136.499939c75.386902,0 136.500061,61.113098 136.500061,136.499939c0,75.386902 -61.113159,136.500061 -136.500061,136.500061c-75.386841,0 -136.499939,-61.113159 -136.499939,-136.500061zm0,0l0,0c0,-75.386841 61.113098,-136.499939 136.499939,-136.499939c75.386902,0 136.500061,61.113098 136.500061,136.499939c0,75.386902 -61.113159,136.500061 -136.500061,136.500061c-75.386841,0 -136.499939,-61.113159 -136.499939,-136.500061z" stroke-linecap="null" stroke-linejoin="null" stroke-width="5" stroke="#000000" fill="#00ff00"/>
  <path id="svg_8" d="m64.853592,120.47467q34.146408,23.451111 68.213104,0m-60.812546,-46.316338c0,-3.624382 2.938141,-6.562515 6.5625,-6.562515c3.62439,0 6.562485,2.938133 6.562485,6.562515c0,3.624359 -2.938095,6.562492 -6.562485,6.562492c-3.624359,0 -6.5625,-2.938133 -6.5625,-6.562492m40.366669,0c0,-3.624382 2.93811,-6.562515 6.5625,-6.562515c3.624374,0 6.562469,2.938133 6.562469,6.562515c0,3.624359 -2.938095,6.562492 -6.562469,6.562492c-3.62439,0 -6.5625,-2.938133 -6.5625,-6.562492m-76.620819,18.841667l0,0c0,-34.793953 28.206055,-63 63,-63c34.793884,0 63,28.206039 63,63c0,34.793884 -28.206116,63 -63,63c-34.793945,0 -63,-28.206116 -63,-63zm0,0l0,0c0,-34.793953 28.206055,-63 63,-63c34.793884,0 63,28.206039 63,63c0,34.793884 -28.206116,63 -63,63c-34.793945,0 -63,-28.206116 -63,-63z" stroke-linecap="null" stroke-linejoin="null" stroke-width="5" stroke="#000000" fill="#ffffff"/>
 </g>
</svg>